<svg width="174" height="42" viewBox="0 0 174 42" fill="none" xmlns="http://www.w3.org/2000/svg">
<path d="M4.42394 40.88C3.26661 40.88 2.23994 40.6 1.34394 40.04C0.447942 39.48 -5.7593e-05 38.5467 -5.7593e-05 37.24C-5.7593e-05 35.1867 0.429276 33.096 1.28794 30.968C2.18394 28.84 3.26661 26.7493 4.53594 24.696C5.84261 22.6053 7.13061 20.5707 8.39994 18.592C9.70661 16.6133 10.7893 14.728 11.6479 12.936C12.5439 11.144 12.9919 9.48267 12.9919 7.952C12.9919 6.72 12.6933 6.104 12.0959 6.104C11.6853 6.104 11.2186 6.44 10.6959 7.112C10.1733 7.74667 9.79994 8.69867 9.57594 9.968L8.95994 9.85601C8.95994 7.728 9.46394 5.936 10.4719 4.48C11.4799 2.98667 12.7679 1.86667 14.3359 1.12C15.9039 0.373338 17.5093 5.24521e-06 19.1519 5.24521e-06C21.0559 5.24521e-06 22.8293 0.541338 24.4719 1.624C26.1519 2.70667 27.3093 4.424 27.9439 6.776C28.2053 7.70934 28.3919 8.75467 28.5039 9.912C28.6533 11.0693 28.7466 12.0773 28.7839 12.936C28.8213 13.7573 28.8399 14.168 28.8399 14.168C28.9146 17.192 28.9706 19.7493 29.0079 21.84C29.0826 23.9307 29.1946 25.6853 29.3439 27.104C29.4933 28.5227 29.6986 29.7173 29.9599 30.688C30.2213 31.6213 30.5573 32.3867 30.9679 32.984C31.4159 33.544 31.9759 33.824 32.6479 33.824C33.2826 33.824 33.8239 33.6373 34.2719 33.264C34.7573 32.8907 35.0746 32.536 35.2239 32.2L35.6159 32.48C35.6159 34.1973 35.2799 35.6907 34.6079 36.96C33.9359 38.2293 33.0586 39.2 31.9759 39.872C30.8933 40.544 29.7546 40.88 28.5599 40.88C27.4026 40.88 26.2639 40.544 25.1439 39.872C24.0613 39.1627 23.1093 38.08 22.2879 36.624C21.4666 35.168 20.9253 33.2827 20.6639 30.968C19.5066 30.8933 18.3679 30.8373 17.2479 30.8C16.1653 30.7253 15.1759 30.688 14.2799 30.688C13.6826 30.688 13.1039 30.7067 12.5439 30.744C12.0213 30.744 11.4986 30.7627 10.9759 30.8C10.6399 31.9573 10.3599 33.1333 10.1359 34.328C9.94928 35.4853 9.85594 36.624 9.85594 37.744C9.85594 38.6027 9.29594 39.3493 8.17594 39.984C7.05594 40.5813 5.80528 40.88 4.42394 40.88ZM12.8239 25.592C13.7573 25.3307 14.7466 25.1627 15.7919 25.088C16.8373 24.976 17.9573 24.92 19.1519 24.92H20.3839C20.3093 22.1573 20.1973 19.32 20.0479 16.408C19.9359 13.496 19.4693 10.7893 18.6479 8.28801C18.3493 10.976 17.6026 13.7947 16.4079 16.744C15.2133 19.6933 14.0186 22.6427 12.8239 25.592ZM48.5633 41.048C46.0993 41.048 44.0087 40.488 42.2913 39.368C40.6113 38.248 39.342 36.792 38.4833 35C37.6247 33.1707 37.1953 31.2107 37.1953 29.12C37.1953 27.1413 37.5687 25.1627 38.3153 23.184C39.0993 21.2053 40.238 19.3947 41.7313 17.752C43.2247 16.072 45.0353 14.7467 47.1633 13.776C49.3287 12.768 51.8113 12.264 54.6113 12.264C57.374 12.264 59.4273 12.824 60.7713 13.944C62.1153 15.0267 62.7873 16.2213 62.7873 17.528C62.7873 18.9093 62.0967 20.1787 60.7153 21.336C59.334 22.4933 57.318 23.072 54.6673 23.072C54.8167 22.512 54.9287 21.952 55.0033 21.392C55.1153 20.7947 55.1713 20.2347 55.1713 19.712C55.1713 18.928 55.0033 18.2747 54.6673 17.752C54.3313 17.192 53.734 16.912 52.8753 16.912C52.0913 16.912 51.2513 17.2667 50.3553 17.976C49.4967 18.6853 48.75 19.7307 48.1153 21.112C47.518 22.4933 47.2193 24.192 47.2193 26.208C47.2193 28.1867 47.5367 29.792 48.1713 31.024C48.8433 32.256 49.702 33.152 50.7473 33.712C51.7927 34.2347 52.894 34.496 54.0513 34.496C55.582 34.496 57.0567 34.104 58.4753 33.32C59.894 32.4987 60.9207 31.3787 61.5553 29.96L62.1153 30.184C62.1153 32.1253 61.6673 33.7867 60.7713 35.168C59.9127 36.512 58.7927 37.632 57.4113 38.528C56.03 39.3867 54.5553 40.0213 52.9873 40.432C51.4193 40.8427 49.9447 41.048 48.5633 41.048ZM75.9618 41.048C73.4978 41.048 71.4071 40.488 69.6898 39.368C68.0098 38.248 66.7404 36.792 65.8818 35C65.0231 33.1707 64.5938 31.2107 64.5938 29.12C64.5938 27.1413 64.9671 25.1627 65.7138 23.184C66.4978 21.2053 67.6364 19.3947 69.1298 17.752C70.6231 16.072 72.4338 14.7467 74.5618 13.776C76.7271 12.768 79.2098 12.264 82.0098 12.264C84.7724 12.264 86.8258 12.824 88.1698 13.944C89.5138 15.0267 90.1858 16.2213 90.1858 17.528C90.1858 18.9093 89.4951 20.1787 88.1138 21.336C86.7324 22.4933 84.7164 23.072 82.0658 23.072C82.2151 22.512 82.3271 21.952 82.4018 21.392C82.5138 20.7947 82.5698 20.2347 82.5698 19.712C82.5698 18.928 82.4018 18.2747 82.0658 17.752C81.7298 17.192 81.1324 16.912 80.2738 16.912C79.4898 16.912 78.6498 17.2667 77.7538 17.976C76.8951 18.6853 76.1484 19.7307 75.5138 21.112C74.9164 22.4933 74.6178 24.192 74.6178 26.208C74.6178 28.1867 74.9351 29.792 75.5698 31.024C76.2418 32.256 77.1004 33.152 78.1458 33.712C79.1911 34.2347 80.2924 34.496 81.4498 34.496C82.9804 34.496 84.4551 34.104 85.8738 33.32C87.2924 32.4987 88.3191 31.3787 88.9538 29.96L89.5138 30.184C89.5138 32.1253 89.0658 33.7867 88.1698 35.168C87.3111 36.512 86.1911 37.632 84.8098 38.528C83.4284 39.3867 81.9538 40.0213 80.3858 40.432C78.8178 40.8427 77.3431 41.048 75.9618 41.048ZM104.592 41.048C101.867 41.048 99.6082 40.5067 97.8162 39.424C96.0242 38.304 94.6802 36.848 93.7842 35.056C92.8882 33.2267 92.4402 31.2667 92.4402 29.176C92.4402 27.1973 92.8135 25.2187 93.5602 23.24C94.3442 21.224 95.4642 19.3947 96.9202 17.752C98.4135 16.1093 100.206 14.784 102.296 13.776C104.424 12.768 106.814 12.264 109.464 12.264C112.75 12.264 115.139 13.0107 116.632 14.504C118.163 15.96 118.928 17.7333 118.928 19.824C118.928 21.616 118.443 23.2773 117.472 24.808C116.539 26.3013 115.288 27.5147 113.72 28.448C112.152 29.344 110.435 29.792 108.568 29.792C107.598 29.792 106.608 29.6427 105.6 29.344C104.592 29.0453 103.603 28.5787 102.632 27.944C102.819 30.2587 103.491 31.9387 104.648 32.984C105.806 34.0293 107.187 34.552 108.792 34.552C109.912 34.552 111.032 34.3467 112.152 33.936C113.272 33.488 114.299 32.928 115.232 32.256C116.203 31.5467 116.95 30.8 117.472 30.016L117.864 30.296C117.864 32.2373 117.454 33.8987 116.632 35.28C115.848 36.624 114.803 37.7253 113.496 38.584C112.19 39.4427 110.752 40.0773 109.184 40.488C107.654 40.8613 106.123 41.048 104.592 41.048ZM105.88 25.928C107.075 25.928 108.046 25.592 108.792 24.92C109.539 24.2107 110.099 23.3893 110.472 22.456C110.846 21.5227 111.032 20.7013 111.032 19.992C111.032 19.1333 110.79 18.424 110.304 17.864C109.819 17.2667 109.147 16.968 108.288 16.968C107.616 16.968 106.87 17.2107 106.048 17.696C105.264 18.1813 104.555 19.0213 103.92 20.216C103.286 21.3733 102.875 22.9973 102.688 25.088C103.883 25.648 104.947 25.928 105.88 25.928ZM131.275 41.16C128.961 41.16 127.038 40.8427 125.507 40.208C123.977 39.5733 122.838 38.7707 122.091 37.8C121.345 36.792 120.971 35.784 120.971 34.776C120.971 33.3573 121.606 32.1067 122.875 31.024C124.145 29.904 125.862 29.344 128.027 29.344C128.027 31.248 128.27 32.7787 128.755 33.936C129.241 35.056 129.857 35.8587 130.603 36.344C131.387 36.8293 132.134 37.072 132.843 37.072C133.702 37.072 134.411 36.8293 134.971 36.344C135.569 35.8213 135.867 35.1867 135.867 34.44C135.867 33.3947 135.326 32.48 134.243 31.696C133.161 30.912 131.761 30.0347 130.043 29.064C129.185 28.5413 128.251 27.944 127.243 27.272C126.235 26.5627 125.377 25.7227 124.667 24.752C123.958 23.744 123.603 22.5493 123.603 21.168C123.603 19.712 124.014 18.424 124.835 17.304C125.694 16.184 126.814 15.2507 128.195 14.504C129.577 13.72 131.07 13.1413 132.675 12.768C134.281 12.3573 135.849 12.152 137.379 12.152C140.254 12.152 142.419 12.7307 143.875 13.888C145.331 15.0453 146.059 16.2773 146.059 17.584C146.059 18.704 145.499 19.712 144.379 20.608C143.259 21.504 141.542 21.952 139.227 21.952C139.265 20.048 138.873 18.6667 138.051 17.808C137.23 16.912 136.353 16.464 135.419 16.464C134.747 16.464 134.187 16.6693 133.739 17.08C133.291 17.4907 133.067 18.088 133.067 18.872C133.067 19.768 133.347 20.552 133.907 21.224C134.505 21.8587 135.233 22.4373 136.091 22.96C136.987 23.4453 137.902 23.912 138.835 24.36C140.105 24.9573 141.299 25.592 142.419 26.264C143.539 26.936 144.454 27.7013 145.163 28.56C145.873 29.4187 146.227 30.464 146.227 31.696C146.227 33.376 145.537 34.944 144.155 36.4C142.811 37.8187 141.001 38.976 138.723 39.872C136.446 40.7307 133.963 41.16 131.275 41.16ZM159.002 41.16C156.687 41.16 154.765 40.8427 153.234 40.208C151.703 39.5733 150.565 38.7707 149.818 37.8C149.071 36.792 148.698 35.784 148.698 34.776C148.698 33.3573 149.333 32.1067 150.602 31.024C151.871 29.904 153.589 29.344 155.754 29.344C155.754 31.248 155.997 32.7787 156.482 33.936C156.967 35.056 157.583 35.8587 158.33 36.344C159.114 36.8293 159.861 37.072 160.57 37.072C161.429 37.072 162.138 36.8293 162.698 36.344C163.295 35.8213 163.594 35.1867 163.594 34.44C163.594 33.3947 163.053 32.48 161.97 31.696C160.887 30.912 159.487 30.0347 157.77 29.064C156.911 28.5413 155.978 27.944 154.97 27.272C153.962 26.5627 153.103 25.7227 152.394 24.752C151.685 23.744 151.33 22.5493 151.33 21.168C151.33 19.712 151.741 18.424 152.562 17.304C153.421 16.184 154.541 15.2507 155.922 14.504C157.303 13.72 158.797 13.1413 160.402 12.768C162.007 12.3573 163.575 12.152 165.106 12.152C167.981 12.152 170.146 12.7307 171.602 13.888C173.058 15.0453 173.786 16.2773 173.786 17.584C173.786 18.704 173.226 19.712 172.106 20.608C170.986 21.504 169.269 21.952 166.954 21.952C166.991 20.048 166.599 18.6667 165.778 17.808C164.957 16.912 164.079 16.464 163.146 16.464C162.474 16.464 161.914 16.6693 161.466 17.08C161.018 17.4907 160.794 18.088 160.794 18.872C160.794 19.768 161.074 20.552 161.634 21.224C162.231 21.8587 162.959 22.4373 163.818 22.96C164.714 23.4453 165.629 23.912 166.562 24.36C167.831 24.9573 169.026 25.592 170.146 26.264C171.266 26.936 172.181 27.7013 172.89 28.56C173.599 29.4187 173.954 30.464 173.954 31.696C173.954 33.376 173.263 34.944 171.882 36.4C170.538 37.8187 168.727 38.976 166.45 39.872C164.173 40.7307 161.69 41.16 159.002 41.16Z" fill="#FEC46E"/>
</svg>
