<svg width="172" height="41" viewBox="0 0 172 41" fill="none" xmlns="http://www.w3.org/2000/svg">
<path d="M35.056 35.056C35.5413 36.288 36.1013 37.184 36.736 37.744C37.3706 38.304 37.9866 38.6027 38.584 38.64V39.76C36.344 39.648 33.5066 39.592 30.072 39.592C26.264 39.592 23.4266 39.648 21.56 39.76V38.64C22.9786 38.5653 23.9866 38.3973 24.584 38.136C25.1813 37.8373 25.48 37.3333 25.48 36.624C25.48 35.952 25.256 35.056 24.808 33.936L21.448 24.752H9.23997L7.78397 28.616C6.73863 31.304 6.21597 33.376 6.21597 34.832C6.21597 36.2133 6.62663 37.184 7.44797 37.744C8.30663 38.2667 9.5573 38.5653 11.2 38.64V39.76C8.6613 39.648 6.34663 39.592 4.25597 39.592C2.53863 39.592 1.11997 39.648 -3.42131e-05 39.76V38.64C1.8293 38.304 3.43463 36.344 4.81597 32.76L17.584 7.62939e-06C17.9946 0.0373405 18.648 0.0560069 19.544 0.0560069C20.44 0.0560069 21.0746 0.0373405 21.448 7.62939e-06L35.056 35.056ZM21.056 23.632L15.512 8.51201L9.68797 23.632H21.056ZM54.0955 10.024C55.4769 10.024 56.7835 10.1733 58.0155 10.472C59.2475 10.7707 60.2742 11.1813 61.0955 11.704C62.0662 12.3013 62.8129 13.0667 63.3355 14C63.8955 14.896 64.1755 15.8853 64.1755 16.968C64.1755 18.2747 63.7649 19.3573 62.9435 20.216C62.1222 21.0373 61.0582 21.448 59.7515 21.448C58.4449 21.448 57.3995 21.0747 56.6155 20.328C55.8315 19.5813 55.4395 18.5733 55.4395 17.304C55.4395 16.184 55.7942 15.2133 56.5035 14.392C57.2129 13.5707 58.0902 13.0107 59.1355 12.712C58.8369 12.3013 58.3702 11.984 57.7355 11.76C57.1382 11.4987 56.4849 11.368 55.7755 11.368C53.5355 11.368 51.7809 12.6 50.5115 15.064C49.2795 17.4907 48.6635 20.6827 48.6635 24.64C48.6635 28.6347 49.3729 31.5093 50.7915 33.264C52.2102 35.0187 53.9835 35.896 56.1115 35.896C57.3809 35.896 58.6502 35.56 59.9195 34.888C61.2262 34.216 62.4022 33.04 63.4475 31.36L64.3995 31.696C63.6529 34.1227 62.3462 36.2133 60.4795 37.968C58.6129 39.6853 56.2049 40.544 53.2555 40.544C49.4102 40.544 46.2742 39.2747 43.8475 36.736C41.4209 34.1973 40.2075 30.4267 40.2075 25.424C40.2075 22.1387 40.8049 19.3387 41.9995 17.024C43.1942 14.7093 44.8369 12.9733 46.9275 11.816C49.0182 10.6213 51.4075 10.024 54.0955 10.024ZM81.8768 10.024C83.2581 10.024 84.5648 10.1733 85.7968 10.472C87.0288 10.7707 88.0554 11.1813 88.8768 11.704C89.8474 12.3013 90.5941 13.0667 91.1168 14C91.6768 14.896 91.9568 15.8853 91.9568 16.968C91.9568 18.2747 91.5461 19.3573 90.7248 20.216C89.9034 21.0373 88.8394 21.448 87.5328 21.448C86.2261 21.448 85.1808 21.0747 84.3968 20.328C83.6128 19.5813 83.2208 18.5733 83.2208 17.304C83.2208 16.184 83.5754 15.2133 84.2848 14.392C84.9941 13.5707 85.8714 13.0107 86.9168 12.712C86.6181 12.3013 86.1514 11.984 85.5168 11.76C84.9194 11.4987 84.2661 11.368 83.5568 11.368C81.3168 11.368 79.5621 12.6 78.2928 15.064C77.0608 17.4907 76.4448 20.6827 76.4448 24.64C76.4448 28.6347 77.1541 31.5093 78.5728 33.264C79.9914 35.0187 81.7648 35.896 83.8928 35.896C85.1621 35.896 86.4314 35.56 87.7008 34.888C89.0074 34.216 90.1834 33.04 91.2288 31.36L92.1808 31.696C91.4341 34.1227 90.1274 36.2133 88.2608 37.968C86.3941 39.6853 83.9861 40.544 81.0368 40.544C77.1914 40.544 74.0554 39.2747 71.6288 36.736C69.2021 34.1973 67.9888 30.4267 67.9888 25.424C67.9888 22.1387 68.5861 19.3387 69.7808 17.024C70.9754 14.7093 72.6181 12.9733 74.7088 11.816C76.7994 10.6213 79.1888 10.024 81.8768 10.024ZM111.562 35.952C114.623 35.952 117.087 34.4587 118.954 31.472L119.962 31.808C119.215 34.2347 117.871 36.3067 115.93 38.024C114.026 39.704 111.637 40.544 108.762 40.544C104.805 40.544 101.65 39.2933 99.298 36.792C96.9834 34.2533 95.826 30.52 95.826 25.592C95.826 20.552 97.0767 16.7067 99.578 14.056C102.079 11.368 105.402 10.024 109.546 10.024C116.565 10.024 120.074 14.168 120.074 22.456H104.338C104.301 23.016 104.282 23.8933 104.282 25.088C104.282 27.552 104.618 29.6053 105.29 31.248C105.999 32.8907 106.895 34.0853 107.978 34.832C109.098 35.5787 110.293 35.952 111.562 35.952ZM109.21 11.2C107.866 11.2 106.746 12.04 105.85 13.72C104.991 15.3627 104.45 17.92 104.226 21.392H113.018C113.093 18.4427 112.794 16.016 112.122 14.112C111.487 12.1707 110.517 11.2 109.21 11.2ZM134.405 10.024C135.823 10.024 137.13 10.2107 138.325 10.584C139.519 10.92 140.434 11.312 141.069 11.76C141.442 12.0213 141.778 12.152 142.077 12.152C142.413 12.152 142.693 11.984 142.917 11.648C143.178 11.2747 143.346 10.752 143.421 10.08H144.597C144.447 11.984 144.373 15.2693 144.373 19.936H143.197C142.861 17.472 142.114 15.4187 140.957 13.776C139.837 12.096 138.194 11.256 136.029 11.256C134.909 11.256 133.975 11.5733 133.229 12.208C132.519 12.8427 132.165 13.72 132.165 14.84C132.165 16.1093 132.594 17.2107 133.453 18.144C134.311 19.04 135.655 20.1413 137.485 21.448L139.109 22.624C141.386 24.3413 143.066 25.872 144.149 27.216C145.231 28.56 145.773 30.24 145.773 32.256C145.773 33.8987 145.287 35.3547 144.317 36.624C143.383 37.8933 142.114 38.864 140.509 39.536C138.903 40.208 137.13 40.544 135.189 40.544C133.135 40.544 131.381 40.152 129.925 39.368C128.73 38.7707 127.871 38.3787 127.349 38.192C126.975 38.08 126.639 38.2107 126.341 38.584C126.079 38.92 125.874 39.4427 125.725 40.152H124.549C124.698 38.024 124.773 34.2907 124.773 28.952H125.949C126.695 35.8213 129.215 39.256 133.509 39.256C134.591 39.256 135.506 38.9387 136.253 38.304C137.037 37.632 137.429 36.624 137.429 35.28C137.429 34.2347 137.186 33.3013 136.701 32.48C136.253 31.6587 135.674 30.9307 134.965 30.296C134.255 29.6613 133.191 28.784 131.773 27.664C130.093 26.32 128.805 25.2373 127.909 24.416C127.05 23.5947 126.303 22.624 125.669 21.504C125.071 20.384 124.773 19.1333 124.773 17.752C124.773 15.3627 125.706 13.4773 127.573 12.096C129.439 10.7147 131.717 10.024 134.405 10.024ZM160.272 10.024C161.691 10.024 162.997 10.2107 164.192 10.584C165.387 10.92 166.301 11.312 166.936 11.76C167.309 12.0213 167.645 12.152 167.944 12.152C168.28 12.152 168.56 11.984 168.784 11.648C169.045 11.2747 169.213 10.752 169.288 10.08H170.464C170.315 11.984 170.24 15.2693 170.24 19.936H169.064C168.728 17.472 167.981 15.4187 166.824 13.776C165.704 12.096 164.061 11.256 161.896 11.256C160.776 11.256 159.843 11.5733 159.096 12.208C158.387 12.8427 158.032 13.72 158.032 14.84C158.032 16.1093 158.461 17.2107 159.32 18.144C160.179 19.04 161.523 20.1413 163.352 21.448L164.976 22.624C167.253 24.3413 168.933 25.872 170.016 27.216C171.099 28.56 171.64 30.24 171.64 32.256C171.64 33.8987 171.155 35.3547 170.184 36.624C169.251 37.8933 167.981 38.864 166.376 39.536C164.771 40.208 162.997 40.544 161.056 40.544C159.003 40.544 157.248 40.152 155.792 39.368C154.597 38.7707 153.739 38.3787 153.216 38.192C152.843 38.08 152.507 38.2107 152.208 38.584C151.947 38.92 151.741 39.4427 151.592 40.152H150.416C150.565 38.024 150.64 34.2907 150.64 28.952H151.816C152.563 35.8213 155.083 39.256 159.376 39.256C160.459 39.256 161.373 38.9387 162.12 38.304C162.904 37.632 163.296 36.624 163.296 35.28C163.296 34.2347 163.053 33.3013 162.568 32.48C162.12 31.6587 161.541 30.9307 160.832 30.296C160.123 29.6613 159.059 28.784 157.64 27.664C155.96 26.32 154.672 25.2373 153.776 24.416C152.917 23.5947 152.171 22.624 151.536 21.504C150.939 20.384 150.64 19.1333 150.64 17.752C150.64 15.3627 151.573 13.4773 153.44 12.096C155.307 10.7147 157.584 10.024 160.272 10.024Z" fill="#FEC46E"/>
</svg>
