<svg width="290" height="42" viewBox="0 0 290 42" fill="none" xmlns="http://www.w3.org/2000/svg">
<path d="M4.42394 40.8798C3.26661 40.8798 2.23994 40.5998 1.34394 40.0398C0.447942 39.4798 -5.7593e-05 38.5464 -5.7593e-05 37.2398C-5.7593e-05 35.1864 0.429276 33.0958 1.28794 30.9678C2.18394 28.8398 3.26661 26.7491 4.53594 24.6958C5.84261 22.6051 7.13061 20.5704 8.39994 18.5918C9.70661 16.6131 10.7893 14.7278 11.6479 12.9358C12.5439 11.1438 12.9919 9.48243 12.9919 7.95176C12.9919 6.71976 12.6933 6.10376 12.0959 6.10376C11.6853 6.10376 11.2186 6.43976 10.6959 7.11176C10.1733 7.74643 9.79994 8.69843 9.57594 9.96776L8.95994 9.85576C8.95994 7.72776 9.46394 5.93576 10.4719 4.47976C11.4799 2.98643 12.7679 1.86643 14.3359 1.11976C15.9039 0.373094 17.5093 -0.000238895 19.1519 -0.000238895C21.0559 -0.000238895 22.8293 0.541094 24.4719 1.62376C26.1519 2.70643 27.3093 4.42376 27.9439 6.77576C28.2053 7.70909 28.3919 8.75443 28.5039 9.91176C28.6533 11.0691 28.7466 12.0771 28.7839 12.9358C28.8213 13.7571 28.8399 14.1678 28.8399 14.1678C28.9146 17.1918 28.9706 19.7491 29.0079 21.8398C29.0826 23.9304 29.1946 25.6851 29.3439 27.1038C29.4933 28.5224 29.6986 29.7171 29.9599 30.6878C30.2213 31.6211 30.5573 32.3864 30.9679 32.9838C31.4159 33.5438 31.9759 33.8238 32.6479 33.8238C33.2826 33.8238 33.8239 33.6371 34.2719 33.2638C34.7573 32.8904 35.0746 32.5358 35.2239 32.1998L35.6159 32.4798C35.6159 34.1971 35.2799 35.6904 34.6079 36.9598C33.9359 38.2291 33.0586 39.1998 31.9759 39.8718C30.8933 40.5438 29.7546 40.8798 28.5599 40.8798C27.4026 40.8798 26.2639 40.5438 25.1439 39.8718C24.0613 39.1624 23.1093 38.0798 22.2879 36.6238C21.4666 35.1678 20.9253 33.2824 20.6639 30.9678C19.5066 30.8931 18.3679 30.8371 17.2479 30.7998C16.1653 30.7251 15.1759 30.6878 14.2799 30.6878C13.6826 30.6878 13.1039 30.7064 12.5439 30.7438C12.0213 30.7438 11.4986 30.7624 10.9759 30.7998C10.6399 31.9571 10.3599 33.1331 10.1359 34.3278C9.94928 35.4851 9.85594 36.6238 9.85594 37.7438C9.85594 38.6024 9.29594 39.3491 8.17594 39.9838C7.05594 40.5811 5.80528 40.8798 4.42394 40.8798ZM12.8239 25.5918C13.7573 25.3304 14.7466 25.1624 15.7919 25.0878C16.8373 24.9758 17.9573 24.9198 19.1519 24.9198H20.3839C20.3093 22.1571 20.1973 19.3198 20.0479 16.4078C19.9359 13.4958 19.4693 10.7891 18.6479 8.28776C18.3493 10.9758 17.6026 13.7944 16.4079 16.7438C15.2133 19.6931 14.0186 22.6424 12.8239 25.5918ZM45.3792 40.8798C44.1845 40.8798 43.0459 40.6184 41.9632 40.0958C40.9179 39.5358 40.0592 38.6771 39.3872 37.5198C38.7525 36.3624 38.4352 34.8878 38.4352 33.0958C38.4352 32.1251 38.5285 30.8558 38.7152 29.2878C38.9019 27.7198 39.1445 26.0024 39.4432 24.1358C39.7792 22.2691 40.1152 20.4024 40.4512 18.5358C39.7045 18.5731 38.9765 18.6478 38.2672 18.7598C37.5952 18.8718 36.9232 19.0024 36.2512 19.1518L36.1392 18.7598C36.8859 17.8638 37.6699 17.0984 38.4912 16.4638C39.3125 15.8291 40.1712 15.3064 41.0672 14.8958C41.5525 12.4318 41.9632 10.3038 42.2992 8.51176C42.6352 6.68243 42.8032 5.59976 42.8032 5.26376C42.8032 4.62909 43.2885 4.10643 44.2592 3.69576C45.2672 3.28509 46.3872 3.07976 47.6192 3.07976C48.7019 3.07976 49.7099 3.28509 50.6432 3.69576C51.6139 4.10643 52.2672 4.79709 52.6032 5.76776C52.3792 5.99176 52.0619 6.83176 51.6512 8.28776C51.2405 9.70643 50.8112 11.4424 50.3632 13.4958C51.0725 13.5331 51.8005 13.5704 52.5472 13.6078C53.2939 13.6451 54.0592 13.7011 54.8432 13.7758C54.9179 13.9998 54.9739 14.2424 55.0112 14.5038C55.0485 14.7651 55.0672 15.0451 55.0672 15.3438C55.0672 15.9038 54.9739 16.5198 54.7872 17.1918C54.6379 17.8264 54.4512 18.4051 54.2272 18.9278C53.3312 18.8531 52.4912 18.7784 51.7072 18.7038C50.9232 18.5918 50.1579 18.5171 49.4112 18.4798C49.1125 20.0851 48.8325 21.6904 48.5712 23.2958C48.3472 24.9011 48.1605 26.3571 48.0112 27.6638C47.8992 28.9704 47.8432 29.9971 47.8432 30.7438C47.8432 32.3118 48.1232 33.3571 48.6832 33.8798C49.2805 34.4024 49.9899 34.6638 50.8112 34.6638C51.5579 34.6638 52.2299 34.5144 52.8272 34.2158C53.4245 33.9171 53.8539 33.5624 54.1152 33.1518L54.6752 33.3198C54.4512 34.8504 53.8539 36.1944 52.8832 37.3518C51.9125 38.4718 50.7552 39.3491 49.4112 39.9838C48.0672 40.5811 46.7232 40.8798 45.3792 40.8798ZM65.1214 40.8798C63.9267 40.8798 62.788 40.6184 61.7054 40.0958C60.66 39.5358 59.8014 38.6771 59.1294 37.5198C58.4947 36.3624 58.1774 34.8878 58.1774 33.0958C58.1774 32.1251 58.2707 30.8558 58.4574 29.2878C58.644 27.7198 58.8867 26.0024 59.1854 24.1358C59.5214 22.2691 59.8574 20.4024 60.1934 18.5358C59.4467 18.5731 58.7187 18.6478 58.0094 18.7598C57.3374 18.8718 56.6654 19.0024 55.9934 19.1518L55.8814 18.7598C56.628 17.8638 57.412 17.0984 58.2334 16.4638C59.0547 15.8291 59.9134 15.3064 60.8094 14.8958C61.2947 12.4318 61.7054 10.3038 62.0414 8.51176C62.3774 6.68243 62.5454 5.59976 62.5454 5.26376C62.5454 4.62909 63.0307 4.10643 64.0014 3.69576C65.0094 3.28509 66.1294 3.07976 67.3614 3.07976C68.444 3.07976 69.452 3.28509 70.3854 3.69576C71.356 4.10643 72.0094 4.79709 72.3454 5.76776C72.1214 5.99176 71.804 6.83176 71.3934 8.28776C70.9827 9.70643 70.5534 11.4424 70.1054 13.4958C70.8147 13.5331 71.5427 13.5704 72.2894 13.6078C73.036 13.6451 73.8014 13.7011 74.5854 13.7758C74.66 13.9998 74.716 14.2424 74.7534 14.5038C74.7907 14.7651 74.8094 15.0451 74.8094 15.3438C74.8094 15.9038 74.716 16.5198 74.5294 17.1918C74.38 17.8264 74.1934 18.4051 73.9694 18.9278C73.0734 18.8531 72.2334 18.7784 71.4494 18.7038C70.6654 18.5918 69.9 18.5171 69.1534 18.4798C68.8547 20.0851 68.5747 21.6904 68.3134 23.2958C68.0894 24.9011 67.9027 26.3571 67.7534 27.6638C67.6414 28.9704 67.5854 29.9971 67.5854 30.7438C67.5854 32.3118 67.8654 33.3571 68.4254 33.8798C69.0227 34.4024 69.732 34.6638 70.5534 34.6638C71.3 34.6638 71.972 34.5144 72.5694 34.2158C73.1667 33.9171 73.596 33.5624 73.8574 33.1518L74.4174 33.3198C74.1934 34.8504 73.596 36.1944 72.6254 37.3518C71.6547 38.4718 70.4974 39.3491 69.1534 39.9838C67.8094 40.5811 66.4654 40.8798 65.1214 40.8798ZM88.35 41.0478C85.6247 41.0478 83.366 40.5064 81.574 39.4238C79.782 38.3038 78.438 36.8478 77.542 35.0558C76.646 33.2264 76.198 31.2664 76.198 29.1758C76.198 27.1971 76.5713 25.2184 77.318 23.2398C78.102 21.2238 79.222 19.3944 80.678 17.7518C82.1713 16.1091 83.9633 14.7838 86.054 13.7758C88.182 12.7678 90.5713 12.2638 93.222 12.2638C96.5073 12.2638 98.8967 13.0104 100.39 14.5038C101.921 15.9598 102.686 17.7331 102.686 19.8238C102.686 21.6158 102.201 23.2771 101.23 24.8078C100.297 26.3011 99.046 27.5144 97.478 28.4478C95.91 29.3438 94.1927 29.7918 92.326 29.7918C91.3553 29.7918 90.366 29.6424 89.358 29.3438C88.35 29.0451 87.3607 28.5784 86.39 27.9438C86.5767 30.2584 87.2487 31.9384 88.406 32.9838C89.5633 34.0291 90.9447 34.5518 92.55 34.5518C93.67 34.5518 94.79 34.3464 95.91 33.9358C97.03 33.4878 98.0567 32.9278 98.99 32.2558C99.9607 31.5464 100.707 30.7998 101.23 30.0158L101.622 30.2958C101.622 32.2371 101.211 33.8984 100.39 35.2798C99.606 36.6238 98.5607 37.7251 97.254 38.5838C95.9473 39.4424 94.51 40.0771 92.942 40.4878C91.4113 40.8611 89.8807 41.0478 88.35 41.0478ZM89.638 25.9278C90.8327 25.9278 91.8033 25.5918 92.55 24.9198C93.2967 24.2104 93.8567 23.3891 94.23 22.4558C94.6033 21.5224 94.79 20.7011 94.79 19.9918C94.79 19.1331 94.5473 18.4238 94.062 17.8638C93.5767 17.2664 92.9047 16.9678 92.046 16.9678C91.374 16.9678 90.6273 17.2104 89.806 17.6958C89.022 18.1811 88.3127 19.0211 87.678 20.2158C87.0433 21.3731 86.6327 22.9971 86.446 25.0878C87.6407 25.6478 88.7047 25.9278 89.638 25.9278ZM112.175 40.8238C110.793 40.8238 109.543 40.2824 108.423 39.1998C107.303 38.0798 106.743 36.5304 106.743 34.5518C106.743 33.5811 106.873 32.4798 107.135 31.2478C107.396 30.0158 107.676 28.7651 107.975 27.4958C108.311 26.2264 108.609 25.0318 108.871 23.9118C109.132 22.7918 109.263 21.8771 109.263 21.1678C109.263 20.4211 109.113 19.8424 108.815 19.4318C108.516 18.9838 108.124 18.7598 107.639 18.7598C107.004 18.7598 106.313 19.1331 105.567 19.8798L105.231 19.6558C105.193 19.0584 105.324 18.3491 105.623 17.5278C105.921 16.7064 106.369 15.9224 106.967 15.1758C107.601 14.3918 108.404 13.7384 109.375 13.2158C110.345 12.6931 111.503 12.4318 112.847 12.4318C114.825 12.4318 116.281 13.0104 117.215 14.1678C118.185 15.2878 118.671 16.6691 118.671 18.3118C118.671 18.9091 118.615 19.4878 118.503 20.0478C119.287 18.8904 120.257 17.7331 121.415 16.5758C122.572 15.3811 123.841 14.3918 125.223 13.6078C126.641 12.8238 128.097 12.4318 129.591 12.4318C131.345 12.4318 132.54 12.9918 133.175 14.1118C133.809 15.2318 134.127 16.6318 134.127 18.3118C134.127 19.8798 133.959 21.5598 133.623 23.3518C133.287 25.1438 132.951 26.8798 132.615 28.5598C132.279 30.2024 132.111 31.5838 132.111 32.7038C132.111 34.1971 132.54 34.9438 133.399 34.9438C133.847 34.9438 134.239 34.8131 134.575 34.5518C134.911 34.2531 135.135 33.9731 135.247 33.7118L135.639 33.8798C135.639 35.2611 135.247 36.4744 134.463 37.5198C133.716 38.5651 132.764 39.3864 131.607 39.9838C130.449 40.5438 129.273 40.8238 128.079 40.8238C126.623 40.8238 125.335 40.3198 124.215 39.3118C123.095 38.3038 122.535 36.6611 122.535 34.3838C122.535 33.0398 122.703 31.5838 123.039 30.0158C123.412 28.4478 123.767 26.9358 124.103 25.4798C124.439 24.0238 124.607 22.8291 124.607 21.8958C124.607 21.3358 124.495 20.9064 124.271 20.6078C124.084 20.2718 123.729 20.1038 123.207 20.1038C122.348 20.1038 121.396 20.4958 120.351 21.2798C119.343 22.0638 118.465 23.1091 117.719 24.4158C117.009 25.7224 116.655 27.1598 116.655 28.7278C116.655 29.7358 116.767 30.7064 116.991 31.6398C117.252 32.5731 117.383 33.5811 117.383 34.6638C117.383 36.6798 116.86 38.2104 115.815 39.2558C114.769 40.3011 113.556 40.8238 112.175 40.8238ZM146.607 40.8798C145.263 40.8798 143.994 40.4131 142.799 39.4798C141.642 38.5464 140.69 37.1838 139.943 35.3918C139.234 33.5998 138.879 31.4344 138.879 28.8958C138.879 26.2824 139.252 23.9491 139.999 21.8958C140.746 19.8424 141.716 18.1064 142.911 16.6878C144.143 15.2318 145.468 14.1304 146.887 13.3838C148.343 12.6371 149.762 12.2638 151.143 12.2638C152.674 12.2638 154.036 12.7491 155.231 13.7198C156.426 14.6531 157.247 16.1278 157.695 18.1438C158.031 16.2771 158.311 14.5038 158.535 12.8238C158.796 11.1064 158.927 9.59443 158.927 8.28776C158.927 6.57043 158.703 5.31976 158.255 4.53576V4.19976C159.114 3.22909 160.047 2.51976 161.055 2.07176C162.1 1.58643 163.09 1.34376 164.023 1.34376C165.255 1.34376 166.3 1.73576 167.159 2.51976C168.018 3.26643 168.447 4.34909 168.447 5.76776C168.447 6.55176 168.316 7.70909 168.055 9.23976C167.794 10.7704 167.476 12.5251 167.103 14.5038C166.73 16.4451 166.338 18.4611 165.927 20.5518C165.554 22.6051 165.236 24.5838 164.975 26.4878C164.714 28.3544 164.583 29.9784 164.583 31.3598C164.583 32.5171 164.695 33.4504 164.919 34.1598C165.18 34.8318 165.591 35.1678 166.151 35.1678C166.562 35.1678 166.972 35.0371 167.383 34.7758C167.831 34.4771 168.13 34.1411 168.279 33.7678L168.671 34.0478C168.671 35.2798 168.279 36.4184 167.495 37.4638C166.711 38.4718 165.722 39.2931 164.527 39.9278C163.332 40.5624 162.1 40.8798 160.831 40.8798C159.45 40.8798 158.348 40.5064 157.527 39.7598C156.743 38.9758 156.183 37.9864 155.847 36.7918C155.511 35.5971 155.324 34.3651 155.287 33.0958C154.13 35.7838 152.767 37.7624 151.199 39.0318C149.668 40.2638 148.138 40.8798 146.607 40.8798ZM150.359 33.7678C151.33 33.7678 152.412 32.8904 153.607 31.1358C154.802 29.3811 155.847 26.8238 156.743 23.4638L157.079 21.7278C156.482 20.3464 155.828 19.3758 155.119 18.8158C154.447 18.2184 153.794 17.9198 153.159 17.9198C152.226 17.9198 151.348 18.4424 150.527 19.4878C149.706 20.4958 149.034 21.8024 148.511 23.4078C148.026 24.9758 147.783 26.6371 147.783 28.3918C147.783 30.0718 148.026 31.3971 148.511 32.3678C148.996 33.3011 149.612 33.7678 150.359 33.7678ZM191.577 40.9358C190.27 40.9358 189.131 40.5064 188.161 39.6478C187.19 38.7891 186.705 37.3891 186.705 35.4478C186.705 35.2611 186.705 35.0744 186.705 34.8878C186.705 34.7011 186.723 34.5144 186.761 34.3278C185.641 36.5678 184.371 38.2291 182.953 39.3118C181.571 40.3571 180.171 40.8798 178.753 40.8798C177.446 40.8798 176.214 40.4318 175.057 39.5358C173.899 38.6024 172.966 37.2398 172.257 35.4478C171.547 33.6558 171.193 31.4904 171.193 28.9518C171.193 26.3384 171.547 24.0051 172.257 21.9518C173.003 19.8984 173.974 18.1624 175.169 16.7438C176.363 15.3251 177.67 14.2611 179.089 13.5518C180.507 12.8051 181.889 12.4318 183.233 12.4318C184.726 12.4318 186.07 12.8984 187.265 13.8318C188.459 14.7278 189.281 16.1651 189.729 18.1438C189.841 17.5091 189.915 16.9304 189.953 16.4078C190.027 15.8851 190.065 15.5304 190.065 15.3438C190.102 14.3358 190.606 13.5891 191.577 13.1038C192.585 12.6184 193.686 12.3758 194.881 12.3758C195.926 12.3758 196.915 12.5811 197.849 12.9918C198.782 13.4024 199.417 14.0931 199.753 15.0638L199.865 15.3998C199.417 16.4078 198.969 17.6211 198.521 19.0398C198.073 20.4584 197.662 21.9518 197.289 23.5198C196.915 25.0504 196.617 26.5624 196.393 28.0558C196.169 29.5118 196.057 30.7998 196.057 31.9198C196.057 33.1518 196.187 34.0104 196.449 34.4958C196.71 34.9438 197.027 35.1678 197.401 35.1678C198.035 35.1678 198.614 34.7198 199.137 33.8238L199.585 34.0478C199.585 35.3171 199.174 36.4744 198.353 37.5198C197.531 38.5651 196.505 39.4051 195.273 40.0398C194.041 40.6371 192.809 40.9358 191.577 40.9358ZM182.449 33.8238C183.419 33.8238 184.483 32.9651 185.641 31.2478C186.835 29.4931 187.862 26.9918 188.721 23.7438C188.795 23.4078 188.87 23.0904 188.945 22.7918C189.019 22.4558 189.075 22.1384 189.113 21.8398C188.515 20.4584 187.881 19.4878 187.209 18.9278C186.574 18.3304 185.939 18.0318 185.305 18.0318C184.371 18.0318 183.494 18.5358 182.673 19.5438C181.889 20.5144 181.235 21.7464 180.713 23.2398C180.227 24.7331 179.985 26.2264 179.985 27.7198C179.985 29.7731 180.209 31.3038 180.657 32.3118C181.142 33.3198 181.739 33.8238 182.449 33.8238ZM209.354 40.8238C207.973 40.8238 206.722 40.2824 205.602 39.1998C204.482 38.0798 203.922 36.5304 203.922 34.5518C203.922 33.5811 204.053 32.4798 204.314 31.2478C204.576 30.0158 204.856 28.7651 205.154 27.4958C205.49 26.2264 205.789 25.0318 206.05 23.9118C206.312 22.7918 206.442 21.8771 206.442 21.1678C206.442 20.4211 206.293 19.8424 205.994 19.4318C205.696 18.9838 205.304 18.7598 204.818 18.7598C204.184 18.7598 203.493 19.1331 202.746 19.8798L202.41 19.6558C202.373 19.0584 202.504 18.3491 202.802 17.5278C203.101 16.7064 203.549 15.9224 204.146 15.1758C204.781 14.3918 205.584 13.7384 206.554 13.2158C207.525 12.6931 208.682 12.4318 210.026 12.4318C212.005 12.4318 213.461 13.0104 214.394 14.1678C215.365 15.2878 215.85 16.6691 215.85 18.3118C215.85 18.9091 215.794 19.4878 215.682 20.0478C216.466 18.8904 217.437 17.7331 218.594 16.5758C219.752 15.3811 221.021 14.3918 222.402 13.6078C223.821 12.8238 225.277 12.4318 226.77 12.4318C228.525 12.4318 229.72 12.9918 230.354 14.1118C230.989 15.2318 231.306 16.6318 231.306 18.3118C231.306 19.8798 231.138 21.5598 230.802 23.3518C230.466 25.1438 230.13 26.8798 229.794 28.5598C229.458 30.2024 229.29 31.5838 229.29 32.7038C229.29 34.1971 229.72 34.9438 230.578 34.9438C231.026 34.9438 231.418 34.8131 231.754 34.5518C232.09 34.2531 232.314 33.9731 232.426 33.7118L232.818 33.8798C232.818 35.2611 232.426 36.4744 231.642 37.5198C230.896 38.5651 229.944 39.3864 228.786 39.9838C227.629 40.5438 226.453 40.8238 225.258 40.8238C223.802 40.8238 222.514 40.3198 221.394 39.3118C220.274 38.3038 219.714 36.6611 219.714 34.3838C219.714 33.0398 219.882 31.5838 220.218 30.0158C220.592 28.4478 220.946 26.9358 221.282 25.4798C221.618 24.0238 221.786 22.8291 221.786 21.8958C221.786 21.3358 221.674 20.9064 221.45 20.6078C221.264 20.2718 220.909 20.1038 220.386 20.1038C219.528 20.1038 218.576 20.4958 217.53 21.2798C216.522 22.0638 215.645 23.1091 214.898 24.4158C214.189 25.7224 213.834 27.1598 213.834 28.7278C213.834 29.7358 213.946 30.7064 214.17 31.6398C214.432 32.5731 214.562 33.5811 214.562 34.6638C214.562 36.6798 214.04 38.2104 212.994 39.2558C211.949 40.3011 210.736 40.8238 209.354 40.8238ZM246.587 41.0478C244.123 41.0478 242.032 40.4878 240.315 39.3678C238.635 38.2478 237.365 36.7918 236.507 34.9998C235.648 33.1704 235.219 31.2104 235.219 29.1198C235.219 27.1411 235.592 25.1624 236.339 23.1838C237.123 21.2051 238.261 19.3944 239.755 17.7518C241.248 16.0718 243.059 14.7464 245.187 13.7758C247.352 12.7678 249.835 12.2638 252.635 12.2638C255.397 12.2638 257.451 12.8238 258.795 13.9438C260.139 15.0264 260.811 16.2211 260.811 17.5278C260.811 18.9091 260.12 20.1784 258.739 21.3358C257.357 22.4931 255.341 23.0718 252.691 23.0718C252.84 22.5118 252.952 21.9518 253.027 21.3918C253.139 20.7944 253.195 20.2344 253.195 19.7118C253.195 18.9278 253.027 18.2744 252.691 17.7518C252.355 17.1918 251.757 16.9118 250.899 16.9118C250.115 16.9118 249.275 17.2664 248.379 17.9758C247.52 18.6851 246.773 19.7304 246.139 21.1118C245.541 22.4931 245.243 24.1918 245.243 26.2078C245.243 28.1864 245.56 29.7918 246.195 31.0238C246.867 32.2558 247.725 33.1518 248.771 33.7118C249.816 34.2344 250.917 34.4958 252.075 34.4958C253.605 34.4958 255.08 34.1038 256.499 33.3198C257.917 32.4984 258.944 31.3784 259.579 29.9598L260.139 30.1838C260.139 32.1251 259.691 33.7864 258.795 35.1678C257.936 36.5118 256.816 37.6318 255.435 38.5278C254.053 39.3864 252.579 40.0211 251.011 40.4318C249.443 40.8424 247.968 41.0478 246.587 41.0478ZM275.217 41.0478C272.492 41.0478 270.233 40.5064 268.441 39.4238C266.649 38.3038 265.305 36.8478 264.409 35.0558C263.513 33.2264 263.065 31.2664 263.065 29.1758C263.065 27.1971 263.439 25.2184 264.185 23.2398C264.969 21.2238 266.089 19.3944 267.545 17.7518C269.039 16.1091 270.831 14.7838 272.921 13.7758C275.049 12.7678 277.439 12.2638 280.089 12.2638C283.375 12.2638 285.764 13.0104 287.257 14.5038C288.788 15.9598 289.553 17.7331 289.553 19.8238C289.553 21.6158 289.068 23.2771 288.097 24.8078C287.164 26.3011 285.913 27.5144 284.345 28.4478C282.777 29.3438 281.06 29.7918 279.193 29.7918C278.223 29.7918 277.233 29.6424 276.225 29.3438C275.217 29.0451 274.228 28.5784 273.257 27.9438C273.444 30.2584 274.116 31.9384 275.273 32.9838C276.431 34.0291 277.812 34.5518 279.417 34.5518C280.537 34.5518 281.657 34.3464 282.777 33.9358C283.897 33.4878 284.924 32.9278 285.857 32.2558C286.828 31.5464 287.575 30.7998 288.097 30.0158L288.489 30.2958C288.489 32.2371 288.079 33.8984 287.257 35.2798C286.473 36.6238 285.428 37.7251 284.121 38.5838C282.815 39.4424 281.377 40.0771 279.809 40.4878C278.279 40.8611 276.748 41.0478 275.217 41.0478ZM276.505 25.9278C277.7 25.9278 278.671 25.5918 279.417 24.9198C280.164 24.2104 280.724 23.3891 281.097 22.4558C281.471 21.5224 281.657 20.7011 281.657 19.9918C281.657 19.1331 281.415 18.4238 280.929 17.8638C280.444 17.2664 279.772 16.9678 278.913 16.9678C278.241 16.9678 277.495 17.2104 276.673 17.6958C275.889 18.1811 275.18 19.0211 274.545 20.2158C273.911 21.3731 273.5 22.9971 273.313 25.0878C274.508 25.6478 275.572 25.9278 276.505 25.9278Z" fill="#FEC46E"/>
</svg>
