<svg width="289" height="45" viewBox="0 0 289 45" fill="none" xmlns="http://www.w3.org/2000/svg">
<path d="M35.056 39.1441C35.5413 40.3761 36.1013 41.2721 36.736 41.8321C37.3706 42.3921 37.9866 42.6908 38.584 42.7281V43.8481C36.344 43.7361 33.5066 43.6801 30.072 43.6801C26.264 43.6801 23.4266 43.7361 21.56 43.8481V42.7281C22.9786 42.6535 23.9866 42.4855 24.584 42.2241C25.1813 41.9255 25.48 41.4215 25.48 40.7121C25.48 40.0401 25.256 39.1441 24.808 38.0241L21.448 28.8401H9.23997L7.78397 32.7041C6.73863 35.3921 6.21597 37.4641 6.21597 38.9201C6.21597 40.3015 6.62663 41.2721 7.44797 41.8321C8.30663 42.3548 9.5573 42.6535 11.2 42.7281V43.8481C8.6613 43.7361 6.34663 43.6801 4.25597 43.6801C2.53863 43.6801 1.11997 43.7361 -3.42131e-05 43.8481V42.7281C1.8293 42.3921 3.43463 40.4321 4.81597 36.8481L17.584 4.08814C17.9946 4.12548 18.648 4.14414 19.544 4.14414C20.44 4.14414 21.0746 4.12548 21.448 4.08814L35.056 39.1441ZM21.056 27.7201L15.512 12.6001L9.68797 27.7201H21.056ZM50.9035 14.8961H57.5115V16.0161H50.9035V38.6401C50.9035 39.7601 51.0902 40.5628 51.4635 41.0481C51.8742 41.4961 52.5089 41.7201 53.3675 41.7201C54.9729 41.7201 56.2422 40.6001 57.1755 38.3601L58.1275 38.8641C56.7089 42.7095 54.1515 44.6321 50.4555 44.6321C47.9915 44.6321 46.1249 43.9975 44.8555 42.7281C44.0715 41.9441 43.5302 40.9735 43.2315 39.8161C42.9702 38.6215 42.8395 36.9975 42.8395 34.9441V16.0161H38.1355V14.8961H42.8395V7.50414C45.9382 7.50414 48.6262 6.90681 50.9035 5.71214V14.8961ZM69.0051 14.8961H75.6131V16.0161H69.0051V38.6401C69.0051 39.7601 69.1918 40.5628 69.5651 41.0481C69.9758 41.4961 70.6104 41.7201 71.4691 41.7201C73.0744 41.7201 74.3438 40.6001 75.2771 38.3601L76.2291 38.8641C74.8104 42.7095 72.2531 44.6321 68.5571 44.6321C66.0931 44.6321 64.2264 43.9975 62.9571 42.7281C62.1731 41.9441 61.6318 40.9735 61.3331 39.8161C61.0718 38.6215 60.9411 36.9975 60.9411 34.9441V16.0161H56.2371V14.8961H60.9411V7.50414C64.0398 7.50414 66.7278 6.90681 69.0051 5.71214V14.8961ZM93.5698 40.0401C96.6312 40.0401 99.0952 38.5468 100.962 35.5601L101.97 35.8961C101.223 38.3228 99.8792 40.3948 97.9378 42.1121C96.0338 43.7921 93.6445 44.6321 90.7698 44.6321C86.8125 44.6321 83.6578 43.3815 81.3058 40.8801C78.9912 38.3415 77.8338 34.6081 77.8338 29.6801C77.8338 24.6401 79.0845 20.7948 81.5858 18.1441C84.0872 15.4561 87.4098 14.1121 91.5538 14.1121C98.5725 14.1121 102.082 18.2561 102.082 26.5441H86.3458C86.3085 27.1041 86.2898 27.9815 86.2898 29.1761C86.2898 31.6401 86.6258 33.6935 87.2978 35.3361C88.0072 36.9788 88.9032 38.1735 89.9858 38.9201C91.1058 39.6668 92.3005 40.0401 93.5698 40.0401ZM91.2178 15.2881C89.8738 15.2881 88.7538 16.1281 87.8578 17.8081C86.9992 19.4508 86.4578 22.0081 86.2338 25.4801H95.0258C95.1005 22.5308 94.8018 20.1041 94.1298 18.2001C93.4952 16.2588 92.5245 15.2881 91.2178 15.2881ZM125.828 14.1121C128.666 14.1121 130.719 14.8401 131.988 16.2961C132.623 17.0055 133.071 17.9201 133.332 19.0401C133.594 20.1601 133.724 21.6721 133.724 23.5761V38.6401C133.724 40.1708 133.986 41.2348 134.508 41.8321C135.068 42.3921 136.002 42.6721 137.308 42.6721V43.8481C133.575 43.6988 131.111 43.6241 129.916 43.6241C128.796 43.6241 126.37 43.6988 122.636 43.8481V42.6721C123.756 42.6721 124.54 42.3921 124.988 41.8321C125.436 41.2348 125.66 40.1708 125.66 38.6401V21.2241C125.66 19.6935 125.399 18.5361 124.876 17.7521C124.391 16.9681 123.495 16.5761 122.188 16.5761C120.658 16.5761 119.351 17.2108 118.268 18.4801C117.186 19.7121 116.644 21.2428 116.644 23.0721V38.6401C116.644 40.1708 116.868 41.2348 117.316 41.8321C117.764 42.3921 118.548 42.6721 119.668 42.6721V43.8481C116.234 43.6988 113.919 43.6241 112.724 43.6241C111.604 43.6241 109.028 43.6988 104.996 43.8481V42.6721C106.34 42.6721 107.274 42.3921 107.796 41.8321C108.319 41.2348 108.58 40.1708 108.58 38.6401V21.0001C108.58 19.2828 108.319 18.0321 107.796 17.2481C107.274 16.4641 106.34 16.0721 104.996 16.0721V14.8961C106.191 15.0081 107.348 15.0641 108.468 15.0641C111.791 15.0641 114.516 14.8028 116.644 14.2801V19.3201C118.324 15.8481 121.386 14.1121 125.828 14.1121ZM166.947 37.6881C166.947 39.4055 167.208 40.6561 167.731 41.4401C168.254 42.2241 169.187 42.6161 170.531 42.6161V43.7921C169.374 43.6801 168.216 43.6241 167.059 43.6241C163.736 43.6241 161.011 43.8855 158.883 44.4081V39.5921C157.614 42.9521 155.187 44.6321 151.603 44.6321C148.094 44.6321 145.294 43.3628 143.203 40.8241C141.15 38.2481 140.142 34.3841 140.179 29.2321C140.179 25.9468 140.702 23.1841 141.747 20.9441C142.83 18.6668 144.304 16.9681 146.171 15.8481C148.075 14.6908 150.24 14.1121 152.667 14.1121C155.392 14.1121 157.464 14.8215 158.883 16.2401V6.72014C158.883 5.00281 158.603 3.75214 158.043 2.96814C157.52 2.18414 156.606 1.79214 155.299 1.79214V0.616144C156.494 0.728142 157.651 0.784142 158.771 0.784142C162.019 0.784142 164.744 0.522808 166.947 0.000141621V37.6881ZM153.899 42.2241C155.131 42.2241 156.214 41.7761 157.147 40.8801C158.118 39.9841 158.696 38.7708 158.883 37.2401V17.6401C157.95 16.3708 156.587 15.7361 154.795 15.7361C152.816 15.7361 151.286 16.8748 150.203 19.1521C149.12 21.4295 148.598 24.8268 148.635 29.3441C148.598 33.8988 149.027 37.1841 149.923 39.2001C150.856 41.2161 152.182 42.2241 153.899 42.2241ZM180.256 44.2401C177.866 44.2401 176.074 43.6241 174.88 42.3921C173.722 41.1601 173.144 39.5361 173.144 37.5201C173.144 35.8401 173.573 34.4588 174.432 33.3761C175.328 32.2561 176.392 31.3975 177.624 30.8001C178.893 30.2028 180.498 29.5681 182.44 28.8961C184.493 28.1868 185.986 27.5521 186.92 26.9921C187.89 26.3948 188.376 25.5921 188.376 24.5841V20.2161C188.376 18.6481 188.002 17.4348 187.256 16.5761C186.546 15.6801 185.426 15.2321 183.896 15.2321C182.104 15.2321 180.741 15.6801 179.808 16.5761C180.853 16.9495 181.656 17.5095 182.216 18.2561C182.813 19.0028 183.112 19.8801 183.112 20.8881C183.112 22.1575 182.682 23.1655 181.824 23.9121C180.965 24.6588 179.92 25.0321 178.688 25.0321C177.381 25.0321 176.373 24.6215 175.664 23.8001C174.954 22.9788 174.6 21.9521 174.6 20.7201C174.6 19.6748 174.842 18.7975 175.328 18.0881C175.85 17.3415 176.634 16.6508 177.68 16.0161C178.688 15.4188 179.92 14.9521 181.376 14.6161C182.869 14.2801 184.493 14.1121 186.248 14.1121C188.077 14.1121 189.664 14.2988 191.008 14.6721C192.352 15.0455 193.472 15.6801 194.368 16.5761C195.189 17.3975 195.73 18.4055 195.992 19.6001C196.29 20.7948 196.44 22.4188 196.44 24.4721V39.7041C196.44 40.6001 196.514 41.2348 196.664 41.6081C196.85 41.9815 197.186 42.1681 197.672 42.1681C198.232 42.1681 198.904 41.8508 199.688 41.2161L200.248 42.1681C198.568 43.5495 196.514 44.2401 194.088 44.2401C192.034 44.2401 190.597 43.8295 189.776 43.0081C188.954 42.1868 188.525 41.0855 188.488 39.7041C186.621 42.7281 183.877 44.2401 180.256 44.2401ZM184.568 40.6561C186.024 40.6561 187.293 39.8908 188.376 38.3601V26.8801C187.928 27.6268 186.976 28.4481 185.52 29.3441C184.064 30.2775 182.962 31.2108 182.216 32.1441C181.469 33.0775 181.096 34.4215 181.096 36.1761C181.096 37.7068 181.413 38.8455 182.048 39.5921C182.682 40.3015 183.522 40.6561 184.568 40.6561ZM222.68 14.1121C225.517 14.1121 227.571 14.8401 228.84 16.2961C229.475 17.0055 229.923 17.9201 230.184 19.0401C230.445 20.1601 230.576 21.6721 230.576 23.5761V38.6401C230.576 40.1708 230.837 41.2348 231.36 41.8321C231.92 42.3921 232.853 42.6721 234.16 42.6721V43.8481C230.427 43.6988 227.963 43.6241 226.768 43.6241C225.648 43.6241 223.221 43.6988 219.488 43.8481V42.6721C220.608 42.6721 221.392 42.3921 221.84 41.8321C222.288 41.2348 222.512 40.1708 222.512 38.6401V21.2241C222.512 19.6935 222.251 18.5361 221.728 17.7521C221.243 16.9681 220.347 16.5761 219.04 16.5761C217.509 16.5761 216.203 17.2108 215.12 18.4801C214.037 19.7121 213.496 21.2428 213.496 23.0721V38.6401C213.496 40.1708 213.72 41.2348 214.168 41.8321C214.616 42.3921 215.4 42.6721 216.52 42.6721V43.8481C213.085 43.6988 210.771 43.6241 209.576 43.6241C208.456 43.6241 205.88 43.6988 201.848 43.8481V42.6721C203.192 42.6721 204.125 42.3921 204.648 41.8321C205.171 41.2348 205.432 40.1708 205.432 38.6401V21.0001C205.432 19.2828 205.171 18.0321 204.648 17.2481C204.125 16.4641 203.192 16.0721 201.848 16.0721V14.8961C203.043 15.0081 204.2 15.0641 205.32 15.0641C208.643 15.0641 211.368 14.8028 213.496 14.2801V19.3201C215.176 15.8481 218.237 14.1121 222.68 14.1121ZM250.806 14.1121C252.188 14.1121 253.494 14.2615 254.726 14.5601C255.958 14.8588 256.985 15.2695 257.806 15.7921C258.777 16.3895 259.524 17.1548 260.046 18.0881C260.606 18.9841 260.886 19.9735 260.886 21.0561C260.886 22.3628 260.476 23.4455 259.654 24.3041C258.833 25.1255 257.769 25.5361 256.462 25.5361C255.156 25.5361 254.11 25.1628 253.326 24.4161C252.542 23.6695 252.15 22.6615 252.15 21.3921C252.15 20.2721 252.505 19.3015 253.214 18.4801C253.924 17.6588 254.801 17.0988 255.846 16.8001C255.548 16.3895 255.081 16.0721 254.446 15.8481C253.849 15.5868 253.196 15.4561 252.486 15.4561C250.246 15.4561 248.492 16.6881 247.222 19.1521C245.99 21.5788 245.374 24.7708 245.374 28.7281C245.374 32.7228 246.084 35.5975 247.502 37.3521C248.921 39.1068 250.694 39.9841 252.822 39.9841C254.092 39.9841 255.361 39.6481 256.63 38.9761C257.937 38.3041 259.113 37.1281 260.158 35.4481L261.11 35.7841C260.364 38.2108 259.057 40.3015 257.19 42.0561C255.324 43.7735 252.916 44.6321 249.966 44.6321C246.121 44.6321 242.985 43.3628 240.558 40.8241C238.132 38.2855 236.918 34.5148 236.918 29.5121C236.918 26.2268 237.516 23.4268 238.71 21.1121C239.905 18.7975 241.548 17.0615 243.638 15.9041C245.729 14.7095 248.118 14.1121 250.806 14.1121ZM280.492 40.0401C283.553 40.0401 286.017 38.5468 287.884 35.5601L288.892 35.8961C288.145 38.3228 286.801 40.3948 284.86 42.1121C282.956 43.7921 280.566 44.6321 277.692 44.6321C273.734 44.6321 270.58 43.3815 268.228 40.8801C265.913 38.3415 264.756 34.6081 264.756 29.6801C264.756 24.6401 266.006 20.7948 268.508 18.1441C271.009 15.4561 274.332 14.1121 278.476 14.1121C285.494 14.1121 289.004 18.2561 289.004 26.5441H273.268C273.23 27.1041 273.212 27.9815 273.212 29.1761C273.212 31.6401 273.548 33.6935 274.22 35.3361C274.929 36.9788 275.825 38.1735 276.908 38.9201C278.028 39.6668 279.222 40.0401 280.492 40.0401ZM278.14 15.2881C276.796 15.2881 275.676 16.1281 274.78 17.8081C273.921 19.4508 273.38 22.0081 273.156 25.4801H281.948C282.022 22.5308 281.724 20.1041 281.052 18.2001C280.417 16.2588 279.446 15.2881 278.14 15.2881Z" fill="#FEC46E"/>
</svg>
