<svg width="184" height="28" viewBox="0 0 184 28" fill="none" xmlns="http://www.w3.org/2000/svg">
<g filter="url(#filter0_d_2097_856)">
<path d="M176.074 0.191895C176.746 0.191895 177.274 0.359895 177.658 0.695895C178.058 1.01589 178.258 1.46389 178.258 2.03989C178.258 2.61589 178.058 3.07189 177.658 3.40789C177.274 3.72789 176.746 3.88789 176.074 3.88789C175.402 3.88789 174.866 3.72789 174.466 3.40789C174.082 3.07189 173.89 2.61589 173.89 2.03989C173.89 1.46389 174.082 1.01589 174.466 0.695895C174.866 0.359895 175.402 0.191895 176.074 0.191895ZM177.946 6.1199V16.5599C177.946 17.2319 178.058 17.6879 178.282 17.9279C178.522 18.1679 178.922 18.2879 179.482 18.2879V18.7919C179.194 18.7759 178.746 18.7599 178.138 18.7439C177.53 18.7119 176.914 18.6959 176.29 18.6959C175.666 18.6959 175.034 18.7119 174.394 18.7439C173.754 18.7599 173.274 18.7759 172.954 18.7919V18.2879C173.514 18.2879 173.906 18.1679 174.13 17.9279C174.37 17.6879 174.49 17.2319 174.49 16.5599V8.9999C174.49 8.2799 174.378 7.75189 174.154 7.41589C173.946 7.06389 173.546 6.8879 172.954 6.8879V6.38389C173.466 6.43189 173.962 6.45589 174.442 6.45589C175.114 6.45589 175.738 6.43189 176.314 6.38389C176.906 6.31989 177.45 6.23189 177.946 6.1199Z" fill="white"/>
</g>
<g filter="url(#filter1_d_2097_856)">
<path d="M163.787 0V16.56C163.787 17.232 163.891 17.688 164.099 17.928C164.323 18.168 164.699 18.288 165.227 18.288V18.792C164.923 18.776 164.475 18.76 163.883 18.744C163.307 18.712 162.715 18.696 162.107 18.696C161.483 18.696 160.851 18.712 160.211 18.744C159.587 18.76 159.115 18.776 158.795 18.792V18.288C159.355 18.288 159.747 18.168 159.971 17.928C160.211 17.688 160.331 17.232 160.331 16.56V2.88C160.331 2.16 160.219 1.632 159.995 1.296C159.787 0.944001 159.387 0.768 158.795 0.768V0.264001C159.307 0.312 159.803 0.336 160.283 0.336C160.939 0.336 161.563 0.312 162.155 0.264001C162.747 0.200001 163.291 0.112 163.787 0ZM171.611 6.384V6.864C171.115 6.96 170.619 7.168 170.123 7.488C169.627 7.808 169.123 8.216 168.611 8.712L166.763 10.632L167.003 10.176L171.107 17.04C171.283 17.328 171.467 17.584 171.659 17.808C171.851 18.032 172.083 18.192 172.355 18.288V18.792C172.115 18.776 171.755 18.76 171.275 18.744C170.795 18.712 170.315 18.696 169.835 18.696C169.243 18.696 168.651 18.712 168.059 18.744C167.467 18.76 167.027 18.776 166.739 18.792V18.288C167.059 18.288 167.275 18.216 167.387 18.072C167.499 17.912 167.483 17.712 167.339 17.472L164.963 13.176C164.771 12.872 164.579 12.68 164.387 12.6C164.211 12.504 163.971 12.448 163.667 12.432V11.976C164.003 11.944 164.291 11.888 164.531 11.808C164.787 11.728 165.019 11.576 165.227 11.352L167.051 9.576C167.595 9.064 167.867 8.608 167.867 8.208C167.867 7.808 167.691 7.488 167.339 7.248C167.003 7.008 166.555 6.88 165.995 6.864V6.384C166.443 6.4 166.931 6.416 167.459 6.432C167.987 6.448 168.435 6.456 168.803 6.456C169.123 6.456 169.459 6.456 169.811 6.456C170.179 6.44 170.523 6.432 170.843 6.432C171.163 6.416 171.419 6.4 171.611 6.384Z" fill="white"/>
</g>
<g filter="url(#filter2_d_2097_856)">
<path d="M156.313 6.12012V16.1761C156.313 16.8961 156.425 17.4321 156.649 17.7841C156.873 18.1201 157.273 18.2881 157.849 18.2881V18.7921C157.353 18.7441 156.857 18.7201 156.361 18.7201C155.689 18.7201 155.065 18.7441 154.489 18.7921C153.913 18.8401 153.369 18.9281 152.857 19.0561V16.8961C152.473 17.6961 151.937 18.2721 151.249 18.6241C150.577 18.9601 149.825 19.1281 148.993 19.1281C148.321 19.1281 147.777 19.0401 147.361 18.8641C146.945 18.6881 146.617 18.4641 146.377 18.1921C146.105 17.8881 145.913 17.4881 145.801 16.9921C145.689 16.4961 145.633 15.8561 145.633 15.0721V9.00012C145.633 8.28012 145.521 7.75212 145.297 7.41612C145.089 7.06412 144.689 6.88812 144.097 6.88812V6.38412C144.609 6.43212 145.105 6.45612 145.585 6.45612C146.257 6.45612 146.881 6.43212 147.457 6.38412C148.049 6.32012 148.593 6.23212 149.089 6.12012V16.0561C149.089 16.4561 149.121 16.8081 149.185 17.1121C149.265 17.4161 149.409 17.6561 149.617 17.8321C149.825 17.9921 150.129 18.0721 150.529 18.0721C150.961 18.0721 151.345 17.9521 151.681 17.7121C152.033 17.4721 152.313 17.1441 152.521 16.7281C152.745 16.2961 152.857 15.8161 152.857 15.2881V9.00012C152.857 8.28012 152.745 7.75212 152.521 7.41612C152.313 7.06412 151.913 6.88812 151.321 6.88812V6.38412C151.833 6.43212 152.329 6.45612 152.809 6.45612C153.481 6.45612 154.105 6.43212 154.681 6.38412C155.273 6.32012 155.817 6.23212 156.313 6.12012Z" fill="white"/>
</g>
<g filter="url(#filter3_d_2097_856)">
<path d="M143.073 6.26416L137.073 18.4322H138.321C138.945 18.4322 139.529 18.3042 140.073 18.0482C140.633 17.7762 141.097 17.3282 141.465 16.7042C141.849 16.0802 142.081 15.2242 142.161 14.1362H142.665C142.665 15.3042 142.673 16.2642 142.689 17.0162C142.705 17.7522 142.729 18.3762 142.761 18.8882C142.041 18.8562 141.289 18.8322 140.505 18.8162C139.721 18.8002 138.937 18.7922 138.153 18.7922C137.337 18.7922 136.497 18.8002 135.633 18.8162C134.769 18.8482 133.945 18.8802 133.161 18.9122L139.161 6.74416H137.817C137.177 6.74416 136.585 6.88016 136.041 7.15216C135.513 7.40816 135.073 7.85616 134.721 8.49616C134.385 9.12016 134.169 9.96816 134.073 11.0402H133.569C133.569 9.85616 133.561 8.89616 133.545 8.16016C133.529 7.42416 133.505 6.80016 133.473 6.28816C134.209 6.32016 134.969 6.34416 135.753 6.36016C136.537 6.37616 137.313 6.38416 138.081 6.38416C138.913 6.38416 139.753 6.37616 140.601 6.36016C141.465 6.32816 142.289 6.29616 143.073 6.26416Z" fill="white"/>
</g>
<g filter="url(#filter4_d_2097_856)">
<path d="M128.543 0.191895C129.215 0.191895 129.743 0.359895 130.127 0.695895C130.527 1.01589 130.727 1.46389 130.727 2.03989C130.727 2.61589 130.527 3.07189 130.127 3.40789C129.743 3.72789 129.215 3.88789 128.543 3.88789C127.871 3.88789 127.335 3.72789 126.935 3.40789C126.551 3.07189 126.359 2.61589 126.359 2.03989C126.359 1.46389 126.551 1.01589 126.935 0.695895C127.335 0.359895 127.871 0.191895 128.543 0.191895ZM130.415 6.1199V16.5599C130.415 17.2319 130.527 17.6879 130.751 17.9279C130.991 18.1679 131.391 18.2879 131.951 18.2879V18.7919C131.663 18.7759 131.215 18.7599 130.607 18.7439C129.999 18.7119 129.383 18.6959 128.759 18.6959C128.135 18.6959 127.503 18.7119 126.863 18.7439C126.223 18.7599 125.743 18.7759 125.423 18.7919V18.2879C125.983 18.2879 126.375 18.1679 126.599 17.9279C126.839 17.6879 126.959 17.2319 126.959 16.5599V8.9999C126.959 8.2799 126.847 7.75189 126.623 7.41589C126.415 7.06389 126.015 6.8879 125.423 6.8879V6.38389C125.935 6.43189 126.431 6.45589 126.911 6.45589C127.583 6.45589 128.207 6.43189 128.783 6.38389C129.375 6.31989 129.919 6.23189 130.415 6.1199Z" fill="white"/>
</g>
<g filter="url(#filter5_d_2097_856)">
<path d="M112.409 6.04785C113.081 6.04785 113.625 6.13585 114.041 6.31185C114.457 6.47185 114.793 6.69585 115.049 6.98385C115.305 7.28785 115.489 7.68785 115.601 8.18385C115.713 8.66385 115.769 9.30385 115.769 10.1039V16.5599C115.769 17.2319 115.873 17.6879 116.081 17.9279C116.289 18.1679 116.649 18.2879 117.161 18.2879V18.7919C116.873 18.7759 116.433 18.7599 115.841 18.7439C115.265 18.7119 114.697 18.6959 114.137 18.6959C113.561 18.6959 112.993 18.7119 112.433 18.7439C111.873 18.7599 111.449 18.7759 111.161 18.7919V18.2879C111.593 18.2879 111.889 18.1679 112.049 17.9279C112.225 17.6879 112.313 17.2319 112.313 16.5599V9.09585C112.313 8.69585 112.281 8.35185 112.217 8.06385C112.153 7.75985 112.025 7.52785 111.833 7.36785C111.657 7.19185 111.385 7.10385 111.017 7.10385C110.601 7.10385 110.217 7.22385 109.865 7.46385C109.513 7.70385 109.225 8.03985 109.001 8.47185C108.793 8.88785 108.689 9.35985 108.689 9.88785V16.5599C108.689 17.2319 108.777 17.6879 108.953 17.9279C109.129 18.1679 109.425 18.2879 109.841 18.2879V18.7919C109.585 18.7759 109.185 18.7599 108.641 18.7439C108.113 18.7119 107.569 18.6959 107.009 18.6959C106.401 18.6959 105.777 18.7119 105.137 18.7439C104.497 18.7599 104.017 18.7759 103.697 18.7919V18.2879C104.257 18.2879 104.649 18.1679 104.873 17.9279C105.113 17.6879 105.233 17.2319 105.233 16.5599V8.99985C105.233 8.27985 105.121 7.75185 104.897 7.41585C104.689 7.06385 104.289 6.88785 103.697 6.88785V6.38385C104.209 6.43185 104.705 6.45585 105.185 6.45585C105.857 6.45585 106.481 6.43185 107.057 6.38385C107.649 6.31985 108.193 6.23185 108.689 6.11985V8.27985C109.073 7.47985 109.593 6.91185 110.249 6.57585C110.905 6.22385 111.625 6.04785 112.409 6.04785ZM119.633 6.04785C120.305 6.04785 120.849 6.13585 121.265 6.31185C121.681 6.47185 122.017 6.69585 122.273 6.98385C122.529 7.28785 122.713 7.68785 122.825 8.18385C122.937 8.66385 122.993 9.30385 122.993 10.1039V16.5599C122.993 17.2319 123.105 17.6879 123.329 17.9279C123.569 18.1679 123.969 18.2879 124.529 18.2879V18.7919C124.225 18.7759 123.769 18.7599 123.161 18.7439C122.553 18.7119 121.953 18.6959 121.361 18.6959C120.785 18.6959 120.217 18.7119 119.657 18.7439C119.097 18.7599 118.673 18.7759 118.385 18.7919V18.2879C118.817 18.2879 119.113 18.1679 119.273 17.9279C119.449 17.6879 119.537 17.2319 119.537 16.5599V9.09585C119.537 8.69585 119.497 8.35185 119.417 8.06385C119.353 7.75985 119.217 7.52785 119.009 7.36785C118.817 7.19185 118.513 7.10385 118.097 7.10385C117.681 7.10385 117.297 7.23185 116.945 7.48785C116.593 7.74385 116.305 8.08785 116.081 8.51985C115.873 8.95185 115.761 9.43185 115.745 9.95985L115.625 8.49585C116.057 7.53585 116.625 6.88785 117.329 6.55185C118.049 6.21585 118.817 6.04785 119.633 6.04785Z" fill="white"/>
</g>
<g filter="url(#filter6_d_2097_856)">
<path d="M85.878 1.75187C86.502 1.75187 87.006 1.79987 87.39 1.89587C87.774 1.97587 88.102 2.09587 88.374 2.25587C88.63 2.36787 88.862 2.51187 89.07 2.68787C89.294 2.86387 89.478 3.07987 89.622 3.33587C89.766 3.59187 89.838 3.87987 89.838 4.19987C89.838 4.67987 89.654 5.06387 89.286 5.35187C88.918 5.63987 88.486 5.78387 87.99 5.78387C87.51 5.78387 87.094 5.66387 86.742 5.42387C86.406 5.18387 86.238 4.80787 86.238 4.29587C86.238 3.89587 86.382 3.53587 86.67 3.21587C86.958 2.87987 87.326 2.67187 87.774 2.59187C87.662 2.46387 87.454 2.35987 87.15 2.27987C86.862 2.19987 86.542 2.15987 86.19 2.15987C85.358 2.15987 84.646 2.42387 84.054 2.95187C83.478 3.46387 83.19 4.24787 83.19 5.30387C83.19 5.67187 83.254 6.06387 83.382 6.47987C83.51 6.89587 83.758 7.31987 84.126 7.75187C84.398 7.68787 84.646 7.63987 84.87 7.60787C85.11 7.57587 85.31 7.55987 85.47 7.55987C85.758 7.55987 85.974 7.62387 86.118 7.75187C86.278 7.86387 86.358 8.01587 86.358 8.20787C86.358 8.35187 86.294 8.47187 86.166 8.56787C86.038 8.66387 85.878 8.71187 85.686 8.71187C85.414 8.71187 85.134 8.63987 84.846 8.49587C84.558 8.33587 84.326 8.19987 84.15 8.08787C83.398 8.47187 82.782 8.96787 82.302 9.57587C81.838 10.1679 81.606 10.9679 81.606 11.9759C81.606 13.0319 81.894 13.9039 82.47 14.5919C83.046 15.2639 83.854 15.7759 84.894 16.1279C85.95 16.4639 87.19 16.6319 88.614 16.6319C89.414 16.6319 90.206 16.5439 90.99 16.3679C91.774 16.1919 92.478 15.9279 93.102 15.5759C93.742 15.2239 94.254 14.7919 94.638 14.2799C95.022 13.7519 95.214 13.1439 95.214 12.4559C95.214 12.1999 95.174 11.8799 95.094 11.4959C95.03 11.0959 94.862 10.7039 94.59 10.3199C94.318 9.91987 93.87 9.59187 93.246 9.33587L93.414 9.11987C94.278 9.39187 94.934 9.90387 95.382 10.6559C95.83 11.4079 96.054 12.2719 96.054 13.2479C96.054 14.3679 95.71 15.3759 95.022 16.2719C94.334 17.1519 93.366 17.8479 92.118 18.3599C90.886 18.8719 89.438 19.1279 87.774 19.1279C86.446 19.1279 85.238 18.9919 84.15 18.7199C83.078 18.4479 82.15 18.0559 81.366 17.5439C80.598 17.0159 79.998 16.3839 79.566 15.6479C79.15 14.9119 78.942 14.0799 78.942 13.1519C78.942 12.2559 79.126 11.4959 79.494 10.8719C79.878 10.2319 80.342 9.71187 80.886 9.31187C81.43 8.89587 81.974 8.57587 82.518 8.35187C83.062 8.12787 83.494 7.97587 83.814 7.89587C83.318 7.68787 82.862 7.44787 82.446 7.17587C82.046 6.88787 81.718 6.55187 81.462 6.16787C81.222 5.78387 81.102 5.35187 81.102 4.87187C81.102 4.35987 81.238 3.91187 81.51 3.52787C81.782 3.12787 82.142 2.79987 82.59 2.54387C83.054 2.28787 83.566 2.09587 84.126 1.96787C84.702 1.82387 85.286 1.75187 85.878 1.75187ZM95.31 1.46387C96.446 1.46387 97.366 1.75987 98.07 2.35187C98.774 2.94387 99.126 3.77587 99.126 4.84787C99.126 5.66387 98.926 6.35187 98.526 6.91187C98.142 7.47187 97.582 7.92787 96.846 8.27987C96.126 8.63187 95.262 8.91187 94.254 9.11987C94.03 9.19987 93.75 9.29587 93.414 9.40787C93.078 9.50387 92.734 9.59987 92.382 9.69587C92.03 9.79187 91.686 9.88787 91.35 9.98387C91.03 10.0799 90.75 10.1599 90.51 10.2239C89.262 10.4959 88.302 10.8079 87.63 11.1599C86.958 11.4959 86.622 11.9599 86.622 12.5519C86.622 12.9519 86.75 13.2959 87.006 13.5839C87.278 13.8719 87.614 14.0959 88.014 14.2559C88.414 14.4159 88.814 14.4959 89.214 14.4959C89.326 14.4959 89.446 14.4879 89.574 14.4719C89.702 14.4399 89.822 14.4079 89.934 14.3759C90.046 14.3279 90.126 14.2879 90.174 14.2559C89.774 14.1279 89.47 13.9279 89.262 13.6559C89.07 13.3679 88.974 13.0399 88.974 12.6719C88.974 12.1599 89.158 11.7679 89.526 11.4959C89.894 11.2239 90.35 11.0879 90.894 11.0879C91.47 11.0879 91.918 11.2399 92.238 11.5439C92.574 11.8479 92.742 12.2399 92.742 12.7199C92.742 13.2159 92.59 13.6319 92.286 13.9679C91.982 14.2879 91.574 14.5279 91.062 14.6879C90.55 14.8319 89.974 14.9039 89.334 14.9039C88.71 14.9039 88.118 14.7919 87.558 14.5679C87.014 14.3439 86.574 14.0079 86.238 13.5599C85.918 13.0959 85.758 12.5199 85.758 11.8319C85.758 10.9839 85.974 10.2799 86.406 9.71987C86.838 9.14387 87.454 8.67187 88.254 8.30387C89.07 7.91987 90.03 7.62387 91.134 7.41587C91.47 7.33587 91.838 7.24787 92.238 7.15187C92.654 7.03987 93.078 6.92787 93.51 6.81587C93.942 6.70387 94.342 6.58387 94.71 6.45587C95.862 6.16787 96.75 5.84787 97.374 5.49587C98.014 5.14387 98.334 4.67187 98.334 4.07987C98.334 3.64787 98.198 3.27187 97.926 2.95187C97.67 2.61587 97.334 2.35987 96.918 2.18387C96.502 1.99187 96.07 1.89587 95.622 1.89587C95.478 1.89587 95.342 1.90387 95.214 1.91987C95.102 1.93587 95.006 1.96787 94.926 2.01587C95.326 2.15987 95.622 2.37587 95.814 2.66387C96.006 2.95187 96.102 3.23987 96.102 3.52787C96.102 4.02387 95.918 4.40787 95.55 4.67987C95.182 4.93587 94.726 5.06387 94.182 5.06387C93.638 5.06387 93.19 4.92787 92.838 4.65587C92.486 4.36787 92.31 3.97587 92.31 3.47987C92.31 3.04787 92.43 2.68787 92.67 2.39987C92.926 2.09587 93.278 1.86387 93.726 1.70387C94.174 1.54387 94.702 1.46387 95.31 1.46387Z" fill="white"/>
</g>
<g filter="url(#filter7_d_2097_856)">
<path d="M62.8806 0.191895C63.5526 0.191895 64.0806 0.359895 64.4646 0.695895C64.8646 1.01589 65.0646 1.46389 65.0646 2.03989C65.0646 2.61589 64.8646 3.07189 64.4646 3.40789C64.0806 3.72789 63.5526 3.88789 62.8806 3.88789C62.2086 3.88789 61.6726 3.72789 61.2726 3.40789C60.8886 3.07189 60.6966 2.61589 60.6966 2.03989C60.6966 1.46389 60.8886 1.01589 61.2726 0.695895C61.6726 0.359895 62.2086 0.191895 62.8806 0.191895ZM64.7526 6.1199V16.5599C64.7526 17.2319 64.8646 17.6879 65.0886 17.9279C65.3286 18.1679 65.7286 18.2879 66.2886 18.2879V18.7919C66.0006 18.7759 65.5526 18.7599 64.9446 18.7439C64.3366 18.7119 63.7206 18.6959 63.0966 18.6959C62.4726 18.6959 61.8406 18.7119 61.2006 18.7439C60.5606 18.7599 60.0806 18.7759 59.7606 18.7919V18.2879C60.3206 18.2879 60.7126 18.1679 60.9366 17.9279C61.1766 17.6879 61.2966 17.2319 61.2966 16.5599V8.9999C61.2966 8.2799 61.1846 7.75189 60.9606 7.41589C60.7526 7.06389 60.3526 6.8879 59.7606 6.8879V6.38389C60.2726 6.43189 60.7686 6.45589 61.2486 6.45589C61.9206 6.45589 62.5446 6.43189 63.1206 6.38389C63.7126 6.31989 64.2566 6.23189 64.7526 6.1199Z" fill="white"/>
</g>
<g filter="url(#filter8_d_2097_856)">
<path d="M50.5936 0V16.56C50.5936 17.232 50.6976 17.688 50.9056 17.928C51.1296 18.168 51.5056 18.288 52.0336 18.288V18.792C51.7296 18.776 51.2816 18.76 50.6896 18.744C50.1136 18.712 49.5216 18.696 48.9136 18.696C48.2896 18.696 47.6576 18.712 47.0176 18.744C46.3936 18.76 45.9216 18.776 45.6016 18.792V18.288C46.1616 18.288 46.5536 18.168 46.7776 17.928C47.0176 17.688 47.1376 17.232 47.1376 16.56V2.88C47.1376 2.16 47.0256 1.632 46.8016 1.296C46.5936 0.944001 46.1936 0.768 45.6016 0.768V0.264001C46.1136 0.312 46.6096 0.336 47.0896 0.336C47.7456 0.336 48.3696 0.312 48.9616 0.264001C49.5536 0.200001 50.0976 0.112 50.5936 0ZM58.4176 6.384V6.864C57.9216 6.96 57.4256 7.168 56.9296 7.488C56.4336 7.808 55.9296 8.216 55.4176 8.712L53.5696 10.632L53.8096 10.176L57.9136 17.04C58.0896 17.328 58.2736 17.584 58.4656 17.808C58.6576 18.032 58.8896 18.192 59.1616 18.288V18.792C58.9216 18.776 58.5616 18.76 58.0816 18.744C57.6016 18.712 57.1216 18.696 56.6416 18.696C56.0496 18.696 55.4576 18.712 54.8656 18.744C54.2736 18.76 53.8336 18.776 53.5456 18.792V18.288C53.8656 18.288 54.0816 18.216 54.1936 18.072C54.3056 17.912 54.2896 17.712 54.1456 17.472L51.7696 13.176C51.5776 12.872 51.3856 12.68 51.1936 12.6C51.0176 12.504 50.7776 12.448 50.4736 12.432V11.976C50.8096 11.944 51.0976 11.888 51.3376 11.808C51.5936 11.728 51.8256 11.576 52.0336 11.352L53.8576 9.576C54.4016 9.064 54.6736 8.608 54.6736 8.208C54.6736 7.808 54.4976 7.488 54.1456 7.248C53.8096 7.008 53.3616 6.88 52.8016 6.864V6.384C53.2496 6.4 53.7376 6.416 54.2656 6.432C54.7936 6.448 55.2416 6.456 55.6096 6.456C55.9296 6.456 56.2656 6.456 56.6176 6.456C56.9856 6.44 57.3296 6.432 57.6496 6.432C57.9696 6.416 58.2256 6.4 58.4176 6.384Z" fill="white"/>
</g>
<g filter="url(#filter9_d_2097_856)">
<path d="M43.1188 6.12012V16.1761C43.1188 16.8961 43.2308 17.4321 43.4548 17.7841C43.6788 18.1201 44.0788 18.2881 44.6548 18.2881V18.7921C44.1588 18.7441 43.6628 18.7201 43.1668 18.7201C42.4948 18.7201 41.8708 18.7441 41.2948 18.7921C40.7188 18.8401 40.1748 18.9281 39.6628 19.0561V16.8961C39.2788 17.6961 38.7428 18.2721 38.0548 18.6241C37.3828 18.9601 36.6308 19.1281 35.7988 19.1281C35.1268 19.1281 34.5828 19.0401 34.1668 18.8641C33.7508 18.6881 33.4228 18.4641 33.1828 18.1921C32.9108 17.8881 32.7188 17.4881 32.6068 16.9921C32.4948 16.4961 32.4388 15.8561 32.4388 15.0721V9.00012C32.4388 8.28012 32.3268 7.75212 32.1028 7.41612C31.8948 7.06412 31.4948 6.88812 30.9028 6.88812V6.38412C31.4148 6.43212 31.9108 6.45612 32.3908 6.45612C33.0628 6.45612 33.6868 6.43212 34.2628 6.38412C34.8548 6.32012 35.3988 6.23212 35.8948 6.12012V16.0561C35.8948 16.4561 35.9268 16.8081 35.9908 17.1121C36.0708 17.4161 36.2148 17.6561 36.4228 17.8321C36.6308 17.9921 36.9348 18.0721 37.3348 18.0721C37.7668 18.0721 38.1508 17.9521 38.4868 17.7121C38.8388 17.4721 39.1188 17.1441 39.3268 16.7281C39.5508 16.2961 39.6628 15.8161 39.6628 15.2881V9.00012C39.6628 8.28012 39.5508 7.75212 39.3268 7.41612C39.1188 7.06412 38.7188 6.88812 38.1268 6.88812V6.38412C38.6388 6.43212 39.1348 6.45612 39.6148 6.45612C40.2868 6.45612 40.9108 6.43212 41.4868 6.38412C42.0788 6.32012 42.6228 6.23212 43.1188 6.12012Z" fill="white"/>
</g>
<g filter="url(#filter10_d_2097_856)">
<path d="M23.7886 6.04785C24.9566 6.04785 25.9806 6.26385 26.8606 6.69585C27.7406 7.12785 28.4286 7.82385 28.9246 8.78385C29.4206 9.74385 29.6686 11.0159 29.6686 12.5999C29.6686 14.1839 29.4206 15.4559 28.9246 16.4159C28.4286 17.3599 27.7406 18.0479 26.8606 18.4799C25.9806 18.9119 24.9566 19.1279 23.7886 19.1279C22.6526 19.1279 21.6366 18.9119 20.7406 18.4799C19.8606 18.0479 19.1646 17.3599 18.6526 16.4159C18.1566 15.4559 17.9086 14.1839 17.9086 12.5999C17.9086 11.0159 18.1566 9.74385 18.6526 8.78385C19.1646 7.82385 19.8606 7.12785 20.7406 6.69585C21.6366 6.26385 22.6526 6.04785 23.7886 6.04785ZM23.7886 6.52785C23.1486 6.52785 22.6126 7.00785 22.1806 7.96785C21.7486 8.91185 21.5326 10.4559 21.5326 12.5999C21.5326 14.7439 21.7486 16.2879 22.1806 17.2319C22.6126 18.1759 23.1486 18.6479 23.7886 18.6479C24.4446 18.6479 24.9806 18.1759 25.3966 17.2319C25.8286 16.2879 26.0446 14.7439 26.0446 12.5999C26.0446 10.4559 25.8286 8.91185 25.3966 7.96785C24.9806 7.00785 24.4446 6.52785 23.7886 6.52785Z" fill="white"/>
</g>
<g filter="url(#filter11_d_2097_856)">
<path d="M8.992 0V16.56C8.992 17.232 9.096 17.688 9.304 17.928C9.528 18.168 9.904 18.288 10.432 18.288V18.792C10.128 18.776 9.68 18.76 9.088 18.744C8.512 18.712 7.92 18.696 7.312 18.696C6.688 18.696 6.056 18.712 5.416 18.744C4.792 18.76 4.32 18.776 4 18.792V18.288C4.56 18.288 4.952 18.168 5.176 17.928C5.416 17.688 5.536 17.232 5.536 16.56V2.88C5.536 2.16 5.424 1.632 5.2 1.296C4.992 0.944001 4.592 0.768 4 0.768V0.264001C4.512 0.312 5.008 0.336 5.488 0.336C6.144 0.336 6.768 0.312 7.36 0.264001C7.952 0.200001 8.496 0.112 8.992 0ZM16.816 6.384V6.864C16.32 6.96 15.824 7.168 15.328 7.488C14.832 7.808 14.328 8.216 13.816 8.712L11.968 10.632L12.208 10.176L16.312 17.04C16.488 17.328 16.672 17.584 16.864 17.808C17.056 18.032 17.288 18.192 17.56 18.288V18.792C17.32 18.776 16.96 18.76 16.48 18.744C16 18.712 15.52 18.696 15.04 18.696C14.448 18.696 13.856 18.712 13.264 18.744C12.672 18.76 12.232 18.776 11.944 18.792V18.288C12.264 18.288 12.48 18.216 12.592 18.072C12.704 17.912 12.688 17.712 12.544 17.472L10.168 13.176C9.976 12.872 9.784 12.68 9.592 12.6C9.416 12.504 9.176 12.448 8.872 12.432V11.976C9.208 11.944 9.496 11.888 9.736 11.808C9.992 11.728 10.224 11.576 10.432 11.352L12.256 9.576C12.8 9.064 13.072 8.608 13.072 8.208C13.072 7.808 12.896 7.488 12.544 7.248C12.208 7.008 11.76 6.88 11.2 6.864V6.384C11.648 6.4 12.136 6.416 12.664 6.432C13.192 6.448 13.64 6.456 14.008 6.456C14.328 6.456 14.664 6.456 15.016 6.456C15.384 6.44 15.728 6.432 16.048 6.432C16.368 6.416 16.624 6.4 16.816 6.384Z" fill="white"/>
</g>
<defs>
<filter id="filter0_d_2097_856" x="168.954" y="0.191895" width="14.528" height="26.6001" filterUnits="userSpaceOnUse" color-interpolation-filters="sRGB">
<feFlood flood-opacity="0" result="BackgroundImageFix"/>
<feColorMatrix in="SourceAlpha" type="matrix" values="0 0 0 0 0 0 0 0 0 0 0 0 0 0 0 0 0 0 127 0" result="hardAlpha"/>
<feOffset dy="4"/>
<feGaussianBlur stdDeviation="2"/>
<feComposite in2="hardAlpha" operator="out"/>
<feColorMatrix type="matrix" values="0 0 0 0 0 0 0 0 0 0 0 0 0 0 0 0 0 0 0.25 0"/>
<feBlend mode="normal" in2="BackgroundImageFix" result="effect1_dropShadow_2097_856"/>
<feBlend mode="normal" in="SourceGraphic" in2="effect1_dropShadow_2097_856" result="shape"/>
</filter>
<filter id="filter1_d_2097_856" x="154.795" y="0" width="21.5601" height="26.792" filterUnits="userSpaceOnUse" color-interpolation-filters="sRGB">
<feFlood flood-opacity="0" result="BackgroundImageFix"/>
<feColorMatrix in="SourceAlpha" type="matrix" values="0 0 0 0 0 0 0 0 0 0 0 0 0 0 0 0 0 0 127 0" result="hardAlpha"/>
<feOffset dy="4"/>
<feGaussianBlur stdDeviation="2"/>
<feComposite in2="hardAlpha" operator="out"/>
<feColorMatrix type="matrix" values="0 0 0 0 0 0 0 0 0 0 0 0 0 0 0 0 0 0 0.25 0"/>
<feBlend mode="normal" in2="BackgroundImageFix" result="effect1_dropShadow_2097_856"/>
<feBlend mode="normal" in="SourceGraphic" in2="effect1_dropShadow_2097_856" result="shape"/>
</filter>
<filter id="filter2_d_2097_856" x="140.097" y="6.12012" width="21.752" height="21.0078" filterUnits="userSpaceOnUse" color-interpolation-filters="sRGB">
<feFlood flood-opacity="0" result="BackgroundImageFix"/>
<feColorMatrix in="SourceAlpha" type="matrix" values="0 0 0 0 0 0 0 0 0 0 0 0 0 0 0 0 0 0 127 0" result="hardAlpha"/>
<feOffset dy="4"/>
<feGaussianBlur stdDeviation="2"/>
<feComposite in2="hardAlpha" operator="out"/>
<feColorMatrix type="matrix" values="0 0 0 0 0 0 0 0 0 0 0 0 0 0 0 0 0 0 0.25 0"/>
<feBlend mode="normal" in2="BackgroundImageFix" result="effect1_dropShadow_2097_856"/>
<feBlend mode="normal" in="SourceGraphic" in2="effect1_dropShadow_2097_856" result="shape"/>
</filter>
<filter id="filter3_d_2097_856" x="129.161" y="6.26416" width="17.912" height="20.6479" filterUnits="userSpaceOnUse" color-interpolation-filters="sRGB">
<feFlood flood-opacity="0" result="BackgroundImageFix"/>
<feColorMatrix in="SourceAlpha" type="matrix" values="0 0 0 0 0 0 0 0 0 0 0 0 0 0 0 0 0 0 127 0" result="hardAlpha"/>
<feOffset dy="4"/>
<feGaussianBlur stdDeviation="2"/>
<feComposite in2="hardAlpha" operator="out"/>
<feColorMatrix type="matrix" values="0 0 0 0 0 0 0 0 0 0 0 0 0 0 0 0 0 0 0.25 0"/>
<feBlend mode="normal" in2="BackgroundImageFix" result="effect1_dropShadow_2097_856"/>
<feBlend mode="normal" in="SourceGraphic" in2="effect1_dropShadow_2097_856" result="shape"/>
</filter>
<filter id="filter4_d_2097_856" x="121.423" y="0.191895" width="14.528" height="26.6001" filterUnits="userSpaceOnUse" color-interpolation-filters="sRGB">
<feFlood flood-opacity="0" result="BackgroundImageFix"/>
<feColorMatrix in="SourceAlpha" type="matrix" values="0 0 0 0 0 0 0 0 0 0 0 0 0 0 0 0 0 0 127 0" result="hardAlpha"/>
<feOffset dy="4"/>
<feGaussianBlur stdDeviation="2"/>
<feComposite in2="hardAlpha" operator="out"/>
<feColorMatrix type="matrix" values="0 0 0 0 0 0 0 0 0 0 0 0 0 0 0 0 0 0 0.25 0"/>
<feBlend mode="normal" in2="BackgroundImageFix" result="effect1_dropShadow_2097_856"/>
<feBlend mode="normal" in="SourceGraphic" in2="effect1_dropShadow_2097_856" result="shape"/>
</filter>
<filter id="filter5_d_2097_856" x="99.6965" y="6.04785" width="28.832" height="20.7441" filterUnits="userSpaceOnUse" color-interpolation-filters="sRGB">
<feFlood flood-opacity="0" result="BackgroundImageFix"/>
<feColorMatrix in="SourceAlpha" type="matrix" values="0 0 0 0 0 0 0 0 0 0 0 0 0 0 0 0 0 0 127 0" result="hardAlpha"/>
<feOffset dy="4"/>
<feGaussianBlur stdDeviation="2"/>
<feComposite in2="hardAlpha" operator="out"/>
<feColorMatrix type="matrix" values="0 0 0 0 0 0 0 0 0 0 0 0 0 0 0 0 0 0 0.25 0"/>
<feBlend mode="normal" in2="BackgroundImageFix" result="effect1_dropShadow_2097_856"/>
<feBlend mode="normal" in="SourceGraphic" in2="effect1_dropShadow_2097_856" result="shape"/>
</filter>
<filter id="filter6_d_2097_856" x="74.942" y="1.46387" width="28.184" height="25.6641" filterUnits="userSpaceOnUse" color-interpolation-filters="sRGB">
<feFlood flood-opacity="0" result="BackgroundImageFix"/>
<feColorMatrix in="SourceAlpha" type="matrix" values="0 0 0 0 0 0 0 0 0 0 0 0 0 0 0 0 0 0 127 0" result="hardAlpha"/>
<feOffset dy="4"/>
<feGaussianBlur stdDeviation="2"/>
<feComposite in2="hardAlpha" operator="out"/>
<feColorMatrix type="matrix" values="0 0 0 0 0 0 0 0 0 0 0 0 0 0 0 0 0 0 0.25 0"/>
<feBlend mode="normal" in2="BackgroundImageFix" result="effect1_dropShadow_2097_856"/>
<feBlend mode="normal" in="SourceGraphic" in2="effect1_dropShadow_2097_856" result="shape"/>
</filter>
<filter id="filter7_d_2097_856" x="55.7606" y="0.191895" width="14.528" height="26.6001" filterUnits="userSpaceOnUse" color-interpolation-filters="sRGB">
<feFlood flood-opacity="0" result="BackgroundImageFix"/>
<feColorMatrix in="SourceAlpha" type="matrix" values="0 0 0 0 0 0 0 0 0 0 0 0 0 0 0 0 0 0 127 0" result="hardAlpha"/>
<feOffset dy="4"/>
<feGaussianBlur stdDeviation="2"/>
<feComposite in2="hardAlpha" operator="out"/>
<feColorMatrix type="matrix" values="0 0 0 0 0 0 0 0 0 0 0 0 0 0 0 0 0 0 0.25 0"/>
<feBlend mode="normal" in2="BackgroundImageFix" result="effect1_dropShadow_2097_856"/>
<feBlend mode="normal" in="SourceGraphic" in2="effect1_dropShadow_2097_856" result="shape"/>
</filter>
<filter id="filter8_d_2097_856" x="41.6016" y="0" width="21.5601" height="26.792" filterUnits="userSpaceOnUse" color-interpolation-filters="sRGB">
<feFlood flood-opacity="0" result="BackgroundImageFix"/>
<feColorMatrix in="SourceAlpha" type="matrix" values="0 0 0 0 0 0 0 0 0 0 0 0 0 0 0 0 0 0 127 0" result="hardAlpha"/>
<feOffset dy="4"/>
<feGaussianBlur stdDeviation="2"/>
<feComposite in2="hardAlpha" operator="out"/>
<feColorMatrix type="matrix" values="0 0 0 0 0 0 0 0 0 0 0 0 0 0 0 0 0 0 0.25 0"/>
<feBlend mode="normal" in2="BackgroundImageFix" result="effect1_dropShadow_2097_856"/>
<feBlend mode="normal" in="SourceGraphic" in2="effect1_dropShadow_2097_856" result="shape"/>
</filter>
<filter id="filter9_d_2097_856" x="26.9028" y="6.12012" width="21.752" height="21.0078" filterUnits="userSpaceOnUse" color-interpolation-filters="sRGB">
<feFlood flood-opacity="0" result="BackgroundImageFix"/>
<feColorMatrix in="SourceAlpha" type="matrix" values="0 0 0 0 0 0 0 0 0 0 0 0 0 0 0 0 0 0 127 0" result="hardAlpha"/>
<feOffset dy="4"/>
<feGaussianBlur stdDeviation="2"/>
<feComposite in2="hardAlpha" operator="out"/>
<feColorMatrix type="matrix" values="0 0 0 0 0 0 0 0 0 0 0 0 0 0 0 0 0 0 0.25 0"/>
<feBlend mode="normal" in2="BackgroundImageFix" result="effect1_dropShadow_2097_856"/>
<feBlend mode="normal" in="SourceGraphic" in2="effect1_dropShadow_2097_856" result="shape"/>
</filter>
<filter id="filter10_d_2097_856" x="13.9086" y="6.04785" width="19.76" height="21.0801" filterUnits="userSpaceOnUse" color-interpolation-filters="sRGB">
<feFlood flood-opacity="0" result="BackgroundImageFix"/>
<feColorMatrix in="SourceAlpha" type="matrix" values="0 0 0 0 0 0 0 0 0 0 0 0 0 0 0 0 0 0 127 0" result="hardAlpha"/>
<feOffset dy="4"/>
<feGaussianBlur stdDeviation="2"/>
<feComposite in2="hardAlpha" operator="out"/>
<feColorMatrix type="matrix" values="0 0 0 0 0 0 0 0 0 0 0 0 0 0 0 0 0 0 0.25 0"/>
<feBlend mode="normal" in2="BackgroundImageFix" result="effect1_dropShadow_2097_856"/>
<feBlend mode="normal" in="SourceGraphic" in2="effect1_dropShadow_2097_856" result="shape"/>
</filter>
<filter id="filter11_d_2097_856" x="0" y="0" width="21.5601" height="26.792" filterUnits="userSpaceOnUse" color-interpolation-filters="sRGB">
<feFlood flood-opacity="0" result="BackgroundImageFix"/>
<feColorMatrix in="SourceAlpha" type="matrix" values="0 0 0 0 0 0 0 0 0 0 0 0 0 0 0 0 0 0 127 0" result="hardAlpha"/>
<feOffset dy="4"/>
<feGaussianBlur stdDeviation="2"/>
<feComposite in2="hardAlpha" operator="out"/>
<feColorMatrix type="matrix" values="0 0 0 0 0 0 0 0 0 0 0 0 0 0 0 0 0 0 0.25 0"/>
<feBlend mode="normal" in2="BackgroundImageFix" result="effect1_dropShadow_2097_856"/>
<feBlend mode="normal" in="SourceGraphic" in2="effect1_dropShadow_2097_856" result="shape"/>
</filter>
</defs>
</svg>
