<svg width="170" height="18" viewBox="0 0 170 18" fill="none" xmlns="http://www.w3.org/2000/svg">
<path d="M8.75996 17.5438C8.23196 17.5438 7.73596 17.4238 7.27196 17.1838C6.80796 16.9278 6.43196 16.5598 6.14396 16.0798C5.85596 15.5998 5.71196 15.0238 5.71196 14.3518C5.71196 13.6638 5.87996 12.8878 6.21596 12.0238C6.47196 11.8958 6.77596 11.6958 7.12796 11.4238C7.47996 11.1518 7.79196 10.8478 8.06396 10.5118C8.33596 10.1598 8.47196 9.81583 8.47196 9.47983C8.47196 9.17583 8.35196 8.93583 8.11196 8.75983C7.88796 8.58383 7.60796 8.49583 7.27196 8.49583C6.85596 8.49583 6.46396 8.62383 6.09596 8.87983C5.72796 9.13583 5.39996 9.47183 5.11196 9.88783C4.83996 10.2878 4.62396 10.7278 4.46396 11.2078C4.31996 11.6718 4.24796 12.1198 4.24796 12.5518C4.24796 12.9678 4.29596 13.3598 4.39196 13.7278C4.50396 14.0798 4.55996 14.4878 4.55996 14.9518C4.55996 15.6718 4.36796 16.2798 3.98396 16.7758C3.59996 17.2718 3.03196 17.5198 2.27996 17.5198C1.59196 17.5198 1.03996 17.2878 0.623958 16.8238C0.207958 16.3598 -4.21107e-05 15.7278 -4.21107e-05 14.9278C-4.21107e-05 14.5118 0.0479579 13.9598 0.143958 13.2718C0.255958 12.5838 0.391958 11.8238 0.551958 10.9918C0.711958 10.1598 0.863958 9.30383 1.00796 8.42383C1.16796 7.52783 1.29596 6.67183 1.39196 5.85583C1.50396 5.02383 1.55996 4.27983 1.55996 3.62383C1.55996 3.27183 1.53596 2.95183 1.48796 2.66383C1.45596 2.35983 1.37596 2.11983 1.24796 1.94383V1.79983C1.59996 1.39983 1.98396 1.10383 2.39996 0.911828C2.81596 0.719827 3.22396 0.623827 3.62396 0.623827C4.23196 0.623827 4.75196 0.839827 5.18396 1.27183C5.61596 1.70383 5.83196 2.34383 5.83196 3.19183C5.83196 3.63983 5.76796 4.18383 5.63996 4.82383C5.52796 5.46383 5.38396 6.13583 5.20796 6.83983C5.04796 7.54383 4.87996 8.21583 4.70396 8.85583C5.05596 8.34383 5.45596 7.81583 5.90396 7.27183C6.35196 6.72783 6.85596 6.27183 7.41596 5.90383C7.97596 5.51983 8.60796 5.32783 9.31196 5.32783C10.128 5.32783 10.768 5.59183 11.232 6.11983C11.696 6.63183 11.928 7.24783 11.928 7.96783C11.928 8.68783 11.664 9.45583 11.136 10.2718C10.624 11.0878 9.75996 11.7758 8.54396 12.3358C8.75196 12.7998 9.03996 13.2158 9.40796 13.5838C9.77596 13.9518 10.176 14.2398 10.608 14.4478C11.056 14.6398 11.472 14.7358 11.856 14.7358C12.048 14.7358 12.216 14.7038 12.36 14.6398L12.504 14.7838C12.104 15.7118 11.552 16.4078 10.848 16.8718C10.16 17.3198 9.46396 17.5438 8.75996 17.5438ZM18.4479 17.5918C17.2479 17.5918 16.2559 17.3518 15.4719 16.8718C14.6879 16.3918 14.1039 15.7598 13.7199 14.9758C13.3519 14.1758 13.1679 13.3278 13.1679 12.4318C13.1679 11.5838 13.3199 10.7358 13.6239 9.88783C13.9439 9.03983 14.3999 8.27183 14.9919 7.58383C15.5999 6.87983 16.3359 6.31983 17.1999 5.90383C18.0639 5.47183 19.0559 5.25583 20.1759 5.25583C21.3759 5.25583 22.3599 5.50383 23.1279 5.99983C23.9119 6.47983 24.4879 7.11983 24.8559 7.91983C25.2399 8.71983 25.4319 9.57583 25.4319 10.4878C25.4319 11.3198 25.2799 12.1598 24.9759 13.0078C24.6719 13.8398 24.2159 14.6078 23.6079 15.3118C23.0159 15.9998 22.2879 16.5518 21.4239 16.9678C20.5599 17.3838 19.5679 17.5918 18.4479 17.5918ZM19.0959 15.5518C19.5279 15.5518 19.8879 15.3278 20.1759 14.8798C20.4639 14.4318 20.6799 13.8638 20.8239 13.1758C20.9679 12.4718 21.0399 11.7598 21.0399 11.0398C21.0399 10.3998 20.9759 9.79983 20.8479 9.23983C20.7359 8.66383 20.5599 8.19983 20.3199 7.84783C20.0799 7.47983 19.7679 7.29583 19.3839 7.29583C18.9679 7.29583 18.6079 7.51983 18.3039 7.96783C18.0159 8.41583 17.7999 8.98383 17.6559 9.67183C17.5119 10.3598 17.4399 11.0718 17.4399 11.8078C17.4399 12.4478 17.4959 13.0558 17.6079 13.6318C17.7359 14.1918 17.9199 14.6558 18.1599 15.0238C18.3999 15.3758 18.7119 15.5518 19.0959 15.5518ZM30.0251 17.5198C29.3051 17.5198 28.6971 17.2238 28.2011 16.6318C27.7211 16.0398 27.4811 15.2478 27.4811 14.2558C27.4811 13.7118 27.5451 13.1278 27.6731 12.5038C27.8011 11.8798 27.9291 11.2878 28.0571 10.7278C28.1691 10.3118 28.2571 9.92783 28.3211 9.57583C28.4011 9.20783 28.4411 8.91183 28.4411 8.68783C28.4411 8.39983 28.3771 8.19183 28.2491 8.06383C28.1371 7.93583 28.0011 7.87183 27.8411 7.87183C27.6811 7.87183 27.5211 7.92783 27.3611 8.03983C27.2011 8.13583 27.0731 8.28783 26.9771 8.49583L26.7851 8.42383C26.7851 7.76783 26.9451 7.20783 27.2651 6.74383C27.5851 6.27983 27.9931 5.92783 28.4891 5.68783C28.9851 5.44783 29.4891 5.32783 30.0011 5.32783C30.4171 5.32783 30.8171 5.41583 31.2011 5.59183C31.5851 5.75183 31.8971 6.00783 32.1371 6.35983C32.3931 6.71183 32.5211 7.15183 32.5211 7.67983C32.5211 7.99983 32.4731 8.38383 32.3771 8.83183C32.2971 9.27983 32.2011 9.74383 32.0891 10.2238C31.9771 10.7198 31.8651 11.2238 31.7531 11.7358C31.6571 12.2318 31.6091 12.6718 31.6091 13.0558C31.6091 13.4078 31.6651 13.6958 31.7771 13.9198C31.8891 14.1438 32.0571 14.2558 32.2811 14.2558C32.6971 14.2558 33.1611 13.8718 33.6731 13.1038C34.2011 12.3358 34.6251 11.3038 34.9451 10.0078C35.0091 9.75183 35.0651 9.47983 35.1131 9.19183C35.1611 8.90383 35.1851 8.60783 35.1851 8.30383C35.1851 8.06383 35.1691 7.82383 35.1371 7.58383C35.1051 7.32783 35.0571 7.07183 34.9931 6.81583V6.64783C35.2491 6.21583 35.5771 5.88783 35.9771 5.66383C36.3931 5.43983 36.8091 5.32783 37.2251 5.32783C37.7851 5.32783 38.2891 5.51983 38.7371 5.90383C39.1851 6.28783 39.4091 6.84783 39.4091 7.58383C39.4091 8.01583 39.3291 8.51983 39.1691 9.09583C39.0091 9.65583 38.8331 10.2398 38.6411 10.8478C38.4491 11.4398 38.2731 12.0238 38.1131 12.5998C37.9531 13.1758 37.8731 13.6878 37.8731 14.1358C37.8731 14.7918 38.1051 15.1198 38.5691 15.1198C38.6971 15.1198 38.8491 15.0878 39.0251 15.0238C39.2171 14.9438 39.3931 14.7918 39.5531 14.5678L39.7211 14.6158C39.7211 15.1918 39.5611 15.7038 39.2411 16.1518C38.9371 16.5838 38.5451 16.9198 38.0651 17.1598C37.5851 17.3998 37.0891 17.5198 36.5771 17.5198C35.9211 17.5198 35.3291 17.2798 34.8011 16.7998C34.2891 16.3198 34.0331 15.5358 34.0331 14.4478V14.3998C33.3771 15.5198 32.6971 16.3198 31.9931 16.7998C31.2891 17.2798 30.6331 17.5198 30.0251 17.5198ZM49.8459 17.5438C49.3179 17.5438 48.8219 17.4238 48.3579 17.1838C47.8939 16.9278 47.5179 16.5598 47.2299 16.0798C46.9419 15.5998 46.7979 15.0238 46.7979 14.3518C46.7979 13.6638 46.9659 12.8878 47.3019 12.0238C47.5579 11.8958 47.8619 11.6958 48.2139 11.4238C48.5659 11.1518 48.8779 10.8478 49.1499 10.5118C49.4219 10.1598 49.5579 9.81583 49.5579 9.47983C49.5579 9.17583 49.4379 8.93583 49.1979 8.75983C48.9739 8.58383 48.6939 8.49583 48.3579 8.49583C47.9419 8.49583 47.5499 8.62383 47.1819 8.87983C46.8139 9.13583 46.4859 9.47183 46.1979 9.88783C45.9259 10.2878 45.7099 10.7278 45.5499 11.2078C45.4059 11.6718 45.3339 12.1198 45.3339 12.5518C45.3339 12.9678 45.3819 13.3598 45.4779 13.7278C45.5899 14.0798 45.6459 14.4878 45.6459 14.9518C45.6459 15.6718 45.4539 16.2798 45.0699 16.7758C44.6859 17.2718 44.1179 17.5198 43.3659 17.5198C42.6779 17.5198 42.1259 17.2878 41.7099 16.8238C41.2939 16.3598 41.0859 15.7278 41.0859 14.9278C41.0859 14.5118 41.1339 13.9598 41.2299 13.2718C41.3419 12.5838 41.4779 11.8238 41.6379 10.9918C41.7979 10.1598 41.9499 9.30383 42.0939 8.42383C42.2539 7.52783 42.3819 6.67183 42.4779 5.85583C42.5899 5.02383 42.6459 4.27983 42.6459 3.62383C42.6459 3.27183 42.6219 2.95183 42.5739 2.66383C42.5419 2.35983 42.4619 2.11983 42.3339 1.94383V1.79983C42.6859 1.39983 43.0699 1.10383 43.4859 0.911828C43.9019 0.719827 44.3099 0.623827 44.7099 0.623827C45.3179 0.623827 45.8379 0.839827 46.2699 1.27183C46.7019 1.70383 46.9179 2.34383 46.9179 3.19183C46.9179 3.63983 46.8539 4.18383 46.7259 4.82383C46.6139 5.46383 46.4699 6.13583 46.2939 6.83983C46.1339 7.54383 45.9659 8.21583 45.7899 8.85583C46.1419 8.34383 46.5419 7.81583 46.9899 7.27183C47.4379 6.72783 47.9419 6.27183 48.5019 5.90383C49.0619 5.51983 49.6939 5.32783 50.3979 5.32783C51.2139 5.32783 51.8539 5.59183 52.3179 6.11983C52.7819 6.63183 53.0139 7.24783 53.0139 7.96783C53.0139 8.68783 52.7499 9.45583 52.2219 10.2718C51.7099 11.0878 50.8459 11.7758 49.6299 12.3358C49.8379 12.7998 50.1259 13.2158 50.4939 13.5838C50.8619 13.9518 51.2619 14.2398 51.6939 14.4478C52.1419 14.6398 52.5579 14.7358 52.9419 14.7358C53.1339 14.7358 53.3019 14.7038 53.4459 14.6398L53.5899 14.7838C53.1899 15.7118 52.6379 16.4078 51.9339 16.8718C51.2459 17.3198 50.5499 17.5438 49.8459 17.5438ZM58.8138 4.58383C58.1738 4.58383 57.6458 4.39183 57.2298 4.00783C56.8298 3.60783 56.6298 3.11183 56.6298 2.51983C56.6298 1.87983 56.8698 1.32783 57.3498 0.863827C57.8298 0.399827 58.4138 0.167827 59.1018 0.167827C59.7418 0.167827 60.2618 0.367827 60.6618 0.767828C61.0778 1.16783 61.2858 1.66383 61.2858 2.25583C61.2858 2.89583 61.0458 3.44783 60.5658 3.91183C60.0858 4.35983 59.5018 4.58383 58.8138 4.58383ZM57.1338 17.5198C56.5098 17.5198 55.9498 17.3038 55.4538 16.8718C54.9578 16.4238 54.7098 15.7118 54.7098 14.7358C54.7098 14.1758 54.7818 13.6558 54.9258 13.1758C55.0858 12.6798 55.2618 12.1998 55.4538 11.7358C55.6618 11.2718 55.8378 10.8238 55.9818 10.3918C56.1418 9.94383 56.2218 9.50383 56.2218 9.07183C56.2218 8.68783 56.1578 8.41583 56.0298 8.25583C55.9018 8.07983 55.7498 7.99183 55.5738 7.99183C55.3018 7.99183 55.0378 8.16783 54.7818 8.51983L54.6138 8.42383C54.6778 7.78383 54.8778 7.23983 55.2138 6.79183C55.5658 6.32783 55.9898 5.96783 56.4858 5.71183C56.9978 5.45583 57.5018 5.32783 57.9978 5.32783C58.6058 5.32783 59.1338 5.52783 59.5818 5.92783C60.0298 6.31183 60.2538 6.94383 60.2538 7.82383C60.2538 8.35183 60.1738 8.91183 60.0138 9.50383C59.8698 10.0798 59.6938 10.6558 59.4858 11.2318C59.2938 11.8078 59.1178 12.3438 58.9578 12.8398C58.8138 13.3358 58.7418 13.7598 58.7418 14.1118C58.7418 14.4158 58.7978 14.6318 58.9098 14.7598C59.0378 14.8878 59.1738 14.9518 59.3178 14.9518C59.4618 14.9518 59.5978 14.9118 59.7258 14.8318C59.8698 14.7358 59.9738 14.6318 60.0378 14.5198L60.2058 14.5678C60.2058 15.1598 60.0458 15.6798 59.7258 16.1278C59.4218 16.5598 59.0378 16.9038 58.5738 17.1598C58.1098 17.3998 57.6298 17.5198 57.1338 17.5198ZM76.2515 17.5918C75.0195 17.5918 73.9795 17.3598 73.1315 16.8958C72.2995 16.4318 71.6675 15.8398 71.2355 15.1198C70.8195 14.3838 70.6115 13.6238 70.6115 12.8398C70.6115 11.9598 70.8675 11.1198 71.3795 10.3198C71.9075 9.50383 72.6595 8.88783 73.6355 8.47183C73.0595 8.08783 72.6275 7.63983 72.3395 7.12783C72.0675 6.59983 71.9315 6.04783 71.9315 5.47183C71.9315 4.81583 72.0995 4.16783 72.4355 3.52783C72.7715 2.88783 73.2595 2.30383 73.8995 1.77583C74.5395 1.23183 75.3155 0.799827 76.2275 0.479827C77.1395 0.159828 78.1715 -0.000172138 79.3235 -0.000172138C80.7635 -0.000172138 81.7715 0.239828 82.3475 0.719827C82.9395 1.19983 83.2355 1.75983 83.2355 2.39983C83.2355 2.92783 83.0595 3.45583 82.7075 3.98383C82.3555 4.51183 81.8515 4.95183 81.1955 5.30383C80.5555 5.65583 79.7875 5.83183 78.8915 5.83183C79.0995 5.38383 79.2435 4.99183 79.3235 4.65583C79.4035 4.30383 79.4435 3.99983 79.4435 3.74383C79.4435 3.32783 79.3475 3.02383 79.1555 2.83183C78.9795 2.63983 78.7555 2.54383 78.4835 2.54383C78.1315 2.54383 77.7555 2.67983 77.3555 2.95183C76.9555 3.22383 76.6115 3.59983 76.3235 4.07983C76.0515 4.54383 75.9155 5.09583 75.9155 5.73583C75.9155 5.99183 75.9475 6.27183 76.0115 6.57583C76.0755 6.86383 76.1795 7.16783 76.3235 7.48783C76.7235 7.24783 77.0755 7.07983 77.3795 6.98383C77.6995 6.87183 77.9795 6.81583 78.2195 6.81583C78.6835 6.81583 79.0195 6.95983 79.2275 7.24783C79.4355 7.53583 79.5395 7.87183 79.5395 8.25583C79.5395 8.60783 79.4595 8.95983 79.2995 9.31183C79.1395 9.66383 78.9075 9.95983 78.6035 10.1998C78.2995 10.4238 77.9315 10.5358 77.4995 10.5358C77.2435 10.5358 76.9715 10.4878 76.6835 10.3918C76.3955 10.2798 76.0915 10.1118 75.7715 9.88783C75.5155 10.3678 75.3315 10.8158 75.2195 11.2318C75.1075 11.6318 75.0515 11.9918 75.0515 12.3118C75.0515 13.0798 75.2995 13.6478 75.7955 14.0158C76.3075 14.3838 76.9155 14.5678 77.6195 14.5678C78.1795 14.5678 78.7555 14.4558 79.3475 14.2318C79.9555 14.0078 80.5155 13.6878 81.0275 13.2718C81.5395 12.8398 81.9555 12.3118 82.2755 11.6878C82.5955 11.0638 82.7555 10.3438 82.7555 9.52783C82.1155 9.38383 81.6595 9.15983 81.3875 8.85583C81.1155 8.55183 80.9795 8.22383 80.9795 7.87183C80.9795 7.39183 81.1635 6.95183 81.5315 6.55183C81.9155 6.15183 82.3315 5.95183 82.7795 5.95183C83.0515 5.95183 83.3155 6.05583 83.5715 6.26383C83.8435 6.45583 84.0755 6.78383 84.2675 7.24783C84.8755 6.71983 85.3475 6.10383 85.6835 5.39983C86.0355 4.67983 86.2115 3.95983 86.2115 3.23983C86.2115 2.87183 86.1555 2.50383 86.0435 2.13583C85.9475 1.76783 85.7875 1.42383 85.5635 1.10383L85.7315 0.935827C87.1715 0.935827 88.2515 1.18383 88.9715 1.67983C89.6915 2.17583 90.0515 2.79983 90.0515 3.55183C90.0515 4.38383 89.6115 5.28783 88.7315 6.26383C87.8675 7.22383 86.5555 8.09583 84.7955 8.87983C84.8275 9.08783 84.8515 9.28783 84.8675 9.47983C84.8835 9.67183 84.8915 9.85583 84.8915 10.0318C84.8915 11.1678 84.6435 12.1998 84.1475 13.1278C83.6515 14.0558 82.9875 14.8558 82.1555 15.5278C81.3235 16.1838 80.3955 16.6958 79.3715 17.0638C78.3475 17.4158 77.3075 17.5918 76.2515 17.5918ZM95.7438 17.5198C95.1678 17.5198 94.6478 17.2878 94.1838 16.8238C93.7358 16.3438 93.5118 15.6878 93.5118 14.8558C93.5118 14.4398 93.5678 13.9678 93.6798 13.4398C93.7918 12.8958 93.9118 12.3438 94.0398 11.7838C94.1838 11.2238 94.3118 10.6958 94.4238 10.1998C94.5358 9.70383 94.5918 9.28783 94.5918 8.95183C94.5918 8.67983 94.5278 8.46383 94.3998 8.30383C94.2718 8.12783 94.1038 8.03983 93.8958 8.03983C93.6238 8.03983 93.3278 8.19983 93.0078 8.51983L92.8638 8.42383C92.8478 8.16783 92.9038 7.86383 93.0318 7.51183C93.1598 7.15983 93.3678 6.82383 93.6558 6.50383C93.9438 6.16783 94.3198 5.88783 94.7838 5.66383C95.2478 5.43983 95.7998 5.32783 96.4398 5.32783C97.1598 5.32783 97.6958 5.58383 98.0478 6.09583C98.4158 6.59183 98.5998 7.19183 98.5998 7.89583C98.5998 7.97583 98.5998 8.06383 98.5998 8.15983C98.5998 8.23983 98.5918 8.31983 98.5758 8.39983C98.8798 7.90383 99.2318 7.42383 99.6318 6.95983C100.048 6.49583 100.512 6.11183 101.024 5.80783C101.552 5.48783 102.12 5.32783 102.728 5.32783C103.512 5.32783 104.056 5.58383 104.36 6.09583C104.664 6.59183 104.816 7.15983 104.816 7.79983C104.816 7.92783 104.808 8.05583 104.792 8.18383C104.792 8.29583 104.784 8.40783 104.768 8.51983C105.104 8.02383 105.472 7.53583 105.872 7.05583C106.288 6.55983 106.76 6.15183 107.288 5.83183C107.816 5.49583 108.424 5.32783 109.112 5.32783C109.96 5.32783 110.536 5.57583 110.84 6.07183C111.16 6.56783 111.32 7.15183 111.32 7.82383C111.32 8.41583 111.248 9.09583 111.104 9.86383C110.96 10.6158 110.816 11.3598 110.672 12.0958C110.528 12.8318 110.456 13.4558 110.456 13.9678C110.456 14.2718 110.496 14.5198 110.576 14.7118C110.672 14.9038 110.824 14.9998 111.032 14.9998C111.208 14.9998 111.368 14.9518 111.512 14.8558C111.672 14.7438 111.784 14.6158 111.848 14.4718L112.04 14.5438C112.04 15.1358 111.872 15.6558 111.536 16.1038C111.2 16.5518 110.776 16.9038 110.264 17.1598C109.752 17.3998 109.24 17.5198 108.728 17.5198C108.104 17.5198 107.552 17.3118 107.072 16.8958C106.608 16.4798 106.376 15.7918 106.376 14.8318C106.376 14.2398 106.448 13.5998 106.592 12.9118C106.752 12.2238 106.904 11.5598 107.048 10.9198C107.208 10.2638 107.288 9.72783 107.288 9.31183C107.288 8.71983 107.08 8.42383 106.664 8.42383C106.36 8.42383 106.056 8.55183 105.752 8.80783C105.464 9.04783 105.2 9.37583 104.96 9.79183C104.736 10.1918 104.552 10.6158 104.408 11.0638C104.264 11.5118 104.192 11.9438 104.192 12.3598C104.192 12.7438 104.232 13.1678 104.312 13.6318C104.408 14.0798 104.456 14.5118 104.456 14.9278C104.456 15.7598 104.224 16.3998 103.76 16.8478C103.296 17.2958 102.752 17.5198 102.128 17.5198C101.552 17.5198 101.032 17.3278 100.568 16.9438C100.12 16.5598 99.8958 15.9838 99.8958 15.2158C99.8958 14.8638 99.9438 14.4398 100.04 13.9438C100.136 13.4318 100.24 12.9038 100.352 12.3598C100.48 11.7998 100.592 11.2638 100.688 10.7518C100.784 10.2398 100.832 9.79183 100.832 9.40783C100.832 9.10383 100.784 8.86383 100.688 8.68783C100.608 8.51183 100.44 8.42383 100.184 8.42383C99.8158 8.42383 99.4638 8.60783 99.1278 8.97583C98.7918 9.34383 98.5038 9.79183 98.2638 10.3198C98.0238 10.8318 97.8638 11.3278 97.7838 11.8078C97.7678 11.9198 97.7518 12.0078 97.7358 12.0718C97.7358 12.1358 97.7358 12.1678 97.7358 12.1678C97.7358 12.6638 97.7918 13.1198 97.9038 13.5358C98.0158 13.9358 98.0718 14.3518 98.0718 14.7838C98.0718 15.5678 97.8318 16.2238 97.3518 16.7518C96.8878 17.2638 96.3518 17.5198 95.7438 17.5198ZM117.75 4.58383C117.11 4.58383 116.582 4.39183 116.166 4.00783C115.766 3.60783 115.566 3.11183 115.566 2.51983C115.566 1.87983 115.806 1.32783 116.286 0.863827C116.766 0.399827 117.35 0.167827 118.038 0.167827C118.678 0.167827 119.198 0.367827 119.598 0.767828C120.014 1.16783 120.222 1.66383 120.222 2.25583C120.222 2.89583 119.982 3.44783 119.502 3.91183C119.022 4.35983 118.438 4.58383 117.75 4.58383ZM116.07 17.5198C115.446 17.5198 114.886 17.3038 114.39 16.8718C113.894 16.4238 113.646 15.7118 113.646 14.7358C113.646 14.1758 113.718 13.6558 113.862 13.1758C114.022 12.6798 114.198 12.1998 114.39 11.7358C114.598 11.2718 114.774 10.8238 114.918 10.3918C115.078 9.94383 115.158 9.50383 115.158 9.07183C115.158 8.68783 115.094 8.41583 114.966 8.25583C114.838 8.07983 114.686 7.99183 114.51 7.99183C114.238 7.99183 113.974 8.16783 113.718 8.51983L113.55 8.42383C113.614 7.78383 113.814 7.23983 114.15 6.79183C114.502 6.32783 114.926 5.96783 115.422 5.71183C115.934 5.45583 116.438 5.32783 116.934 5.32783C117.542 5.32783 118.07 5.52783 118.518 5.92783C118.966 6.31183 119.19 6.94383 119.19 7.82383C119.19 8.35183 119.11 8.91183 118.95 9.50383C118.806 10.0798 118.63 10.6558 118.422 11.2318C118.23 11.8078 118.054 12.3438 117.894 12.8398C117.75 13.3358 117.678 13.7598 117.678 14.1118C117.678 14.4158 117.734 14.6318 117.846 14.7598C117.974 14.8878 118.11 14.9518 118.254 14.9518C118.398 14.9518 118.534 14.9118 118.662 14.8318C118.806 14.7358 118.91 14.6318 118.974 14.5198L119.142 14.5678C119.142 15.1598 118.982 15.6798 118.662 16.1278C118.358 16.5598 117.974 16.9038 117.51 17.1598C117.046 17.3998 116.566 17.5198 116.07 17.5198ZM123.376 17.5918C122.752 17.5598 122.208 17.3438 121.744 16.9438C121.296 16.5278 120.984 15.8078 120.808 14.7838C121.576 14.5438 122.336 14.0958 123.088 13.4398C123.856 12.7678 124.608 11.9998 125.344 11.1358C126.096 10.2558 126.832 9.39983 127.552 8.56783C127.296 8.40783 127.048 8.29583 126.808 8.23183C126.568 8.16783 126.344 8.13583 126.136 8.13583C125.704 8.13583 125.352 8.25583 125.08 8.49583C124.824 8.71983 124.696 9.02383 124.696 9.40783C124.696 9.75983 124.824 10.1598 125.08 10.6078C124.888 10.6398 124.704 10.6638 124.528 10.6798C124.352 10.6958 124.192 10.7038 124.048 10.7038C123.04 10.7038 122.296 10.4398 121.816 9.91183C121.336 9.38383 121.096 8.79983 121.096 8.15983C121.096 7.69583 121.208 7.24783 121.432 6.81583C121.672 6.36783 122.024 6.00783 122.488 5.73583C122.952 5.44783 123.512 5.30383 124.168 5.30383C124.776 5.30383 125.456 5.45583 126.208 5.75983C126.976 6.04783 127.816 6.54383 128.728 7.24783C129.192 6.75183 129.64 6.31183 130.072 5.92783C130.52 5.54383 130.968 5.24783 131.416 5.03983C132.296 5.18383 132.92 5.49583 133.288 5.97583C133.672 6.43983 133.864 6.93583 133.864 7.46383C133.864 7.55983 133.856 7.64783 133.84 7.72783C133.84 7.80783 133.832 7.88783 133.816 7.96783C132.84 8.36783 132 8.90383 131.296 9.57583C130.608 10.2318 129.968 10.9598 129.376 11.7598C128.784 12.5438 128.136 13.3438 127.432 14.1598C127.72 14.3998 128 14.5758 128.272 14.6878C128.544 14.7838 128.792 14.8318 129.016 14.8318C129.448 14.8318 129.8 14.6878 130.072 14.3998C130.344 14.0958 130.48 13.7438 130.48 13.3438C130.48 13.2158 130.464 13.0878 130.432 12.9598C130.416 12.8318 130.368 12.7038 130.288 12.5758C130.48 12.5438 130.664 12.5198 130.84 12.5038C131.032 12.4718 131.216 12.4558 131.392 12.4558C132.288 12.4558 132.944 12.6878 133.36 13.1518C133.776 13.5998 133.984 14.1198 133.984 14.7118C133.984 15.1598 133.864 15.6078 133.624 16.0558C133.384 16.5038 133.032 16.8718 132.568 17.1598C132.104 17.4478 131.544 17.5918 130.888 17.5918C130.28 17.5918 129.584 17.4238 128.8 17.0878C128.032 16.7518 127.192 16.1918 126.28 15.4078C125.88 15.8078 125.44 16.1918 124.96 16.5598C124.48 16.9278 123.952 17.2718 123.376 17.5918ZM138.578 17.5198C137.858 17.5198 137.25 17.2238 136.754 16.6318C136.274 16.0398 136.034 15.2478 136.034 14.2558C136.034 13.7118 136.098 13.1278 136.226 12.5038C136.354 11.8798 136.482 11.2878 136.61 10.7278C136.722 10.3118 136.81 9.92783 136.874 9.57583C136.954 9.20783 136.994 8.91183 136.994 8.68783C136.994 8.39983 136.93 8.19183 136.802 8.06383C136.69 7.93583 136.554 7.87183 136.394 7.87183C136.234 7.87183 136.074 7.92783 135.914 8.03983C135.754 8.13583 135.626 8.28783 135.53 8.49583L135.338 8.42383C135.338 7.76783 135.498 7.20783 135.818 6.74383C136.138 6.27983 136.546 5.92783 137.042 5.68783C137.538 5.44783 138.042 5.32783 138.554 5.32783C138.97 5.32783 139.37 5.41583 139.754 5.59183C140.138 5.75183 140.45 6.00783 140.69 6.35983C140.946 6.71183 141.074 7.15183 141.074 7.67983C141.074 7.99983 141.026 8.38383 140.93 8.83183C140.85 9.27983 140.754 9.74383 140.642 10.2238C140.53 10.7198 140.418 11.2238 140.306 11.7358C140.21 12.2318 140.162 12.6718 140.162 13.0558C140.162 13.4078 140.218 13.6958 140.33 13.9198C140.442 14.1438 140.61 14.2558 140.834 14.2558C141.25 14.2558 141.714 13.8718 142.226 13.1038C142.754 12.3358 143.178 11.3038 143.498 10.0078C143.562 9.75183 143.618 9.47983 143.666 9.19183C143.714 8.90383 143.738 8.60783 143.738 8.30383C143.738 8.06383 143.722 7.82383 143.69 7.58383C143.658 7.32783 143.61 7.07183 143.546 6.81583V6.64783C143.802 6.21583 144.13 5.88783 144.53 5.66383C144.946 5.43983 145.362 5.32783 145.778 5.32783C146.338 5.32783 146.842 5.51983 147.29 5.90383C147.738 6.28783 147.962 6.84783 147.962 7.58383C147.962 8.01583 147.882 8.51983 147.722 9.09583C147.562 9.65583 147.386 10.2398 147.194 10.8478C147.002 11.4398 146.826 12.0238 146.666 12.5998C146.506 13.1758 146.426 13.6878 146.426 14.1358C146.426 14.7918 146.658 15.1198 147.122 15.1198C147.25 15.1198 147.402 15.0878 147.578 15.0238C147.77 14.9438 147.946 14.7918 148.106 14.5678L148.274 14.6158C148.274 15.1918 148.114 15.7038 147.794 16.1518C147.49 16.5838 147.098 16.9198 146.618 17.1598C146.138 17.3998 145.642 17.5198 145.13 17.5198C144.474 17.5198 143.882 17.2798 143.354 16.7998C142.842 16.3198 142.586 15.5358 142.586 14.4478V14.3998C141.93 15.5198 141.25 16.3198 140.546 16.7998C139.842 17.2798 139.186 17.5198 138.578 17.5198ZM158.399 17.5438C157.871 17.5438 157.375 17.4238 156.911 17.1838C156.447 16.9278 156.071 16.5598 155.783 16.0798C155.495 15.5998 155.351 15.0238 155.351 14.3518C155.351 13.6638 155.519 12.8878 155.855 12.0238C156.111 11.8958 156.415 11.6958 156.767 11.4238C157.119 11.1518 157.431 10.8478 157.703 10.5118C157.975 10.1598 158.111 9.81583 158.111 9.47983C158.111 9.17583 157.991 8.93583 157.751 8.75983C157.527 8.58383 157.247 8.49583 156.911 8.49583C156.495 8.49583 156.103 8.62383 155.735 8.87983C155.367 9.13583 155.039 9.47183 154.751 9.88783C154.479 10.2878 154.263 10.7278 154.103 11.2078C153.959 11.6718 153.887 12.1198 153.887 12.5518C153.887 12.9678 153.935 13.3598 154.031 13.7278C154.143 14.0798 154.199 14.4878 154.199 14.9518C154.199 15.6718 154.007 16.2798 153.623 16.7758C153.239 17.2718 152.671 17.5198 151.919 17.5198C151.231 17.5198 150.679 17.2878 150.263 16.8238C149.847 16.3598 149.639 15.7278 149.639 14.9278C149.639 14.5118 149.687 13.9598 149.783 13.2718C149.895 12.5838 150.031 11.8238 150.191 10.9918C150.351 10.1598 150.503 9.30383 150.647 8.42383C150.807 7.52783 150.935 6.67183 151.031 5.85583C151.143 5.02383 151.199 4.27983 151.199 3.62383C151.199 3.27183 151.175 2.95183 151.127 2.66383C151.095 2.35983 151.015 2.11983 150.887 1.94383V1.79983C151.239 1.39983 151.623 1.10383 152.039 0.911828C152.455 0.719827 152.863 0.623827 153.263 0.623827C153.871 0.623827 154.391 0.839827 154.823 1.27183C155.255 1.70383 155.471 2.34383 155.471 3.19183C155.471 3.63983 155.407 4.18383 155.279 4.82383C155.167 5.46383 155.023 6.13583 154.847 6.83983C154.687 7.54383 154.519 8.21583 154.343 8.85583C154.695 8.34383 155.095 7.81583 155.543 7.27183C155.991 6.72783 156.495 6.27183 157.055 5.90383C157.615 5.51983 158.247 5.32783 158.951 5.32783C159.767 5.32783 160.407 5.59183 160.871 6.11983C161.335 6.63183 161.567 7.24783 161.567 7.96783C161.567 8.68783 161.303 9.45583 160.775 10.2718C160.263 11.0878 159.399 11.7758 158.183 12.3358C158.391 12.7998 158.679 13.2158 159.047 13.5838C159.415 13.9518 159.815 14.2398 160.247 14.4478C160.695 14.6398 161.111 14.7358 161.495 14.7358C161.687 14.7358 161.855 14.7038 161.999 14.6398L162.143 14.7838C161.743 15.7118 161.191 16.4078 160.487 16.8718C159.799 17.3198 159.103 17.5438 158.399 17.5438ZM167.367 4.58383C166.727 4.58383 166.199 4.39183 165.783 4.00783C165.383 3.60783 165.183 3.11183 165.183 2.51983C165.183 1.87983 165.423 1.32783 165.903 0.863827C166.383 0.399827 166.967 0.167827 167.655 0.167827C168.295 0.167827 168.815 0.367827 169.215 0.767828C169.631 1.16783 169.839 1.66383 169.839 2.25583C169.839 2.89583 169.599 3.44783 169.119 3.91183C168.639 4.35983 168.055 4.58383 167.367 4.58383ZM165.687 17.5198C165.063 17.5198 164.503 17.3038 164.007 16.8718C163.511 16.4238 163.263 15.7118 163.263 14.7358C163.263 14.1758 163.335 13.6558 163.479 13.1758C163.639 12.6798 163.815 12.1998 164.007 11.7358C164.215 11.2718 164.391 10.8238 164.535 10.3918C164.695 9.94383 164.775 9.50383 164.775 9.07183C164.775 8.68783 164.711 8.41583 164.583 8.25583C164.455 8.07983 164.303 7.99183 164.127 7.99183C163.855 7.99183 163.591 8.16783 163.335 8.51983L163.167 8.42383C163.231 7.78383 163.431 7.23983 163.767 6.79183C164.119 6.32783 164.543 5.96783 165.039 5.71183C165.551 5.45583 166.055 5.32783 166.551 5.32783C167.159 5.32783 167.687 5.52783 168.135 5.92783C168.583 6.31183 168.807 6.94383 168.807 7.82383C168.807 8.35183 168.727 8.91183 168.567 9.50383C168.423 10.0798 168.247 10.6558 168.039 11.2318C167.847 11.8078 167.671 12.3438 167.511 12.8398C167.367 13.3358 167.295 13.7598 167.295 14.1118C167.295 14.4158 167.351 14.6318 167.463 14.7598C167.591 14.8878 167.727 14.9518 167.871 14.9518C168.015 14.9518 168.151 14.9118 168.279 14.8318C168.423 14.7358 168.527 14.6318 168.591 14.5198L168.759 14.5678C168.759 15.1598 168.599 15.6798 168.279 16.1278C167.975 16.5598 167.591 16.9038 167.127 17.1598C166.663 17.3998 166.183 17.5198 165.687 17.5198Z" fill="white"/>
</svg>
