<svg width="184" height="28" viewBox="0 0 184 28" fill="none" xmlns="http://www.w3.org/2000/svg">
<g filter="url(#filter0_d_2077_5)">
<path d="M8.99199 -9.05991e-06V16.56C8.99199 17.232 9.09599 17.688 9.30399 17.928C9.52799 18.168 9.90399 18.288 10.432 18.288V18.792C10.128 18.776 9.67999 18.76 9.08799 18.744C8.51199 18.712 7.91999 18.696 7.31199 18.696C6.68799 18.696 6.05599 18.712 5.41599 18.744C4.79199 18.76 4.31999 18.776 3.99999 18.792V18.288C4.55999 18.288 4.95199 18.168 5.17599 17.928C5.41599 17.688 5.53599 17.232 5.53599 16.56V2.87999C5.53599 2.15999 5.42399 1.63199 5.19999 1.29599C4.99199 0.943991 4.59199 0.767991 3.99999 0.767991V0.263992C4.51199 0.311991 5.00799 0.335991 5.48799 0.335991C6.14399 0.335991 6.76799 0.311991 7.35999 0.263992C7.95199 0.199992 8.49599 0.111991 8.99199 -9.05991e-06ZM16.816 6.38399V6.86399C16.32 6.95999 15.824 7.16799 15.328 7.48799C14.832 7.80799 14.328 8.21599 13.816 8.71199L11.968 10.632L12.208 10.176L16.312 17.04C16.488 17.328 16.672 17.584 16.864 17.808C17.056 18.032 17.288 18.192 17.56 18.288V18.792C17.32 18.776 16.96 18.76 16.48 18.744C16 18.712 15.52 18.696 15.04 18.696C14.448 18.696 13.856 18.712 13.264 18.744C12.672 18.76 12.232 18.776 11.944 18.792V18.288C12.264 18.288 12.48 18.216 12.592 18.072C12.704 17.912 12.688 17.712 12.544 17.472L10.168 13.176C9.97599 12.872 9.78399 12.68 9.59199 12.6C9.41599 12.504 9.17599 12.448 8.87199 12.432V11.976C9.20799 11.944 9.49599 11.888 9.73599 11.808C9.99199 11.728 10.224 11.576 10.432 11.352L12.256 9.57599C12.8 9.06399 13.072 8.60799 13.072 8.20799C13.072 7.80799 12.896 7.48799 12.544 7.24799C12.208 7.00799 11.76 6.87999 11.2 6.86399V6.38399C11.648 6.39999 12.136 6.41599 12.664 6.43199C13.192 6.44799 13.64 6.45599 14.008 6.45599C14.328 6.45599 14.664 6.45599 15.016 6.45599C15.384 6.43999 15.728 6.43199 16.048 6.43199C16.368 6.41599 16.624 6.39999 16.816 6.38399ZM23.7886 6.04799C24.9566 6.04799 25.9806 6.26399 26.8606 6.69599C27.7406 7.12799 28.4286 7.82399 28.9246 8.78399C29.4206 9.74399 29.6686 11.016 29.6686 12.6C29.6686 14.184 29.4206 15.456 28.9246 16.416C28.4286 17.36 27.7406 18.048 26.8606 18.48C25.9806 18.912 24.9566 19.128 23.7886 19.128C22.6526 19.128 21.6366 18.912 20.7406 18.48C19.8606 18.048 19.1646 17.36 18.6526 16.416C18.1566 15.456 17.9086 14.184 17.9086 12.6C17.9086 11.016 18.1566 9.74399 18.6526 8.78399C19.1646 7.82399 19.8606 7.12799 20.7406 6.69599C21.6366 6.26399 22.6526 6.04799 23.7886 6.04799ZM23.7886 6.52799C23.1486 6.52799 22.6126 7.00799 22.1806 7.96799C21.7486 8.91199 21.5326 10.456 21.5326 12.6C21.5326 14.744 21.7486 16.288 22.1806 17.232C22.6126 18.176 23.1486 18.648 23.7886 18.648C24.4446 18.648 24.9806 18.176 25.3966 17.232C25.8286 16.288 26.0446 14.744 26.0446 12.6C26.0446 10.456 25.8286 8.91199 25.3966 7.96799C24.9806 7.00799 24.4446 6.52799 23.7886 6.52799ZM43.1189 6.11999V16.176C43.1189 16.896 43.2309 17.432 43.4549 17.784C43.6789 18.12 44.0789 18.288 44.6549 18.288V18.792C44.1589 18.744 43.6629 18.72 43.1669 18.72C42.4949 18.72 41.8709 18.744 41.2949 18.792C40.7189 18.84 40.1749 18.928 39.6629 19.056V16.896C39.2789 17.696 38.7429 18.272 38.0549 18.624C37.3829 18.96 36.6309 19.128 35.7989 19.128C35.1269 19.128 34.5829 19.04 34.1669 18.864C33.7509 18.688 33.4229 18.464 33.1829 18.192C32.9109 17.888 32.7189 17.488 32.6069 16.992C32.4949 16.496 32.4389 15.856 32.4389 15.072V8.99999C32.4389 8.27999 32.3269 7.75199 32.1029 7.41599C31.8949 7.06399 31.4949 6.88799 30.9029 6.88799V6.38399C31.4149 6.43199 31.9109 6.45599 32.3909 6.45599C33.0629 6.45599 33.6869 6.43199 34.2629 6.38399C34.8549 6.31999 35.3989 6.23199 35.8949 6.11999V16.056C35.8949 16.456 35.9269 16.808 35.9909 17.112C36.0709 17.416 36.2149 17.656 36.4229 17.832C36.6309 17.992 36.9349 18.072 37.3349 18.072C37.7669 18.072 38.1509 17.952 38.4869 17.712C38.8389 17.472 39.1189 17.144 39.3269 16.728C39.5509 16.296 39.6629 15.816 39.6629 15.288V8.99999C39.6629 8.27999 39.5509 7.75199 39.3269 7.41599C39.1189 7.06399 38.7189 6.88799 38.1269 6.88799V6.38399C38.6389 6.43199 39.1349 6.45599 39.6149 6.45599C40.2869 6.45599 40.9109 6.43199 41.4869 6.38399C42.0789 6.31999 42.6229 6.23199 43.1189 6.11999ZM50.5936 -9.05991e-06V16.56C50.5936 17.232 50.6976 17.688 50.9056 17.928C51.1296 18.168 51.5056 18.288 52.0336 18.288V18.792C51.7296 18.776 51.2816 18.76 50.6896 18.744C50.1136 18.712 49.5216 18.696 48.9136 18.696C48.2896 18.696 47.6576 18.712 47.0176 18.744C46.3936 18.76 45.9216 18.776 45.6016 18.792V18.288C46.1616 18.288 46.5536 18.168 46.7776 17.928C47.0176 17.688 47.1376 17.232 47.1376 16.56V2.87999C47.1376 2.15999 47.0256 1.63199 46.8016 1.29599C46.5936 0.943991 46.1936 0.767991 45.6016 0.767991V0.263992C46.1136 0.311991 46.6096 0.335991 47.0896 0.335991C47.7456 0.335991 48.3696 0.311991 48.9616 0.263992C49.5536 0.199992 50.0976 0.111991 50.5936 -9.05991e-06ZM58.4176 6.38399V6.86399C57.9216 6.95999 57.4256 7.16799 56.9296 7.48799C56.4336 7.80799 55.9296 8.21599 55.4176 8.71199L53.5696 10.632L53.8096 10.176L57.9136 17.04C58.0896 17.328 58.2736 17.584 58.4656 17.808C58.6576 18.032 58.8896 18.192 59.1616 18.288V18.792C58.9216 18.776 58.5616 18.76 58.0816 18.744C57.6016 18.712 57.1216 18.696 56.6416 18.696C56.0496 18.696 55.4576 18.712 54.8656 18.744C54.2736 18.76 53.8336 18.776 53.5456 18.792V18.288C53.8656 18.288 54.0816 18.216 54.1936 18.072C54.3056 17.912 54.2896 17.712 54.1456 17.472L51.7696 13.176C51.5776 12.872 51.3856 12.68 51.1936 12.6C51.0176 12.504 50.7776 12.448 50.4736 12.432V11.976C50.8096 11.944 51.0976 11.888 51.3376 11.808C51.5936 11.728 51.8256 11.576 52.0336 11.352L53.8576 9.57599C54.4016 9.06399 54.6736 8.60799 54.6736 8.20799C54.6736 7.80799 54.4976 7.48799 54.1456 7.24799C53.8096 7.00799 53.3616 6.87999 52.8016 6.86399V6.38399C53.2496 6.39999 53.7376 6.41599 54.2656 6.43199C54.7936 6.44799 55.2416 6.45599 55.6096 6.45599C55.9296 6.45599 56.2656 6.45599 56.6176 6.45599C56.9856 6.43999 57.3296 6.43199 57.6496 6.43199C57.9696 6.41599 58.2256 6.39999 58.4176 6.38399ZM62.8806 0.191991C63.5526 0.191991 64.0806 0.359992 64.4646 0.695992C64.8646 1.01599 65.0646 1.46399 65.0646 2.03999C65.0646 2.61599 64.8646 3.07199 64.4646 3.40799C64.0806 3.72799 63.5526 3.88799 62.8806 3.88799C62.2086 3.88799 61.6726 3.72799 61.2726 3.40799C60.8886 3.07199 60.6966 2.61599 60.6966 2.03999C60.6966 1.46399 60.8886 1.01599 61.2726 0.695992C61.6726 0.359992 62.2086 0.191991 62.8806 0.191991ZM64.7526 6.11999V16.56C64.7526 17.232 64.8646 17.688 65.0886 17.928C65.3286 18.168 65.7286 18.288 66.2886 18.288V18.792C66.0006 18.776 65.5526 18.76 64.9446 18.744C64.3366 18.712 63.7206 18.696 63.0966 18.696C62.4726 18.696 61.8406 18.712 61.2006 18.744C60.5606 18.76 60.0806 18.776 59.7606 18.792V18.288C60.3206 18.288 60.7126 18.168 60.9366 17.928C61.1766 17.688 61.2966 17.232 61.2966 16.56V8.99999C61.2966 8.27999 61.1846 7.75199 60.9606 7.41599C60.7526 7.06399 60.3526 6.88799 59.7606 6.88799V6.38399C60.2726 6.43199 60.7686 6.45599 61.2486 6.45599C61.9206 6.45599 62.5446 6.43199 63.1206 6.38399C63.7126 6.31999 64.2566 6.23199 64.7526 6.11999ZM85.8781 1.75199C86.5021 1.75199 87.0061 1.79999 87.3901 1.89599C87.7741 1.97599 88.1021 2.09599 88.3741 2.25599C88.6301 2.36799 88.8621 2.51199 89.0701 2.68799C89.2941 2.86399 89.4781 3.07999 89.6221 3.33599C89.7661 3.59199 89.8381 3.87999 89.8381 4.19999C89.8381 4.67999 89.6541 5.06399 89.2861 5.35199C88.9181 5.63999 88.4861 5.78399 87.9901 5.78399C87.5101 5.78399 87.0941 5.66399 86.7421 5.42399C86.4061 5.18399 86.2381 4.80799 86.2381 4.29599C86.2381 3.89599 86.3821 3.53599 86.6701 3.21599C86.9581 2.87999 87.3261 2.67199 87.7741 2.59199C87.6621 2.46399 87.4541 2.35999 87.1501 2.27999C86.8621 2.19999 86.5421 2.15999 86.1901 2.15999C85.3581 2.15999 84.6461 2.42399 84.0541 2.95199C83.4781 3.46399 83.1901 4.24799 83.1901 5.30399C83.1901 5.67199 83.2541 6.06399 83.3821 6.47999C83.5101 6.89599 83.7581 7.31999 84.1261 7.75199C84.3981 7.68799 84.6461 7.63999 84.8701 7.60799C85.1101 7.57599 85.3101 7.55999 85.4701 7.55999C85.7581 7.55999 85.9741 7.62399 86.1181 7.75199C86.2781 7.86399 86.3581 8.01599 86.3581 8.20799C86.3581 8.35199 86.2941 8.47199 86.1661 8.56799C86.0381 8.66399 85.8781 8.71199 85.6861 8.71199C85.4141 8.71199 85.1341 8.63999 84.8461 8.49599C84.5581 8.33599 84.3261 8.19999 84.1501 8.08799C83.3981 8.47199 82.7821 8.96799 82.3021 9.57599C81.8381 10.168 81.6061 10.968 81.6061 11.976C81.6061 13.032 81.8941 13.904 82.4701 14.592C83.0461 15.264 83.8541 15.776 84.8941 16.128C85.9501 16.464 87.1901 16.632 88.6141 16.632C89.4141 16.632 90.2061 16.544 90.9901 16.368C91.7741 16.192 92.4781 15.928 93.1021 15.576C93.7421 15.224 94.2541 14.792 94.6381 14.28C95.0221 13.752 95.2141 13.144 95.2141 12.456C95.2141 12.2 95.1741 11.88 95.0941 11.496C95.0301 11.096 94.8621 10.704 94.5901 10.32C94.3181 9.91999 93.8701 9.59199 93.2461 9.33599L93.4141 9.11999C94.2781 9.39199 94.9341 9.90399 95.3821 10.656C95.8301 11.408 96.0541 12.272 96.0541 13.248C96.0541 14.368 95.7101 15.376 95.0221 16.272C94.3341 17.152 93.3661 17.848 92.1181 18.36C90.8861 18.872 89.4381 19.128 87.7741 19.128C86.4461 19.128 85.2381 18.992 84.1501 18.72C83.0781 18.448 82.1501 18.056 81.3661 17.544C80.5981 17.016 79.9981 16.384 79.5661 15.648C79.1501 14.912 78.9421 14.08 78.9421 13.152C78.9421 12.256 79.1261 11.496 79.4941 10.872C79.8781 10.232 80.3421 9.71199 80.8861 9.31199C81.4301 8.89599 81.9741 8.57599 82.5181 8.35199C83.0621 8.12799 83.4941 7.97599 83.8141 7.89599C83.3181 7.68799 82.8621 7.44799 82.4461 7.17599C82.0461 6.88799 81.7181 6.55199 81.4621 6.16799C81.2221 5.78399 81.1021 5.35199 81.1021 4.87199C81.1021 4.35999 81.2381 3.91199 81.5101 3.52799C81.7821 3.12799 82.1421 2.79999 82.5901 2.54399C83.0541 2.28799 83.5661 2.09599 84.1261 1.96799C84.7021 1.82399 85.2861 1.75199 85.8781 1.75199ZM95.3101 1.46399C96.4461 1.46399 97.3661 1.75999 98.0701 2.35199C98.7741 2.94399 99.1261 3.77599 99.1261 4.84799C99.1261 5.66399 98.9261 6.35199 98.5261 6.91199C98.1421 7.47199 97.5821 7.92799 96.8461 8.27999C96.1261 8.63199 95.2621 8.91199 94.2541 9.11999C94.0301 9.19999 93.7501 9.29599 93.4141 9.40799C93.0781 9.50399 92.7341 9.59999 92.3821 9.69599C92.0301 9.79199 91.6861 9.88799 91.3501 9.98399C91.0301 10.08 90.7501 10.16 90.5101 10.224C89.2621 10.496 88.3021 10.808 87.6301 11.16C86.9581 11.496 86.6221 11.96 86.6221 12.552C86.6221 12.952 86.7501 13.296 87.0061 13.584C87.2781 13.872 87.6141 14.096 88.0141 14.256C88.4141 14.416 88.8141 14.496 89.2141 14.496C89.3261 14.496 89.4461 14.488 89.5741 14.472C89.7021 14.44 89.8221 14.408 89.9341 14.376C90.0461 14.328 90.1261 14.288 90.1741 14.256C89.7741 14.128 89.4701 13.928 89.2621 13.656C89.0701 13.368 88.9741 13.04 88.9741 12.672C88.9741 12.16 89.1581 11.768 89.5261 11.496C89.8941 11.224 90.3501 11.088 90.8941 11.088C91.4701 11.088 91.9181 11.24 92.2381 11.544C92.5741 11.848 92.7421 12.24 92.7421 12.72C92.7421 13.216 92.5901 13.632 92.2861 13.968C91.9821 14.288 91.5741 14.528 91.0621 14.688C90.5501 14.832 89.9741 14.904 89.3341 14.904C88.7101 14.904 88.1181 14.792 87.5581 14.568C87.0141 14.344 86.5741 14.008 86.2381 13.56C85.9181 13.096 85.7581 12.52 85.7581 11.832C85.7581 10.984 85.9741 10.28 86.4061 9.71999C86.8381 9.14399 87.4541 8.67199 88.2541 8.30399C89.0701 7.91999 90.0301 7.62399 91.1341 7.41599C91.4701 7.33599 91.8381 7.24799 92.2381 7.15199C92.6541 7.03999 93.0781 6.92799 93.5101 6.81599C93.9421 6.70399 94.3421 6.58399 94.7101 6.45599C95.8621 6.16799 96.7501 5.84799 97.3741 5.49599C98.0141 5.14399 98.3341 4.67199 98.3341 4.07999C98.3341 3.64799 98.1981 3.27199 97.9261 2.95199C97.6701 2.61599 97.3341 2.35999 96.9181 2.18399C96.5021 1.99199 96.0701 1.89599 95.6221 1.89599C95.4781 1.89599 95.3421 1.90399 95.2141 1.91999C95.1021 1.93599 95.0061 1.96799 94.9261 2.01599C95.3261 2.15999 95.6221 2.37599 95.8141 2.66399C96.0061 2.95199 96.1021 3.23999 96.1021 3.52799C96.1021 4.02399 95.9181 4.40799 95.5501 4.67999C95.1821 4.93599 94.7261 5.06399 94.1821 5.06399C93.6381 5.06399 93.1901 4.92799 92.8381 4.65599C92.4861 4.36799 92.3101 3.97599 92.3101 3.47999C92.3101 3.04799 92.4301 2.68799 92.6701 2.39999C92.9261 2.09599 93.2781 1.86399 93.7261 1.70399C94.1741 1.54399 94.7021 1.46399 95.3101 1.46399ZM112.409 6.04799C113.081 6.04799 113.625 6.13599 114.041 6.31199C114.457 6.47199 114.793 6.69599 115.049 6.98399C115.305 7.28799 115.489 7.68799 115.601 8.18399C115.713 8.66399 115.769 9.30399 115.769 10.104V16.56C115.769 17.232 115.873 17.688 116.081 17.928C116.289 18.168 116.649 18.288 117.161 18.288V18.792C116.873 18.776 116.433 18.76 115.841 18.744C115.265 18.712 114.697 18.696 114.137 18.696C113.561 18.696 112.993 18.712 112.433 18.744C111.873 18.76 111.449 18.776 111.161 18.792V18.288C111.593 18.288 111.889 18.168 112.049 17.928C112.225 17.688 112.313 17.232 112.313 16.56V9.09599C112.313 8.69599 112.281 8.35199 112.217 8.06399C112.153 7.75999 112.025 7.52799 111.833 7.36799C111.657 7.19199 111.385 7.10399 111.017 7.10399C110.601 7.10399 110.217 7.22399 109.865 7.46399C109.513 7.70399 109.225 8.03999 109.001 8.47199C108.793 8.88799 108.689 9.35999 108.689 9.88799V16.56C108.689 17.232 108.777 17.688 108.953 17.928C109.129 18.168 109.425 18.288 109.841 18.288V18.792C109.585 18.776 109.185 18.76 108.641 18.744C108.113 18.712 107.569 18.696 107.009 18.696C106.401 18.696 105.777 18.712 105.137 18.744C104.497 18.76 104.017 18.776 103.697 18.792V18.288C104.257 18.288 104.649 18.168 104.873 17.928C105.113 17.688 105.233 17.232 105.233 16.56V8.99999C105.233 8.27999 105.121 7.75199 104.897 7.41599C104.689 7.06399 104.289 6.88799 103.697 6.88799V6.38399C104.209 6.43199 104.705 6.45599 105.185 6.45599C105.857 6.45599 106.481 6.43199 107.057 6.38399C107.649 6.31999 108.193 6.23199 108.689 6.11999V8.27999C109.073 7.47999 109.593 6.91199 110.249 6.57599C110.905 6.22399 111.625 6.04799 112.409 6.04799ZM119.633 6.04799C120.305 6.04799 120.849 6.13599 121.265 6.31199C121.681 6.47199 122.017 6.69599 122.273 6.98399C122.529 7.28799 122.713 7.68799 122.825 8.18399C122.937 8.66399 122.993 9.30399 122.993 10.104V16.56C122.993 17.232 123.105 17.688 123.329 17.928C123.569 18.168 123.969 18.288 124.529 18.288V18.792C124.225 18.776 123.769 18.76 123.161 18.744C122.553 18.712 121.953 18.696 121.361 18.696C120.785 18.696 120.217 18.712 119.657 18.744C119.097 18.76 118.673 18.776 118.385 18.792V18.288C118.817 18.288 119.113 18.168 119.273 17.928C119.449 17.688 119.537 17.232 119.537 16.56V9.09599C119.537 8.69599 119.497 8.35199 119.417 8.06399C119.353 7.75999 119.217 7.52799 119.009 7.36799C118.817 7.19199 118.513 7.10399 118.097 7.10399C117.681 7.10399 117.297 7.23199 116.945 7.48799C116.593 7.74399 116.305 8.08799 116.081 8.51999C115.873 8.95199 115.761 9.43199 115.745 9.95999L115.625 8.49599C116.057 7.53599 116.625 6.88799 117.329 6.55199C118.049 6.21599 118.817 6.04799 119.633 6.04799ZM128.543 0.191991C129.215 0.191991 129.743 0.359992 130.127 0.695992C130.527 1.01599 130.727 1.46399 130.727 2.03999C130.727 2.61599 130.527 3.07199 130.127 3.40799C129.743 3.72799 129.215 3.88799 128.543 3.88799C127.871 3.88799 127.335 3.72799 126.935 3.40799C126.551 3.07199 126.359 2.61599 126.359 2.03999C126.359 1.46399 126.551 1.01599 126.935 0.695992C127.335 0.359992 127.871 0.191991 128.543 0.191991ZM130.415 6.11999V16.56C130.415 17.232 130.527 17.688 130.751 17.928C130.991 18.168 131.391 18.288 131.951 18.288V18.792C131.663 18.776 131.215 18.76 130.607 18.744C129.999 18.712 129.383 18.696 128.759 18.696C128.135 18.696 127.503 18.712 126.863 18.744C126.223 18.76 125.743 18.776 125.423 18.792V18.288C125.983 18.288 126.375 18.168 126.599 17.928C126.839 17.688 126.959 17.232 126.959 16.56V8.99999C126.959 8.27999 126.847 7.75199 126.623 7.41599C126.415 7.06399 126.015 6.88799 125.423 6.88799V6.38399C125.935 6.43199 126.431 6.45599 126.911 6.45599C127.583 6.45599 128.207 6.43199 128.783 6.38399C129.375 6.31999 129.919 6.23199 130.415 6.11999ZM143.073 6.26399L137.073 18.432H138.321C138.945 18.432 139.529 18.304 140.073 18.048C140.633 17.776 141.097 17.328 141.465 16.704C141.849 16.08 142.081 15.224 142.161 14.136H142.665C142.665 15.304 142.673 16.264 142.689 17.016C142.705 17.752 142.729 18.376 142.761 18.888C142.041 18.856 141.289 18.832 140.505 18.816C139.721 18.8 138.937 18.792 138.153 18.792C137.337 18.792 136.497 18.8 135.633 18.816C134.769 18.848 133.945 18.88 133.161 18.912L139.161 6.74399H137.817C137.177 6.74399 136.585 6.87999 136.041 7.15199C135.513 7.40799 135.073 7.85599 134.721 8.49599C134.385 9.11999 134.169 9.96799 134.073 11.04H133.569C133.569 9.85599 133.561 8.89599 133.545 8.15999C133.529 7.42399 133.505 6.79999 133.473 6.28799C134.209 6.31999 134.969 6.34399 135.753 6.35999C136.537 6.37599 137.313 6.38399 138.081 6.38399C138.913 6.38399 139.753 6.37599 140.601 6.35999C141.465 6.32799 142.289 6.29599 143.073 6.26399ZM156.313 6.11999V16.176C156.313 16.896 156.425 17.432 156.649 17.784C156.873 18.12 157.273 18.288 157.849 18.288V18.792C157.353 18.744 156.857 18.72 156.361 18.72C155.689 18.72 155.065 18.744 154.489 18.792C153.913 18.84 153.369 18.928 152.857 19.056V16.896C152.473 17.696 151.937 18.272 151.249 18.624C150.577 18.96 149.825 19.128 148.993 19.128C148.321 19.128 147.777 19.04 147.361 18.864C146.945 18.688 146.617 18.464 146.377 18.192C146.105 17.888 145.913 17.488 145.801 16.992C145.689 16.496 145.633 15.856 145.633 15.072V8.99999C145.633 8.27999 145.521 7.75199 145.297 7.41599C145.089 7.06399 144.689 6.88799 144.097 6.88799V6.38399C144.609 6.43199 145.105 6.45599 145.585 6.45599C146.257 6.45599 146.881 6.43199 147.457 6.38399C148.049 6.31999 148.593 6.23199 149.089 6.11999V16.056C149.089 16.456 149.121 16.808 149.185 17.112C149.265 17.416 149.409 17.656 149.617 17.832C149.825 17.992 150.129 18.072 150.529 18.072C150.961 18.072 151.345 17.952 151.681 17.712C152.033 17.472 152.313 17.144 152.521 16.728C152.745 16.296 152.857 15.816 152.857 15.288V8.99999C152.857 8.27999 152.745 7.75199 152.521 7.41599C152.313 7.06399 151.913 6.88799 151.321 6.88799V6.38399C151.833 6.43199 152.329 6.45599 152.809 6.45599C153.481 6.45599 154.105 6.43199 154.681 6.38399C155.273 6.31999 155.817 6.23199 156.313 6.11999ZM163.787 -9.05991e-06V16.56C163.787 17.232 163.891 17.688 164.099 17.928C164.323 18.168 164.699 18.288 165.227 18.288V18.792C164.923 18.776 164.475 18.76 163.883 18.744C163.307 18.712 162.715 18.696 162.107 18.696C161.483 18.696 160.851 18.712 160.211 18.744C159.587 18.76 159.115 18.776 158.795 18.792V18.288C159.355 18.288 159.747 18.168 159.971 17.928C160.211 17.688 160.331 17.232 160.331 16.56V2.87999C160.331 2.15999 160.219 1.63199 159.995 1.29599C159.787 0.943991 159.387 0.767991 158.795 0.767991V0.263992C159.307 0.311991 159.803 0.335991 160.283 0.335991C160.939 0.335991 161.563 0.311991 162.155 0.263992C162.747 0.199992 163.291 0.111991 163.787 -9.05991e-06ZM171.611 6.38399V6.86399C171.115 6.95999 170.619 7.16799 170.123 7.48799C169.627 7.80799 169.123 8.21599 168.611 8.71199L166.763 10.632L167.003 10.176L171.107 17.04C171.283 17.328 171.467 17.584 171.659 17.808C171.851 18.032 172.083 18.192 172.355 18.288V18.792C172.115 18.776 171.755 18.76 171.275 18.744C170.795 18.712 170.315 18.696 169.835 18.696C169.243 18.696 168.651 18.712 168.059 18.744C167.467 18.76 167.027 18.776 166.739 18.792V18.288C167.059 18.288 167.275 18.216 167.387 18.072C167.499 17.912 167.483 17.712 167.339 17.472L164.963 13.176C164.771 12.872 164.579 12.68 164.387 12.6C164.211 12.504 163.971 12.448 163.667 12.432V11.976C164.003 11.944 164.291 11.888 164.531 11.808C164.787 11.728 165.019 11.576 165.227 11.352L167.051 9.57599C167.595 9.06399 167.867 8.60799 167.867 8.20799C167.867 7.80799 167.691 7.48799 167.339 7.24799C167.003 7.00799 166.555 6.87999 165.995 6.86399V6.38399C166.443 6.39999 166.931 6.41599 167.459 6.43199C167.987 6.44799 168.435 6.45599 168.803 6.45599C169.123 6.45599 169.459 6.45599 169.811 6.45599C170.179 6.43999 170.523 6.43199 170.843 6.43199C171.163 6.41599 171.419 6.39999 171.611 6.38399ZM176.074 0.191991C176.746 0.191991 177.274 0.359992 177.658 0.695992C178.058 1.01599 178.258 1.46399 178.258 2.03999C178.258 2.61599 178.058 3.07199 177.658 3.40799C177.274 3.72799 176.746 3.88799 176.074 3.88799C175.402 3.88799 174.866 3.72799 174.466 3.40799C174.082 3.07199 173.89 2.61599 173.89 2.03999C173.89 1.46399 174.082 1.01599 174.466 0.695992C174.866 0.359992 175.402 0.191991 176.074 0.191991ZM177.946 6.11999V16.56C177.946 17.232 178.058 17.688 178.282 17.928C178.522 18.168 178.922 18.288 179.482 18.288V18.792C179.194 18.776 178.746 18.76 178.138 18.744C177.53 18.712 176.914 18.696 176.29 18.696C175.666 18.696 175.034 18.712 174.394 18.744C173.754 18.76 173.274 18.776 172.954 18.792V18.288C173.514 18.288 173.906 18.168 174.13 17.928C174.37 17.688 174.49 17.232 174.49 16.56V8.99999C174.49 8.27999 174.378 7.75199 174.154 7.41599C173.946 7.06399 173.546 6.88799 172.954 6.88799V6.38399C173.466 6.43199 173.962 6.45599 174.442 6.45599C175.114 6.45599 175.738 6.43199 176.314 6.38399C176.906 6.31999 177.45 6.23199 177.946 6.11999Z" fill="white"/>
</g>
<defs>
<filter id="filter0_d_2077_5" x="0" y="0" width="183.482" height="27.1279" filterUnits="userSpaceOnUse" color-interpolation-filters="sRGB">
<feFlood flood-opacity="0" result="BackgroundImageFix"/>
<feColorMatrix in="SourceAlpha" type="matrix" values="0 0 0 0 0 0 0 0 0 0 0 0 0 0 0 0 0 0 127 0" result="hardAlpha"/>
<feOffset dy="4"/>
<feGaussianBlur stdDeviation="2"/>
<feComposite in2="hardAlpha" operator="out"/>
<feColorMatrix type="matrix" values="0 0 0 0 0 0 0 0 0 0 0 0 0 0 0 0 0 0 0.25 0"/>
<feBlend mode="normal" in2="BackgroundImageFix" result="effect1_dropShadow_2077_5"/>
<feBlend mode="normal" in="SourceGraphic" in2="effect1_dropShadow_2077_5" result="shape"/>
</filter>
</defs>
</svg>
