<svg width="285" height="40" viewBox="0 0 285 40" fill="none" xmlns="http://www.w3.org/2000/svg">
<g filter="url(#filter0_d_2001_141)">
<path d="M26.976 8.60803C28.064 8.60803 28.8747 8.57603 29.408 8.51203V9.15203C28.96 9.28003 28.5547 9.5467 28.192 9.95203C27.8293 10.3574 27.5093 11.008 27.232 11.904L22.976 25.12C22.7413 25.0987 22.3893 25.088 21.92 25.088C21.472 25.088 21.1307 25.0987 20.896 25.12L16.544 13.248L12.992 25.12C12.7787 25.0987 12.4373 25.088 11.968 25.088C11.4987 25.088 11.1467 25.0987 10.912 25.12L5.856 10.976C5.6 10.2294 5.312 9.74936 4.992 9.53603C4.672 9.30136 4.34133 9.18403 4 9.18403V8.51203C5.38667 8.64003 6.90133 8.70403 8.544 8.70403C9.61067 8.70403 10.9973 8.64003 12.704 8.51203V9.18403C12 9.18403 11.488 9.23736 11.168 9.34403C10.8693 9.4507 10.72 9.7067 10.72 10.112C10.72 10.3894 10.7733 10.6774 10.88 10.976L13.76 20.032L17.248 8.48003L18.432 8.51203L19.584 8.48003L23.744 20.704L25.76 14.272C26.0587 13.2694 26.208 12.4587 26.208 11.84C26.208 10.176 25.3653 9.28003 23.68 9.15203V8.51203C24.6827 8.57603 25.7813 8.60803 26.976 8.60803ZM39.1187 22.88C40.8681 22.88 42.2761 22.0267 43.3427 20.32L43.9187 20.512C43.4921 21.8987 42.7241 23.0827 41.6147 24.064C40.5267 25.024 39.1614 25.504 37.5187 25.504C35.2574 25.504 33.4547 24.7894 32.1107 23.36C30.7881 21.9094 30.1267 19.776 30.1267 16.96C30.1267 14.08 30.8414 11.8827 32.2707 10.368C33.7001 8.83203 35.5987 8.06403 37.9667 8.06403C41.9774 8.06403 43.9827 10.432 43.9827 15.168H34.9907C34.9694 15.488 34.9587 15.9894 34.9587 16.672C34.9587 18.08 35.1507 19.2534 35.5347 20.192C35.9401 21.1307 36.4521 21.8134 37.0707 22.24C37.7107 22.6667 38.3934 22.88 39.1187 22.88ZM37.7747 8.73603C37.0067 8.73603 36.3667 9.21603 35.8547 10.176C35.3641 11.1147 35.0547 12.576 34.9267 14.56H39.9507C39.9934 12.8747 39.8227 11.488 39.4387 10.4C39.0761 9.2907 38.5214 8.73603 37.7747 8.73603ZM61.5798 21.536C61.5798 22.5174 61.7291 23.232 62.0278 23.68C62.3264 24.128 62.8598 24.352 63.6278 24.352V25.024C62.9664 24.96 62.3051 24.928 61.6437 24.928C59.7451 24.928 58.1877 25.0774 56.9717 25.376V22.624C56.2464 24.544 54.8597 25.504 52.8117 25.504C50.8064 25.504 49.2064 24.7787 48.0117 23.328C46.8384 21.856 46.2624 19.648 46.2837 16.704C46.2837 14.8267 46.5824 13.248 47.1797 11.968C47.7984 10.6667 48.6411 9.69603 49.7077 9.05603C50.7957 8.3947 52.0331 8.06403 53.4197 8.06403C54.9771 8.06403 56.1611 8.46936 56.9717 9.28003V3.84003C56.9717 2.8587 56.8117 2.14403 56.4917 1.69603C56.1931 1.24803 55.6704 1.02403 54.9237 1.02403V0.35203C55.6064 0.416029 56.2677 0.448029 56.9077 0.448029C58.7637 0.448029 60.3211 0.298695 61.5798 2.86102e-05V21.536ZM54.1237 24.128C54.8277 24.128 55.4464 23.872 55.9797 23.36C56.5344 22.848 56.8651 22.1547 56.9717 21.28V10.08C56.4384 9.3547 55.6597 8.99203 54.6357 8.99203C53.5051 8.99203 52.6304 9.6427 52.0117 10.944C51.3931 12.2454 51.0944 14.1867 51.1157 16.768C51.0944 19.3707 51.3397 21.248 51.8517 22.4C52.3851 23.552 53.1424 24.128 54.1237 24.128ZM80.7048 21.536C80.7048 22.5174 80.8541 23.232 81.1528 23.68C81.4514 24.128 81.9848 24.352 82.7528 24.352V25.024C82.0914 24.96 81.4301 24.928 80.7687 24.928C78.8701 24.928 77.3127 25.0774 76.0967 25.376V22.624C75.3714 24.544 73.9847 25.504 71.9367 25.504C69.9314 25.504 68.3314 24.7787 67.1367 23.328C65.9634 21.856 65.3874 19.648 65.4087 16.704C65.4087 14.8267 65.7074 13.248 66.3047 11.968C66.9234 10.6667 67.7661 9.69603 68.8327 9.05603C69.9207 8.3947 71.1581 8.06403 72.5447 8.06403C74.1021 8.06403 75.2861 8.46936 76.0967 9.28003V3.84003C76.0967 2.8587 75.9367 2.14403 75.6167 1.69603C75.3181 1.24803 74.7954 1.02403 74.0487 1.02403V0.35203C74.7314 0.416029 75.3927 0.448029 76.0327 0.448029C77.8887 0.448029 79.4461 0.298695 80.7048 2.86102e-05V21.536ZM73.2487 24.128C73.9527 24.128 74.5714 23.872 75.1047 23.36C75.6594 22.848 75.9901 22.1547 76.0967 21.28V10.08C75.5634 9.3547 74.7847 8.99203 73.7607 8.99203C72.6301 8.99203 71.7554 9.6427 71.1367 10.944C70.5181 12.2454 70.2194 14.1867 70.2407 16.768C70.2194 19.3707 70.4647 21.248 70.9767 22.4C71.5101 23.552 72.2674 24.128 73.2487 24.128ZM88.2457 0.256029C89.1417 0.256029 89.8457 0.480029 90.3577 0.92803C90.8911 1.3547 91.1577 1.95203 91.1577 2.72003C91.1577 3.48803 90.8911 4.09603 90.3577 4.54403C89.8457 4.9707 89.1417 5.18403 88.2457 5.18403C87.3497 5.18403 86.6351 4.9707 86.1017 4.54403C85.5897 4.09603 85.3337 3.48803 85.3337 2.72003C85.3337 1.95203 85.5897 1.3547 86.1017 0.92803C86.6351 0.480029 87.3497 0.256029 88.2457 0.256029ZM90.7417 22.08C90.7417 22.9547 90.8911 23.5627 91.1897 23.904C91.5097 24.224 92.0431 24.384 92.7897 24.384V25.056C90.6564 24.9707 89.2377 24.928 88.5337 24.928C87.8724 24.928 86.3897 24.9707 84.0857 25.056V24.384C84.8537 24.384 85.3871 24.224 85.6857 23.904C85.9844 23.5627 86.1337 22.9547 86.1337 22.08V12C86.1337 11.0187 85.9844 10.304 85.6857 9.85603C85.3871 9.40803 84.8537 9.18403 84.0857 9.18403V8.51203C84.7684 8.57603 85.4297 8.60803 86.0697 8.60803C87.9684 8.60803 89.5257 8.4587 90.7417 8.16003V22.08ZM106.083 8.06403C107.705 8.06403 108.878 8.48003 109.604 9.31203C109.966 9.71736 110.222 10.24 110.372 10.88C110.521 11.52 110.595 12.384 110.595 13.472V22.08C110.595 22.9547 110.745 23.5627 111.043 23.904C111.363 24.224 111.897 24.384 112.643 24.384V25.056C110.51 24.9707 109.102 24.928 108.419 24.928C107.779 24.928 106.393 24.9707 104.259 25.056V24.384C104.899 24.384 105.347 24.224 105.603 23.904C105.859 23.5627 105.987 22.9547 105.987 22.08V12.128C105.987 11.2534 105.838 10.592 105.539 10.144C105.262 9.69603 104.75 9.47203 104.003 9.47203C103.129 9.47203 102.382 9.8347 101.763 10.56C101.145 11.264 100.835 12.1387 100.835 13.184V22.08C100.835 22.9547 100.963 23.5627 101.219 23.904C101.475 24.224 101.923 24.384 102.563 24.384V25.056C100.601 24.9707 99.2782 24.928 98.5955 24.928C97.9555 24.928 96.4835 24.9707 94.1795 25.056V24.384C94.9475 24.384 95.4808 24.224 95.7795 23.904C96.0782 23.5627 96.2275 22.9547 96.2275 22.08V12C96.2275 11.0187 96.0782 10.304 95.7795 9.85603C95.4808 9.40803 94.9475 9.18403 94.1795 9.18403V8.51203C94.8622 8.57603 95.5235 8.60803 96.1635 8.60803C98.0622 8.60803 99.6195 8.4587 100.835 8.16003V11.04C101.795 9.05603 103.545 8.06403 106.083 8.06403ZM128.785 11.584C128.358 11.584 127.996 11.4454 127.697 11.168C127.398 10.8694 127.249 10.4534 127.249 9.92003C127.249 9.40803 127.377 8.88536 127.633 8.35203C127.121 8.56536 126.694 8.8107 126.353 9.08803C126.033 9.34403 125.756 9.6747 125.521 10.08C126.182 10.8694 126.513 11.8934 126.513 13.152C126.513 14.8374 125.926 16.1067 124.753 16.96C123.601 17.8134 122.065 18.24 120.145 18.24H119.569C118.694 18.752 118.257 19.3174 118.257 19.936C118.257 20.6187 118.684 20.96 119.537 20.96H123.025C124.902 20.96 126.396 21.312 127.505 22.016C128.636 22.6987 129.201 23.7547 129.201 25.184C129.201 26.272 128.849 27.2534 128.145 28.128C127.462 29.024 126.417 29.7387 125.009 30.272C123.601 30.8054 121.873 31.072 119.825 31.072C117.756 31.072 116.092 30.8054 114.833 30.272C113.596 29.76 112.977 29.0134 112.977 28.032C112.977 27.3707 113.276 26.7734 113.873 26.24C114.47 25.728 115.356 25.3227 116.529 25.024L116.817 25.536C116.049 26.176 115.665 26.912 115.665 27.744C115.665 28.64 116.07 29.3227 116.881 29.792C117.692 30.2827 118.812 30.528 120.241 30.528C121.734 30.528 122.94 30.2294 123.857 29.632C124.796 29.0347 125.265 28.192 125.265 27.104C125.265 26.4 124.998 25.8454 124.465 25.44C123.953 25.0347 123.046 24.832 121.745 24.832H119.761C118.396 24.832 117.329 24.608 116.561 24.16C115.793 23.6907 115.409 22.9867 115.409 22.048C115.409 21.2587 115.686 20.5547 116.241 19.936C116.796 19.3174 117.638 18.72 118.769 18.144C117.233 17.952 116.017 17.44 115.121 16.608C114.225 15.776 113.777 14.624 113.777 13.152C113.777 11.4667 114.353 10.1974 115.505 9.34403C116.678 8.4907 118.225 8.06403 120.145 8.06403C122.278 8.06403 123.91 8.56536 125.041 9.56803C125.446 8.99203 125.948 8.53336 126.545 8.19203C127.142 7.8507 127.75 7.68003 128.369 7.68003C129.009 7.68003 129.51 7.87203 129.873 8.25603C130.257 8.6187 130.449 9.0987 130.449 9.69603C130.449 10.2934 130.278 10.7627 129.937 11.104C129.617 11.424 129.233 11.584 128.785 11.584ZM120.145 17.664C120.742 17.664 121.19 17.3227 121.489 16.64C121.809 15.9574 121.969 14.7947 121.969 13.152C121.969 11.5094 121.809 10.3467 121.489 9.66403C121.19 8.98136 120.742 8.64003 120.145 8.64003C119.548 8.64003 119.089 8.98136 118.769 9.66403C118.47 10.3467 118.321 11.5094 118.321 13.152C118.321 14.7947 118.47 15.9574 118.769 16.64C119.089 17.3227 119.548 17.664 120.145 17.664ZM142.933 0.256029C143.829 0.256029 144.533 0.480029 145.045 0.92803C145.579 1.3547 145.845 1.95203 145.845 2.72003C145.845 3.48803 145.579 4.09603 145.045 4.54403C144.533 4.9707 143.829 5.18403 142.933 5.18403C142.037 5.18403 141.323 4.9707 140.789 4.54403C140.277 4.09603 140.021 3.48803 140.021 2.72003C140.021 1.95203 140.277 1.3547 140.789 0.92803C141.323 0.480029 142.037 0.256029 142.933 0.256029ZM145.429 22.08C145.429 22.9547 145.579 23.5627 145.877 23.904C146.197 24.224 146.731 24.384 147.477 24.384V25.056C145.344 24.9707 143.925 24.928 143.221 24.928C142.56 24.928 141.077 24.9707 138.773 25.056V24.384C139.541 24.384 140.075 24.224 140.373 23.904C140.672 23.5627 140.821 22.9547 140.821 22.08V12C140.821 11.0187 140.672 10.304 140.373 9.85603C140.075 9.40803 139.541 9.18403 138.773 9.18403V8.51203C139.456 8.57603 140.117 8.60803 140.757 8.60803C142.656 8.60803 144.213 8.4587 145.429 8.16003V22.08ZM160.771 8.06403C162.392 8.06403 163.566 8.48003 164.291 9.31203C164.654 9.71736 164.91 10.24 165.059 10.88C165.208 11.52 165.283 12.384 165.283 13.472V22.08C165.283 22.9547 165.432 23.5627 165.731 23.904C166.051 24.224 166.584 24.384 167.331 24.384V25.056C165.198 24.9707 163.79 24.928 163.107 24.928C162.467 24.928 161.08 24.9707 158.947 25.056V24.384C159.587 24.384 160.035 24.224 160.291 23.904C160.547 23.5627 160.675 22.9547 160.675 22.08V12.128C160.675 11.2534 160.526 10.592 160.227 10.144C159.95 9.69603 159.438 9.47203 158.691 9.47203C157.816 9.47203 157.07 9.8347 156.451 10.56C155.832 11.264 155.523 12.1387 155.523 13.184V22.08C155.523 22.9547 155.651 23.5627 155.907 23.904C156.163 24.224 156.611 24.384 157.251 24.384V25.056C155.288 24.9707 153.966 24.928 153.283 24.928C152.643 24.928 151.171 24.9707 148.867 25.056V24.384C149.635 24.384 150.168 24.224 150.467 23.904C150.766 23.5627 150.915 22.9547 150.915 22.08V12C150.915 11.0187 150.766 10.304 150.467 9.85603C150.168 9.40803 149.635 9.18403 148.867 9.18403V8.51203C149.55 8.57603 150.211 8.60803 150.851 8.60803C152.75 8.60803 154.307 8.4587 155.523 8.16003V11.04C156.483 9.05603 158.232 8.06403 160.771 8.06403ZM181.171 8.60803C182.259 8.60803 183.081 8.57603 183.635 8.51203V9.15203C183.188 9.28003 182.782 9.55736 182.419 9.98403C182.078 10.3894 181.747 11.0294 181.427 11.904L176.755 25.12C176.521 25.0987 176.169 25.088 175.699 25.088C175.251 25.088 174.91 25.0987 174.675 25.12L168.979 10.976C168.681 10.2507 168.371 9.7707 168.051 9.53603C167.753 9.30136 167.443 9.18403 167.123 9.18403V8.51203C168.617 8.6187 170.131 8.67203 171.667 8.67203C173.011 8.67203 174.398 8.6187 175.827 8.51203V9.18403C175.102 9.18403 174.579 9.23736 174.259 9.34403C173.961 9.42936 173.811 9.68536 173.811 10.112C173.811 10.2827 173.865 10.5494 173.971 10.912L177.619 20.608L179.924 14.272C180.265 13.2694 180.435 12.4054 180.435 11.68C180.435 10.1227 179.657 9.28003 178.099 9.15203V8.51203C179.081 8.57603 180.105 8.60803 181.171 8.60803ZM188.589 0.256029C189.485 0.256029 190.189 0.480029 190.701 0.92803C191.235 1.3547 191.501 1.95203 191.501 2.72003C191.501 3.48803 191.235 4.09603 190.701 4.54403C190.189 4.9707 189.485 5.18403 188.589 5.18403C187.693 5.18403 186.979 4.9707 186.445 4.54403C185.933 4.09603 185.677 3.48803 185.677 2.72003C185.677 1.95203 185.933 1.3547 186.445 0.92803C186.979 0.480029 187.693 0.256029 188.589 0.256029ZM191.085 22.08C191.085 22.9547 191.235 23.5627 191.533 23.904C191.853 24.224 192.387 24.384 193.133 24.384V25.056C191 24.9707 189.581 24.928 188.877 24.928C188.216 24.928 186.733 24.9707 184.429 25.056V24.384C185.197 24.384 185.731 24.224 186.029 23.904C186.328 23.5627 186.477 22.9547 186.477 22.08V12C186.477 11.0187 186.328 10.304 186.029 9.85603C185.731 9.40803 185.197 9.18403 184.429 9.18403V8.51203C185.112 8.57603 185.773 8.60803 186.413 8.60803C188.312 8.60803 189.869 8.4587 191.085 8.16003V22.08ZM201.019 8.51203H204.795V9.15203H201.019V22.08C201.019 22.72 201.126 23.1787 201.339 23.456C201.574 23.712 201.937 23.84 202.427 23.84C203.345 23.84 204.07 23.2 204.603 21.92L205.147 22.208C204.337 24.4054 202.875 25.504 200.763 25.504C199.355 25.504 198.289 25.1414 197.563 24.416C197.115 23.968 196.806 23.4134 196.635 22.752C196.486 22.0694 196.411 21.1414 196.411 19.968V9.15203H193.723V8.51203H196.411V4.28803C198.182 4.28803 199.718 3.9467 201.019 3.26403V8.51203ZM209.997 25.28C208.632 25.28 207.608 24.928 206.925 24.224C206.264 23.52 205.933 22.592 205.933 21.44C205.933 20.48 206.179 19.6907 206.669 19.072C207.181 18.432 207.789 17.9414 208.493 17.6C209.219 17.2587 210.136 16.896 211.245 16.512C212.419 16.1067 213.272 15.744 213.805 15.424C214.36 15.0827 214.637 14.624 214.637 14.048V11.552C214.637 10.656 214.424 9.9627 213.997 9.47203C213.592 8.96003 212.952 8.70403 212.077 8.70403C211.053 8.70403 210.275 8.96003 209.741 9.47203C210.339 9.68536 210.797 10.0054 211.117 10.432C211.459 10.8587 211.629 11.36 211.629 11.936C211.629 12.6614 211.384 13.2374 210.893 13.664C210.403 14.0907 209.805 14.304 209.101 14.304C208.355 14.304 207.779 14.0694 207.373 13.6C206.968 13.1307 206.765 12.544 206.765 11.84C206.765 11.2427 206.904 10.7414 207.181 10.336C207.48 9.90936 207.928 9.5147 208.525 9.15203C209.101 8.8107 209.805 8.54403 210.637 8.35203C211.491 8.16003 212.419 8.06403 213.421 8.06403C214.467 8.06403 215.373 8.1707 216.141 8.38403C216.909 8.59736 217.549 8.96003 218.061 9.47203C218.531 9.94136 218.84 10.5174 218.989 11.2C219.16 11.8827 219.245 12.8107 219.245 13.984V22.688C219.245 23.2 219.288 23.5627 219.373 23.776C219.48 23.9894 219.672 24.096 219.949 24.096C220.269 24.096 220.653 23.9147 221.101 23.552L221.421 24.096C220.461 24.8854 219.288 25.28 217.901 25.28C216.728 25.28 215.907 25.0454 215.437 24.576C214.968 24.1067 214.723 23.4774 214.701 22.688C213.635 24.416 212.067 25.28 209.997 25.28ZM212.461 23.232C213.293 23.232 214.019 22.7947 214.637 21.92V15.36C214.381 15.7867 213.837 16.256 213.005 16.768C212.173 17.3014 211.544 17.8347 211.117 18.368C210.691 18.9014 210.477 19.6694 210.477 20.672C210.477 21.5467 210.659 22.1974 211.021 22.624C211.384 23.0294 211.864 23.232 212.461 23.232ZM228.832 8.51203H232.608V9.15203H228.832V22.08C228.832 22.72 228.938 23.1787 229.152 23.456C229.386 23.712 229.749 23.84 230.24 23.84C231.157 23.84 231.882 23.2 232.416 21.92L232.96 22.208C232.149 24.4054 230.688 25.504 228.576 25.504C227.168 25.504 226.101 25.1414 225.376 24.416C224.928 23.968 224.618 23.4134 224.448 22.752C224.298 22.0694 224.224 21.1414 224.224 19.968V9.15203H221.536V8.51203H224.224V4.28803C225.994 4.28803 227.53 3.9467 228.832 3.26403V8.51203ZM237.746 0.256029C238.642 0.256029 239.346 0.480029 239.858 0.92803C240.391 1.3547 240.658 1.95203 240.658 2.72003C240.658 3.48803 240.391 4.09603 239.858 4.54403C239.346 4.9707 238.642 5.18403 237.746 5.18403C236.85 5.18403 236.135 4.9707 235.602 4.54403C235.09 4.09603 234.834 3.48803 234.834 2.72003C234.834 1.95203 235.09 1.3547 235.602 0.92803C236.135 0.480029 236.85 0.256029 237.746 0.256029ZM240.242 22.08C240.242 22.9547 240.391 23.5627 240.69 23.904C241.01 24.224 241.543 24.384 242.29 24.384V25.056C240.156 24.9707 238.738 24.928 238.034 24.928C237.372 24.928 235.89 24.9707 233.586 25.056V24.384C234.354 24.384 234.887 24.224 235.186 23.904C235.484 23.5627 235.634 22.9547 235.634 22.08V12C235.634 11.0187 235.484 10.304 235.186 9.85603C234.887 9.40803 234.354 9.18403 233.586 9.18403V8.51203C234.268 8.57603 234.93 8.60803 235.57 8.60803C237.468 8.60803 239.026 8.4587 240.242 8.16003V22.08ZM251.935 8.06403C254.389 8.06403 256.309 8.76803 257.695 10.176C259.082 11.5627 259.775 13.7707 259.775 16.8C259.775 19.8294 259.082 22.0374 257.695 23.424C256.309 24.8107 254.389 25.504 251.935 25.504C249.503 25.504 247.583 24.8107 246.175 23.424C244.789 22.0374 244.095 19.8294 244.095 16.8C244.095 13.7707 244.789 11.5627 246.175 10.176C247.583 8.76803 249.503 8.06403 251.935 8.06403ZM251.935 8.70403C251.018 8.70403 250.282 9.37603 249.727 10.72C249.194 12.0427 248.927 14.0694 248.927 16.8C248.927 19.5307 249.194 21.5574 249.727 22.88C250.282 24.2027 251.018 24.864 251.935 24.864C252.874 24.864 253.61 24.2134 254.143 22.912C254.677 21.5894 254.943 19.552 254.943 16.8C254.943 14.048 254.666 12.0107 254.111 10.688C253.578 9.36536 252.853 8.70403 251.935 8.70403ZM273.677 8.06403C275.299 8.06403 276.472 8.48003 277.197 9.31203C277.56 9.71736 277.816 10.24 277.965 10.88C278.115 11.52 278.189 12.384 278.189 13.472V22.08C278.189 22.9547 278.339 23.5627 278.637 23.904C278.957 24.224 279.491 24.384 280.237 24.384V25.056C278.104 24.9707 276.696 24.928 276.013 24.928C275.373 24.928 273.987 24.9707 271.853 25.056V24.384C272.493 24.384 272.941 24.224 273.197 23.904C273.453 23.5627 273.581 22.9547 273.581 22.08V12.128C273.581 11.2534 273.432 10.592 273.133 10.144C272.856 9.69603 272.344 9.47203 271.597 9.47203C270.723 9.47203 269.976 9.8347 269.357 10.56C268.739 11.264 268.429 12.1387 268.429 13.184V22.08C268.429 22.9547 268.557 23.5627 268.813 23.904C269.069 24.224 269.517 24.384 270.157 24.384V25.056C268.195 24.9707 266.872 24.928 266.189 24.928C265.549 24.928 264.077 24.9707 261.773 25.056V24.384C262.541 24.384 263.075 24.224 263.373 23.904C263.672 23.5627 263.821 22.9547 263.821 22.08V12C263.821 11.0187 263.672 10.304 263.373 9.85603C263.075 9.40803 262.541 9.18403 261.773 9.18403V8.51203C262.456 8.57603 263.117 8.60803 263.757 8.60803C265.656 8.60803 267.213 8.4587 268.429 8.16003V11.04C269.389 9.05603 271.139 8.06403 273.677 8.06403Z" fill="white"/>
</g>
<defs>
<filter id="filter0_d_2001_141" x="0" y="0" width="284.237" height="39.072" filterUnits="userSpaceOnUse" color-interpolation-filters="sRGB">
<feFlood flood-opacity="0" result="BackgroundImageFix"/>
<feColorMatrix in="SourceAlpha" type="matrix" values="0 0 0 0 0 0 0 0 0 0 0 0 0 0 0 0 0 0 127 0" result="hardAlpha"/>
<feOffset dy="4"/>
<feGaussianBlur stdDeviation="2"/>
<feComposite in2="hardAlpha" operator="out"/>
<feColorMatrix type="matrix" values="0 0 0 0 0 0 0 0 0 0 0 0 0 0 0 0 0 0 0.25 0"/>
<feBlend mode="normal" in2="BackgroundImageFix" result="effect1_dropShadow_2001_141"/>
<feBlend mode="normal" in="SourceGraphic" in2="effect1_dropShadow_2001_141" result="shape"/>
</filter>
</defs>
</svg>
