<svg width="285" height="40" viewBox="0 0 285 40" fill="none" xmlns="http://www.w3.org/2000/svg">
<g filter="url(#filter0_d_2097_870)">
<path d="M273.677 8.06409C274.573 8.06409 275.299 8.18142 275.853 8.41609C276.429 8.62942 276.877 8.92809 277.197 9.31209C277.539 9.71742 277.784 10.2401 277.933 10.8801C278.104 11.5201 278.189 12.3841 278.189 13.4721V22.0801C278.189 22.9761 278.339 23.5841 278.637 23.9041C278.957 24.2241 279.491 24.3841 280.237 24.3841V25.0561C279.832 25.0348 279.224 25.0134 278.413 24.9921C277.603 24.9494 276.803 24.9281 276.013 24.9281C275.203 24.9281 274.403 24.9494 273.613 24.9921C272.845 25.0134 272.259 25.0348 271.853 25.0561V24.3841C272.493 24.3841 272.941 24.2241 273.197 23.9041C273.453 23.5841 273.581 22.9761 273.581 22.0801V12.1281C273.581 11.5948 273.528 11.1361 273.421 10.7521C273.315 10.3468 273.123 10.0374 272.845 9.82409C272.568 9.58942 272.152 9.47209 271.597 9.47209C271.021 9.47209 270.488 9.63209 269.997 9.95209C269.528 10.2721 269.144 10.7201 268.845 11.2961C268.568 11.8508 268.429 12.4801 268.429 13.1841V22.0801C268.429 22.9761 268.557 23.5841 268.813 23.9041C269.091 24.2241 269.539 24.3841 270.157 24.3841V25.0561C269.773 25.0348 269.208 25.0134 268.461 24.9921C267.736 24.9494 266.979 24.9281 266.189 24.9281C265.379 24.9281 264.547 24.9494 263.693 24.9921C262.84 25.0134 262.2 25.0348 261.773 25.0561V24.3841C262.52 24.3841 263.043 24.2241 263.341 23.9041C263.661 23.5841 263.821 22.9761 263.821 22.0801V12.0001C263.821 11.0401 263.672 10.3361 263.373 9.88809C263.096 9.41875 262.563 9.18409 261.773 9.18409V8.51209C262.456 8.57609 263.117 8.60809 263.757 8.60809C264.653 8.60809 265.485 8.57609 266.253 8.51209C267.043 8.42675 267.768 8.30942 268.429 8.16009V11.0401C268.963 9.95209 269.688 9.18409 270.605 8.73609C271.523 8.28809 272.547 8.06409 273.677 8.06409Z" fill="white"/>
</g>
<g filter="url(#filter1_d_2097_870)">
<path d="M251.936 8.06409C253.493 8.06409 254.858 8.35209 256.032 8.92809C257.205 9.50409 258.122 10.4321 258.784 11.7121C259.445 12.9921 259.776 14.6881 259.776 16.8001C259.776 18.9121 259.445 20.6081 258.784 21.8881C258.122 23.1468 257.205 24.0641 256.032 24.6401C254.858 25.2161 253.493 25.5041 251.936 25.5041C250.421 25.5041 249.066 25.2161 247.872 24.6401C246.698 24.0641 245.77 23.1468 245.088 21.8881C244.426 20.6081 244.096 18.9121 244.096 16.8001C244.096 14.6881 244.426 12.9921 245.088 11.7121C245.77 10.4321 246.698 9.50409 247.872 8.92809C249.066 8.35209 250.421 8.06409 251.936 8.06409ZM251.936 8.70409C251.082 8.70409 250.368 9.34409 249.792 10.6241C249.216 11.8828 248.928 13.9414 248.928 16.8001C248.928 19.6588 249.216 21.7174 249.792 22.9761C250.368 24.2348 251.082 24.8641 251.936 24.8641C252.81 24.8641 253.525 24.2348 254.08 22.9761C254.656 21.7174 254.944 19.6588 254.944 16.8001C254.944 13.9414 254.656 11.8828 254.08 10.6241C253.525 9.34409 252.81 8.70409 251.936 8.70409Z" fill="white"/>
</g>
<g filter="url(#filter2_d_2097_870)">
<path d="M237.746 0.255981C238.642 0.255981 239.346 0.479982 239.858 0.927982C240.391 1.35465 240.658 1.95198 240.658 2.71998C240.658 3.48798 240.391 4.09598 239.858 4.54398C239.346 4.97065 238.642 5.18398 237.746 5.18398C236.85 5.18398 236.135 4.97065 235.602 4.54398C235.09 4.09598 234.834 3.48798 234.834 2.71998C234.834 1.95198 235.09 1.35465 235.602 0.927982C236.135 0.479982 236.85 0.255981 237.746 0.255981ZM240.242 8.15998V22.08C240.242 22.976 240.391 23.584 240.69 23.904C241.01 24.224 241.543 24.384 242.29 24.384V25.056C241.906 25.0346 241.308 25.0133 240.498 24.992C239.687 24.9493 238.866 24.928 238.034 24.928C237.202 24.928 236.359 24.9493 235.506 24.992C234.652 25.0133 234.012 25.0346 233.586 25.056V24.384C234.332 24.384 234.855 24.224 235.154 23.904C235.474 23.584 235.634 22.976 235.634 22.08V12C235.634 11.04 235.484 10.336 235.186 9.88798C234.908 9.41865 234.375 9.18398 233.586 9.18398V8.51198C234.268 8.57598 234.93 8.60798 235.57 8.60798C236.466 8.60798 237.298 8.57598 238.066 8.51198C238.855 8.42665 239.58 8.30932 240.242 8.15998Z" fill="white"/>
</g>
<g filter="url(#filter3_d_2097_870)">
<path d="M228.832 3.26404V8.51204H232.608V9.15204H228.832V22.08C228.832 22.72 228.949 23.1787 229.184 23.456C229.418 23.712 229.77 23.84 230.24 23.84C230.624 23.84 231.008 23.7014 231.392 23.424C231.776 23.1254 232.117 22.624 232.416 21.92L232.96 22.208C232.618 23.168 232.096 23.9574 231.392 24.576C230.709 25.1947 229.77 25.504 228.576 25.504C227.872 25.504 227.253 25.408 226.72 25.216C226.186 25.0454 225.738 24.7787 225.376 24.416C224.906 23.9467 224.597 23.3707 224.448 22.688C224.298 21.984 224.224 21.0774 224.224 19.968V9.15204H221.536V8.51204H224.224V4.28804C225.12 4.28804 225.941 4.21337 226.688 4.06404C227.456 3.89337 228.17 3.62671 228.832 3.26404Z" fill="white"/>
</g>
<g filter="url(#filter4_d_2097_870)">
<path d="M210.189 25.2801C209.229 25.2801 208.429 25.0988 207.789 24.7361C207.149 24.3734 206.68 23.8934 206.381 23.2961C206.083 22.6774 205.933 22.0054 205.933 21.2801C205.933 20.3628 206.136 19.6161 206.541 19.0401C206.968 18.4641 207.512 17.9948 208.173 17.6321C208.835 17.2694 209.528 16.9708 210.253 16.7361C211 16.5014 211.704 16.2774 212.365 16.0641C213.048 15.8294 213.592 15.5628 213.997 15.2641C214.424 14.9441 214.637 14.5388 214.637 14.0481V11.5521C214.637 10.9974 214.541 10.5068 214.349 10.0801C214.179 9.63209 213.901 9.29075 213.517 9.05609C213.155 8.82142 212.675 8.70409 212.077 8.70409C211.651 8.70409 211.224 8.76809 210.797 8.89609C210.371 9.00275 210.019 9.19475 209.741 9.47209C210.339 9.68542 210.797 10.0161 211.117 10.4641C211.459 10.8908 211.629 11.3814 211.629 11.9361C211.629 12.6614 211.373 13.2374 210.861 13.6641C210.371 14.0908 209.784 14.3041 209.101 14.3041C208.333 14.3041 207.747 14.0694 207.341 13.6001C206.957 13.1094 206.765 12.5228 206.765 11.8401C206.765 11.2214 206.915 10.7094 207.213 10.3041C207.533 9.89875 207.971 9.51475 208.525 9.15209C209.123 8.81075 209.837 8.54409 210.669 8.35209C211.523 8.16009 212.44 8.06409 213.421 8.06409C214.403 8.06409 215.288 8.17075 216.077 8.38409C216.867 8.57609 217.528 8.93875 218.061 9.47209C218.552 9.96275 218.872 10.5708 219.021 11.2961C219.171 12.0001 219.245 12.8961 219.245 13.9841V22.6881C219.245 23.2214 219.299 23.5948 219.405 23.8081C219.512 24.0001 219.693 24.0961 219.949 24.0961C220.141 24.0961 220.323 24.0428 220.493 23.9361C220.685 23.8294 220.888 23.7014 221.101 23.5521L221.421 24.0961C220.973 24.4801 220.451 24.7788 219.853 24.9921C219.277 25.1841 218.627 25.2801 217.901 25.2801C217.112 25.2801 216.483 25.1734 216.013 24.9601C215.544 24.7254 215.203 24.4161 214.989 24.0321C214.797 23.6481 214.701 23.2001 214.701 22.6881C214.189 23.4988 213.571 24.1388 212.845 24.6081C212.12 25.0561 211.235 25.2801 210.189 25.2801ZM212.461 23.2321C212.888 23.2321 213.272 23.1361 213.613 22.9441C213.976 22.7308 214.317 22.3894 214.637 21.9201V15.3601C214.445 15.6801 214.179 15.9681 213.837 16.2241C213.496 16.4801 213.133 16.7468 212.749 17.0241C212.365 17.2801 211.992 17.5681 211.629 17.8881C211.288 18.2081 211.011 18.6028 210.797 19.0721C210.584 19.5414 210.477 20.1068 210.477 20.7681C210.477 21.6001 210.659 22.2188 211.021 22.6241C211.384 23.0294 211.864 23.2321 212.461 23.2321Z" fill="white"/>
</g>
<g filter="url(#filter5_d_2097_870)">
<path d="M201.019 3.26404V8.51204H204.795V9.15204H201.019V22.08C201.019 22.72 201.137 23.1787 201.371 23.456C201.606 23.712 201.958 23.84 202.427 23.84C202.811 23.84 203.195 23.7014 203.579 23.424C203.963 23.1254 204.305 22.624 204.603 21.92L205.147 22.208C204.806 23.168 204.283 23.9574 203.579 24.576C202.897 25.1947 201.958 25.504 200.763 25.504C200.059 25.504 199.441 25.408 198.907 25.216C198.374 25.0454 197.926 24.7787 197.563 24.416C197.094 23.9467 196.785 23.3707 196.635 22.688C196.486 21.984 196.411 21.0774 196.411 19.968V9.15204H193.723V8.51204H196.411V4.28804C197.307 4.28804 198.129 4.21337 198.875 4.06404C199.643 3.89337 200.358 3.62671 201.019 3.26404Z" fill="white"/>
</g>
<g filter="url(#filter6_d_2097_870)">
<path d="M188.59 0.255981C189.486 0.255981 190.19 0.479982 190.702 0.927982C191.235 1.35465 191.502 1.95198 191.502 2.71998C191.502 3.48798 191.235 4.09598 190.702 4.54398C190.19 4.97065 189.486 5.18398 188.59 5.18398C187.694 5.18398 186.979 4.97065 186.446 4.54398C185.934 4.09598 185.678 3.48798 185.678 2.71998C185.678 1.95198 185.934 1.35465 186.446 0.927982C186.979 0.479982 187.694 0.255981 188.59 0.255981ZM191.086 8.15998V22.08C191.086 22.976 191.235 23.584 191.534 23.904C191.854 24.224 192.387 24.384 193.134 24.384V25.056C192.75 25.0346 192.152 25.0133 191.342 24.992C190.531 24.9493 189.71 24.928 188.878 24.928C188.046 24.928 187.203 24.9493 186.35 24.992C185.496 25.0133 184.856 25.0346 184.43 25.056V24.384C185.176 24.384 185.699 24.224 185.998 23.904C186.318 23.584 186.478 22.976 186.478 22.08V12C186.478 11.04 186.328 10.336 186.03 9.88798C185.752 9.41865 185.219 9.18398 184.43 9.18398V8.51198C185.112 8.57598 185.774 8.60798 186.414 8.60798C187.31 8.60798 188.142 8.57598 188.91 8.51198C189.699 8.42665 190.424 8.30932 191.086 8.15998Z" fill="white"/>
</g>
<g filter="url(#filter7_d_2097_870)">
<path d="M183.635 8.51208V9.15209C183.23 9.25875 182.846 9.51475 182.483 9.92008C182.121 10.3041 181.769 10.9654 181.427 11.9041L176.755 25.1201C176.414 25.0988 176.062 25.0881 175.699 25.0881C175.358 25.0881 175.017 25.0988 174.675 25.1201L168.979 10.9761C168.638 10.1441 168.297 9.64275 167.955 9.47209C167.635 9.28009 167.358 9.18408 167.123 9.18408V8.51208C167.806 8.55475 168.51 8.59742 169.235 8.64009C169.982 8.66142 170.793 8.67208 171.667 8.67208C172.329 8.67208 173.022 8.66142 173.747 8.64009C174.494 8.59742 175.187 8.55475 175.827 8.51208V9.18408C175.379 9.18408 174.974 9.20542 174.611 9.24809C174.27 9.29075 174.035 9.42942 173.907 9.66408C173.779 9.89875 173.801 10.3148 173.971 10.9121L177.715 20.8321L177.395 21.2801L179.923 14.2721C180.329 13.1201 180.499 12.1814 180.435 11.4561C180.371 10.7094 180.137 10.1548 179.731 9.79209C179.326 9.40809 178.782 9.19475 178.099 9.15209V8.51208C178.419 8.53342 178.761 8.55475 179.123 8.57608C179.507 8.57608 179.87 8.58675 180.211 8.60809C180.574 8.60809 180.894 8.60809 181.171 8.60809C181.598 8.60809 182.046 8.59742 182.515 8.57608C182.985 8.55475 183.358 8.53342 183.635 8.51208Z" fill="white"/>
</g>
<g filter="url(#filter8_d_2097_870)">
<path d="M160.771 8.06409C161.667 8.06409 162.392 8.18142 162.947 8.41609C163.523 8.62942 163.971 8.92809 164.291 9.31209C164.632 9.71742 164.878 10.2401 165.027 10.8801C165.198 11.5201 165.283 12.3841 165.283 13.4721V22.0801C165.283 22.9761 165.432 23.5841 165.731 23.9041C166.051 24.2241 166.584 24.3841 167.331 24.3841V25.0561C166.926 25.0348 166.318 25.0134 165.507 24.9921C164.696 24.9494 163.896 24.9281 163.107 24.9281C162.296 24.9281 161.496 24.9494 160.707 24.9921C159.939 25.0134 159.352 25.0348 158.947 25.0561V24.3841C159.587 24.3841 160.035 24.2241 160.291 23.9041C160.547 23.5841 160.675 22.9761 160.675 22.0801V12.1281C160.675 11.5948 160.622 11.1361 160.515 10.7521C160.408 10.3468 160.216 10.0374 159.939 9.82409C159.662 9.58942 159.246 9.47209 158.691 9.47209C158.115 9.47209 157.582 9.63209 157.091 9.95209C156.622 10.2721 156.238 10.7201 155.939 11.2961C155.662 11.8508 155.523 12.4801 155.523 13.1841V22.0801C155.523 22.9761 155.651 23.5841 155.907 23.9041C156.184 24.2241 156.632 24.3841 157.251 24.3841V25.0561C156.867 25.0348 156.302 25.0134 155.555 24.9921C154.83 24.9494 154.072 24.9281 153.283 24.9281C152.472 24.9281 151.64 24.9494 150.787 24.9921C149.934 25.0134 149.294 25.0348 148.867 25.0561V24.3841C149.614 24.3841 150.136 24.2241 150.435 23.9041C150.755 23.5841 150.915 22.9761 150.915 22.0801V12.0001C150.915 11.0401 150.766 10.3361 150.467 9.88809C150.19 9.41875 149.656 9.18409 148.867 9.18409V8.51209C149.55 8.57609 150.211 8.60809 150.851 8.60809C151.747 8.60809 152.579 8.57609 153.347 8.51209C154.136 8.42675 154.862 8.30942 155.523 8.16009V11.0401C156.056 9.95209 156.782 9.18409 157.699 8.73609C158.616 8.28809 159.64 8.06409 160.771 8.06409Z" fill="white"/>
</g>
<g filter="url(#filter9_d_2097_870)">
<path d="M142.933 0.255981C143.829 0.255981 144.533 0.479982 145.045 0.927982C145.579 1.35465 145.845 1.95198 145.845 2.71998C145.845 3.48798 145.579 4.09598 145.045 4.54398C144.533 4.97065 143.829 5.18398 142.933 5.18398C142.037 5.18398 141.323 4.97065 140.789 4.54398C140.277 4.09598 140.021 3.48798 140.021 2.71998C140.021 1.95198 140.277 1.35465 140.789 0.927982C141.323 0.479982 142.037 0.255981 142.933 0.255981ZM145.429 8.15998V22.08C145.429 22.976 145.579 23.584 145.877 23.904C146.197 24.224 146.731 24.384 147.477 24.384V25.056C147.093 25.0346 146.496 25.0133 145.685 24.992C144.875 24.9493 144.053 24.928 143.221 24.928C142.389 24.928 141.547 24.9493 140.693 24.992C139.84 25.0133 139.2 25.0346 138.773 25.056V24.384C139.52 24.384 140.043 24.224 140.341 23.904C140.661 23.584 140.821 22.976 140.821 22.08V12C140.821 11.04 140.672 10.336 140.373 9.88798C140.096 9.41865 139.563 9.18398 138.773 9.18398V8.51198C139.456 8.57598 140.117 8.60798 140.757 8.60798C141.653 8.60798 142.485 8.57598 143.253 8.51198C144.043 8.42665 144.768 8.30932 145.429 8.15998Z" fill="white"/>
</g>
<g filter="url(#filter10_d_2097_870)">
<path d="M119.825 31.0721C118.502 31.0721 117.318 30.9547 116.273 30.7201C115.249 30.5067 114.438 30.1654 113.841 29.6961C113.265 29.2481 112.977 28.6934 112.977 28.0321C112.977 27.3707 113.276 26.7734 113.873 26.2401C114.47 25.7281 115.356 25.3227 116.529 25.0241L116.817 25.5361C116.412 25.8561 116.113 26.1974 115.921 26.5601C115.75 26.9441 115.665 27.3387 115.665 27.7441C115.665 28.6401 116.07 29.3227 116.881 29.7921C117.713 30.2827 118.833 30.5281 120.241 30.5281C121.201 30.5281 122.054 30.4001 122.801 30.1441C123.569 29.8881 124.166 29.5041 124.593 28.9921C125.041 28.4801 125.265 27.8507 125.265 27.1041C125.265 26.4641 125.03 25.9201 124.561 25.4721C124.092 25.0454 123.153 24.8321 121.745 24.8321H119.761C118.886 24.8321 118.118 24.7361 117.457 24.5441C116.817 24.3521 116.316 24.0534 115.953 23.6481C115.59 23.2214 115.409 22.6881 115.409 22.0481C115.409 21.1521 115.761 20.3627 116.465 19.6801C117.169 18.9974 118.214 18.3574 119.601 17.7601L119.921 18.0161C119.516 18.2721 119.132 18.5494 118.769 18.8481C118.428 19.1254 118.257 19.4881 118.257 19.9361C118.257 20.6187 118.684 20.9601 119.537 20.9601H123.025C124.198 20.9601 125.244 21.0987 126.161 21.3761C127.1 21.6534 127.836 22.1121 128.369 22.7521C128.924 23.3707 129.201 24.1814 129.201 25.1841C129.201 26.2294 128.86 27.2001 128.177 28.0961C127.516 28.9921 126.492 29.7067 125.105 30.2401C123.718 30.7947 121.958 31.0721 119.825 31.0721ZM120.145 18.2401C118.929 18.2401 117.841 18.0587 116.881 17.6961C115.921 17.3334 115.164 16.7787 114.609 16.0321C114.054 15.2854 113.777 14.3254 113.777 13.1521C113.777 11.9787 114.054 11.0187 114.609 10.2721C115.164 9.50405 115.921 8.94939 116.881 8.60806C117.841 8.24539 118.929 8.06405 120.145 8.06405C121.361 8.06405 122.449 8.24539 123.409 8.60806C124.369 8.94939 125.126 9.50405 125.681 10.2721C126.236 11.0187 126.513 11.9787 126.513 13.1521C126.513 14.3254 126.236 15.2854 125.681 16.0321C125.126 16.7787 124.369 17.3334 123.409 17.6961C122.449 18.0587 121.361 18.2401 120.145 18.2401ZM120.145 17.6641C120.721 17.6641 121.169 17.3441 121.489 16.7041C121.809 16.0427 121.969 14.8587 121.969 13.1521C121.969 11.4454 121.809 10.2721 121.489 9.63206C121.169 8.97072 120.721 8.64005 120.145 8.64005C119.59 8.64005 119.142 8.97072 118.801 9.63206C118.481 10.2721 118.321 11.4454 118.321 13.1521C118.321 14.8587 118.481 16.0427 118.801 16.7041C119.142 17.3441 119.59 17.6641 120.145 17.6641ZM125.137 10.8161L124.497 10.5921C124.817 9.76005 125.329 9.06672 126.033 8.51205C126.758 7.95739 127.537 7.68005 128.369 7.68005C129.052 7.68005 129.564 7.87205 129.905 8.25605C130.268 8.61872 130.449 9.09872 130.449 9.69605C130.449 10.3361 130.278 10.8161 129.937 11.1361C129.596 11.4347 129.212 11.5841 128.785 11.5841C128.422 11.5841 128.081 11.4561 127.761 11.2001C127.462 10.9441 127.292 10.5601 127.249 10.0481C127.206 9.51472 127.388 8.83205 127.793 8.00005L128.017 8.19205C127.206 8.49072 126.598 8.84272 126.193 9.24805C125.788 9.63205 125.436 10.1547 125.137 10.8161Z" fill="white"/>
</g>
<g filter="url(#filter11_d_2097_870)">
<path d="M106.084 8.06409C106.98 8.06409 107.705 8.18142 108.26 8.41609C108.836 8.62942 109.284 8.92809 109.604 9.31209C109.945 9.71742 110.19 10.2401 110.34 10.8801C110.51 11.5201 110.596 12.3841 110.596 13.4721V22.0801C110.596 22.9761 110.745 23.5841 111.044 23.9041C111.364 24.2241 111.897 24.3841 112.644 24.3841V25.0561C112.238 25.0348 111.63 25.0134 110.82 24.9921C110.009 24.9494 109.209 24.9281 108.42 24.9281C107.609 24.9281 106.809 24.9494 106.02 24.9921C105.252 25.0134 104.665 25.0348 104.26 25.0561V24.3841C104.9 24.3841 105.348 24.2241 105.604 23.9041C105.86 23.5841 105.988 22.9761 105.988 22.0801V12.1281C105.988 11.5948 105.934 11.1361 105.828 10.7521C105.721 10.3468 105.529 10.0374 105.252 9.82409C104.974 9.58942 104.558 9.47209 104.004 9.47209C103.428 9.47209 102.894 9.63209 102.404 9.95209C101.934 10.2721 101.55 10.7201 101.252 11.2961C100.974 11.8508 100.836 12.4801 100.836 13.1841V22.0801C100.836 22.9761 100.964 23.5841 101.22 23.9041C101.497 24.2241 101.945 24.3841 102.564 24.3841V25.0561C102.18 25.0348 101.614 25.0134 100.868 24.9921C100.142 24.9494 99.3849 24.9281 98.5956 24.9281C97.7849 24.9281 96.9529 24.9494 96.0996 24.9921C95.2462 25.0134 94.6062 25.0348 94.1796 25.0561V24.3841C94.9262 24.3841 95.4489 24.2241 95.7476 23.9041C96.0676 23.5841 96.2276 22.9761 96.2276 22.0801V12.0001C96.2276 11.0401 96.0782 10.3361 95.7796 9.88809C95.5022 9.41875 94.9689 9.18409 94.1796 9.18409V8.51209C94.8622 8.57609 95.5236 8.60809 96.1636 8.60809C97.0596 8.60809 97.8916 8.57609 98.6596 8.51209C99.4489 8.42675 100.174 8.30942 100.836 8.16009V11.0401C101.369 9.95209 102.094 9.18409 103.012 8.73609C103.929 8.28809 104.953 8.06409 106.084 8.06409Z" fill="white"/>
</g>
<g filter="url(#filter12_d_2097_870)">
<path d="M88.2458 0.255981C89.1418 0.255981 89.8458 0.479982 90.3578 0.927982C90.8912 1.35465 91.1578 1.95198 91.1578 2.71998C91.1578 3.48798 90.8912 4.09598 90.3578 4.54398C89.8458 4.97065 89.1418 5.18398 88.2458 5.18398C87.3498 5.18398 86.6351 4.97065 86.1018 4.54398C85.5898 4.09598 85.3338 3.48798 85.3338 2.71998C85.3338 1.95198 85.5898 1.35465 86.1018 0.927982C86.6351 0.479982 87.3498 0.255981 88.2458 0.255981ZM90.7418 8.15998V22.08C90.7418 22.976 90.8912 23.584 91.1898 23.904C91.5098 24.224 92.0432 24.384 92.7898 24.384V25.056C92.4058 25.0346 91.8085 25.0133 90.9978 24.992C90.1872 24.9493 89.3658 24.928 88.5338 24.928C87.7018 24.928 86.8592 24.9493 86.0058 24.992C85.1525 25.0133 84.5125 25.0346 84.0858 25.056V24.384C84.8325 24.384 85.3551 24.224 85.6538 23.904C85.9738 23.584 86.1338 22.976 86.1338 22.08V12C86.1338 11.04 85.9845 10.336 85.6858 9.88798C85.4085 9.41865 84.8751 9.18398 84.0858 9.18398V8.51198C84.7685 8.57598 85.4298 8.60798 86.0698 8.60798C86.9658 8.60798 87.7978 8.57598 88.5658 8.51198C89.3552 8.42665 90.0805 8.30932 90.7418 8.15998Z" fill="white"/>
</g>
<g filter="url(#filter13_d_2097_870)">
<path d="M80.7048 0V21.536C80.7048 22.496 80.8541 23.2107 81.1528 23.68C81.4515 24.128 81.9848 24.352 82.7528 24.352V25.024C82.0915 24.96 81.4302 24.928 80.7688 24.928C79.8728 24.928 79.0302 24.96 78.2408 25.024C77.4728 25.088 76.7581 25.2053 76.0968 25.376V3.84C76.0968 2.88 75.9475 2.176 75.6488 1.728C75.3715 1.25867 74.8382 1.024 74.0488 1.024V0.352001C74.7315 0.416 75.3928 0.448 76.0328 0.448C76.9075 0.448 77.7395 0.416 78.5288 0.352001C79.3181 0.266668 80.0435 0.149334 80.7048 0ZM72.5448 8.064C73.4835 8.064 74.3048 8.224 75.0088 8.544C75.7341 8.84267 76.2995 9.35467 76.7048 10.08L76.3208 10.432C76.0435 9.92 75.6702 9.55733 75.2008 9.344C74.7528 9.10933 74.2728 8.992 73.7608 8.992C72.6728 8.992 71.8088 9.632 71.1688 10.912C70.5288 12.1707 70.2195 14.1227 70.2408 16.768C70.2408 18.5813 70.3581 20.032 70.5928 21.12C70.8488 22.1867 71.2008 22.9547 71.6488 23.424C72.1181 23.8933 72.6515 24.128 73.2488 24.128C73.9741 24.128 74.6248 23.84 75.2008 23.264C75.7768 22.688 76.0862 21.9093 76.1288 20.928L76.2888 22.048C75.9688 23.1787 75.4461 24.0427 74.7208 24.64C74.0168 25.216 73.0888 25.504 71.9368 25.504C70.6782 25.504 69.5475 25.1947 68.5448 24.576C67.5635 23.9573 66.7955 23.008 66.2408 21.728C65.6861 20.4267 65.4088 18.752 65.4088 16.704C65.4088 14.7627 65.7181 13.1627 66.3368 11.904C66.9555 10.624 67.7981 9.664 68.8648 9.024C69.9528 8.384 71.1795 8.064 72.5448 8.064Z" fill="white"/>
</g>
<g filter="url(#filter14_d_2097_870)">
<path d="M61.5798 0V21.536C61.5798 22.496 61.7291 23.2107 62.0278 23.68C62.3265 24.128 62.8598 24.352 63.6278 24.352V25.024C62.9665 24.96 62.3051 24.928 61.6438 24.928C60.7478 24.928 59.9051 24.96 59.1158 25.024C58.3478 25.088 57.6331 25.2053 56.9718 25.376V3.84C56.9718 2.88 56.8225 2.176 56.5238 1.728C56.2465 1.25867 55.7132 1.024 54.9238 1.024V0.352001C55.6065 0.416 56.2678 0.448 56.9078 0.448C57.7825 0.448 58.6145 0.416 59.4038 0.352001C60.1931 0.266668 60.9185 0.149334 61.5798 0ZM53.4198 8.064C54.3585 8.064 55.1798 8.224 55.8838 8.544C56.6091 8.84267 57.1745 9.35467 57.5798 10.08L57.1958 10.432C56.9185 9.92 56.5451 9.55733 56.0758 9.344C55.6278 9.10933 55.1478 8.992 54.6358 8.992C53.5478 8.992 52.6838 9.632 52.0438 10.912C51.4038 12.1707 51.0945 14.1227 51.1158 16.768C51.1158 18.5813 51.2331 20.032 51.4678 21.12C51.7238 22.1867 52.0758 22.9547 52.5238 23.424C52.9931 23.8933 53.5265 24.128 54.1238 24.128C54.8491 24.128 55.4998 23.84 56.0758 23.264C56.6518 22.688 56.9611 21.9093 57.0038 20.928L57.1638 22.048C56.8438 23.1787 56.3211 24.0427 55.5958 24.64C54.8918 25.216 53.9638 25.504 52.8118 25.504C51.5531 25.504 50.4225 25.1947 49.4198 24.576C48.4385 23.9573 47.6705 23.008 47.1158 21.728C46.5611 20.4267 46.2838 18.752 46.2838 16.704C46.2838 14.7627 46.5931 13.1627 47.2118 11.904C47.8305 10.624 48.6731 9.664 49.7398 9.024C50.8278 8.384 52.0545 8.064 53.4198 8.064Z" fill="white"/>
</g>
<g filter="url(#filter15_d_2097_870)">
<path d="M37.9667 8.06409C39.844 8.06409 41.316 8.61875 42.3827 9.72809C43.4494 10.8374 43.9827 12.6508 43.9827 15.1681H33.4547L33.3907 14.5601H39.9507C39.972 13.5148 39.908 12.5548 39.7587 11.6801C39.6094 10.7841 39.3747 10.0694 39.0547 9.53609C38.7347 9.00275 38.308 8.73609 37.7747 8.73609C37.028 8.73609 36.388 9.20542 35.8547 10.1441C35.3427 11.0828 35.0334 12.6401 34.9267 14.8161L35.0227 15.0081C35.0014 15.2641 34.98 15.5308 34.9587 15.8081C34.9587 16.0854 34.9587 16.3734 34.9587 16.6721C34.9587 18.1441 35.1614 19.3388 35.5667 20.2561C35.9934 21.1734 36.5267 21.8454 37.1667 22.2721C37.8067 22.6774 38.4574 22.8801 39.1187 22.8801C39.5667 22.8801 40.0254 22.8161 40.4947 22.6881C40.9854 22.5388 41.476 22.2828 41.9667 21.9201C42.4574 21.5361 42.916 21.0028 43.3427 20.3201L43.9187 20.5121C43.6627 21.3228 43.2574 22.1121 42.7027 22.8801C42.148 23.6481 41.444 24.2774 40.5907 24.7681C39.7374 25.2588 38.7134 25.5041 37.5187 25.5041C36.068 25.5041 34.788 25.1948 33.6787 24.5761C32.5694 23.9574 31.6947 23.0188 31.0547 21.7601C30.436 20.5014 30.1267 18.9014 30.1267 16.9601C30.1267 14.9761 30.4574 13.3228 31.1187 12.0001C31.8014 10.6774 32.7294 9.69609 33.9027 9.05609C35.0974 8.39475 36.452 8.06409 37.9667 8.06409Z" fill="white"/>
</g>
<g filter="url(#filter16_d_2097_870)">
<path d="M12.704 8.51198V9.18398C12.2347 9.18398 11.8187 9.21598 11.456 9.27998C11.1147 9.32265 10.88 9.47198 10.752 9.72798C10.6453 9.98398 10.688 10.4 10.88 10.976L13.92 20.48L13.504 20.928L17.248 8.47998L17.888 8.76798L12.992 25.12C12.6507 25.0986 12.3093 25.088 11.968 25.088C11.6267 25.088 11.2747 25.0986 10.912 25.12L5.856 10.976C5.55733 10.1226 5.22667 9.61065 4.864 9.43998C4.52267 9.26931 4.23467 9.18398 4 9.18398V8.51198C4.68267 8.57598 5.38667 8.62931 6.112 8.67198C6.85867 8.69331 7.66933 8.70398 8.544 8.70398C9.20533 8.70398 9.89867 8.68265 10.624 8.63998C11.3707 8.59731 12.064 8.55465 12.704 8.51198ZM29.408 8.51198V9.15198C29.0027 9.25865 28.6187 9.50398 28.256 9.88798C27.8933 10.272 27.552 10.944 27.232 11.904L22.976 25.12C22.6347 25.0986 22.2827 25.088 21.92 25.088C21.5787 25.088 21.2373 25.0986 20.896 25.12L16.384 12.8L17.248 8.47998C17.632 8.50131 18.016 8.51198 18.4 8.51198C18.8053 8.49065 19.2 8.47998 19.584 8.47998L23.968 21.408L23.616 21.056L25.76 14.272C26.1227 13.0986 26.2613 12.1493 26.176 11.424C26.0907 10.6986 25.8347 10.1546 25.408 9.79198C24.9813 9.42931 24.4053 9.21598 23.68 9.15198V8.51198C24.0213 8.53331 24.384 8.55465 24.768 8.57598C25.1733 8.57598 25.568 8.58665 25.952 8.60798C26.3573 8.60798 26.6987 8.60798 26.976 8.60798C27.4027 8.60798 27.84 8.59731 28.288 8.57598C28.7573 8.55465 29.1307 8.53331 29.408 8.51198Z" fill="white"/>
</g>
<defs>
<filter id="filter0_d_2097_870" x="257.773" y="8.06409" width="26.4639" height="24.9919" filterUnits="userSpaceOnUse" color-interpolation-filters="sRGB">
<feFlood flood-opacity="0" result="BackgroundImageFix"/>
<feColorMatrix in="SourceAlpha" type="matrix" values="0 0 0 0 0 0 0 0 0 0 0 0 0 0 0 0 0 0 127 0" result="hardAlpha"/>
<feOffset dy="4"/>
<feGaussianBlur stdDeviation="2"/>
<feComposite in2="hardAlpha" operator="out"/>
<feColorMatrix type="matrix" values="0 0 0 0 0 0 0 0 0 0 0 0 0 0 0 0 0 0 0.25 0"/>
<feBlend mode="normal" in2="BackgroundImageFix" result="effect1_dropShadow_2097_870"/>
<feBlend mode="normal" in="SourceGraphic" in2="effect1_dropShadow_2097_870" result="shape"/>
</filter>
<filter id="filter1_d_2097_870" x="240.096" y="8.06409" width="23.6799" height="25.4399" filterUnits="userSpaceOnUse" color-interpolation-filters="sRGB">
<feFlood flood-opacity="0" result="BackgroundImageFix"/>
<feColorMatrix in="SourceAlpha" type="matrix" values="0 0 0 0 0 0 0 0 0 0 0 0 0 0 0 0 0 0 127 0" result="hardAlpha"/>
<feOffset dy="4"/>
<feGaussianBlur stdDeviation="2"/>
<feComposite in2="hardAlpha" operator="out"/>
<feColorMatrix type="matrix" values="0 0 0 0 0 0 0 0 0 0 0 0 0 0 0 0 0 0 0.25 0"/>
<feBlend mode="normal" in2="BackgroundImageFix" result="effect1_dropShadow_2097_870"/>
<feBlend mode="normal" in="SourceGraphic" in2="effect1_dropShadow_2097_870" result="shape"/>
</filter>
<filter id="filter2_d_2097_870" x="229.586" y="0.255981" width="16.7041" height="32.8" filterUnits="userSpaceOnUse" color-interpolation-filters="sRGB">
<feFlood flood-opacity="0" result="BackgroundImageFix"/>
<feColorMatrix in="SourceAlpha" type="matrix" values="0 0 0 0 0 0 0 0 0 0 0 0 0 0 0 0 0 0 127 0" result="hardAlpha"/>
<feOffset dy="4"/>
<feGaussianBlur stdDeviation="2"/>
<feComposite in2="hardAlpha" operator="out"/>
<feColorMatrix type="matrix" values="0 0 0 0 0 0 0 0 0 0 0 0 0 0 0 0 0 0 0.25 0"/>
<feBlend mode="normal" in2="BackgroundImageFix" result="effect1_dropShadow_2097_870"/>
<feBlend mode="normal" in="SourceGraphic" in2="effect1_dropShadow_2097_870" result="shape"/>
</filter>
<filter id="filter3_d_2097_870" x="217.536" y="3.26404" width="19.4241" height="30.24" filterUnits="userSpaceOnUse" color-interpolation-filters="sRGB">
<feFlood flood-opacity="0" result="BackgroundImageFix"/>
<feColorMatrix in="SourceAlpha" type="matrix" values="0 0 0 0 0 0 0 0 0 0 0 0 0 0 0 0 0 0 127 0" result="hardAlpha"/>
<feOffset dy="4"/>
<feGaussianBlur stdDeviation="2"/>
<feComposite in2="hardAlpha" operator="out"/>
<feColorMatrix type="matrix" values="0 0 0 0 0 0 0 0 0 0 0 0 0 0 0 0 0 0 0.25 0"/>
<feBlend mode="normal" in2="BackgroundImageFix" result="effect1_dropShadow_2097_870"/>
<feBlend mode="normal" in="SourceGraphic" in2="effect1_dropShadow_2097_870" result="shape"/>
</filter>
<filter id="filter4_d_2097_870" x="201.933" y="8.06409" width="23.488" height="25.2159" filterUnits="userSpaceOnUse" color-interpolation-filters="sRGB">
<feFlood flood-opacity="0" result="BackgroundImageFix"/>
<feColorMatrix in="SourceAlpha" type="matrix" values="0 0 0 0 0 0 0 0 0 0 0 0 0 0 0 0 0 0 127 0" result="hardAlpha"/>
<feOffset dy="4"/>
<feGaussianBlur stdDeviation="2"/>
<feComposite in2="hardAlpha" operator="out"/>
<feColorMatrix type="matrix" values="0 0 0 0 0 0 0 0 0 0 0 0 0 0 0 0 0 0 0.25 0"/>
<feBlend mode="normal" in2="BackgroundImageFix" result="effect1_dropShadow_2097_870"/>
<feBlend mode="normal" in="SourceGraphic" in2="effect1_dropShadow_2097_870" result="shape"/>
</filter>
<filter id="filter5_d_2097_870" x="189.723" y="3.26404" width="19.4241" height="30.24" filterUnits="userSpaceOnUse" color-interpolation-filters="sRGB">
<feFlood flood-opacity="0" result="BackgroundImageFix"/>
<feColorMatrix in="SourceAlpha" type="matrix" values="0 0 0 0 0 0 0 0 0 0 0 0 0 0 0 0 0 0 127 0" result="hardAlpha"/>
<feOffset dy="4"/>
<feGaussianBlur stdDeviation="2"/>
<feComposite in2="hardAlpha" operator="out"/>
<feColorMatrix type="matrix" values="0 0 0 0 0 0 0 0 0 0 0 0 0 0 0 0 0 0 0.25 0"/>
<feBlend mode="normal" in2="BackgroundImageFix" result="effect1_dropShadow_2097_870"/>
<feBlend mode="normal" in="SourceGraphic" in2="effect1_dropShadow_2097_870" result="shape"/>
</filter>
<filter id="filter6_d_2097_870" x="180.43" y="0.255981" width="16.7041" height="32.8" filterUnits="userSpaceOnUse" color-interpolation-filters="sRGB">
<feFlood flood-opacity="0" result="BackgroundImageFix"/>
<feColorMatrix in="SourceAlpha" type="matrix" values="0 0 0 0 0 0 0 0 0 0 0 0 0 0 0 0 0 0 127 0" result="hardAlpha"/>
<feOffset dy="4"/>
<feGaussianBlur stdDeviation="2"/>
<feComposite in2="hardAlpha" operator="out"/>
<feColorMatrix type="matrix" values="0 0 0 0 0 0 0 0 0 0 0 0 0 0 0 0 0 0 0.25 0"/>
<feBlend mode="normal" in2="BackgroundImageFix" result="effect1_dropShadow_2097_870"/>
<feBlend mode="normal" in="SourceGraphic" in2="effect1_dropShadow_2097_870" result="shape"/>
</filter>
<filter id="filter7_d_2097_870" x="163.123" y="8.51208" width="24.512" height="24.608" filterUnits="userSpaceOnUse" color-interpolation-filters="sRGB">
<feFlood flood-opacity="0" result="BackgroundImageFix"/>
<feColorMatrix in="SourceAlpha" type="matrix" values="0 0 0 0 0 0 0 0 0 0 0 0 0 0 0 0 0 0 127 0" result="hardAlpha"/>
<feOffset dy="4"/>
<feGaussianBlur stdDeviation="2"/>
<feComposite in2="hardAlpha" operator="out"/>
<feColorMatrix type="matrix" values="0 0 0 0 0 0 0 0 0 0 0 0 0 0 0 0 0 0 0.25 0"/>
<feBlend mode="normal" in2="BackgroundImageFix" result="effect1_dropShadow_2097_870"/>
<feBlend mode="normal" in="SourceGraphic" in2="effect1_dropShadow_2097_870" result="shape"/>
</filter>
<filter id="filter8_d_2097_870" x="144.867" y="8.06409" width="26.4639" height="24.9919" filterUnits="userSpaceOnUse" color-interpolation-filters="sRGB">
<feFlood flood-opacity="0" result="BackgroundImageFix"/>
<feColorMatrix in="SourceAlpha" type="matrix" values="0 0 0 0 0 0 0 0 0 0 0 0 0 0 0 0 0 0 127 0" result="hardAlpha"/>
<feOffset dy="4"/>
<feGaussianBlur stdDeviation="2"/>
<feComposite in2="hardAlpha" operator="out"/>
<feColorMatrix type="matrix" values="0 0 0 0 0 0 0 0 0 0 0 0 0 0 0 0 0 0 0.25 0"/>
<feBlend mode="normal" in2="BackgroundImageFix" result="effect1_dropShadow_2097_870"/>
<feBlend mode="normal" in="SourceGraphic" in2="effect1_dropShadow_2097_870" result="shape"/>
</filter>
<filter id="filter9_d_2097_870" x="134.773" y="0.255981" width="16.7041" height="32.8" filterUnits="userSpaceOnUse" color-interpolation-filters="sRGB">
<feFlood flood-opacity="0" result="BackgroundImageFix"/>
<feColorMatrix in="SourceAlpha" type="matrix" values="0 0 0 0 0 0 0 0 0 0 0 0 0 0 0 0 0 0 127 0" result="hardAlpha"/>
<feOffset dy="4"/>
<feGaussianBlur stdDeviation="2"/>
<feComposite in2="hardAlpha" operator="out"/>
<feColorMatrix type="matrix" values="0 0 0 0 0 0 0 0 0 0 0 0 0 0 0 0 0 0 0.25 0"/>
<feBlend mode="normal" in2="BackgroundImageFix" result="effect1_dropShadow_2097_870"/>
<feBlend mode="normal" in="SourceGraphic" in2="effect1_dropShadow_2097_870" result="shape"/>
</filter>
<filter id="filter10_d_2097_870" x="108.977" y="7.68005" width="25.4719" height="31.392" filterUnits="userSpaceOnUse" color-interpolation-filters="sRGB">
<feFlood flood-opacity="0" result="BackgroundImageFix"/>
<feColorMatrix in="SourceAlpha" type="matrix" values="0 0 0 0 0 0 0 0 0 0 0 0 0 0 0 0 0 0 127 0" result="hardAlpha"/>
<feOffset dy="4"/>
<feGaussianBlur stdDeviation="2"/>
<feComposite in2="hardAlpha" operator="out"/>
<feColorMatrix type="matrix" values="0 0 0 0 0 0 0 0 0 0 0 0 0 0 0 0 0 0 0.25 0"/>
<feBlend mode="normal" in2="BackgroundImageFix" result="effect1_dropShadow_2097_870"/>
<feBlend mode="normal" in="SourceGraphic" in2="effect1_dropShadow_2097_870" result="shape"/>
</filter>
<filter id="filter11_d_2097_870" x="90.1796" y="8.06409" width="26.4641" height="24.9919" filterUnits="userSpaceOnUse" color-interpolation-filters="sRGB">
<feFlood flood-opacity="0" result="BackgroundImageFix"/>
<feColorMatrix in="SourceAlpha" type="matrix" values="0 0 0 0 0 0 0 0 0 0 0 0 0 0 0 0 0 0 127 0" result="hardAlpha"/>
<feOffset dy="4"/>
<feGaussianBlur stdDeviation="2"/>
<feComposite in2="hardAlpha" operator="out"/>
<feColorMatrix type="matrix" values="0 0 0 0 0 0 0 0 0 0 0 0 0 0 0 0 0 0 0.25 0"/>
<feBlend mode="normal" in2="BackgroundImageFix" result="effect1_dropShadow_2097_870"/>
<feBlend mode="normal" in="SourceGraphic" in2="effect1_dropShadow_2097_870" result="shape"/>
</filter>
<filter id="filter12_d_2097_870" x="80.0858" y="0.255981" width="16.7041" height="32.8" filterUnits="userSpaceOnUse" color-interpolation-filters="sRGB">
<feFlood flood-opacity="0" result="BackgroundImageFix"/>
<feColorMatrix in="SourceAlpha" type="matrix" values="0 0 0 0 0 0 0 0 0 0 0 0 0 0 0 0 0 0 127 0" result="hardAlpha"/>
<feOffset dy="4"/>
<feGaussianBlur stdDeviation="2"/>
<feComposite in2="hardAlpha" operator="out"/>
<feColorMatrix type="matrix" values="0 0 0 0 0 0 0 0 0 0 0 0 0 0 0 0 0 0 0.25 0"/>
<feBlend mode="normal" in2="BackgroundImageFix" result="effect1_dropShadow_2097_870"/>
<feBlend mode="normal" in="SourceGraphic" in2="effect1_dropShadow_2097_870" result="shape"/>
</filter>
<filter id="filter13_d_2097_870" x="61.4088" y="0" width="25.344" height="33.504" filterUnits="userSpaceOnUse" color-interpolation-filters="sRGB">
<feFlood flood-opacity="0" result="BackgroundImageFix"/>
<feColorMatrix in="SourceAlpha" type="matrix" values="0 0 0 0 0 0 0 0 0 0 0 0 0 0 0 0 0 0 127 0" result="hardAlpha"/>
<feOffset dy="4"/>
<feGaussianBlur stdDeviation="2"/>
<feComposite in2="hardAlpha" operator="out"/>
<feColorMatrix type="matrix" values="0 0 0 0 0 0 0 0 0 0 0 0 0 0 0 0 0 0 0.25 0"/>
<feBlend mode="normal" in2="BackgroundImageFix" result="effect1_dropShadow_2097_870"/>
<feBlend mode="normal" in="SourceGraphic" in2="effect1_dropShadow_2097_870" result="shape"/>
</filter>
<filter id="filter14_d_2097_870" x="42.2838" y="0" width="25.344" height="33.504" filterUnits="userSpaceOnUse" color-interpolation-filters="sRGB">
<feFlood flood-opacity="0" result="BackgroundImageFix"/>
<feColorMatrix in="SourceAlpha" type="matrix" values="0 0 0 0 0 0 0 0 0 0 0 0 0 0 0 0 0 0 127 0" result="hardAlpha"/>
<feOffset dy="4"/>
<feGaussianBlur stdDeviation="2"/>
<feComposite in2="hardAlpha" operator="out"/>
<feColorMatrix type="matrix" values="0 0 0 0 0 0 0 0 0 0 0 0 0 0 0 0 0 0 0.25 0"/>
<feBlend mode="normal" in2="BackgroundImageFix" result="effect1_dropShadow_2097_870"/>
<feBlend mode="normal" in="SourceGraphic" in2="effect1_dropShadow_2097_870" result="shape"/>
</filter>
<filter id="filter15_d_2097_870" x="26.1267" y="8.06409" width="21.856" height="25.4399" filterUnits="userSpaceOnUse" color-interpolation-filters="sRGB">
<feFlood flood-opacity="0" result="BackgroundImageFix"/>
<feColorMatrix in="SourceAlpha" type="matrix" values="0 0 0 0 0 0 0 0 0 0 0 0 0 0 0 0 0 0 127 0" result="hardAlpha"/>
<feOffset dy="4"/>
<feGaussianBlur stdDeviation="2"/>
<feComposite in2="hardAlpha" operator="out"/>
<feColorMatrix type="matrix" values="0 0 0 0 0 0 0 0 0 0 0 0 0 0 0 0 0 0 0.25 0"/>
<feBlend mode="normal" in2="BackgroundImageFix" result="effect1_dropShadow_2097_870"/>
<feBlend mode="normal" in="SourceGraphic" in2="effect1_dropShadow_2097_870" result="shape"/>
</filter>
<filter id="filter16_d_2097_870" x="0" y="8.47998" width="33.408" height="24.64" filterUnits="userSpaceOnUse" color-interpolation-filters="sRGB">
<feFlood flood-opacity="0" result="BackgroundImageFix"/>
<feColorMatrix in="SourceAlpha" type="matrix" values="0 0 0 0 0 0 0 0 0 0 0 0 0 0 0 0 0 0 127 0" result="hardAlpha"/>
<feOffset dy="4"/>
<feGaussianBlur stdDeviation="2"/>
<feComposite in2="hardAlpha" operator="out"/>
<feColorMatrix type="matrix" values="0 0 0 0 0 0 0 0 0 0 0 0 0 0 0 0 0 0 0.25 0"/>
<feBlend mode="normal" in2="BackgroundImageFix" result="effect1_dropShadow_2097_870"/>
<feBlend mode="normal" in="SourceGraphic" in2="effect1_dropShadow_2097_870" result="shape"/>
</filter>
</defs>
</svg>
