<svg width="277" height="30" viewBox="0 0 277 30" fill="none" xmlns="http://www.w3.org/2000/svg">
<path d="M4.41597 23.1361C3.30664 23.1361 2.39997 22.8161 1.69597 22.1761C1.0133 21.5147 0.67197 20.5014 0.67197 19.1361C0.67197 18.4534 0.746636 17.7387 0.89597 16.9921C1.06664 16.2241 1.24797 15.4774 1.43997 14.7521C1.6533 14.0054 1.83464 13.3334 1.98397 12.7361C2.1333 12.1387 2.20797 11.6587 2.20797 11.2961C2.20797 10.9334 2.1333 10.6774 1.98397 10.5281C1.83464 10.3574 1.6533 10.2721 1.43997 10.2721C1.22664 10.2721 1.0133 10.3467 0.79997 10.4961C0.586636 10.6241 0.405303 10.8267 0.25597 11.1041L-3.02792e-05 11.0081C0.0426364 10.1334 0.28797 9.38672 0.73597 8.76806C1.18397 8.14939 1.73864 7.68006 2.39997 7.36006C3.08264 7.04006 3.7653 6.88006 4.44797 6.88006C5.00264 6.88006 5.53597 6.99739 6.04797 7.23206C6.55997 7.44539 6.9653 7.78672 7.26397 8.25606C7.58397 8.70406 7.7333 9.28006 7.71197 9.98406C7.69064 10.4534 7.6053 11.0294 7.45597 11.7121C7.30664 12.3947 7.1253 13.1307 6.91197 13.9201C6.71997 14.6881 6.5493 15.4347 6.39997 16.1601C6.25064 16.8854 6.17597 17.5254 6.17597 18.0801C6.17597 18.5494 6.23997 18.9227 6.36797 19.2001C6.5173 19.4774 6.76264 19.6161 7.10397 19.6161C7.46664 19.6161 7.94664 19.4241 8.54397 19.0401C9.1413 18.6561 9.73864 18.1014 10.336 17.3761C10.208 16.1814 10.144 15.1254 10.144 14.2081C10.144 11.8614 10.4853 10.1654 11.168 9.12006C11.872 8.07472 12.7466 7.55206 13.792 7.55206C14.56 7.55206 15.0826 7.80806 15.36 8.32006C15.6373 8.83206 15.776 9.51472 15.776 10.3681C15.776 11.6267 15.5626 12.8107 15.136 13.9201C14.7093 15.0294 14.208 15.9147 13.632 16.5761C13.6746 17.5361 13.8666 18.2827 14.208 18.8161C14.5706 19.3494 14.9973 19.6161 15.488 19.6161C15.9786 19.6161 16.48 19.3387 16.992 18.7841C17.5253 18.2294 17.984 17.3761 18.368 16.2241C18.752 15.0721 18.976 13.6107 19.04 11.8401C19.0613 10.4107 18.9653 9.36539 18.752 8.70406V8.54406C19.0506 8.05339 19.52 7.63739 20.16 7.29606C20.8213 6.93339 21.4826 6.75206 22.144 6.75206C22.6133 6.75206 23.04 6.89072 23.424 7.16806C23.8293 7.42406 24.1493 7.91472 24.384 8.64006C24.6186 9.34406 24.704 10.3681 24.64 11.7121C24.576 13.5894 24.2666 15.2427 23.712 16.6721C23.1573 18.0801 22.4426 19.2641 21.568 20.2241C20.7146 21.1841 19.7866 21.9094 18.784 22.4001C17.7813 22.8907 16.7893 23.1361 15.808 23.1361C14.6986 23.1361 13.6853 22.8374 12.768 22.2401C11.8506 21.6214 11.1573 20.7574 10.688 19.6481C9.72797 20.6507 8.73597 21.4827 7.71197 22.1441C6.7093 22.8054 5.61064 23.1361 4.41597 23.1361ZM33.0652 23.2321C31.5079 23.2321 30.2172 22.9227 29.1932 22.3041C28.1692 21.6641 27.4012 20.8321 26.8892 19.8081C26.3772 18.7627 26.1212 17.6427 26.1212 16.4481C26.1212 15.3174 26.3346 14.1867 26.7612 13.0561C27.2092 11.9041 27.8492 10.8587 28.6812 9.92006C29.5346 8.98139 30.5586 8.22406 31.7532 7.64806C32.9692 7.07206 34.3346 6.78406 35.8492 6.78406C37.7266 6.78406 39.0919 7.21072 39.9452 8.06406C40.8199 8.89606 41.2572 9.90939 41.2572 11.1041C41.2572 12.1281 40.9799 13.0774 40.4252 13.9521C39.8919 14.8054 39.1772 15.4987 38.2812 16.0321C37.3852 16.5441 36.4039 16.8001 35.3372 16.8001C34.7826 16.8001 34.2172 16.7147 33.6412 16.5441C33.0652 16.3734 32.4999 16.1067 31.9452 15.7441C32.0519 17.0667 32.4359 18.0267 33.0972 18.6241C33.7586 19.2214 34.5479 19.5201 35.4652 19.5201C36.1052 19.5201 36.7452 19.4027 37.3852 19.1681C38.0252 18.9121 38.6119 18.5921 39.1452 18.2081C39.6999 17.8027 40.1266 17.3761 40.4252 16.9281L40.6492 17.0881C40.6492 18.1974 40.4146 19.1467 39.9452 19.9361C39.4972 20.7041 38.8999 21.3334 38.1532 21.8241C37.4066 22.3147 36.5852 22.6774 35.6892 22.9121C34.8146 23.1254 33.9399 23.2321 33.0652 23.2321ZM33.8012 14.5921C34.4839 14.5921 35.0386 14.4001 35.4652 14.0161C35.8919 13.6107 36.2119 13.1414 36.4252 12.6081C36.6386 12.0747 36.7452 11.6054 36.7452 11.2001C36.7452 10.7094 36.6066 10.3041 36.3292 9.98406C36.0519 9.64272 35.6679 9.47206 35.1772 9.47206C34.7932 9.47206 34.3666 9.61072 33.8972 9.88806C33.4492 10.1654 33.0439 10.6454 32.6812 11.3281C32.3186 11.9894 32.0839 12.9174 31.9772 14.1121C32.6599 14.4321 33.2679 14.5921 33.8012 14.5921ZM47.4487 23.1361C46.6807 23.1361 45.9554 22.8694 45.2727 22.3361C44.6114 21.8027 44.0674 21.0241 43.6407 20.0001C43.2354 18.9761 43.0327 17.7387 43.0327 16.2881C43.0327 14.7947 43.2461 13.4614 43.6727 12.2881C44.0994 11.1147 44.6541 10.1227 45.3367 9.31206C46.0407 8.48006 46.7981 7.85072 47.6087 7.42406C48.4407 6.99739 49.2514 6.78406 50.0407 6.78406C50.9154 6.78406 51.6941 7.06139 52.3767 7.61606C53.0594 8.14939 53.5287 8.99206 53.7847 10.1441C53.9767 9.07739 54.1367 8.06406 54.2647 7.10406C54.4141 6.12272 54.4887 5.25872 54.4887 4.51206C54.4887 3.53072 54.3607 2.81606 54.1047 2.36806V2.17606C54.5954 1.62139 55.1287 1.21606 55.7047 0.960056C56.3021 0.682723 56.8674 0.544056 57.4007 0.544056C58.1047 0.544056 58.7021 0.768056 59.1927 1.21605C59.6834 1.64272 59.9287 2.26139 59.9287 3.07206C59.9287 3.52006 59.8541 4.18139 59.7047 5.05606C59.5554 5.93072 59.3741 6.93339 59.1607 8.06406C58.9474 9.17339 58.7234 10.3254 58.4887 11.5201C58.2754 12.6934 58.0941 13.8241 57.9447 14.9121C57.7954 15.9787 57.7207 16.9067 57.7207 17.6961C57.7207 18.3574 57.7847 18.8907 57.9127 19.2961C58.0621 19.6801 58.2967 19.8721 58.6167 19.8721C58.8514 19.8721 59.0861 19.7974 59.3207 19.6481C59.5767 19.4774 59.7474 19.2854 59.8327 19.0721L60.0567 19.2321C60.0567 19.9361 59.8327 20.5867 59.3847 21.1841C58.9367 21.7601 58.3714 22.2294 57.6887 22.5921C57.0061 22.9547 56.3021 23.1361 55.5767 23.1361C54.7874 23.1361 54.1581 22.9227 53.6887 22.4961C53.2407 22.0481 52.9207 21.4827 52.7287 20.8001C52.5367 20.1174 52.4301 19.4134 52.4087 18.6881C51.7474 20.2241 50.9687 21.3547 50.0727 22.0801C49.1981 22.7841 48.3234 23.1361 47.4487 23.1361ZM49.5927 19.0721C50.1474 19.0721 50.7661 18.5707 51.4487 17.5681C52.1314 16.5654 52.7287 15.1041 53.2407 13.1841L53.4327 12.1921C53.0914 11.4027 52.7181 10.8481 52.3127 10.5281C51.9287 10.1867 51.5554 10.0161 51.1927 10.0161C50.6594 10.0161 50.1581 10.3147 49.6887 10.9121C49.2194 11.4881 48.8354 12.2347 48.5367 13.1521C48.2594 14.0481 48.1207 14.9974 48.1207 16.0001C48.1207 16.9601 48.2594 17.7174 48.5367 18.2721C48.8141 18.8054 49.1661 19.0721 49.5927 19.0721ZM65.9175 23.1361C65.1495 23.1361 64.4241 22.8694 63.7415 22.3361C63.0801 21.8027 62.5361 21.0241 62.1095 20.0001C61.7041 18.9761 61.5015 17.7387 61.5015 16.2881C61.5015 14.7947 61.7148 13.4614 62.1415 12.2881C62.5681 11.1147 63.1228 10.1227 63.8055 9.31206C64.5095 8.48006 65.2668 7.85072 66.0775 7.42406C66.9095 6.99739 67.7201 6.78406 68.5095 6.78406C69.3841 6.78406 70.1628 7.06139 70.8455 7.61606C71.5281 8.14939 71.9975 8.99206 72.2535 10.1441C72.4455 9.07739 72.6055 8.06406 72.7335 7.10406C72.8828 6.12272 72.9575 5.25872 72.9575 4.51206C72.9575 3.53072 72.8295 2.81606 72.5735 2.36806V2.17606C73.0641 1.62139 73.5975 1.21606 74.1735 0.960056C74.7708 0.682723 75.3361 0.544056 75.8695 0.544056C76.5735 0.544056 77.1708 0.768056 77.6615 1.21605C78.1521 1.64272 78.3975 2.26139 78.3975 3.07206C78.3975 3.52006 78.3228 4.18139 78.1735 5.05606C78.0241 5.93072 77.8428 6.93339 77.6295 8.06406C77.4161 9.17339 77.1921 10.3254 76.9575 11.5201C76.7441 12.6934 76.5628 13.8241 76.4135 14.9121C76.2641 15.9787 76.1895 16.9067 76.1895 17.6961C76.1895 18.3574 76.2535 18.8907 76.3815 19.2961C76.5308 19.6801 76.7655 19.8721 77.0855 19.8721C77.3201 19.8721 77.5548 19.7974 77.7895 19.6481C78.0455 19.4774 78.2161 19.2854 78.3015 19.0721L78.5255 19.2321C78.5255 19.9361 78.3015 20.5867 77.8535 21.1841C77.4055 21.7601 76.8401 22.2294 76.1575 22.5921C75.4748 22.9547 74.7708 23.1361 74.0455 23.1361C73.2561 23.1361 72.6268 22.9227 72.1575 22.4961C71.7095 22.0481 71.3895 21.4827 71.1975 20.8001C71.0055 20.1174 70.8988 19.4134 70.8775 18.6881C70.2161 20.2241 69.4375 21.3547 68.5415 22.0801C67.6668 22.7841 66.7921 23.1361 65.9175 23.1361ZM68.0615 19.0721C68.6161 19.0721 69.2348 18.5707 69.9175 17.5681C70.6001 16.5654 71.1975 15.1041 71.7095 13.1841L71.9015 12.1921C71.5601 11.4027 71.1868 10.8481 70.7815 10.5281C70.3975 10.1867 70.0241 10.0161 69.6615 10.0161C69.1281 10.0161 68.6268 10.3147 68.1575 10.9121C67.6881 11.4881 67.3041 12.2347 67.0055 13.1521C66.7281 14.0481 66.5895 14.9974 66.5895 16.0001C66.5895 16.9601 66.7281 17.7174 67.0055 18.2721C67.2828 18.8054 67.6348 19.0721 68.0615 19.0721ZM85.9825 5.88806C85.1291 5.88806 84.4251 5.63206 83.8705 5.12006C83.3371 4.58672 83.0705 3.92539 83.0705 3.13605C83.0705 2.28272 83.3905 1.54672 84.0305 0.928055C84.6705 0.309388 85.4491 5.53131e-05 86.3665 5.53131e-05C87.2198 5.53131e-05 87.9131 0.266722 88.4465 0.800056C89.0011 1.33339 89.2785 1.99472 89.2785 2.78406C89.2785 3.63739 88.9585 4.37339 88.3185 4.99206C87.6785 5.58939 86.8998 5.88806 85.9825 5.88806ZM83.7425 23.1361C82.9105 23.1361 82.1638 22.8481 81.5025 22.2721C80.8411 21.6747 80.5105 20.7254 80.5105 19.4241C80.5105 18.6774 80.6065 17.9841 80.7985 17.3441C81.0118 16.6827 81.2465 16.0427 81.5025 15.4241C81.7798 14.8054 82.0145 14.2081 82.2065 13.6321C82.4198 13.0347 82.5265 12.4481 82.5265 11.8721C82.5265 11.3601 82.4411 10.9974 82.2705 10.7841C82.0998 10.5494 81.8971 10.4321 81.6625 10.4321C81.2998 10.4321 80.9478 10.6667 80.6065 11.1361L80.3825 11.0081C80.4678 10.1547 80.7345 9.42939 81.1825 8.83206C81.6518 8.21339 82.2171 7.73339 82.8785 7.39206C83.5611 7.05072 84.2331 6.88006 84.8945 6.88006C85.7051 6.88006 86.4091 7.14672 87.0065 7.68006C87.6038 8.19206 87.9025 9.03472 87.9025 10.2081C87.9025 10.9121 87.7958 11.6587 87.5825 12.4481C87.3905 13.2161 87.1558 13.9841 86.8785 14.7521C86.6225 15.5201 86.3878 16.2347 86.1745 16.8961C85.9825 17.5574 85.8865 18.1227 85.8865 18.5921C85.8865 18.9974 85.9611 19.2854 86.1105 19.4561C86.2811 19.6267 86.4625 19.7121 86.6545 19.7121C86.8465 19.7121 87.0278 19.6587 87.1985 19.5521C87.3905 19.4241 87.5291 19.2854 87.6145 19.1361L87.8385 19.2001C87.8385 19.9894 87.6251 20.6827 87.1985 21.2801C86.7931 21.8561 86.2811 22.3147 85.6625 22.6561C85.0438 22.9761 84.4038 23.1361 83.7425 23.1361ZM94.023 23.1041C93.2336 23.1041 92.519 22.7947 91.879 22.1761C91.239 21.5361 90.919 20.6507 90.919 19.5201C90.919 18.9654 90.9936 18.3361 91.143 17.6321C91.2923 16.9281 91.4523 16.2134 91.623 15.4881C91.815 14.7627 91.9856 14.0801 92.135 13.4401C92.2843 12.8001 92.359 12.2774 92.359 11.8721C92.359 11.4454 92.2736 11.1147 92.103 10.8801C91.9323 10.6241 91.7083 10.4961 91.431 10.4961C91.0683 10.4961 90.6736 10.7094 90.247 11.1361L90.055 11.0081C90.0336 10.6667 90.1083 10.2614 90.279 9.79206C90.4496 9.32272 90.7056 8.87472 91.047 8.44806C91.4096 8.00006 91.8683 7.62672 92.423 7.32806C92.9776 7.02939 93.639 6.88006 94.407 6.88006C95.5376 6.88006 96.3696 7.21072 96.903 7.87206C97.4576 8.51206 97.735 9.30139 97.735 10.2401C97.735 10.5814 97.703 10.9121 97.639 11.2321C98.087 10.5707 98.6416 9.90939 99.303 9.24806C99.9643 8.56539 100.69 8.00006 101.479 7.55206C102.29 7.10406 103.122 6.88006 103.975 6.88006C104.978 6.88006 105.66 7.20006 106.023 7.84006C106.386 8.48006 106.567 9.28006 106.567 10.2401C106.567 11.1361 106.471 12.0961 106.279 13.1201C106.087 14.1441 105.895 15.1361 105.703 16.0961C105.511 17.0347 105.415 17.8241 105.415 18.4641C105.415 19.3174 105.66 19.7441 106.151 19.7441C106.407 19.7441 106.631 19.6694 106.823 19.5201C107.015 19.3494 107.143 19.1894 107.207 19.0401L107.431 19.1361C107.431 19.9254 107.207 20.6187 106.759 21.2161C106.332 21.8134 105.788 22.2827 105.127 22.6241C104.466 22.9441 103.794 23.1041 103.111 23.1041C102.279 23.1041 101.543 22.8161 100.903 22.2401C100.263 21.6641 99.943 20.7254 99.943 19.4241C99.943 18.6561 100.039 17.8241 100.231 16.9281C100.444 16.0321 100.647 15.1681 100.839 14.3361C101.031 13.5041 101.127 12.8214 101.127 12.2881C101.127 11.9681 101.063 11.7227 100.935 11.5521C100.828 11.3601 100.626 11.2641 100.327 11.2641C99.8363 11.2641 99.2923 11.4881 98.695 11.9361C98.119 12.3841 97.6176 12.9814 97.191 13.7281C96.7856 14.4747 96.583 15.2961 96.583 16.1921C96.583 16.7681 96.647 17.3227 96.775 17.8561C96.9243 18.3894 96.999 18.9654 96.999 19.5841C96.999 20.7361 96.7003 21.6107 96.103 22.2081C95.5056 22.8054 94.8123 23.1041 94.023 23.1041ZM116.836 29.4081C115.791 29.4081 114.927 29.0987 114.244 28.4801C113.562 27.8614 113.22 26.9867 113.22 25.8561C113.22 24.6401 113.647 23.2107 114.5 21.5681C114.351 21.6107 114.202 21.6427 114.052 21.6641C113.903 21.6854 113.754 21.6961 113.604 21.6961C112.367 21.6961 111.322 21.1627 110.468 20.0961C109.636 19.0081 109.22 17.5041 109.22 15.5841C109.22 13.8561 109.551 12.3307 110.212 11.0081C110.895 9.68539 111.759 8.65072 112.804 7.90406C113.85 7.15739 114.938 6.78406 116.068 6.78406C116.858 6.78406 117.572 6.98672 118.212 7.39206C118.852 7.77606 119.375 8.40539 119.78 9.28006C119.802 9.06672 119.812 8.87472 119.812 8.70406C119.812 8.53339 119.812 8.37339 119.812 8.22406C119.812 7.86139 120.09 7.56272 120.644 7.32806C121.199 7.09339 121.818 6.97606 122.5 6.97606C123.119 6.97606 123.695 7.09339 124.228 7.32806C124.762 7.56272 125.114 7.95739 125.284 8.51206L125.348 8.70406C125.156 8.87472 124.986 9.42939 124.836 10.3681C124.708 11.3067 124.548 12.6081 124.356 14.2721C124.228 15.3174 124.068 16.5121 123.876 17.8561C123.684 19.1787 123.418 20.5227 123.076 21.8881C122.756 23.2321 122.33 24.4694 121.796 25.6001C121.263 26.7521 120.591 27.6694 119.78 28.3521C118.97 29.0561 117.988 29.4081 116.836 29.4081ZM115.78 18.0161C116.399 18.0161 117.082 17.5147 117.828 16.5121C118.596 15.4881 119.204 14.0267 119.652 12.1281C119.268 11.2961 118.874 10.7094 118.468 10.3681C118.084 10.0054 117.69 9.82406 117.284 9.82406C116.751 9.82406 116.25 10.0907 115.78 10.6241C115.311 11.1574 114.927 11.8401 114.628 12.6721C114.351 13.4827 114.212 14.3254 114.212 15.2001C114.212 16.0961 114.362 16.7894 114.66 17.2801C114.959 17.7707 115.332 18.0161 115.78 18.0161ZM115.396 25.7281C116.122 25.7281 116.858 25.0134 117.604 23.5841C118.372 22.1761 118.906 20.1814 119.204 17.6001C117.583 19.7974 116.452 21.4934 115.812 22.6881C115.194 23.8614 114.884 24.6934 114.884 25.1841C114.884 25.5467 115.055 25.7281 115.396 25.7281ZM138.639 5.88806C137.785 5.88806 137.081 5.63206 136.527 5.12006C135.993 4.58672 135.727 3.92539 135.727 3.13605C135.727 2.28272 136.047 1.54672 136.687 0.928055C137.327 0.309388 138.105 5.53131e-05 139.023 5.53131e-05C139.876 5.53131e-05 140.569 0.266722 141.103 0.800056C141.657 1.33339 141.935 1.99472 141.935 2.78406C141.935 3.63739 141.615 4.37339 140.975 4.99206C140.335 5.58939 139.556 5.88806 138.639 5.88806ZM136.399 23.1361C135.567 23.1361 134.82 22.8481 134.159 22.2721C133.497 21.6747 133.167 20.7254 133.167 19.4241C133.167 18.6774 133.263 17.9841 133.455 17.3441C133.668 16.6827 133.903 16.0427 134.159 15.4241C134.436 14.8054 134.671 14.2081 134.863 13.6321C135.076 13.0347 135.183 12.4481 135.183 11.8721C135.183 11.3601 135.097 10.9974 134.927 10.7841C134.756 10.5494 134.553 10.4321 134.319 10.4321C133.956 10.4321 133.604 10.6667 133.263 11.1361L133.039 11.0081C133.124 10.1547 133.391 9.42939 133.839 8.83206C134.308 8.21339 134.873 7.73339 135.535 7.39206C136.217 7.05072 136.889 6.88006 137.551 6.88006C138.361 6.88006 139.065 7.14672 139.663 7.68006C140.26 8.19206 140.559 9.03472 140.559 10.2081C140.559 10.9121 140.452 11.6587 140.239 12.4481C140.047 13.2161 139.812 13.9841 139.535 14.7521C139.279 15.5201 139.044 16.2347 138.831 16.8961C138.639 17.5574 138.543 18.1227 138.543 18.5921C138.543 18.9974 138.617 19.2854 138.767 19.4561C138.937 19.6267 139.119 19.7121 139.311 19.7121C139.503 19.7121 139.684 19.6587 139.855 19.5521C140.047 19.4241 140.185 19.2854 140.271 19.1361L140.495 19.2001C140.495 19.9894 140.281 20.6827 139.855 21.2801C139.449 21.8561 138.937 22.3147 138.319 22.6561C137.7 22.9761 137.06 23.1361 136.399 23.1361ZM146.679 23.1041C145.89 23.1041 145.175 22.7947 144.535 22.1761C143.895 21.5361 143.575 20.6507 143.575 19.5201C143.575 18.9654 143.65 18.3361 143.799 17.6321C143.949 16.9281 144.109 16.2134 144.279 15.4881C144.471 14.7627 144.642 14.0801 144.791 13.4401C144.941 12.8001 145.015 12.2774 145.015 11.8721C145.015 11.4454 144.93 11.1147 144.759 10.8801C144.589 10.6241 144.365 10.4961 144.087 10.4961C143.725 10.4961 143.33 10.7094 142.903 11.1361L142.711 11.0081C142.69 10.6667 142.765 10.2614 142.935 9.79206C143.106 9.32272 143.362 8.87472 143.703 8.44806C144.066 8.00006 144.525 7.62672 145.079 7.32806C145.634 7.02939 146.295 6.88006 147.063 6.88006C148.194 6.88006 149.026 7.21072 149.559 7.87206C150.114 8.51206 150.391 9.30139 150.391 10.2401C150.391 10.5814 150.359 10.9121 150.295 11.2321C150.743 10.5707 151.298 9.90939 151.959 9.24806C152.621 8.56539 153.346 8.00006 154.135 7.55206C154.946 7.10406 155.778 6.88006 156.631 6.88006C157.634 6.88006 158.317 7.20006 158.679 7.84006C159.042 8.48006 159.223 9.28006 159.223 10.2401C159.223 11.1361 159.127 12.0961 158.935 13.1201C158.743 14.1441 158.551 15.1361 158.359 16.0961C158.167 17.0347 158.071 17.8241 158.071 18.4641C158.071 19.3174 158.317 19.7441 158.807 19.7441C159.063 19.7441 159.287 19.6694 159.479 19.5201C159.671 19.3494 159.799 19.1894 159.863 19.0401L160.087 19.1361C160.087 19.9254 159.863 20.6187 159.415 21.2161C158.989 21.8134 158.445 22.2827 157.783 22.6241C157.122 22.9441 156.45 23.1041 155.767 23.1041C154.935 23.1041 154.199 22.8161 153.559 22.2401C152.919 21.6641 152.599 20.7254 152.599 19.4241C152.599 18.6561 152.695 17.8241 152.887 16.9281C153.101 16.0321 153.303 15.1681 153.495 14.3361C153.687 13.5041 153.783 12.8214 153.783 12.2881C153.783 11.9681 153.719 11.7227 153.591 11.5521C153.485 11.3601 153.282 11.2641 152.983 11.2641C152.493 11.2641 151.949 11.4881 151.351 11.9361C150.775 12.3841 150.274 12.9814 149.847 13.7281C149.442 14.4747 149.239 15.2961 149.239 16.1921C149.239 16.7681 149.303 17.3227 149.431 17.8561C149.581 18.3894 149.655 18.9654 149.655 19.5841C149.655 20.7361 149.357 21.6107 148.759 22.2081C148.162 22.8054 147.469 23.1041 146.679 23.1041ZM166.422 23.1361C165.185 23.1361 164.203 22.8161 163.478 22.1761C162.753 21.5147 162.39 20.5014 162.39 19.1361C162.39 18.3467 162.486 17.5041 162.678 16.6081C162.891 15.7121 163.094 14.9121 163.286 14.2081C163.478 13.5254 163.627 12.9281 163.734 12.4161C163.862 11.9041 163.926 11.5094 163.926 11.2321C163.926 10.8907 163.851 10.6454 163.702 10.4961C163.553 10.3467 163.371 10.2721 163.158 10.2721C162.646 10.2721 162.219 10.5174 161.878 11.0081L161.75 10.8801C161.771 10.1547 162.006 9.49339 162.454 8.89606C162.902 8.27739 163.478 7.78672 164.182 7.42406C164.886 7.06139 165.601 6.88006 166.326 6.88006C167.137 6.88006 167.83 7.12539 168.406 7.61606C168.982 8.08539 169.249 8.83206 169.206 9.85606C169.185 10.3041 169.099 10.8694 168.95 11.5521C168.822 12.2347 168.641 13.0454 168.406 13.9841C168.257 14.5814 168.097 15.2641 167.926 16.0321C167.777 16.7787 167.702 17.4614 167.702 18.0801C167.702 18.5494 167.777 18.9227 167.926 19.2001C168.075 19.4774 168.321 19.6161 168.662 19.6161C169.11 19.6161 169.601 19.3707 170.134 18.8801C170.689 18.3681 171.169 17.5467 171.574 16.4161C171.979 15.2641 172.214 13.7387 172.278 11.8401C172.342 10.3894 172.246 9.33339 171.99 8.67206V8.51206C172.182 8.21339 172.47 7.92539 172.854 7.64806C173.259 7.37072 173.707 7.14672 174.198 6.97606C174.689 6.78406 175.147 6.68806 175.574 6.68806C176.257 6.68806 176.833 7.01872 177.302 7.68006C177.793 8.34139 178.006 9.49339 177.942 11.1361C177.899 12.7147 177.611 14.1441 177.078 15.4241C176.566 16.7041 175.894 17.8241 175.062 18.7841C174.23 19.7441 173.313 20.5441 172.31 21.1841C171.329 21.8241 170.326 22.3147 169.302 22.6561C168.278 22.9761 167.318 23.1361 166.422 23.1361ZM185.42 5.88806C184.567 5.88806 183.863 5.63206 183.308 5.12006C182.775 4.58672 182.508 3.92539 182.508 3.13605C182.508 2.28272 182.828 1.54672 183.468 0.928055C184.108 0.309388 184.887 5.53131e-05 185.804 5.53131e-05C186.657 5.53131e-05 187.351 0.266722 187.884 0.800056C188.439 1.33339 188.716 1.99472 188.716 2.78406C188.716 3.63739 188.396 4.37339 187.756 4.99206C187.116 5.58939 186.337 5.88806 185.42 5.88806ZM183.18 23.1361C182.348 23.1361 181.601 22.8481 180.94 22.2721C180.279 21.6747 179.948 20.7254 179.948 19.4241C179.948 18.6774 180.044 17.9841 180.236 17.3441C180.449 16.6827 180.684 16.0427 180.94 15.4241C181.217 14.8054 181.452 14.2081 181.644 13.6321C181.857 13.0347 181.964 12.4481 181.964 11.8721C181.964 11.3601 181.879 10.9974 181.708 10.7841C181.537 10.5494 181.335 10.4321 181.1 10.4321C180.737 10.4321 180.385 10.6667 180.044 11.1361L179.82 11.0081C179.905 10.1547 180.172 9.42939 180.62 8.83206C181.089 8.21339 181.655 7.73339 182.316 7.39206C182.999 7.05072 183.671 6.88006 184.332 6.88006C185.143 6.88006 185.847 7.14672 186.444 7.68006C187.041 8.19206 187.34 9.03472 187.34 10.2081C187.34 10.9121 187.233 11.6587 187.02 12.4481C186.828 13.2161 186.593 13.9841 186.316 14.7521C186.06 15.5201 185.825 16.2347 185.612 16.8961C185.42 17.5574 185.324 18.1227 185.324 18.5921C185.324 18.9974 185.399 19.2854 185.548 19.4561C185.719 19.6267 185.9 19.7121 186.092 19.7121C186.284 19.7121 186.465 19.6587 186.636 19.5521C186.828 19.4241 186.967 19.2854 187.052 19.1361L187.276 19.2001C187.276 19.9894 187.063 20.6827 186.636 21.2801C186.231 21.8561 185.719 22.3147 185.1 22.6561C184.481 22.9761 183.841 23.1361 183.18 23.1361ZM194.354 23.1361C193.672 23.1361 193.021 22.9867 192.402 22.6881C191.805 22.3681 191.314 21.8774 190.93 21.2161C190.568 20.5547 190.386 19.7121 190.386 18.6881C190.386 18.1334 190.44 17.4081 190.546 16.5121C190.653 15.6161 190.792 14.6347 190.962 13.5681C191.154 12.5014 191.346 11.4347 191.538 10.3681C191.112 10.3894 190.696 10.4321 190.29 10.4961C189.906 10.5601 189.522 10.6347 189.138 10.7201L189.074 10.4961C189.501 9.98406 189.949 9.54672 190.418 9.18406C190.888 8.82139 191.378 8.52272 191.89 8.28806C192.168 6.88006 192.402 5.66406 192.594 4.64006C192.786 3.59472 192.882 2.97606 192.882 2.78406C192.882 2.42139 193.16 2.12272 193.714 1.88806C194.29 1.65339 194.93 1.53606 195.634 1.53606C196.253 1.53606 196.829 1.65339 197.362 1.88806C197.917 2.12272 198.29 2.51739 198.482 3.07206C198.354 3.20006 198.173 3.68006 197.938 4.51206C197.704 5.32272 197.458 6.31472 197.202 7.48806C197.608 7.50939 198.024 7.53072 198.45 7.55206C198.877 7.57339 199.314 7.60539 199.762 7.64806C199.805 7.77606 199.837 7.91472 199.858 8.06406C199.88 8.21339 199.89 8.37339 199.89 8.54406C199.89 8.86406 199.837 9.21606 199.73 9.60006C199.645 9.96272 199.538 10.2934 199.41 10.5921C198.898 10.5494 198.418 10.5067 197.97 10.4641C197.522 10.4001 197.085 10.3574 196.658 10.3361C196.488 11.2534 196.328 12.1707 196.178 13.0881C196.05 14.0054 195.944 14.8374 195.858 15.5841C195.794 16.3307 195.762 16.9174 195.762 17.3441C195.762 18.2401 195.922 18.8374 196.242 19.1361C196.584 19.4347 196.989 19.5841 197.458 19.5841C197.885 19.5841 198.269 19.4987 198.61 19.3281C198.952 19.1574 199.197 18.9547 199.346 18.7201L199.666 18.8161C199.538 19.6907 199.197 20.4587 198.642 21.1201C198.088 21.7601 197.426 22.2614 196.658 22.6241C195.89 22.9654 195.122 23.1361 194.354 23.1361ZM212.583 23.1681C211.837 23.1681 211.186 22.9227 210.631 22.4321C210.077 21.9414 209.799 21.1414 209.799 20.0321C209.799 19.9254 209.799 19.8187 209.799 19.7121C209.799 19.6054 209.81 19.4987 209.831 19.3921C209.191 20.6721 208.466 21.6214 207.655 22.2401C206.866 22.8374 206.066 23.1361 205.255 23.1361C204.509 23.1361 203.805 22.8801 203.143 22.3681C202.482 21.8347 201.949 21.0561 201.543 20.0321C201.138 19.0081 200.935 17.7707 200.935 16.3201C200.935 14.8267 201.138 13.4934 201.543 12.3201C201.97 11.1467 202.525 10.1547 203.207 9.34406C203.89 8.53339 204.637 7.92539 205.447 7.52006C206.258 7.09339 207.047 6.88006 207.815 6.88006C208.669 6.88006 209.437 7.14672 210.119 7.68006C210.802 8.19206 211.271 9.01339 211.527 10.1441C211.591 9.78139 211.634 9.45072 211.655 9.15206C211.698 8.85339 211.719 8.65072 211.719 8.54406C211.741 7.96806 212.029 7.54139 212.583 7.26406C213.159 6.98672 213.789 6.84806 214.471 6.84806C215.069 6.84806 215.634 6.96539 216.167 7.20006C216.701 7.43472 217.063 7.82939 217.255 8.38406L217.319 8.57606C217.063 9.15206 216.807 9.84539 216.551 10.6561C216.295 11.4667 216.061 12.3201 215.847 13.2161C215.634 14.0907 215.463 14.9547 215.335 15.8081C215.207 16.6401 215.143 17.3761 215.143 18.0161C215.143 18.7201 215.218 19.2107 215.367 19.4881C215.517 19.7441 215.698 19.8721 215.911 19.8721C216.274 19.8721 216.605 19.6161 216.903 19.1041L217.159 19.2321C217.159 19.9574 216.925 20.6187 216.455 21.2161C215.986 21.8134 215.399 22.2934 214.695 22.6561C213.991 22.9974 213.287 23.1681 212.583 23.1681ZM207.367 19.1041C207.922 19.1041 208.53 18.6134 209.191 17.6321C209.874 16.6294 210.461 15.2001 210.951 13.3441C210.994 13.1521 211.037 12.9707 211.079 12.8001C211.122 12.6081 211.154 12.4267 211.175 12.2561C210.834 11.4667 210.471 10.9121 210.087 10.5921C209.725 10.2507 209.362 10.0801 208.999 10.0801C208.466 10.0801 207.965 10.3681 207.495 10.9441C207.047 11.4987 206.674 12.2027 206.375 13.0561C206.098 13.9094 205.959 14.7627 205.959 15.6161C205.959 16.7894 206.087 17.6641 206.343 18.2401C206.621 18.8161 206.962 19.1041 207.367 19.1041ZM223.729 23.1361C223.047 23.1361 222.396 22.9867 221.777 22.6881C221.18 22.3681 220.689 21.8774 220.305 21.2161C219.943 20.5547 219.761 19.7121 219.761 18.6881C219.761 18.1334 219.815 17.4081 219.921 16.5121C220.028 15.6161 220.167 14.6347 220.337 13.5681C220.529 12.5014 220.721 11.4347 220.913 10.3681C220.487 10.3894 220.071 10.4321 219.665 10.4961C219.281 10.5601 218.897 10.6347 218.513 10.7201L218.449 10.4961C218.876 9.98406 219.324 9.54672 219.793 9.18406C220.263 8.82139 220.753 8.52272 221.265 8.28806C221.543 6.88006 221.777 5.66406 221.969 4.64006C222.161 3.59472 222.257 2.97606 222.257 2.78406C222.257 2.42139 222.535 2.12272 223.089 1.88806C223.665 1.65339 224.305 1.53606 225.009 1.53606C225.628 1.53606 226.204 1.65339 226.737 1.88806C227.292 2.12272 227.665 2.51739 227.857 3.07206C227.729 3.20006 227.548 3.68006 227.313 4.51206C227.079 5.32272 226.833 6.31472 226.577 7.48806C226.983 7.50939 227.399 7.53072 227.825 7.55206C228.252 7.57339 228.689 7.60539 229.137 7.64806C229.18 7.77606 229.212 7.91472 229.233 8.06406C229.255 8.21339 229.265 8.37339 229.265 8.54406C229.265 8.86406 229.212 9.21606 229.105 9.60006C229.02 9.96272 228.913 10.2934 228.785 10.5921C228.273 10.5494 227.793 10.5067 227.345 10.4641C226.897 10.4001 226.46 10.3574 226.033 10.3361C225.863 11.2534 225.703 12.1707 225.553 13.0881C225.425 14.0054 225.319 14.8374 225.233 15.5841C225.169 16.3307 225.137 16.9174 225.137 17.3441C225.137 18.2401 225.297 18.8374 225.617 19.1361C225.959 19.4347 226.364 19.5841 226.833 19.5841C227.26 19.5841 227.644 19.4987 227.985 19.3281C228.327 19.1574 228.572 18.9547 228.721 18.7201L229.041 18.8161C228.913 19.6907 228.572 20.4587 228.017 21.1201C227.463 21.7601 226.801 22.2614 226.033 22.6241C225.265 22.9654 224.497 23.1361 223.729 23.1361ZM236.482 5.88806C235.629 5.88806 234.925 5.63206 234.37 5.12006C233.837 4.58672 233.57 3.92539 233.57 3.13605C233.57 2.28272 233.89 1.54672 234.53 0.928055C235.17 0.309388 235.949 5.53131e-05 236.866 5.53131e-05C237.72 5.53131e-05 238.413 0.266722 238.946 0.800056C239.501 1.33339 239.778 1.99472 239.778 2.78406C239.778 3.63739 239.458 4.37339 238.818 4.99206C238.178 5.58939 237.4 5.88806 236.482 5.88806ZM234.242 23.1361C233.41 23.1361 232.664 22.8481 232.002 22.2721C231.341 21.6747 231.01 20.7254 231.01 19.4241C231.01 18.6774 231.106 17.9841 231.298 17.3441C231.512 16.6827 231.746 16.0427 232.002 15.4241C232.28 14.8054 232.514 14.2081 232.706 13.6321C232.92 13.0347 233.026 12.4481 233.026 11.8721C233.026 11.3601 232.941 10.9974 232.77 10.7841C232.6 10.5494 232.397 10.4321 232.162 10.4321C231.8 10.4321 231.448 10.6667 231.106 11.1361L230.882 11.0081C230.968 10.1547 231.234 9.42939 231.682 8.83206C232.152 8.21339 232.717 7.73339 233.378 7.39206C234.061 7.05072 234.733 6.88006 235.394 6.88006C236.205 6.88006 236.909 7.14672 237.506 7.68006C238.104 8.19206 238.402 9.03472 238.402 10.2081C238.402 10.9121 238.296 11.6587 238.082 12.4481C237.89 13.2161 237.656 13.9841 237.378 14.7521C237.122 15.5201 236.888 16.2347 236.674 16.8961C236.482 17.5574 236.386 18.1227 236.386 18.5921C236.386 18.9974 236.461 19.2854 236.61 19.4561C236.781 19.6267 236.962 19.7121 237.154 19.7121C237.346 19.7121 237.528 19.6587 237.698 19.5521C237.89 19.4241 238.029 19.2854 238.114 19.1361L238.338 19.2001C238.338 19.9894 238.125 20.6827 237.698 21.2801C237.293 21.8561 236.781 22.3147 236.162 22.6561C235.544 22.9761 234.904 23.1361 234.242 23.1361ZM247.692 23.2321C246.092 23.2321 244.77 22.9121 243.724 22.2721C242.679 21.6321 241.9 20.7894 241.388 19.7441C240.898 18.6774 240.652 17.5467 240.652 16.3521C240.652 15.2214 240.855 14.0907 241.26 12.9601C241.687 11.8294 242.295 10.8054 243.084 9.88806C243.895 8.94939 244.876 8.20272 246.028 7.64806C247.18 7.07206 248.503 6.78406 249.996 6.78406C251.596 6.78406 252.908 7.11472 253.932 7.77606C254.978 8.41606 255.746 9.26939 256.236 10.3361C256.748 11.4027 257.004 12.5441 257.004 13.7601C257.004 14.8694 256.802 15.9894 256.396 17.1201C255.991 18.2294 255.383 19.2534 254.572 20.1921C253.783 21.1094 252.812 21.8454 251.66 22.4001C250.508 22.9547 249.186 23.2321 247.692 23.2321ZM248.556 20.5121C249.132 20.5121 249.612 20.2134 249.996 19.6161C250.38 19.0187 250.668 18.2614 250.86 17.3441C251.052 16.4054 251.148 15.4561 251.148 14.4961C251.148 13.6427 251.063 12.8427 250.892 12.0961C250.743 11.3281 250.508 10.7094 250.188 10.2401C249.868 9.74939 249.452 9.50406 248.94 9.50406C248.386 9.50406 247.906 9.80272 247.5 10.4001C247.116 10.9974 246.828 11.7547 246.636 12.6721C246.444 13.5894 246.348 14.5387 246.348 15.5201C246.348 16.3734 246.423 17.1841 246.572 17.9521C246.743 18.6987 246.988 19.3174 247.308 19.8081C247.628 20.2774 248.044 20.5121 248.556 20.5121ZM262.617 23.1041C261.827 23.1041 261.113 22.7947 260.473 22.1761C259.833 21.5361 259.513 20.6507 259.513 19.5201C259.513 18.9654 259.587 18.3361 259.737 17.6321C259.886 16.9281 260.046 16.2134 260.217 15.4881C260.409 14.7627 260.579 14.0801 260.729 13.4401C260.878 12.8001 260.953 12.2774 260.953 11.8721C260.953 11.4454 260.867 11.1147 260.697 10.8801C260.526 10.6241 260.302 10.4961 260.025 10.4961C259.662 10.4961 259.267 10.7094 258.841 11.1361L258.649 11.0081C258.627 10.6667 258.702 10.2614 258.873 9.79206C259.043 9.32272 259.299 8.87472 259.641 8.44806C260.003 8.00006 260.462 7.62672 261.017 7.32806C261.571 7.02939 262.233 6.88006 263.001 6.88006C264.131 6.88006 264.963 7.21072 265.497 7.87206C266.051 8.51206 266.329 9.30139 266.329 10.2401C266.329 10.5814 266.297 10.9121 266.233 11.2321C266.681 10.5707 267.235 9.90939 267.897 9.24806C268.558 8.56539 269.283 8.00006 270.073 7.55206C270.883 7.10406 271.715 6.88006 272.569 6.88006C273.571 6.88006 274.254 7.20006 274.617 7.84006C274.979 8.48006 275.161 9.28006 275.161 10.2401C275.161 11.1361 275.065 12.0961 274.873 13.1201C274.681 14.1441 274.489 15.1361 274.297 16.0961C274.105 17.0347 274.009 17.8241 274.009 18.4641C274.009 19.3174 274.254 19.7441 274.745 19.7441C275.001 19.7441 275.225 19.6694 275.417 19.5201C275.609 19.3494 275.737 19.1894 275.801 19.0401L276.025 19.1361C276.025 19.9254 275.801 20.6187 275.353 21.2161C274.926 21.8134 274.382 22.2827 273.721 22.6241C273.059 22.9441 272.387 23.1041 271.705 23.1041C270.873 23.1041 270.137 22.8161 269.497 22.2401C268.857 21.6641 268.537 20.7254 268.537 19.4241C268.537 18.6561 268.633 17.8241 268.825 16.9281C269.038 16.0321 269.241 15.1681 269.433 14.3361C269.625 13.5041 269.721 12.8214 269.721 12.2881C269.721 11.9681 269.657 11.7227 269.529 11.5521C269.422 11.3601 269.219 11.2641 268.921 11.2641C268.43 11.2641 267.886 11.4881 267.289 11.9361C266.713 12.3841 266.211 12.9814 265.785 13.7281C265.379 14.4747 265.177 15.2961 265.177 16.1921C265.177 16.7681 265.241 17.3227 265.369 17.8561C265.518 18.3894 265.593 18.9654 265.593 19.5841C265.593 20.7361 265.294 21.6107 264.697 22.2081C264.099 22.8054 263.406 23.1041 262.617 23.1041Z" fill="white"/>
</svg>
