<svg width="223" height="54" viewBox="0 0 223 54" fill="none" xmlns="http://www.w3.org/2000/svg">
<path d="M20.272 2.96802C22.5867 2.96802 24.528 3.28535 26.096 3.92002C27.7014 4.55469 29.2694 5.45069 30.8 6.60802C31.248 6.94402 31.6214 7.11202 31.92 7.11202C32.2934 7.11202 32.592 6.85069 32.816 6.32802C33.04 5.76802 33.208 4.90936 33.32 3.75202H34.608C34.4587 6.29069 34.384 10.808 34.384 17.304H33.096C32.7974 14.7654 32.3494 12.712 31.752 11.144C31.192 9.57602 30.24 8.25069 28.896 7.16802C28 6.30936 26.8987 5.63736 25.592 5.15202C24.2854 4.66669 22.9414 4.42402 21.56 4.42402C18.9467 4.42402 16.7627 5.32002 15.008 7.11202C13.2907 8.86669 12.0214 11.2 11.2 14.112C10.3787 17.024 9.96804 20.216 9.96804 23.688C9.96804 36.6054 13.552 43.064 20.72 43.064C22.3627 43.064 23.688 42.6907 24.696 41.944C25.1814 41.608 25.5174 41.216 25.704 40.768C25.928 40.32 26.04 39.7414 26.04 39.032V33.544C26.04 31.7894 25.8907 30.52 25.592 29.736C25.2934 28.9147 24.752 28.3547 23.968 28.056C23.2214 27.7574 22.0267 27.5707 20.384 27.496V26.376C22.6987 26.488 25.8907 26.544 29.96 26.544C33.2827 26.544 35.784 26.488 37.464 26.376V27.496C36.7174 27.5707 36.176 27.72 35.84 27.944C35.504 28.168 35.2614 28.5974 35.112 29.232C35 29.8667 34.944 30.8934 34.944 32.312V43.4H33.824C33.7867 42.616 33.6187 41.888 33.32 41.216C33.0587 40.544 32.6854 40.208 32.2 40.208C31.5654 40.208 30.5574 40.6 29.176 41.384C25.928 43.2507 22.8667 44.184 19.992 44.184C13.5334 44.184 8.58671 42.4294 5.15204 38.92C1.71737 35.3734 4.10974e-05 30.408 4.10974e-05 24.024C4.10974e-05 19.8427 0.858708 16.1654 2.57604 12.992C4.33071 9.81869 6.73871 7.35469 9.80004 5.60002C12.8614 3.84536 16.352 2.96802 20.272 2.96802ZM59.3797 13.664C61.0597 13.664 62.3291 14.168 63.1877 15.176C64.0464 16.184 64.4757 17.3974 64.4757 18.816C64.4757 20.1974 64.0651 21.336 63.2437 22.232C62.4597 23.0907 61.4144 23.52 60.1077 23.52C58.8384 23.52 57.8304 23.2027 57.0837 22.568C56.3371 21.896 55.9637 21.0187 55.9637 19.936C55.9637 18.144 56.7851 16.688 58.4277 15.568C58.2784 15.5307 58.0544 15.512 57.7557 15.512C57.3824 15.512 57.0837 15.5494 56.8597 15.624C55.4411 15.848 54.2277 16.7067 53.2197 18.2C52.2491 19.6934 51.7637 21.224 51.7637 22.792V37.632C51.7637 39.3494 52.1744 40.544 52.9957 41.216C53.8544 41.888 55.1984 42.224 57.0277 42.224V43.4C56.5051 43.4 56.0757 43.3814 55.7397 43.344C51.9317 43.232 49.3931 43.176 48.1237 43.176C47.1157 43.176 44.8197 43.232 41.2357 43.344C40.9371 43.3814 40.5637 43.4 40.1157 43.4V42.224C41.4597 42.224 42.3931 41.944 42.9157 41.384C43.4384 40.7867 43.6997 39.7227 43.6997 38.192V20.552C43.6997 18.8347 43.4384 17.584 42.9157 16.8C42.3931 16.016 41.4597 15.624 40.1157 15.624V14.448C41.3104 14.56 42.4677 14.616 43.5877 14.616C46.9104 14.616 49.6357 14.3547 51.7637 13.832V19.04C52.4731 17.4347 53.4997 16.1467 54.8437 15.176C56.1877 14.168 57.6997 13.664 59.3797 13.664ZM81.9547 39.592C85.0161 39.592 87.4801 38.0987 89.3467 35.112L90.3547 35.448C89.6081 37.8747 88.2641 39.9467 86.3227 41.664C84.4187 43.344 82.0294 44.184 79.1547 44.184C75.1974 44.184 72.0427 42.9334 69.6907 40.432C67.3761 37.8934 66.2187 34.16 66.2187 29.232C66.2187 24.192 67.4694 20.3467 69.9707 17.696C72.4721 15.008 75.7947 13.664 79.9387 13.664C86.9574 13.664 90.4667 17.808 90.4667 26.096H74.7307C74.6934 26.656 74.6747 27.5334 74.6747 28.728C74.6747 31.192 75.0107 33.2454 75.6827 34.888C76.3921 36.5307 77.2881 37.7254 78.3707 38.472C79.4907 39.2187 80.6854 39.592 81.9547 39.592ZM79.6027 14.84C78.2587 14.84 77.1387 15.68 76.2427 17.36C75.3841 19.0027 74.8427 21.56 74.6187 25.032H83.4107C83.4854 22.0827 83.1867 19.656 82.5147 17.752C81.8801 15.8107 80.9094 14.84 79.6027 14.84ZM110.173 39.592C113.235 39.592 115.699 38.0987 117.565 35.112L118.573 35.448C117.827 37.8747 116.483 39.9467 114.541 41.664C112.637 43.344 110.248 44.184 107.373 44.184C103.416 44.184 100.261 42.9334 97.9095 40.432C95.5948 37.8934 94.4375 34.16 94.4375 29.232C94.4375 24.192 95.6881 20.3467 98.1895 17.696C100.691 15.008 104.013 13.664 108.157 13.664C115.176 13.664 118.685 17.808 118.685 26.096H102.949C102.912 26.656 102.893 27.5334 102.893 28.728C102.893 31.192 103.229 33.2454 103.901 34.888C104.611 36.5307 105.507 37.7254 106.589 38.472C107.709 39.2187 108.904 39.592 110.173 39.592ZM107.821 14.84C106.477 14.84 105.357 15.68 104.461 17.36C103.603 19.0027 103.061 21.56 102.837 25.032H111.629C111.704 22.0827 111.405 19.656 110.733 17.752C110.099 15.8107 109.128 14.84 107.821 14.84ZM133.296 14.448H139.904V15.568H133.296V38.192C133.296 39.312 133.483 40.1147 133.856 40.6C134.267 41.048 134.902 41.272 135.76 41.272C137.366 41.272 138.635 40.152 139.568 37.912L140.52 38.416C139.102 42.2614 136.544 44.184 132.848 44.184C130.384 44.184 128.518 43.5494 127.248 42.28C126.464 41.496 125.923 40.5254 125.624 39.368C125.363 38.1734 125.232 36.5494 125.232 34.496V15.568H120.528V14.448H125.232V7.05602C128.331 7.05602 131.019 6.45869 133.296 5.26402V14.448ZM148.896 2.24113e-05C150.464 2.24113e-05 151.696 0.392023 152.592 1.17602C153.525 1.92269 153.992 2.96802 153.992 4.31202C153.992 5.65602 153.525 6.72002 152.592 7.50402C151.696 8.25069 150.464 8.62402 148.896 8.62402C147.328 8.62402 146.077 8.25069 145.144 7.50402C144.248 6.72002 143.8 5.65602 143.8 4.31202C143.8 2.96802 144.248 1.92269 145.144 1.17602C146.077 0.392023 147.328 2.24113e-05 148.896 2.24113e-05ZM153.264 38.192C153.264 39.7227 153.525 40.7867 154.048 41.384C154.608 41.944 155.541 42.224 156.848 42.224V43.4C153.114 43.2507 150.632 43.176 149.4 43.176C148.242 43.176 145.648 43.2507 141.616 43.4V42.224C142.96 42.224 143.893 41.944 144.416 41.384C144.938 40.7867 145.2 39.7227 145.2 38.192V20.552C145.2 18.8347 144.938 17.584 144.416 16.8C143.893 16.016 142.96 15.624 141.616 15.624V14.448C142.81 14.56 143.968 14.616 145.088 14.616C148.41 14.616 151.136 14.3547 153.264 13.832V38.192ZM180.112 13.664C182.949 13.664 185.002 14.392 186.272 15.848C186.906 16.5574 187.354 17.472 187.616 18.592C187.877 19.712 188.008 21.224 188.008 23.128V38.192C188.008 39.7227 188.269 40.7867 188.792 41.384C189.352 41.944 190.285 42.224 191.592 42.224V43.4C187.858 43.2507 185.394 43.176 184.2 43.176C183.08 43.176 180.653 43.2507 176.92 43.4V42.224C178.04 42.224 178.824 41.944 179.272 41.384C179.72 40.7867 179.944 39.7227 179.944 38.192V20.776C179.944 19.2454 179.682 18.088 179.16 17.304C178.674 16.52 177.778 16.128 176.472 16.128C174.941 16.128 173.634 16.7627 172.552 18.032C171.469 19.264 170.928 20.7947 170.928 22.624V38.192C170.928 39.7227 171.152 40.7867 171.6 41.384C172.048 41.944 172.832 42.224 173.952 42.224V43.4C170.517 43.2507 168.202 43.176 167.008 43.176C165.888 43.176 163.312 43.2507 159.28 43.4V42.224C160.624 42.224 161.557 41.944 162.08 41.384C162.602 40.7867 162.864 39.7227 162.864 38.192V20.552C162.864 18.8347 162.602 17.584 162.08 16.8C161.557 16.016 160.624 15.624 159.28 15.624V14.448C160.474 14.56 161.632 14.616 162.752 14.616C166.074 14.616 168.8 14.3547 170.928 13.832V18.872C172.608 15.4 175.669 13.664 180.112 13.664ZM219.839 19.824C219.093 19.824 218.458 19.5814 217.935 19.096C217.413 18.5734 217.151 17.8454 217.151 16.912C217.151 16.016 217.375 15.1014 217.823 14.168C216.927 14.5414 216.181 14.9707 215.583 15.456C215.023 15.904 214.538 16.4827 214.127 17.192C215.285 18.5734 215.863 20.3654 215.863 22.568C215.863 25.5174 214.837 27.7387 212.783 29.232C210.767 30.7254 208.079 31.472 204.719 31.472H203.711C202.181 32.368 201.415 33.3574 201.415 34.44C201.415 35.6347 202.162 36.232 203.655 36.232H209.759C213.045 36.232 215.658 36.848 217.599 38.08C219.578 39.2747 220.567 41.1227 220.567 43.624C220.567 45.528 219.951 47.2454 218.719 48.776C217.525 50.344 215.695 51.5947 213.231 52.528C210.767 53.4614 207.743 53.928 204.159 53.928C200.538 53.928 197.626 53.4614 195.423 52.528C193.258 51.632 192.175 50.3254 192.175 48.608C192.175 47.4507 192.698 46.4054 193.743 45.472C194.789 44.576 196.338 43.8667 198.391 43.344L198.895 44.24C197.551 45.36 196.879 46.648 196.879 48.104C196.879 49.672 197.589 50.8667 199.007 51.688C200.426 52.5467 202.386 52.976 204.887 52.976C207.501 52.976 209.61 52.4534 211.215 51.408C212.858 50.3627 213.679 48.888 213.679 46.984C213.679 45.752 213.213 44.7814 212.279 44.072C211.383 43.3627 209.797 43.008 207.519 43.008H204.047C201.658 43.008 199.791 42.616 198.447 41.832C197.103 41.0107 196.431 39.7787 196.431 38.136C196.431 36.7547 196.917 35.5227 197.887 34.44C198.858 33.3574 200.333 32.312 202.311 31.304C199.623 30.968 197.495 30.072 195.927 28.616C194.359 27.16 193.575 25.144 193.575 22.568C193.575 19.6187 194.583 17.3974 196.599 15.904C198.653 14.4107 201.359 13.664 204.719 13.664C208.453 13.664 211.309 14.5414 213.287 16.296C213.997 15.288 214.874 14.4854 215.919 13.888C216.965 13.2907 218.029 12.992 219.111 12.992C220.231 12.992 221.109 13.328 221.743 14C222.415 14.6347 222.751 15.4747 222.751 16.52C222.751 17.5654 222.453 18.3867 221.855 18.984C221.295 19.544 220.623 19.824 219.839 19.824ZM204.719 30.464C205.765 30.464 206.549 29.8667 207.071 28.672C207.631 27.4774 207.911 25.4427 207.911 22.568C207.911 19.6934 207.631 17.6587 207.071 16.464C206.549 15.2694 205.765 14.672 204.719 14.672C203.674 14.672 202.871 15.2694 202.311 16.464C201.789 17.6587 201.527 19.6934 201.527 22.568C201.527 25.4427 201.789 27.4774 202.311 28.672C202.871 29.8667 203.674 30.464 204.719 30.464Z" fill="#FEC46E"/>
</svg>
