<svg width="217" height="52" viewBox="0 0 217 52" fill="none" xmlns="http://www.w3.org/2000/svg">
<path d="M21.616 49.112C21.3547 49.112 21.0934 49.0933 20.832 49.056C20.608 49.056 20.3654 49.0373 20.104 49C19.88 47.3946 19.712 45.7893 19.6 44.184C19.488 42.616 19.4134 41.1226 19.376 39.704C17.584 40.5253 15.736 40.936 13.832 40.936C11.4427 40.936 9.18404 40.2826 7.05604 38.976C4.96537 37.6693 3.26671 35.672 1.96004 32.984C0.653373 30.296 4.00841e-05 26.9173 4.00841e-05 22.848C4.00841e-05 18.8906 0.61604 15.4746 1.84804 12.6C3.08004 9.72531 4.68537 7.35464 6.66404 5.48797C8.64271 3.62131 10.7894 2.23997 13.104 1.34397C15.4187 0.447974 17.6587 -2.57492e-05 19.824 -2.57492e-05C21.7654 -2.57492e-05 23.5387 0.335974 25.144 1.00797C26.7494 1.64264 28.0187 2.55731 28.952 3.75197C29.9227 4.90931 30.408 6.30931 30.408 7.95198C30.408 9.29597 30.0347 10.5653 29.288 11.76C28.5414 12.9546 27.4027 13.9253 25.872 14.672C24.3414 15.3813 22.4 15.736 20.048 15.736C20.4214 14.6533 20.6827 13.6826 20.832 12.824C20.9814 11.9653 21.056 11.2186 21.056 10.584C21.056 9.16531 20.7574 8.21331 20.16 7.72797C19.5627 7.20531 18.872 6.94397 18.088 6.94397C16.5574 6.94397 15.176 7.63464 13.944 9.01597C12.712 10.3973 11.7414 12.208 11.032 14.448C10.3227 16.6506 9.96804 19.0213 9.96804 21.56C9.96804 25.1813 10.6774 28.0186 12.096 30.072C13.5147 32.1253 15.288 33.152 17.416 33.152C18.2374 33.152 19.096 32.984 19.992 32.648V32.592C19.992 29.792 20.2347 27.5706 20.72 25.928C21.2427 24.248 21.896 23.0533 22.68 22.344C23.5014 21.6346 24.3414 21.28 25.2 21.28C26.1334 21.28 27.0107 21.5973 27.832 22.232C28.6907 22.8666 29.4 23.688 29.96 24.696C30.52 25.6666 30.8 26.7306 30.8 27.888C30.8 28.9333 30.5014 29.9973 29.904 31.08C29.344 32.1253 28.3734 33.0773 26.992 33.936C26.9174 34.2346 26.8614 34.5333 26.824 34.832C26.7867 35.1306 26.768 35.4293 26.768 35.728C26.768 36.736 26.9734 37.8746 27.384 39.144C27.832 40.4133 28.5227 42.1866 29.456 44.464C29.232 45.3226 28.7094 46.1066 27.888 46.816C27.104 47.5253 26.152 48.0853 25.032 48.496C23.9494 48.9066 22.8107 49.112 21.616 49.112ZM39.7902 40.824C38.4462 40.824 37.2516 40.2826 36.2062 39.2C35.1609 38.08 34.6382 36.512 34.6382 34.496C34.6382 33.5253 34.7502 32.424 34.9742 31.192C35.1982 29.96 35.4596 28.7093 35.7582 27.44C36.0569 26.1333 36.3182 24.92 36.5422 23.8C36.7662 22.6426 36.8782 21.6906 36.8782 20.944C36.8782 20.16 36.7289 19.544 36.4302 19.096C36.1689 18.6106 35.8142 18.368 35.3662 18.368C34.6569 18.368 33.9289 18.8533 33.1822 19.824L32.8462 19.6C32.8089 19.0026 32.9396 18.2933 33.2382 17.472C33.5369 16.6506 34.0036 15.8666 34.6382 15.12C35.2729 14.336 36.0756 13.6826 37.0462 13.16C38.0542 12.6373 39.2302 12.376 40.5742 12.376C42.5529 12.376 43.9902 12.9546 44.8862 14.112C45.7822 15.232 46.2302 16.5946 46.2302 18.2C46.2302 18.4613 46.2116 18.7413 46.1742 19.04C46.1742 19.3013 46.1556 19.5626 46.1182 19.824C47.4622 17.3973 48.8622 15.5493 50.3182 14.28C51.8116 12.9733 53.1929 12.32 54.4622 12.32C55.6569 12.32 56.5342 12.7866 57.0942 13.72C57.6542 14.6533 57.9342 15.7733 57.9342 17.08C57.9342 18.2746 57.6916 19.488 57.2062 20.72C56.7582 21.952 56.0676 22.9786 55.1342 23.8C54.2382 24.584 53.1369 24.9573 51.8302 24.92L51.6062 24.808C51.5689 23.8373 51.2516 23.072 50.6542 22.512C50.0569 21.952 49.3849 21.672 48.6382 21.672C47.6302 21.672 46.6782 22.176 45.7822 23.184C44.9236 24.192 44.4942 25.648 44.4942 27.552C44.4942 28.7093 44.6249 29.96 44.8862 31.304C45.1476 32.648 45.2782 33.7866 45.2782 34.72C45.2782 35.84 45.0169 36.8666 44.4942 37.8C43.9716 38.7333 43.2996 39.48 42.4782 40.04C41.6569 40.5626 40.7609 40.824 39.7902 40.824ZM70.3798 40.992C67.6545 40.992 65.3958 40.4506 63.6038 39.368C61.8118 38.248 60.4678 36.792 59.5718 35C58.6758 33.1706 58.2278 31.2106 58.2278 29.12C58.2278 27.1413 58.6011 25.1626 59.3478 23.184C60.1318 21.168 61.2518 19.3386 62.7078 17.696C64.2011 16.0533 65.9931 14.728 68.0838 13.72C70.2118 12.712 72.6011 12.208 75.2518 12.208C78.5371 12.208 80.9265 12.9546 82.4198 14.448C83.9505 15.904 84.7158 17.6773 84.7158 19.768C84.7158 21.56 84.2305 23.2213 83.2598 24.752C82.3265 26.2453 81.0758 27.4586 79.5078 28.392C77.9398 29.288 76.2225 29.736 74.3558 29.736C73.3851 29.736 72.3958 29.5866 71.3878 29.288C70.3798 28.9893 69.3905 28.5226 68.4198 27.888C68.6065 30.2026 69.2785 31.8826 70.4358 32.928C71.5931 33.9733 72.9745 34.496 74.5798 34.496C75.6998 34.496 76.8198 34.2906 77.9398 33.88C79.0598 33.432 80.0865 32.872 81.0198 32.2C81.9905 31.4906 82.7371 30.744 83.2598 29.96L83.6518 30.24C83.6518 32.1813 83.2411 33.8426 82.4198 35.224C81.6358 36.568 80.5905 37.6693 79.2838 38.528C77.9771 39.3866 76.5398 40.0213 74.9718 40.432C73.4411 40.8053 71.9105 40.992 70.3798 40.992ZM71.6678 25.872C72.8625 25.872 73.8331 25.536 74.5798 24.864C75.3265 24.1546 75.8865 23.3333 76.2598 22.4C76.6331 21.4666 76.8198 20.6453 76.8198 19.936C76.8198 19.0773 76.5771 18.368 76.0918 17.808C75.6065 17.2106 74.9345 16.912 74.0758 16.912C73.4038 16.912 72.6571 17.1546 71.8358 17.64C71.0518 18.1253 70.3425 18.9653 69.7078 20.16C69.0731 21.3173 68.6625 22.9413 68.4758 25.032C69.6705 25.592 70.7345 25.872 71.6678 25.872ZM99.5829 40.992C96.8576 40.992 94.5989 40.4506 92.8069 39.368C91.0149 38.248 89.6709 36.792 88.7749 35C87.8789 33.1706 87.4309 31.2106 87.4309 29.12C87.4309 27.1413 87.8042 25.1626 88.5509 23.184C89.3349 21.168 90.4549 19.3386 91.9109 17.696C93.4042 16.0533 95.1962 14.728 97.2869 13.72C99.4149 12.712 101.804 12.208 104.455 12.208C107.74 12.208 110.13 12.9546 111.623 14.448C113.154 15.904 113.919 17.6773 113.919 19.768C113.919 21.56 113.434 23.2213 112.463 24.752C111.53 26.2453 110.279 27.4586 108.711 28.392C107.143 29.288 105.426 29.736 103.559 29.736C102.588 29.736 101.599 29.5866 100.591 29.288C99.5829 28.9893 98.5936 28.5226 97.6229 27.888C97.8096 30.2026 98.4816 31.8826 99.6389 32.928C100.796 33.9733 102.178 34.496 103.783 34.496C104.903 34.496 106.023 34.2906 107.143 33.88C108.263 33.432 109.29 32.872 110.223 32.2C111.194 31.4906 111.94 30.744 112.463 29.96L112.855 30.24C112.855 32.1813 112.444 33.8426 111.623 35.224C110.839 36.568 109.794 37.6693 108.487 38.528C107.18 39.3866 105.743 40.0213 104.175 40.432C102.644 40.8053 101.114 40.992 99.5829 40.992ZM100.871 25.872C102.066 25.872 103.036 25.536 103.783 24.864C104.53 24.1546 105.09 23.3333 105.463 22.4C105.836 21.4666 106.023 20.6453 106.023 19.936C106.023 19.0773 105.78 18.368 105.295 17.808C104.81 17.2106 104.138 16.912 103.279 16.912C102.607 16.912 101.86 17.1546 101.039 17.64C100.255 18.1253 99.5456 18.9653 98.9109 20.16C98.2762 21.3173 97.8656 22.9413 97.6789 25.032C98.8736 25.592 99.9376 25.872 100.871 25.872ZM124.971 40.824C123.777 40.824 122.638 40.5626 121.555 40.04C120.51 39.48 119.651 38.6213 118.979 37.464C118.345 36.3066 118.027 34.832 118.027 33.04C118.027 32.0693 118.121 30.8 118.307 29.232C118.494 27.664 118.737 25.9466 119.035 24.08C119.371 22.2133 119.707 20.3466 120.043 18.48C119.297 18.5173 118.569 18.592 117.859 18.704C117.187 18.816 116.515 18.9466 115.843 19.096L115.731 18.704C116.478 17.808 117.262 17.0426 118.083 16.408C118.905 15.7733 119.763 15.2506 120.659 14.84C121.145 12.376 121.555 10.248 121.891 8.45598C122.227 6.62664 122.395 5.54397 122.395 5.20797C122.395 4.57331 122.881 4.05064 123.851 3.63997C124.859 3.22931 125.979 3.02398 127.211 3.02398C128.294 3.02398 129.302 3.22931 130.235 3.63997C131.206 4.05064 131.859 4.74131 132.195 5.71197C131.971 5.93597 131.654 6.77597 131.243 8.23198C130.833 9.65064 130.403 11.3866 129.955 13.44C130.665 13.4773 131.393 13.5146 132.139 13.552C132.886 13.5893 133.651 13.6453 134.435 13.72C134.51 13.944 134.566 14.1866 134.603 14.448C134.641 14.7093 134.659 14.9893 134.659 15.288C134.659 15.848 134.566 16.464 134.379 17.136C134.23 17.7706 134.043 18.3493 133.819 18.872C132.923 18.7973 132.083 18.7226 131.299 18.648C130.515 18.536 129.75 18.4613 129.003 18.424C128.705 20.0293 128.425 21.6346 128.163 23.24C127.939 24.8453 127.753 26.3013 127.603 27.608C127.491 28.9146 127.435 29.9413 127.435 30.688C127.435 32.256 127.715 33.3013 128.275 33.824C128.873 34.3466 129.582 34.608 130.403 34.608C131.15 34.608 131.822 34.4586 132.419 34.16C133.017 33.8613 133.446 33.5066 133.707 33.096L134.267 33.264C134.043 34.7946 133.446 36.1386 132.475 37.296C131.505 38.416 130.347 39.2933 129.003 39.928C127.659 40.5253 126.315 40.824 124.971 40.824ZM147.29 10.64C145.796 10.64 144.564 10.192 143.594 9.29597C142.66 8.36264 142.194 7.20531 142.194 5.82397C142.194 4.33064 142.754 3.04264 143.874 1.95997C144.994 0.877306 146.356 0.335973 147.962 0.335973C149.455 0.335973 150.668 0.802641 151.602 1.73598C152.572 2.66931 153.058 3.82664 153.058 5.20797C153.058 6.70131 152.498 7.98931 151.378 9.07197C150.258 10.1173 148.895 10.64 147.29 10.64ZM143.37 40.824C141.914 40.824 140.607 40.32 139.45 39.312C138.292 38.2666 137.714 36.6053 137.714 34.328C137.714 33.0213 137.882 31.808 138.218 30.688C138.591 29.5306 139.002 28.4106 139.45 27.328C139.935 26.2453 140.346 25.2 140.682 24.192C141.055 23.1466 141.242 22.12 141.242 21.112C141.242 20.216 141.092 19.5813 140.794 19.208C140.495 18.7973 140.14 18.592 139.73 18.592C139.095 18.592 138.479 19.0026 137.882 19.824L137.49 19.6C137.639 18.1066 138.106 16.8373 138.89 15.792C139.711 14.7093 140.7 13.8693 141.858 13.272C143.052 12.6746 144.228 12.376 145.386 12.376C146.804 12.376 148.036 12.8426 149.082 13.776C150.127 14.672 150.65 16.1466 150.65 18.2C150.65 19.432 150.463 20.7386 150.09 22.12C149.754 23.464 149.343 24.808 148.858 26.152C148.41 27.496 147.999 28.7466 147.626 29.904C147.29 31.0613 147.122 32.0506 147.122 32.872C147.122 33.5813 147.252 34.0853 147.514 34.384C147.812 34.6826 148.13 34.832 148.466 34.832C148.802 34.832 149.119 34.7386 149.418 34.552C149.754 34.328 149.996 34.0853 150.146 33.824L150.538 33.936C150.538 35.3173 150.164 36.5306 149.418 37.576C148.708 38.584 147.812 39.3866 146.73 39.984C145.647 40.544 144.527 40.824 143.37 40.824ZM161.361 40.768C159.979 40.768 158.729 40.2266 157.609 39.144C156.489 38.024 155.929 36.4746 155.929 34.496C155.929 33.5253 156.059 32.424 156.321 31.192C156.582 29.96 156.862 28.7093 157.161 27.44C157.497 26.1706 157.795 24.976 158.057 23.856C158.318 22.736 158.449 21.8213 158.449 21.112C158.449 20.3653 158.299 19.7866 158.001 19.376C157.702 18.928 157.31 18.704 156.825 18.704C156.19 18.704 155.499 19.0773 154.753 19.824L154.417 19.6C154.379 19.0026 154.51 18.2933 154.809 17.472C155.107 16.6506 155.555 15.8666 156.153 15.12C156.787 14.336 157.59 13.6826 158.561 13.16C159.531 12.6373 160.689 12.376 162.033 12.376C164.011 12.376 165.467 12.9546 166.401 14.112C167.371 15.232 167.857 16.6133 167.857 18.256C167.857 18.8533 167.801 19.432 167.689 19.992C168.473 18.8346 169.443 17.6773 170.601 16.52C171.758 15.3253 173.027 14.336 174.409 13.552C175.827 12.768 177.283 12.376 178.777 12.376C180.531 12.376 181.726 12.936 182.361 14.056C182.995 15.176 183.313 16.576 183.313 18.256C183.313 19.824 183.145 21.504 182.809 23.296C182.473 25.088 182.137 26.824 181.801 28.504C181.465 30.1466 181.297 31.528 181.297 32.648C181.297 34.1413 181.726 34.888 182.585 34.888C183.033 34.888 183.425 34.7573 183.761 34.496C184.097 34.1973 184.321 33.9173 184.433 33.656L184.825 33.824C184.825 35.2053 184.433 36.4186 183.649 37.464C182.902 38.5093 181.95 39.3306 180.793 39.928C179.635 40.488 178.459 40.768 177.265 40.768C175.809 40.768 174.521 40.264 173.401 39.256C172.281 38.248 171.721 36.6053 171.721 34.328C171.721 32.984 171.889 31.528 172.225 29.96C172.598 28.392 172.953 26.88 173.289 25.424C173.625 23.968 173.793 22.7733 173.793 21.84C173.793 21.28 173.681 20.8506 173.457 20.552C173.27 20.216 172.915 20.048 172.393 20.048C171.534 20.048 170.582 20.44 169.537 21.224C168.529 22.008 167.651 23.0533 166.905 24.36C166.195 25.6666 165.841 27.104 165.841 28.672C165.841 29.68 165.953 30.6506 166.177 31.584C166.438 32.5173 166.569 33.5253 166.569 34.608C166.569 36.624 166.046 38.1546 165.001 39.2C163.955 40.2453 162.742 40.768 161.361 40.768ZM201.284 51.8C199.454 51.8 197.942 51.2586 196.748 50.176C195.553 49.0933 194.956 47.5626 194.956 45.584C194.956 43.456 195.702 40.9546 197.196 38.08C196.934 38.1546 196.673 38.2106 196.412 38.248C196.15 38.2853 195.889 38.304 195.628 38.304C193.462 38.304 191.633 37.3706 190.14 35.504C188.684 33.6 187.956 30.968 187.956 27.608C187.956 24.584 188.534 21.9146 189.692 19.6C190.886 17.2853 192.398 15.4746 194.228 14.168C196.057 12.8613 197.961 12.208 199.94 12.208C201.321 12.208 202.572 12.5626 203.692 13.272C204.812 13.944 205.726 15.0453 206.436 16.576C206.473 16.2026 206.492 15.8666 206.492 15.568C206.492 15.2693 206.492 14.9893 206.492 14.728C206.492 14.0933 206.977 13.5706 207.948 13.16C208.918 12.7493 210.001 12.544 211.196 12.544C212.278 12.544 213.286 12.7493 214.22 13.16C215.153 13.5706 215.769 14.2613 216.068 15.232L216.18 15.568C215.844 15.8666 215.545 16.8373 215.284 18.48C215.06 20.1226 214.78 22.4 214.444 25.312C214.22 27.1413 213.94 29.232 213.604 31.584C213.268 33.8986 212.801 36.2506 212.204 38.64C211.644 40.992 210.897 43.1573 209.964 45.136C209.03 47.152 207.854 48.7573 206.436 49.952C205.017 51.184 203.3 51.8 201.284 51.8ZM199.436 31.864C200.518 31.864 201.713 30.9866 203.02 29.232C204.364 27.44 205.428 24.8826 206.212 21.56C205.54 20.104 204.849 19.0773 204.14 18.48C203.468 17.8453 202.777 17.528 202.068 17.528C201.134 17.528 200.257 17.9946 199.436 18.928C198.614 19.8613 197.942 21.056 197.42 22.512C196.934 23.9306 196.692 25.4053 196.692 26.936C196.692 28.504 196.953 29.7173 197.476 30.576C197.998 31.4346 198.652 31.864 199.436 31.864ZM198.764 45.36C200.033 45.36 201.321 44.1093 202.628 41.608C203.972 39.144 204.905 35.6533 205.428 31.136C202.59 34.9813 200.612 37.9493 199.492 40.04C198.409 42.0933 197.868 43.5493 197.868 44.408C197.868 45.0426 198.166 45.36 198.764 45.36Z" fill="#FEC46E"/>
</svg>
