<svg width="63" height="157" viewBox="0 0 63 157" fill="none" xmlns="http://www.w3.org/2000/svg">
<g filter="url(#filter0_d_2001_83)">
<path d="M34.592 4.288C29.152 4.288 28.256 7.104 27.872 7.104C27.616 7.104 27.424 6.912 27.424 6.464C27.424 6.016 29.088 3.78714e-07 36.32 3.14082e-07C47.456 2.1456e-07 58.016 19.84 58.016 31.552C58.016 33.856 56.8 35.456 54.816 35.456C50.144 35.456 39.968 26.816 35.936 23.488L35.808 23.552C41.056 28.608 55.264 42.688 55.264 51.52C55.264 54.144 53.472 56.576 50.144 56.576C42.4 56.576 34.784 47.296 31.328 39.04C30.048 43.328 27.104 46.784 22.56 46.784C12.96 46.784 3.99999 36.16 3.99999 25.088C3.99999 19.264 6.81599 15.04 10.784 15.04C15.776 15.04 20.192 22.464 20.192 26.368C20.192 26.752 20.064 26.944 19.808 26.944C19.616 26.944 19.488 26.752 19.424 26.432C18.848 23.424 14.88 18.048 10.336 18.048C7.45599 18.048 5.21599 20.224 5.21599 24.704C5.21599 34.688 14.88 42.688 23.392 42.688C26.4 42.688 29.536 41.472 30.944 38.016C29.984 35.52 29.472 33.152 29.472 31.232C29.472 29.888 29.856 29.12 30.496 29.12C31.456 29.12 32.16 30.528 32.16 33.536C32.16 33.92 32.096 34.304 32.096 34.752C34.592 41.472 42.272 53.12 51.872 53.12C53.152 53.12 54.112 52.416 54.112 50.816C54.112 43.456 40.544 28.864 30.88 20.672C21.28 12.48 13.408 10.112 13.408 8.896C13.408 8.32 14.24 6.72 16.992 6.72C25.888 6.72 49.12 33.792 55.392 33.792C56.288 33.792 57.056 33.28 57.056 31.68C57.056 21.376 45.216 4.288 34.592 4.288ZM17.696 54.384C16.928 53.488 17.696 53.552 18.144 54C19.36 55.28 21.024 57.008 22.112 58.032C22.56 57.648 23.136 57.456 23.84 57.456C26.784 57.456 30.112 60.784 30.112 62.128C30.112 62.768 29.728 63.28 29.024 63.28C26.784 63.28 24.032 60.912 22.432 59.44C21.152 60.592 21.088 62.896 19.488 62.896C17.248 62.896 13.536 57.392 10.208 57.392C8.86399 57.392 8.22399 58.096 8.22399 59.248C8.22399 63.088 14.112 69.744 18.144 74.16C18.912 75.056 18.144 74.992 17.696 74.544C13.472 69.936 6.30399 62.256 6.30399 57.776C6.30399 55.472 7.71199 53.68 9.82399 53.68C13.984 53.68 17.696 60.208 19.744 60.208C20.384 60.208 20.896 59.248 21.6 58.48C20.448 57.328 18.912 55.728 17.696 54.384ZM34.336 91.5955C34.336 92.4915 33.824 93.0675 32.992 93.0675C31.84 93.0675 29.6 91.4035 29.6 90.1875C29.6 89.4195 30.24 88.7155 31.2 88.7155C32.48 88.7155 34.336 90.6355 34.336 91.5955ZM18.144 74.1875C23.52 80.0755 25.824 82.9555 25.824 84.6835C25.824 86.2195 24.928 86.9235 23.712 86.9235C20.832 86.9235 16.544 81.1635 13.024 81.1635C11.808 81.1635 11.232 81.9315 11.232 83.3395C11.232 86.4115 14.176 91.9155 18.144 96.2035C18.912 97.0995 18.144 97.0355 17.696 96.5875C13.792 92.2355 9.88799 86.1555 9.88799 81.7395C9.88799 79.2435 10.976 77.6435 13.216 77.6435C17.12 77.6435 22.176 84.5555 24.224 84.5555C24.544 84.5555 24.8 84.4275 24.8 83.9795C24.8 83.0195 23.136 80.4595 17.696 74.5715C16.928 73.6755 17.696 73.7395 18.144 74.1875ZM18.144 125.628C18.912 126.524 18.144 126.46 17.696 126.012C13.6 121.532 9.95199 115.644 9.95199 112.188C9.95199 109.756 11.488 108.092 13.92 108.092C15.584 108.092 17.376 108.668 18.848 109.372C10.912 101.948 7.71199 98.6835 7.71199 96.1875C7.71199 94.2675 8.86399 92.9875 11.296 92.9875C17.376 92.9875 26.016 103.228 26.016 109.692C26.016 111.356 25.184 112.252 24.224 112.956C26.016 114.3 27.808 115.772 30.176 117.884C33.12 120.572 42.592 128.38 42.592 130.3C42.592 131.324 42.016 131.964 41.12 131.964C40.416 131.964 39.904 131.708 38.496 130.364C36.32 128.316 31.84 123.644 27.168 118.652C21.536 113.532 16.992 110.844 13.664 110.844C11.872 110.844 11.168 111.676 11.168 113.148C11.168 116.156 14.56 121.724 18.144 125.628ZM24.736 110.076C24.736 104.508 15.584 95.9955 10.72 95.9955C9.69599 95.9955 9.18399 96.3795 9.18399 97.0195C9.18399 98.4915 12.512 102.332 23.52 112.38C24.16 111.932 24.736 111.292 24.736 110.076ZM14.24 128.377C12.128 128.377 10.72 129.721 10.72 132.537C10.72 137.145 14.368 143.353 18.144 147.449C18.912 148.345 18.144 148.281 17.696 147.833C13.664 143.481 9.18399 136.377 9.18399 130.617C9.18399 126.969 11.104 124.665 14.56 124.665C20.576 124.665 27.68 134.201 27.68 139.193C27.68 141.113 26.848 142.073 25.376 142.073C22.176 142.073 18.976 137.721 17.12 129.017C16.16 128.569 15.136 128.377 14.24 128.377ZM26.4 139.577C26.4 136.377 22.176 131.449 17.952 129.337C19.36 135.033 23.072 140.537 25.568 140.537C26.08 140.537 26.4 140.281 26.4 139.577Z" fill="url(#paint0_linear_2001_83)"/>
</g>
<defs>
<filter id="filter0_d_2001_83" x="0" y="0" width="62.016" height="156.345" filterUnits="userSpaceOnUse" color-interpolation-filters="sRGB">
<feFlood flood-opacity="0" result="BackgroundImageFix"/>
<feColorMatrix in="SourceAlpha" type="matrix" values="0 0 0 0 0 0 0 0 0 0 0 0 0 0 0 0 0 0 127 0" result="hardAlpha"/>
<feOffset dy="4"/>
<feGaussianBlur stdDeviation="2"/>
<feComposite in2="hardAlpha" operator="out"/>
<feColorMatrix type="matrix" values="0 0 0 0 0 0 0 0 0 0 0 0 0 0 0 0 0 0 0.25 0"/>
<feBlend mode="normal" in2="BackgroundImageFix" result="effect1_dropShadow_2001_83"/>
<feBlend mode="normal" in="SourceGraphic" in2="effect1_dropShadow_2001_83" result="shape"/>
</filter>
<linearGradient id="paint0_linear_2001_83" x1="71.464" y1="74" x2="-21.536" y2="74" gradientUnits="userSpaceOnUse">
<stop stop-color="#CAA164"/>
<stop offset="0.48" stop-color="#DEBB88"/>
<stop offset="1" stop-color="#FEE6C2"/>
</linearGradient>
</defs>
</svg>
