<svg width="77" height="181" viewBox="0 0 77 181" fill="none" xmlns="http://www.w3.org/2000/svg">
<g filter="url(#filter0_d_2001_88)">
<path d="M69.216 163.856C69.216 156.944 60.448 148.816 49.056 142.224C44.448 139.6 40.544 137.296 37.344 135.248C43.36 140.88 48.8 147.472 48.8 153.552C48.8 159.44 45.216 163.984 38.624 163.984C21.6 163.984 4.00005 141.52 4.00005 126.288C4.00005 121.296 6.75205 118.288 10.016 118.288C17.696 118.288 24.032 129.488 24.032 135.76C24.032 136.144 23.904 136.336 23.712 136.336C23.52 136.336 23.392 136.08 23.328 135.824C22.24 130.576 16.032 120.976 9.05605 120.976C6.43204 120.976 5.02405 122.256 5.02405 125.84C5.02405 139.088 23.392 159.056 39.84 159.056C44 159.056 47.2 156.944 47.2 152.08C47.2 145.872 39.776 138.32 32.224 131.92C31.2 131.088 30.24 130.064 29.472 129.296C27.744 127.568 26.72 126.096 26.72 125.264C26.72 124.944 26.912 124.752 27.168 124.752C27.808 124.752 27.744 126.096 29.024 127.632C31.968 131.216 41.888 135.888 51.616 140.24C62.816 145.168 72.928 152.336 72.928 161.872C72.928 168.464 67.296 172.176 62.56 172.176C61.6 172.176 60.96 171.984 60.96 171.6C60.96 171.344 61.216 171.152 61.728 171.152C65.8881 171.152 69.216 168.912 69.216 163.856ZM41.568 124.914C42.336 125.81 41.568 125.746 41.12 125.298C39.904 124.018 38.24 122.29 37.152 121.266C36.704 121.65 36.128 121.842 35.424 121.842C32.48 121.842 29.152 118.514 29.152 117.17C29.152 116.53 29.536 116.018 30.24 116.018C32.48 116.018 35.232 118.386 36.832 119.858C38.112 118.706 38.176 116.402 39.776 116.402C42.016 116.402 45.728 121.906 49.056 121.906C50.4 121.906 51.04 121.202 51.04 120.05C51.04 116.21 45.152 109.554 41.12 105.138C40.352 104.242 41.12 104.306 41.568 104.754C45.792 109.362 52.96 117.042 52.96 121.522C52.96 123.826 51.552 125.618 49.44 125.618C45.28 125.618 41.568 119.09 39.52 119.09C38.88 119.09 38.368 120.05 37.664 120.818C38.816 121.97 40.352 123.57 41.568 124.914ZM36.064 88.6621C38.752 88.6621 42.592 90.7741 45.536 93.6541C45.728 93.7821 45.984 93.8461 46.176 93.8461C47.2 93.8461 48.224 92.6301 48.224 90.4541C48.224 86.8701 45.92 81.4301 41.12 76.2461C40.352 75.3501 41.12 75.4141 41.568 75.8621C46.24 80.9181 49.12 87.1901 49.12 91.0941C49.12 93.5261 48.608 95.1261 47.584 95.9581C49.056 97.9421 50.08 100.118 50.08 102.102C50.08 104.726 48.608 106.646 45.536 106.646C40.416 106.646 32.352 97.9421 32.352 92.5661C32.352 89.9421 33.568 88.6621 36.064 88.6621ZM35.808 89.8781C34.464 89.8781 33.696 90.5181 33.696 91.7341C33.696 95.8941 41.824 102.806 46.304 102.806C47.776 102.806 48.544 102.102 48.544 100.758C48.544 99.5421 47.776 97.9421 46.496 96.4061C46.304 96.4701 46.048 96.4701 45.792 96.4701C44.064 96.4701 42.336 94.5501 42.336 93.2701C42.336 93.0141 42.4 92.8221 42.528 92.6301C40.288 91.0301 37.856 89.8781 35.808 89.8781ZM36.064 59.7871C38.752 59.7871 42.592 61.8991 45.536 64.7791C45.728 64.9071 45.984 64.9711 46.176 64.9711C47.2 64.9711 48.224 63.7551 48.224 61.5791C48.224 57.9951 45.92 52.5551 41.12 47.3711C40.352 46.4751 41.12 46.5391 41.568 46.9871C46.24 52.0431 49.12 58.3151 49.12 62.2191C49.12 64.6511 48.608 66.2511 47.584 67.0831C49.056 69.0671 50.08 71.2431 50.08 73.2271C50.08 75.8511 48.608 77.7711 45.536 77.7711C40.416 77.7711 32.352 69.0671 32.352 63.6911C32.352 61.0671 33.568 59.7871 36.064 59.7871ZM35.808 61.0031C34.464 61.0031 33.696 61.6431 33.696 62.8591C33.696 67.0191 41.824 73.9311 46.304 73.9311C47.776 73.9311 48.544 73.2271 48.544 71.8831C48.544 70.6671 47.776 69.0671 46.496 67.5311C46.304 67.5951 46.048 67.5951 45.792 67.5951C44.064 67.5951 42.336 65.6751 42.336 64.3951C42.336 64.1391 42.4 63.9471 42.528 63.7551C40.288 62.1551 37.856 61.0031 35.808 61.0031ZM42.592 25.1521L42.784 24.8961C40.992 22.4641 36.512 17.4721 36.512 14.0801C36.512 12.7361 37.408 11.9041 38.496 11.9041C41.12 11.9041 44.704 17.4721 47.904 17.4721C48.864 17.4721 49.44 16.8321 49.44 15.4881C49.44 11.9681 44.768 4.86411 41.12 0.896107C40.352 0.000106812 41.12 0.064106 41.568 0.512104C45.408 4.73611 50.912 12.6081 50.912 17.1521C50.912 19.2001 49.76 20.8001 48.032 20.8001C43.808 20.8001 40.096 14.0801 38.048 14.0801C37.728 14.0801 37.536 14.2721 37.536 14.6561C37.536 17.0241 41.888 22.5281 44.704 25.9841C45.664 27.2001 46.432 27.7121 46.432 28.4161C46.432 29.0561 45.6 29.8881 44.768 29.8881C42.4 29.8881 35.36 21.1201 32.736 21.1201C32.352 21.1201 32.096 21.3761 32.096 21.7601C32.096 24.5121 40.096 35.2001 47.52 41.0241C48.736 41.9201 49.376 42.3041 49.376 43.2001C49.376 44.1601 48.672 45.1201 47.648 45.1201C44.192 45.1201 35.808 35.3921 34.144 35.3921C33.824 35.3921 33.568 35.5841 33.568 36.0321C33.568 37.2481 35.424 40.2561 41.568 46.9761C42.336 47.8721 41.568 47.8081 41.12 47.3601C34.912 40.5761 32.352 37.0561 32.352 35.2641C32.352 34.1761 33.12 33.2801 34.272 33.2801C36.576 33.2801 40.224 36.9281 43.36 39.1681L43.552 38.9761C39.456 35.1361 31.072 25.1521 31.072 21.3761C31.072 19.7761 32.096 18.6881 33.504 18.6881C36.32 18.6881 39.84 23.1681 42.592 25.1521Z" fill="url(#paint0_linear_2001_88)"/>
</g>
<defs>
<filter id="filter0_d_2001_88" x="0" y="0" width="76.9281" height="180.176" filterUnits="userSpaceOnUse" color-interpolation-filters="sRGB">
<feFlood flood-opacity="0" result="BackgroundImageFix"/>
<feColorMatrix in="SourceAlpha" type="matrix" values="0 0 0 0 0 0 0 0 0 0 0 0 0 0 0 0 0 0 127 0" result="hardAlpha"/>
<feOffset dy="4"/>
<feGaussianBlur stdDeviation="2"/>
<feComposite in2="hardAlpha" operator="out"/>
<feColorMatrix type="matrix" values="0 0 0 0 0 0 0 0 0 0 0 0 0 0 0 0 0 0 0.25 0"/>
<feBlend mode="normal" in2="BackgroundImageFix" result="effect1_dropShadow_2001_88"/>
<feBlend mode="normal" in="SourceGraphic" in2="effect1_dropShadow_2001_88" result="shape"/>
</filter>
<linearGradient id="paint0_linear_2001_88" x1="-12.2" y1="82.0476" x2="80.8" y2="82.0476" gradientUnits="userSpaceOnUse">
<stop stop-color="#CAA164"/>
<stop offset="0.48" stop-color="#DEBB88"/>
<stop offset="1" stop-color="#FEE6C2"/>
</linearGradient>
</defs>
</svg>
