<svg width="120" height="41" viewBox="0 0 120 41" fill="none" xmlns="http://www.w3.org/2000/svg">
<path d="M41.0479 1.11995C39.7786 1.19461 38.8639 1.34395 38.304 1.56795C37.7439 1.79195 37.3519 2.22128 37.1279 2.85595C36.9413 3.49061 36.8479 4.51728 36.8479 5.93595V33.7119C36.8479 35.1306 36.9413 36.1573 37.1279 36.7919C37.3519 37.4266 37.7439 37.8559 38.304 38.0799C38.8639 38.3039 39.7786 38.4533 41.0479 38.5279V39.6479C39.2186 39.5359 36.3813 39.4799 32.5359 39.4799C28.7653 39.4799 25.8346 39.5359 23.7439 39.6479V38.5279C24.9759 38.4533 25.8719 38.3039 26.4319 38.0799C27.0293 37.8559 27.4213 37.4266 27.6079 36.7919C27.8319 36.1573 27.944 35.1306 27.944 33.7119V20.2719H13.1039V33.7119C13.1039 35.1306 13.1973 36.1573 13.3839 36.7919C13.6079 37.4266 13.9999 37.8559 14.5599 38.0799C15.1199 38.3039 16.0346 38.4533 17.3039 38.5279V39.6479C15.2879 39.5359 12.4693 39.4799 8.84795 39.4799C4.85328 39.4799 1.90395 39.5359 -5.26309e-05 39.6479V38.5279C1.23195 38.4533 2.12795 38.3039 2.68795 38.0799C3.28528 37.8559 3.67728 37.4266 3.86395 36.7919C4.08795 36.1573 4.19995 35.1306 4.19995 33.7119V5.93595C4.19995 4.51728 4.08795 3.49061 3.86395 2.85595C3.67728 2.22128 3.28528 1.79195 2.68795 1.56795C2.12795 1.34395 1.23195 1.19461 -5.26309e-05 1.11995V-5.10216e-05C1.90395 0.111948 4.85328 0.167947 8.84795 0.167947C12.4693 0.167947 15.2879 0.111948 17.3039 -5.10216e-05V1.11995C16.0346 1.19461 15.1199 1.34395 14.5599 1.56795C13.9999 1.79195 13.6079 2.22128 13.3839 2.85595C13.1973 3.49061 13.1039 4.51728 13.1039 5.93595V19.1519H27.944V5.93595C27.944 4.51728 27.8319 3.49061 27.6079 2.85595C27.4213 2.22128 27.0293 1.79195 26.4319 1.56795C25.8719 1.34395 24.9759 1.19461 23.7439 1.11995V-5.10216e-05C25.8346 0.111948 28.7653 0.167947 32.5359 0.167947C36.3813 0.167947 39.2186 0.111948 41.0479 -5.10216e-05V1.11995ZM57.6379 9.91195C61.9313 9.91195 65.2913 11.1439 67.7179 13.6079C70.1446 16.0346 71.3579 19.8986 71.3579 25.1999C71.3579 30.5013 70.1446 34.3653 67.7179 36.7919C65.2913 39.2186 61.9313 40.4319 57.6379 40.4319C53.3819 40.4319 50.0219 39.2186 47.5579 36.7919C45.1313 34.3653 43.9179 30.5013 43.9179 25.1999C43.9179 19.8986 45.1313 16.0346 47.5579 13.6079C50.0219 11.1439 53.3819 9.91195 57.6379 9.91195ZM57.6379 11.0319C56.0326 11.0319 54.7446 12.2079 53.7739 14.5599C52.8406 16.8746 52.3739 20.4213 52.3739 25.1999C52.3739 29.9786 52.8406 33.5253 53.7739 35.8399C54.7446 38.1546 56.0326 39.3119 57.6379 39.3119C59.2806 39.3119 60.5686 38.1733 61.5019 35.8959C62.4353 33.5813 62.9019 30.0159 62.9019 25.1999C62.9019 20.3839 62.4166 16.8186 61.4459 14.5039C60.5126 12.1893 59.2433 11.0319 57.6379 11.0319ZM85.942 9.91195C87.3607 9.91195 88.6673 10.0986 89.862 10.4719C91.0567 10.8079 91.9713 11.1999 92.606 11.6479C92.9793 11.9093 93.3153 12.0399 93.614 12.0399C93.95 12.0399 94.23 11.8719 94.454 11.5359C94.7153 11.1626 94.8833 10.6399 94.958 9.96795H96.134C95.9847 11.8719 95.91 15.1573 95.91 19.8239H94.734C94.398 17.3599 93.6513 15.3066 92.494 13.6639C91.374 11.9839 89.7313 11.1439 87.566 11.1439C86.446 11.1439 85.5127 11.4613 84.766 12.0959C84.0567 12.7306 83.702 13.6079 83.702 14.7279C83.702 15.9973 84.1313 17.0986 84.99 18.0319C85.8487 18.9279 87.1927 20.0293 89.022 21.3359L90.646 22.5119C92.9233 24.2293 94.6033 25.7599 95.686 27.1039C96.7687 28.4479 97.31 30.1279 97.31 32.1439C97.31 33.7866 96.8247 35.2426 95.854 36.5119C94.9207 37.7813 93.6513 38.7519 92.046 39.4239C90.4407 40.0959 88.6673 40.4319 86.726 40.4319C84.6727 40.4319 82.918 40.0399 81.462 39.2559C80.2673 38.6586 79.4087 38.2666 78.886 38.0799C78.5127 37.9679 78.1767 38.0986 77.878 38.4719C77.6167 38.8079 77.4113 39.3306 77.262 40.0399H76.086C76.2353 37.9119 76.31 34.1786 76.31 28.8399H77.486C78.2327 35.7093 80.7527 39.1439 85.046 39.1439C86.1287 39.1439 87.0433 38.8266 87.79 38.1919C88.574 37.5199 88.966 36.5119 88.966 35.1679C88.966 34.1226 88.7233 33.1893 88.238 32.3679C87.79 31.5466 87.2113 30.8186 86.502 30.1839C85.7927 29.5493 84.7287 28.6719 83.31 27.5519C81.63 26.2079 80.342 25.1253 79.446 24.3039C78.5873 23.4826 77.8407 22.5119 77.206 21.3919C76.6087 20.2719 76.31 19.0213 76.31 17.6399C76.31 15.2506 77.2433 13.3653 79.11 11.9839C80.9767 10.6026 83.254 9.91195 85.942 9.91195ZM112.089 10.6959H118.697V11.8159H112.089V34.4399C112.089 35.5599 112.276 36.3626 112.649 36.8479C113.06 37.2959 113.695 37.5199 114.553 37.5199C116.159 37.5199 117.428 36.3999 118.361 34.1599L119.313 34.6639C117.895 38.5093 115.337 40.4319 111.641 40.4319C109.177 40.4319 107.311 39.7973 106.041 38.5279C105.257 37.7439 104.716 36.7733 104.417 35.6159C104.156 34.4213 104.025 32.7973 104.025 30.7439V11.8159H99.3212V10.6959H104.025V3.30395C107.124 3.30395 109.812 2.70661 112.089 1.51195V10.6959Z" fill="#FEC46E"/>
</svg>
