<svg width="114" height="41" viewBox="0 0 114 41" fill="none" xmlns="http://www.w3.org/2000/svg">
<path d="M5.43201 40.224C4.08801 40.224 2.89334 39.6453 1.84801 38.488C0.802672 37.2933 0.280005 35.4453 0.280005 32.944C0.280005 31.1893 0.504005 29.4347 0.952005 27.68C1.43734 25.9253 1.92267 24.32 2.408 22.864C3.15467 20.4747 3.80801 18.272 4.36801 16.256C4.92801 14.24 5.20801 12.3173 5.20801 10.488C5.20801 9.21866 5.05867 8.34133 4.76001 7.856C4.49867 7.37067 4.14401 7.128 3.69601 7.128C3.21067 7.128 2.66934 7.38933 2.07201 7.912C1.51201 8.43467 0.952005 9.23733 0.392005 10.32L4.96209e-06 10.208C0.0746716 8.04267 0.541338 6.176 1.4 4.608C2.25867 3.04 3.34134 1.82667 4.64801 0.967999C5.95467 0.109332 7.29867 -0.320002 8.68001 -0.320002C10.248 -0.320002 11.592 0.314665 12.712 1.584C13.832 2.816 14.392 4.96266 14.392 8.024C14.392 9.62933 14.224 11.3093 13.888 13.064C13.5893 14.8187 13.2347 16.5733 12.824 18.328C14.0933 17.8053 15.4373 17.432 16.856 17.208C18.2747 16.984 19.7867 16.872 21.392 16.872H22.848C23.3333 15.0053 23.744 13.176 24.08 11.384C24.4533 9.55467 24.64 7.856 24.64 6.288C24.64 5.728 24.6027 5.20533 24.528 4.72C24.4907 4.23467 24.4347 3.768 24.36 3.32V2.872C24.92 1.864 25.7227 1.06133 26.768 0.463998C27.8507 -0.133336 28.9333 -0.432003 30.016 -0.432003C31.248 -0.432003 32.3307 -0.0213366 33.264 0.799997C34.1973 1.584 34.664 2.85333 34.664 4.608C34.664 5.91467 34.4027 7.59467 33.88 9.648C33.3947 11.7013 32.8347 13.8107 32.2 15.976C31.4533 18.6267 30.7627 21.2027 30.128 23.704C29.5307 26.168 29.232 28.2587 29.232 29.976C29.232 31.1333 29.4187 32.048 29.792 32.72C30.1653 33.392 30.7627 33.728 31.584 33.728C32.704 33.728 33.544 33.1867 34.104 32.104L34.44 32.272C34.4027 33.84 33.9733 35.2213 33.152 36.416C32.3307 37.6107 31.304 38.544 30.072 39.216C28.8773 39.888 27.6453 40.224 26.376 40.224C25.256 40.224 24.192 39.944 23.184 39.384C22.2133 38.7867 21.4107 37.872 20.776 36.64C20.1787 35.408 19.88 33.8027 19.88 31.824C19.88 30.5173 20.0107 29.0987 20.272 27.568C20.5707 26 20.9067 24.4133 21.28 22.808C19.5627 22.696 17.8827 22.64 16.24 22.64C15.4187 22.64 14.6347 22.6587 13.888 22.696C13.1413 22.7333 12.432 22.7893 11.76 22.864C11.424 24.3573 11.1253 25.832 10.864 27.288C10.64 28.7067 10.528 30.088 10.528 31.432C10.528 32.1787 10.5653 32.9253 10.64 33.672C10.752 34.3813 10.92 35.072 11.144 35.744C10.5467 37.2 9.70667 38.32 8.62401 39.104C7.57867 39.8507 6.51467 40.224 5.43201 40.224ZM48.643 40.392C45.843 40.392 43.5283 39.832 41.699 38.712C39.8697 37.592 38.507 36.1173 37.611 34.288C36.7523 32.4213 36.323 30.4427 36.323 28.352C36.323 26.3733 36.6777 24.3947 37.387 22.416C38.1337 20.4373 39.1977 18.6453 40.579 17.04C41.9977 15.3973 43.715 14.0907 45.731 13.12C47.747 12.112 50.0617 11.608 52.675 11.608C55.475 11.608 57.771 12.1867 59.563 13.344C61.3923 14.464 62.7363 15.9573 63.595 17.824C64.491 19.6907 64.939 21.688 64.939 23.816C64.939 25.7573 64.5843 27.7173 63.875 29.696C63.1657 31.6373 62.1017 33.4293 60.683 35.072C59.3017 36.6773 57.603 37.9653 55.587 38.936C53.571 39.9067 51.2563 40.392 48.643 40.392ZM50.155 35.632C51.163 35.632 52.003 35.1093 52.675 34.064C53.347 33.0187 53.851 31.6933 54.187 30.088C54.523 28.4453 54.691 26.784 54.691 25.104C54.691 23.6107 54.5417 22.2107 54.243 20.904C53.9817 19.56 53.571 18.4773 53.011 17.656C52.451 16.7973 51.723 16.368 50.827 16.368C49.8563 16.368 49.0163 16.8907 48.307 17.936C47.635 18.9813 47.131 20.3067 46.795 21.912C46.459 23.5173 46.291 25.1787 46.291 26.896C46.291 28.3893 46.4217 29.808 46.683 31.152C46.9817 32.4587 47.411 33.5413 47.971 34.4C48.531 35.2213 49.259 35.632 50.155 35.632ZM77.1816 40.504C74.8669 40.504 72.9442 40.1867 71.4136 39.552C69.8829 38.9173 68.7442 38.1147 67.9976 37.144C67.2509 36.136 66.8776 35.128 66.8776 34.12C66.8776 32.7013 67.5122 31.4507 68.7816 30.368C70.0509 29.248 71.7682 28.688 73.9336 28.688C73.9336 30.592 74.1762 32.1227 74.6616 33.28C75.1469 34.4 75.7629 35.2027 76.5096 35.688C77.2936 36.1733 78.0402 36.416 78.7496 36.416C79.6082 36.416 80.3176 36.1733 80.8776 35.688C81.4749 35.1653 81.7736 34.5307 81.7736 33.784C81.7736 32.7387 81.2322 31.824 80.1496 31.04C79.0669 30.256 77.6669 29.3787 75.9496 28.408C75.0909 27.8853 74.1576 27.288 73.1496 26.616C72.1416 25.9067 71.2829 25.0667 70.5736 24.096C69.8642 23.088 69.5096 21.8933 69.5096 20.512C69.5096 19.056 69.9202 17.768 70.7416 16.648C71.6002 15.528 72.7202 14.5947 74.1016 13.848C75.4829 13.064 76.9762 12.4853 78.5816 12.112C80.1869 11.7013 81.7549 11.496 83.2856 11.496C86.1602 11.496 88.3256 12.0747 89.7816 13.232C91.2376 14.3893 91.9656 15.6213 91.9656 16.928C91.9656 18.048 91.4056 19.056 90.2856 19.952C89.1656 20.848 87.4482 21.296 85.1336 21.296C85.1709 19.392 84.7789 18.0107 83.9576 17.152C83.1362 16.256 82.2589 15.808 81.3256 15.808C80.6536 15.808 80.0936 16.0133 79.6456 16.424C79.1976 16.8347 78.9736 17.432 78.9736 18.216C78.9736 19.112 79.2536 19.896 79.8136 20.568C80.4109 21.2027 81.1389 21.7813 81.9976 22.304C82.8936 22.7893 83.8082 23.256 84.7416 23.704C86.0109 24.3013 87.2056 24.936 88.3256 25.608C89.4456 26.28 90.3602 27.0453 91.0696 27.904C91.7789 28.7627 92.1336 29.808 92.1336 31.04C92.1336 32.72 91.4429 34.288 90.0616 35.744C88.7176 37.1627 86.9069 38.32 84.6296 39.216C82.3522 40.0747 79.8696 40.504 77.1816 40.504ZM103.34 40.224C102.145 40.224 101.007 39.9627 99.9241 39.44C98.8788 38.88 98.0201 38.0213 97.3481 36.864C96.7135 35.7067 96.3961 34.232 96.3961 32.44C96.3961 31.4693 96.4895 30.2 96.6761 28.632C96.8628 27.064 97.1055 25.3467 97.4041 23.48C97.7401 21.6133 98.0761 19.7467 98.4121 17.88C97.6655 17.9173 96.9375 17.992 96.2281 18.104C95.5561 18.216 94.8841 18.3467 94.2121 18.496L94.1001 18.104C94.8468 17.208 95.6308 16.4427 96.4521 15.808C97.2735 15.1733 98.1321 14.6507 99.0281 14.24C99.5135 11.776 99.9241 9.648 100.26 7.856C100.596 6.02667 100.764 4.944 100.764 4.608C100.764 3.97333 101.249 3.45066 102.22 3.04C103.228 2.62933 104.348 2.424 105.58 2.424C106.663 2.424 107.671 2.62933 108.604 3.04C109.575 3.45066 110.228 4.14133 110.564 5.112C110.34 5.336 110.023 6.176 109.612 7.632C109.201 9.05067 108.772 10.7867 108.324 12.84C109.033 12.8773 109.761 12.9147 110.508 12.952C111.255 12.9893 112.02 13.0453 112.804 13.12C112.879 13.344 112.935 13.5867 112.972 13.848C113.009 14.1093 113.028 14.3893 113.028 14.688C113.028 15.248 112.935 15.864 112.748 16.536C112.599 17.1707 112.412 17.7493 112.188 18.272C111.292 18.1973 110.452 18.1227 109.668 18.048C108.884 17.936 108.119 17.8613 107.372 17.824C107.073 19.4293 106.793 21.0347 106.532 22.64C106.308 24.2453 106.121 25.7013 105.972 27.008C105.86 28.3147 105.804 29.3413 105.804 30.088C105.804 31.656 106.084 32.7013 106.644 33.224C107.241 33.7467 107.951 34.008 108.772 34.008C109.519 34.008 110.191 33.8587 110.788 33.56C111.385 33.2613 111.815 32.9067 112.076 32.496L112.636 32.664C112.412 34.1947 111.815 35.5387 110.844 36.696C109.873 37.816 108.716 38.6933 107.372 39.328C106.028 39.9253 104.684 40.224 103.34 40.224Z" fill="#FEC46E"/>
</svg>
