<svg width="308" height="60" viewBox="0 0 308 60" fill="none" xmlns="http://www.w3.org/2000/svg">
<path d="M13.7601 46.656C12.4374 46.656 11.2641 46.3147 10.2401 45.632C9.25878 44.9494 8.78945 43.9254 8.83212 42.56C8.91745 40.1707 9.08812 37.5254 9.34412 34.624C9.64278 31.7227 9.98412 28.7787 10.3681 25.792C10.7521 22.7627 11.1361 19.8614 11.5201 17.088C11.9468 14.3147 12.3308 11.84 12.6721 9.66402C11.9041 9.57869 11.1574 9.51469 10.4321 9.47202C9.70678 9.42936 9.04545 9.40802 8.44812 9.40802C6.65612 9.40802 5.03478 9.57869 3.58412 9.92002C2.17612 10.2614 0.981449 10.8587 0.000115395 11.712C0.000115395 9.02402 0.213449 6.84802 0.640115 5.18402C1.10945 3.47736 1.94145 2.24002 3.13612 1.47202C4.37345 0.704023 6.16545 0.320023 8.51212 0.320023C10.2188 0.320023 12.1174 0.469355 14.2081 0.768021C16.3414 1.02402 18.4961 1.30136 20.6721 1.60002C22.8481 1.89869 24.8748 2.04802 26.7521 2.04802C28.2881 2.04802 29.6535 1.89869 30.8481 1.60002C32.0855 1.30136 33.0241 0.768023 33.6641 2.28882e-05C34.6028 0.298688 35.3281 0.960022 35.8401 1.98402C36.3521 2.96536 36.6081 4.05336 36.6081 5.24802C36.6081 6.31469 36.3734 7.36002 35.9041 8.38402C35.4348 9.36536 34.6881 10.1974 33.6641 10.88C32.6401 11.52 31.2534 11.84 29.5041 11.84C28.6934 11.84 27.6908 11.776 26.4961 11.648C25.3441 11.4774 24.1068 11.3067 22.7841 11.136C22.3148 13.696 21.8241 16.768 21.3121 20.352C20.8428 23.8934 20.4374 27.712 20.0961 31.808C19.7975 35.904 19.6055 40.064 19.5201 44.288C18.7521 45.0987 17.8348 45.696 16.7681 46.08C15.7441 46.464 14.7414 46.656 13.7601 46.656ZM41.7006 46.656C39.8659 46.656 38.3939 46.0374 37.2846 44.8C36.1753 43.5627 35.6206 41.8774 35.6206 39.744C35.6206 38.592 35.7699 37.0987 36.0686 35.264C36.3673 33.3867 36.7299 31.3387 37.1566 29.12C37.6259 26.8587 38.0739 24.576 38.5006 22.272C38.9273 19.9254 39.2899 17.664 39.5886 15.488C39.8873 13.312 40.0366 11.392 40.0366 9.72802C40.0366 7.63736 39.7593 6.12269 39.2046 5.18402V4.80002C40.1433 3.73336 41.1673 2.94402 42.2766 2.43202C43.3859 1.92002 44.4739 1.66402 45.5406 1.66402C47.1619 1.66402 48.5486 2.24002 49.7006 3.39202C50.8526 4.54402 51.4286 6.27202 51.4286 8.57602C51.4286 9.81336 51.2579 11.328 50.9166 13.12C50.5753 14.912 50.1699 16.7894 49.7006 18.752C49.2313 20.7147 48.7619 22.5494 48.2926 24.256C49.1033 22.6774 50.1699 21.12 51.4926 19.584C52.858 18.0054 54.394 16.704 56.1006 15.68C57.85 14.656 59.6633 14.144 61.5406 14.144C63.6739 14.144 65.1033 14.8054 65.8286 16.128C66.5966 17.4507 66.9806 19.0934 66.9806 21.056C66.9806 22.848 66.7886 24.768 66.4046 26.816C66.0206 28.8214 65.6366 30.7627 65.2526 32.64C64.8686 34.4747 64.6766 36.0107 64.6766 37.248C64.6766 39.04 65.2099 39.936 66.2766 39.936C66.746 39.936 67.1513 39.808 67.4926 39.552C67.8766 39.2534 68.154 38.9334 68.3246 38.592L68.7726 38.912C68.7726 40.576 68.3673 41.984 67.5566 43.136C66.746 44.288 65.7006 45.1627 64.4206 45.76C63.1833 46.3574 61.9033 46.656 60.5806 46.656C58.8313 46.656 57.2526 46.08 55.8446 44.928C54.4366 43.7334 53.7326 41.8134 53.7326 39.168C53.7326 37.6747 53.9246 36.0534 54.3086 34.304C54.7353 32.5547 55.1406 30.8694 55.5246 29.248C55.9086 27.584 56.1006 26.1974 56.1006 25.088C56.1006 23.6374 55.5886 22.912 54.5646 22.912C53.6259 22.912 52.6019 23.3814 51.4926 24.32C50.3833 25.2587 49.4019 26.432 48.5486 27.84C47.7379 29.248 47.2046 30.6347 46.9486 32C46.8633 32.3414 46.8206 32.7467 46.8206 33.216C46.8206 34.2827 46.9699 35.3067 47.2686 36.288C47.6099 37.2694 47.7806 38.4214 47.7806 39.744C47.7806 41.7067 47.2686 43.3494 46.2446 44.672C45.2206 45.9947 43.7059 46.656 41.7006 46.656ZM95.4716 46.72C93.9783 46.72 92.6769 46.2294 91.5676 45.248C90.4583 44.2667 89.9036 42.6667 89.9036 40.448C89.9036 40.2347 89.9036 40.0214 89.9036 39.808C89.9036 39.5947 89.9249 39.3814 89.9676 39.168C88.6876 41.728 87.2369 43.6267 85.6156 44.864C84.0369 46.0587 82.4369 46.656 80.8156 46.656C79.3223 46.656 77.9143 46.144 76.5916 45.12C75.2689 44.0534 74.2023 42.496 73.3916 40.448C72.5809 38.4 72.1756 35.9254 72.1756 33.024C72.1756 30.0374 72.5809 27.3707 73.3916 25.024C74.2449 22.6774 75.3543 20.6934 76.7196 19.072C78.0849 17.4507 79.5783 16.2347 81.1996 15.424C82.8209 14.5707 84.3996 14.144 85.9356 14.144C87.6423 14.144 89.1783 14.6774 90.5436 15.744C91.9089 16.768 92.8476 18.4107 93.3596 20.672C93.4876 19.9467 93.5729 19.2854 93.6156 18.688C93.7009 18.0907 93.7436 17.6854 93.7436 17.472C93.7863 16.32 94.3623 15.4667 95.4716 14.912C96.6236 14.3574 97.8823 14.08 99.2476 14.08C100.442 14.08 101.573 14.3147 102.64 14.784C103.706 15.2534 104.432 16.0427 104.816 17.152L104.944 17.536C104.432 18.688 103.92 20.0747 103.408 21.696C102.896 23.3174 102.426 25.024 102 26.816C101.573 28.5654 101.232 30.2934 100.976 32C100.72 33.664 100.592 35.136 100.592 36.416C100.592 37.824 100.741 38.8054 101.04 39.36C101.338 39.872 101.701 40.128 102.128 40.128C102.853 40.128 103.514 39.616 104.112 38.592L104.624 38.848C104.624 40.2987 104.154 41.6214 103.216 42.816C102.277 44.0107 101.104 44.9707 99.6956 45.696C98.2876 46.3787 96.8796 46.72 95.4716 46.72ZM85.0396 38.592C86.1489 38.592 87.3649 37.6107 88.6876 35.648C90.0529 33.6427 91.2263 30.784 92.2076 27.072C92.293 26.688 92.3783 26.3254 92.4636 25.984C92.5489 25.6 92.6129 25.2374 92.6556 24.896C91.9729 23.3174 91.2476 22.208 90.4796 21.568C89.7543 20.8854 89.0289 20.544 88.3036 20.544C87.2369 20.544 86.2343 21.12 85.2956 22.272C84.3996 23.3814 83.6529 24.7894 83.0556 26.496C82.5009 28.2027 82.2236 29.9094 82.2236 31.616C82.2236 33.9627 82.4796 35.712 82.9916 36.864C83.5463 38.016 84.2289 38.592 85.0396 38.592ZM115.789 46.592C114.21 46.592 112.781 45.9734 111.501 44.736C110.221 43.456 109.581 41.6854 109.581 39.424C109.581 38.3147 109.73 37.056 110.029 35.648C110.327 34.24 110.647 32.8107 110.989 31.36C111.373 29.9094 111.714 28.544 112.013 27.264C112.311 25.984 112.461 24.9387 112.461 24.128C112.461 23.2747 112.29 22.6134 111.949 22.144C111.607 21.632 111.159 21.376 110.605 21.376C109.879 21.376 109.09 21.8027 108.237 22.656L107.853 22.4C107.81 21.7174 107.959 20.9067 108.301 19.968C108.642 19.0294 109.154 18.1334 109.837 17.28C110.562 16.384 111.479 15.6374 112.589 15.04C113.698 14.4427 115.021 14.144 116.557 14.144C118.818 14.144 120.482 14.8054 121.549 16.128C122.658 17.408 123.213 18.9867 123.213 20.864C123.213 21.5467 123.149 22.208 123.021 22.848C123.917 21.5254 125.026 20.2027 126.349 18.88C127.671 17.5147 129.122 16.384 130.701 15.488C132.322 14.592 133.986 14.144 135.693 14.144C137.698 14.144 139.063 14.784 139.789 16.064C140.514 17.344 140.877 18.944 140.877 20.864C140.877 22.656 140.685 24.576 140.301 26.624C139.917 28.672 139.533 30.656 139.149 32.576C138.765 34.4534 138.573 36.032 138.573 37.312C138.573 39.0187 139.063 39.872 140.045 39.872C140.557 39.872 141.005 39.7227 141.389 39.424C141.773 39.0827 142.029 38.7627 142.157 38.464L142.605 38.656C142.605 40.2347 142.157 41.6214 141.261 42.816C140.407 44.0107 139.319 44.9494 137.997 45.632C136.674 46.272 135.33 46.592 133.965 46.592C132.301 46.592 130.829 46.016 129.549 44.864C128.269 43.712 127.629 41.8347 127.629 39.232C127.629 37.696 127.821 36.032 128.205 34.24C128.631 32.448 129.037 30.72 129.421 29.056C129.805 27.392 129.997 26.0267 129.997 24.96C129.997 24.32 129.869 23.8294 129.613 23.488C129.399 23.104 128.994 22.912 128.397 22.912C127.415 22.912 126.327 23.36 125.133 24.256C123.981 25.152 122.978 26.3467 122.125 27.84C121.314 29.3334 120.909 30.976 120.909 32.768C120.909 33.92 121.037 35.0294 121.293 36.096C121.591 37.1627 121.741 38.3147 121.741 39.552C121.741 41.856 121.143 43.6054 119.949 44.8C118.754 45.9947 117.367 46.592 115.789 46.592ZM169.418 46.72C168.01 46.72 166.687 46.4 165.45 45.76C164.213 45.0774 163.21 44.096 162.442 42.816C161.674 41.536 161.29 40 161.29 38.208C161.29 36.3734 161.738 34.304 162.634 32C163.317 31.6587 164.127 31.1254 165.066 30.4C166.005 29.6747 166.837 28.864 167.562 27.968C168.287 27.0294 168.65 26.112 168.65 25.216C168.65 24.4054 168.33 23.7654 167.69 23.296C167.093 22.8267 166.346 22.592 165.45 22.592C164.341 22.592 163.295 22.9334 162.314 23.616C161.333 24.2987 160.458 25.1947 159.69 26.304C158.965 27.3707 158.389 28.544 157.962 29.824C157.578 31.0614 157.386 32.256 157.386 33.408C157.386 34.5174 157.514 35.5627 157.77 36.544C158.069 37.4827 158.218 38.5707 158.218 39.808C158.218 41.728 157.706 43.3494 156.682 44.672C155.658 45.9947 154.143 46.656 152.138 46.656C150.303 46.656 148.831 46.0374 147.722 44.8C146.613 43.5627 146.058 41.8774 146.058 39.744C146.058 38.6347 146.186 37.1627 146.442 35.328C146.741 33.4934 147.103 31.4667 147.53 29.248C147.957 27.0294 148.362 24.7467 148.746 22.4C149.173 20.0107 149.514 17.728 149.77 15.552C150.069 13.3334 150.218 11.3494 150.218 9.60002C150.218 8.66136 150.154 7.80802 150.026 7.04002C149.941 6.22936 149.727 5.58936 149.386 5.12002V4.73602C150.325 3.66935 151.349 2.88002 152.458 2.36802C153.567 1.85602 154.655 1.60002 155.722 1.60002C157.343 1.60002 158.73 2.17602 159.882 3.32802C161.034 4.48002 161.61 6.18669 161.61 8.44802C161.61 9.64269 161.439 11.0934 161.098 12.8C160.799 14.5067 160.415 16.2987 159.946 18.176C159.519 20.0534 159.071 21.8454 158.602 23.552C159.541 22.1867 160.607 20.7787 161.802 19.328C162.997 17.8774 164.341 16.6614 165.834 15.68C167.327 14.656 169.013 14.144 170.89 14.144C173.066 14.144 174.773 14.848 176.01 16.256C177.247 17.6214 177.866 19.264 177.866 21.184C177.866 23.104 177.162 25.152 175.754 27.328C174.389 29.504 172.085 31.3387 168.842 32.832C169.397 34.0694 170.165 35.1787 171.146 36.16C172.127 37.1414 173.194 37.9094 174.346 38.464C175.541 38.976 176.65 39.232 177.674 39.232C178.186 39.232 178.634 39.1467 179.018 38.976L179.402 39.36C178.335 41.8347 176.863 43.6907 174.986 44.928C173.151 46.1227 171.295 46.72 169.418 46.72ZM217.549 59.2C215.415 59.2 213.687 58.5387 212.365 57.216C211.085 55.936 210.445 54.1867 210.445 51.968C210.445 50.816 210.637 49.536 211.021 48.128C211.447 46.7627 212.13 45.312 213.069 43.776C210.978 43.648 209.25 42.944 207.885 41.664C206.562 40.384 205.901 38.4427 205.901 35.84C205.901 34.304 206.093 32.6614 206.477 30.912C206.903 29.12 207.309 27.456 207.693 25.92C208.077 24.3414 208.269 23.1254 208.269 22.272C208.269 21.632 208.141 21.184 207.885 20.928C207.629 20.6294 207.33 20.48 206.989 20.48C206.647 20.48 206.263 20.6294 205.837 20.928C205.453 21.184 205.154 21.5894 204.941 22.144L203.853 20.992C204.109 19.6694 204.663 18.496 205.517 17.472C206.37 16.448 207.415 15.6374 208.653 15.04C209.89 14.4427 211.17 14.144 212.493 14.144C213.986 14.144 215.287 14.6347 216.397 15.616C217.506 16.5547 218.061 18.2827 218.061 20.8C218.061 22.3787 217.869 24.0854 217.485 25.92C217.101 27.712 216.717 29.4187 216.333 31.04C215.949 32.6187 215.757 33.8774 215.757 34.816C215.757 35.6694 215.927 36.3094 216.269 36.736C216.653 37.12 217.079 37.312 217.549 37.312C218.146 37.312 218.829 36.992 219.597 36.352C220.365 35.6694 221.09 34.56 221.773 33.024C222.455 31.488 222.903 29.4187 223.117 26.816C223.202 26.0054 223.266 24.9814 223.309 23.744C223.351 22.464 223.394 21.2907 223.437 20.224C223.479 19.1147 223.501 18.432 223.501 18.176C223.501 16.64 224.055 15.5734 225.165 14.976C226.317 14.336 227.575 14.016 228.941 14.016C230.135 14.016 231.266 14.2507 232.333 14.72C233.399 15.1894 234.125 15.9787 234.509 17.088L234.637 17.472C234.253 17.8134 233.911 18.9654 233.613 20.928C233.357 22.8907 233.037 25.5147 232.653 28.8C232.397 30.9334 232.077 33.344 231.693 36.032C231.309 38.72 230.775 41.4294 230.093 44.16C229.453 46.848 228.578 49.3227 227.469 51.584C226.402 53.888 225.058 55.7227 223.437 57.088C221.815 58.496 219.853 59.2 217.549 59.2ZM216.013 51.84C217.335 51.84 218.509 50.624 219.533 48.192C220.599 45.8027 221.431 42.3894 222.029 37.952C219.298 41.4507 217.421 44.2027 216.397 46.208C215.373 48.2134 214.861 49.664 214.861 50.56C214.861 51.4134 215.245 51.84 216.013 51.84ZM251.253 46.848C248.053 46.848 245.407 46.208 243.317 44.928C241.226 43.648 239.669 41.9627 238.645 39.872C237.663 37.7387 237.173 35.4774 237.173 33.088C237.173 30.8267 237.578 28.5654 238.389 26.304C239.242 24.0427 240.458 21.9947 242.037 20.16C243.658 18.2827 245.621 16.7894 247.925 15.68C250.229 14.528 252.874 13.952 255.861 13.952C259.061 13.952 261.685 14.6134 263.733 15.936C265.823 17.216 267.359 18.9227 268.341 21.056C269.365 23.1894 269.877 25.472 269.877 27.904C269.877 30.1227 269.471 32.3627 268.661 34.624C267.85 36.8427 266.634 38.8907 265.013 40.768C263.434 42.6027 261.493 44.0747 259.189 45.184C256.885 46.2934 254.239 46.848 251.253 46.848ZM252.981 41.408C254.133 41.408 255.093 40.8107 255.861 39.616C256.629 38.4214 257.205 36.9067 257.589 35.072C257.973 33.1947 258.165 31.296 258.165 29.376C258.165 27.6694 257.994 26.0694 257.653 24.576C257.354 23.04 256.885 21.8027 256.245 20.864C255.605 19.8827 254.773 19.392 253.749 19.392C252.639 19.392 251.679 19.9894 250.869 21.184C250.101 22.3787 249.525 23.8934 249.141 25.728C248.757 27.5627 248.565 29.4614 248.565 31.424C248.565 33.1307 248.714 34.752 249.013 36.288C249.354 37.7814 249.845 39.0187 250.485 40C251.125 40.9387 251.957 41.408 252.981 41.408ZM282.125 46.656C280.205 46.656 278.584 45.8667 277.261 44.288C275.981 42.7094 275.341 40.5974 275.341 37.952C275.341 36.5014 275.512 34.944 275.853 33.28C276.194 31.616 276.536 30.0374 276.877 28.544C277.176 27.4347 277.41 26.4107 277.581 25.472C277.794 24.4907 277.901 23.7014 277.901 23.104C277.901 22.336 277.73 21.7814 277.389 21.44C277.09 21.0987 276.728 20.928 276.301 20.928C275.874 20.928 275.448 21.0774 275.021 21.376C274.594 21.632 274.253 22.0374 273.997 22.592L273.485 22.4C273.485 20.6507 273.912 19.1574 274.765 17.92C275.618 16.6827 276.706 15.744 278.029 15.104C279.352 14.464 280.696 14.144 282.061 14.144C283.17 14.144 284.237 14.3787 285.261 14.848C286.285 15.2747 287.117 15.9574 287.757 16.896C288.44 17.8347 288.781 19.008 288.781 20.416C288.781 21.2694 288.653 22.2934 288.397 23.488C288.184 24.6827 287.928 25.92 287.629 27.2C287.33 28.5227 287.032 29.8667 286.733 31.232C286.477 32.5547 286.349 33.728 286.349 34.752C286.349 35.6907 286.498 36.4587 286.797 37.056C287.096 37.6534 287.544 37.952 288.141 37.952C289.25 37.952 290.488 36.928 291.853 34.88C293.261 32.832 294.392 30.08 295.245 26.624C295.416 25.9414 295.565 25.216 295.693 24.448C295.821 23.68 295.885 22.8907 295.885 22.08C295.885 21.44 295.842 20.8 295.757 20.16C295.672 19.4774 295.544 18.7947 295.373 18.112V17.664C296.056 16.512 296.93 15.6374 297.997 15.04C299.106 14.4427 300.216 14.144 301.325 14.144C302.818 14.144 304.162 14.656 305.357 15.68C306.552 16.704 307.149 18.1974 307.149 20.16C307.149 21.312 306.936 22.656 306.509 24.192C306.082 25.6854 305.613 27.2427 305.101 28.864C304.589 30.4427 304.12 32 303.693 33.536C303.266 35.072 303.053 36.4374 303.053 37.632C303.053 39.3814 303.672 40.256 304.909 40.256C305.25 40.256 305.656 40.1707 306.125 40C306.637 39.7867 307.106 39.3814 307.533 38.784L307.981 38.912C307.981 40.448 307.554 41.8134 306.701 43.008C305.89 44.16 304.845 45.056 303.565 45.696C302.285 46.336 300.962 46.656 299.597 46.656C297.848 46.656 296.269 46.016 294.861 44.736C293.496 43.456 292.813 41.3654 292.813 38.464V38.336C291.064 41.3227 289.25 43.456 287.373 44.736C285.496 46.016 283.746 46.656 282.125 46.656Z" fill="white"/>
</svg>
