<svg width="332" height="71" viewBox="0 0 332 71" fill="none" xmlns="http://www.w3.org/2000/svg">
<g filter="url(#filter0_d_2001_173)">
<path d="M43.4879 4.8C43.1892 8.85333 43.0399 12.48 43.0399 15.68C43.0399 17.6853 43.1039 19.3067 43.2319 20.544H41.7599C40.7359 15.296 39.3279 11.6053 37.5359 9.472C35.7866 7.33866 33.3759 6.272 30.3039 6.272H28.8319V42.816C28.8319 44.608 29.0026 45.9093 29.3439 46.72C29.7279 47.5307 30.3679 48.0853 31.2639 48.384C32.2026 48.64 33.6746 48.7893 35.6799 48.832V50.112C30.3039 49.984 26.2506 49.92 23.5199 49.92C20.8319 49.92 16.9279 49.984 11.8079 50.112V48.832C13.8132 48.7893 15.2639 48.64 16.1599 48.384C17.0986 48.0853 17.7386 47.5307 18.0799 46.72C18.4639 45.9093 18.6559 44.608 18.6559 42.816V6.272H17.2479C15.1999 6.272 13.4506 6.72 11.9999 7.616C10.5919 8.512 9.3759 10.0053 8.3519 12.096C7.3279 14.144 6.45324 16.96 5.7279 20.544H4.2559C4.3839 19.3067 4.4479 17.6853 4.4479 15.68C4.4479 12.48 4.29857 8.85333 3.9999 4.8C7.88257 4.928 14.4746 4.992 23.7759 4.992C33.0772 4.992 39.6479 4.928 43.4879 4.8ZM59.3029 22.08C61.2229 18.112 64.7002 16.128 69.7349 16.128C73.0629 16.128 75.4096 16.96 76.7749 18.624C77.5002 19.4347 78.0122 20.5013 78.3109 21.824C78.6522 23.104 78.8229 24.8107 78.8229 26.944V44.16C78.8229 45.9093 79.1216 47.1253 79.7189 47.808C80.3162 48.448 81.3829 48.768 82.9189 48.768V50.112C78.4816 49.9413 75.6656 49.856 74.4709 49.856C73.0202 49.856 70.2469 49.9413 66.1509 50.112V48.768C67.4309 48.768 68.3269 48.448 68.8389 47.808C69.3509 47.1253 69.6069 45.9093 69.6069 44.16V24.256C69.6069 22.5067 69.3082 21.184 68.7109 20.288C68.1562 19.392 67.1322 18.944 65.6389 18.944C63.8469 18.944 62.3322 19.648 61.0949 21.056C59.9002 22.4213 59.3029 24.1707 59.3029 26.304V44.16C59.3029 45.9093 59.5589 47.1253 60.0709 47.808C60.5829 48.448 61.4789 48.768 62.7589 48.768V50.112C58.6629 49.9413 56.0176 49.856 54.8229 49.856C53.3722 49.856 50.4282 49.9413 45.9909 50.112V48.768C47.4842 48.768 48.5296 48.448 49.1269 47.808C49.7669 47.1253 50.0869 45.9093 50.0869 44.16V7.744C50.0869 5.78133 49.7669 4.352 49.1269 3.456C48.5296 2.56 47.4842 2.112 45.9909 2.112V0.767998C47.3562 0.895999 48.6789 0.959999 49.9589 0.959999C53.6709 0.959999 56.7856 0.661331 59.3029 0.0639954V22.08ZM93.6964 50.56C90.9657 50.56 88.9177 49.856 87.5524 48.448C86.2297 47.04 85.5684 45.184 85.5684 42.88C85.5684 40.96 86.0591 39.3813 87.0404 38.144C88.0644 36.864 89.2804 35.8827 90.6884 35.2C92.1391 34.5173 93.9737 33.792 96.1924 33.024C98.5391 32.2133 100.246 31.488 101.312 30.848C102.422 30.1653 102.976 29.248 102.976 28.096V23.104C102.976 21.312 102.55 19.9253 101.696 18.944C100.886 17.92 99.6057 17.408 97.8564 17.408C95.8084 17.408 94.2511 17.92 93.1844 18.944C94.3791 19.3707 95.2964 20.0107 95.9364 20.864C96.6191 21.7173 96.9604 22.72 96.9604 23.872C96.9604 25.3227 96.4697 26.4747 95.4884 27.328C94.5071 28.1813 93.3124 28.608 91.9044 28.608C90.4111 28.608 89.2591 28.1387 88.4484 27.2C87.6377 26.2613 87.2324 25.088 87.2324 23.68C87.2324 22.4853 87.5097 21.4827 88.0644 20.672C88.6617 19.8187 89.5577 19.0293 90.7524 18.304C91.9044 17.6213 93.3124 17.088 94.9764 16.704C96.6831 16.32 98.5391 16.128 100.544 16.128C102.635 16.128 104.448 16.3413 105.984 16.768C107.52 17.1947 108.8 17.92 109.824 18.944C110.763 19.8827 111.382 21.0347 111.68 22.4C112.022 23.7653 112.192 25.6213 112.192 27.968V45.376C112.192 46.4 112.278 47.1253 112.448 47.552C112.662 47.9787 113.046 48.192 113.6 48.192C114.24 48.192 115.008 47.8293 115.904 47.104L116.544 48.192C114.624 49.7707 112.278 50.56 109.504 50.56C107.158 50.56 105.515 50.0907 104.576 49.152C103.638 48.2133 103.147 46.9547 103.104 45.376C100.971 48.832 97.8351 50.56 93.6964 50.56ZM98.6244 46.464C100.288 46.464 101.739 45.5893 102.976 43.84V30.72C102.464 31.5733 101.376 32.512 99.7124 33.536C98.0484 34.6027 96.7897 35.6693 95.9364 36.736C95.0831 37.8027 94.6564 39.3387 94.6564 41.344C94.6564 43.0933 95.0191 44.3947 95.7444 45.248C96.4697 46.0587 97.4297 46.464 98.6244 46.464ZM142.181 16.128C145.424 16.128 147.771 16.96 149.221 18.624C149.947 19.4347 150.459 20.48 150.757 21.76C151.056 23.04 151.205 24.768 151.205 26.944V44.16C151.205 45.9093 151.504 47.1253 152.101 47.808C152.741 48.448 153.808 48.768 155.301 48.768V50.112C151.035 49.9413 148.219 49.856 146.853 49.856C145.573 49.856 142.8 49.9413 138.533 50.112V48.768C139.813 48.768 140.709 48.448 141.221 47.808C141.733 47.1253 141.989 45.9093 141.989 44.16V24.256C141.989 22.5067 141.691 21.184 141.093 20.288C140.539 19.392 139.515 18.944 138.021 18.944C136.272 18.944 134.779 19.6693 133.541 21.12C132.304 22.528 131.685 24.2773 131.685 26.368V44.16C131.685 45.9093 131.941 47.1253 132.453 47.808C132.965 48.448 133.861 48.768 135.141 48.768V50.112C131.216 49.9413 128.571 49.856 127.205 49.856C125.925 49.856 122.981 49.9413 118.373 50.112V48.768C119.909 48.768 120.976 48.448 121.573 47.808C122.171 47.1253 122.469 45.9093 122.469 44.16V24C122.469 22.0373 122.171 20.608 121.573 19.712C120.976 18.816 119.909 18.368 118.373 18.368V17.024C119.739 17.152 121.061 17.216 122.341 17.216C126.139 17.216 129.253 16.9173 131.685 16.32V22.08C133.605 18.112 137.104 16.128 142.181 16.128ZM190.198 45.44C190.881 46.464 191.435 47.232 191.862 47.744C192.289 48.2133 192.843 48.5547 193.526 48.768V50.112C190.113 49.9413 187.873 49.856 186.806 49.856C185.398 49.856 182.646 49.9413 178.55 50.112V48.768C179.147 48.768 179.617 48.6613 179.958 48.448C180.299 48.2347 180.47 47.936 180.47 47.552C180.47 47.3387 180.363 47.0187 180.15 46.592L173.814 35.136C173.387 34.4107 172.939 33.92 172.47 33.664C172.001 33.408 171.403 33.2373 170.678 33.152V44.16C170.678 45.9093 170.955 47.1253 171.51 47.808C172.065 48.448 173.067 48.768 174.518 48.768V50.112C170.251 49.9413 167.478 49.856 166.198 49.856C164.747 49.856 161.803 49.9413 157.366 50.112V48.768C158.859 48.768 159.905 48.448 160.502 47.808C161.142 47.1253 161.462 45.9093 161.462 44.16V7.68C161.462 5.71733 161.142 4.288 160.502 3.392C159.905 2.496 158.859 2.048 157.366 2.048V0.703999C158.731 0.831997 160.054 0.895996 161.334 0.895996C165.046 0.895996 168.161 0.597329 170.678 -3.8147e-06V31.936C171.531 31.8507 172.257 31.68 172.854 31.424C173.494 31.168 174.049 30.784 174.518 30.272L179.382 25.536C180.79 24.128 181.494 22.8267 181.494 21.632C181.494 20.6507 181.046 19.8827 180.15 19.328C179.254 18.7307 178.059 18.3893 176.566 18.304V17.024C178.913 17.152 181.409 17.216 184.054 17.216C187.595 17.216 190.091 17.152 191.542 17.024V18.304C189.025 18.8587 186.358 20.5013 183.542 23.232L179.446 27.456L190.198 45.44ZM249.179 17.216C251.312 17.216 252.955 17.152 254.107 17.024V18.304C253.211 18.56 252.4 19.1147 251.675 19.968C250.992 20.7787 250.331 22.0587 249.691 23.808L238.235 56C237.382 58.2187 236.443 59.7333 235.419 60.544C234.182 61.6107 232.326 62.144 229.851 62.144C228.059 62.144 226.438 61.696 224.987 60.8C223.579 59.9467 222.875 58.688 222.875 57.024C222.875 55.7013 223.344 54.6347 224.283 53.824C225.222 53.056 226.459 52.672 227.995 52.672C229.446 52.672 230.598 53.0133 231.451 53.696C232.347 54.4213 232.795 55.424 232.795 56.704C232.795 57.6 232.518 58.4107 231.963 59.136C231.408 59.904 230.619 60.48 229.595 60.864C229.894 60.9067 230.384 60.928 231.067 60.928C233.712 60.928 235.654 59.2427 236.891 55.872L237.915 52.8L224.347 21.952C223.664 20.5013 223.003 19.5413 222.363 19.072C221.723 18.6027 221.062 18.368 220.379 18.368V17.024C223.195 17.28 226.118 17.408 229.147 17.408C231.664 17.408 234.63 17.28 238.043 17.024V18.368C236.678 18.368 235.654 18.4747 234.971 18.688C234.331 18.8587 234.011 19.3493 234.011 20.16C234.011 20.6293 234.16 21.2267 234.459 21.952L242.267 40.832L246.683 28.544C247.366 26.5387 247.707 24.832 247.707 23.424C247.707 20.3093 246.128 18.6027 242.971 18.304V17.024C244.976 17.152 247.046 17.216 249.179 17.216ZM271.573 16.128C276.48 16.128 280.32 17.536 283.093 20.352C285.866 23.1253 287.253 27.5413 287.253 33.6C287.253 39.6587 285.866 44.0747 283.093 46.848C280.32 49.6213 276.48 51.008 271.573 51.008C266.709 51.008 262.869 49.6213 260.053 46.848C257.28 44.0747 255.893 39.6587 255.893 33.6C255.893 27.5413 257.28 23.1253 260.053 20.352C262.869 17.536 266.709 16.128 271.573 16.128ZM271.573 17.408C269.738 17.408 268.266 18.752 267.157 21.44C266.09 24.0853 265.557 28.1387 265.557 33.6C265.557 39.0613 266.09 43.1147 267.157 45.76C268.266 48.4053 269.738 49.728 271.573 49.728C273.45 49.728 274.922 48.4267 275.989 45.824C277.056 43.1787 277.589 39.104 277.589 33.6C277.589 28.096 277.034 24.0213 275.925 21.376C274.858 18.7307 273.408 17.408 271.573 17.408ZM323.12 43.136C323.12 45.0987 323.419 46.528 324.016 47.424C324.656 48.32 325.723 48.768 327.216 48.768V50.112C325.894 49.984 324.571 49.92 323.248 49.92C319.536 49.92 316.422 50.2187 313.904 50.816V45.056C311.942 49.024 308.507 51.008 303.6 51.008C300.4 51.008 298.075 50.176 296.624 48.512C295.942 47.7013 295.43 46.656 295.088 45.376C294.79 44.0533 294.64 42.3253 294.64 40.192V24C294.64 22.0373 294.32 20.608 293.68 19.712C293.083 18.816 292.038 18.368 290.544 18.368V17.024C291.867 17.152 293.19 17.216 294.512 17.216C298.224 17.216 301.339 16.9173 303.856 16.32V42.816C303.856 44.608 304.112 45.952 304.624 46.848C305.179 47.744 306.203 48.192 307.696 48.192C309.403 48.192 310.854 47.488 312.048 46.08C313.286 44.6293 313.904 42.8587 313.904 40.768V24C313.904 22.0373 313.584 20.608 312.944 19.712C312.347 18.816 311.302 18.368 309.808 18.368V17.024C311.174 17.152 312.496 17.216 313.776 17.216C317.488 17.216 320.603 16.9173 323.12 16.32V43.136Z" fill="white"/>
</g>
<defs>
<filter id="filter0_d_2001_173" x="0" y="0" width="331.216" height="70.144" filterUnits="userSpaceOnUse" color-interpolation-filters="sRGB">
<feFlood flood-opacity="0" result="BackgroundImageFix"/>
<feColorMatrix in="SourceAlpha" type="matrix" values="0 0 0 0 0 0 0 0 0 0 0 0 0 0 0 0 0 0 127 0" result="hardAlpha"/>
<feOffset dy="4"/>
<feGaussianBlur stdDeviation="2"/>
<feComposite in2="hardAlpha" operator="out"/>
<feColorMatrix type="matrix" values="0 0 0 0 0 0 0 0 0 0 0 0 0 0 0 0 0 0 0.25 0"/>
<feBlend mode="normal" in2="BackgroundImageFix" result="effect1_dropShadow_2001_173"/>
<feBlend mode="normal" in="SourceGraphic" in2="effect1_dropShadow_2001_173" result="shape"/>
</filter>
</defs>
</svg>
