<svg width="257" height="43" viewBox="0 0 257 43" fill="none" xmlns="http://www.w3.org/2000/svg">
<path d="M34.552 2.352C34.2906 5.89867 34.16 9.072 34.16 11.872C34.16 13.6267 34.216 15.0453 34.328 16.128H33.04C32.144 11.536 30.912 8.30666 29.344 6.44C27.8133 4.57333 25.704 3.64 23.016 3.64H21.728V35.616C21.728 37.184 21.8773 38.3227 22.176 39.032C22.512 39.7413 23.072 40.2267 23.856 40.488C24.6773 40.712 25.9653 40.8427 27.72 40.88V42C23.016 41.888 19.4693 41.832 17.08 41.832C14.728 41.832 11.312 41.888 6.83198 42V40.88C8.58664 40.8427 9.85598 40.712 10.64 40.488C11.4613 40.2267 12.0213 39.7413 12.32 39.032C12.656 38.3227 12.824 37.184 12.824 35.616V3.64H11.592C9.79998 3.64 8.26931 4.032 6.99998 4.816C5.76798 5.6 4.70398 6.90667 3.80798 8.736C2.91198 10.528 2.14664 12.992 1.51198 16.128H0.223976C0.335976 15.0453 0.391976 13.6267 0.391976 11.872C0.391976 9.072 0.261309 5.89867 -2.43932e-05 2.352C3.39731 2.464 9.16531 2.52 17.304 2.52C25.4426 2.52 31.192 2.464 34.552 2.352ZM44.6302 -1.4C46.1982 -1.4 47.4302 -1.008 48.3262 -0.224C49.2596 0.522666 49.7262 1.568 49.7262 2.912C49.7262 4.256 49.2596 5.32 48.3262 6.104C47.4302 6.85066 46.1982 7.224 44.6302 7.224C43.0622 7.224 41.8116 6.85066 40.8782 6.104C39.9822 5.32 39.5342 4.256 39.5342 2.912C39.5342 1.568 39.9822 0.522666 40.8782 -0.224C41.8116 -1.008 43.0622 -1.4 44.6302 -1.4ZM48.9982 36.792C48.9982 38.3227 49.2596 39.3867 49.7822 39.984C50.3422 40.544 51.2756 40.824 52.5822 40.824V42C48.8489 41.8507 46.3662 41.776 45.1342 41.776C43.9769 41.776 41.3822 41.8507 37.3502 42V40.824C38.6942 40.824 39.6276 40.544 40.1502 39.984C40.6729 39.3867 40.9342 38.3227 40.9342 36.792V19.152C40.9342 17.4347 40.6729 16.184 40.1502 15.4C39.6276 14.616 38.6942 14.224 37.3502 14.224V13.048C38.5449 13.16 39.7022 13.216 40.8222 13.216C44.1449 13.216 46.8702 12.9547 48.9982 12.432V36.792ZM100.038 36.792C100.038 38.3227 100.3 39.3867 100.822 39.984C101.382 40.544 102.316 40.824 103.622 40.824V42C99.889 41.8507 97.425 41.776 96.2303 41.776C95.185 41.776 92.8703 41.8507 89.2863 42V40.824C90.2943 40.824 90.985 40.544 91.3583 39.984C91.769 39.424 91.9743 38.36 91.9743 36.792V19.376C91.9743 17.808 91.7316 16.6507 91.2463 15.904C90.7983 15.12 89.921 14.728 88.6143 14.728C87.233 14.728 86.0196 15.3067 84.9743 16.464C83.9663 17.6213 83.369 19.04 83.1823 20.72V21.728V36.792C83.1823 38.3227 83.4063 39.3867 83.8543 39.984C84.3396 40.544 85.1983 40.824 86.4303 40.824V42C82.8463 41.8507 80.4943 41.776 79.3743 41.776C78.329 41.776 76.0143 41.8507 72.4303 42V40.824C73.4383 40.824 74.129 40.544 74.5023 39.984C74.913 39.3867 75.1183 38.3227 75.1183 36.792V19.376C75.1183 17.808 74.913 16.6507 74.5023 15.904C74.0916 15.12 73.289 14.728 72.0943 14.728C70.601 14.728 69.313 15.3627 68.2303 16.632C67.185 17.864 66.6623 19.3947 66.6623 21.224V36.792C66.6623 38.3227 66.849 39.3867 67.2223 39.984C67.633 40.544 68.3423 40.824 69.3503 40.824V42C66.065 41.8507 63.8623 41.776 62.7423 41.776C61.6223 41.776 59.0463 41.8507 55.0143 42V40.824C56.3583 40.824 57.2916 40.544 57.8143 39.984C58.337 39.3867 58.5983 38.3227 58.5983 36.792V19.152C58.5983 17.4347 58.337 16.184 57.8143 15.4C57.2916 14.616 56.3583 14.224 55.0143 14.224V13.048C56.209 13.16 57.3663 13.216 58.4863 13.216C61.809 13.216 64.5343 12.9547 66.6623 12.432V17.472C68.305 14 71.1983 12.264 75.3423 12.264C78.1796 12.264 80.233 12.992 81.5023 14.448C82.2116 15.1947 82.6783 16.3147 82.9023 17.808C83.873 15.792 85.1423 14.3733 86.7103 13.552C88.2783 12.6933 90.1076 12.264 92.1983 12.264C95.0356 12.264 97.089 12.992 98.3583 14.448C98.9556 15.12 99.385 16.0347 99.6463 17.192C99.9076 18.3493 100.038 19.8613 100.038 21.728V36.792ZM122.174 38.192C125.235 38.192 127.699 36.6987 129.566 33.712L130.574 34.048C129.827 36.4747 128.483 38.5467 126.542 40.264C124.638 41.944 122.248 42.784 119.374 42.784C115.416 42.784 112.262 41.5333 109.91 39.032C107.595 36.4933 106.438 32.76 106.438 27.832C106.438 22.792 107.688 18.9467 110.19 16.296C112.691 13.608 116.014 12.264 120.158 12.264C127.176 12.264 130.686 16.408 130.686 24.696H114.95C114.912 25.256 114.894 26.1333 114.894 27.328C114.894 29.792 115.23 31.8453 115.902 33.488C116.611 35.1307 117.507 36.3253 118.59 37.072C119.71 37.8187 120.904 38.192 122.174 38.192ZM119.822 13.44C118.478 13.44 117.358 14.28 116.462 15.96C115.603 17.6027 115.062 20.16 114.838 23.632H123.63C123.704 20.6827 123.406 18.256 122.734 16.352C122.099 14.4107 121.128 13.44 119.822 13.44ZM145.296 13.048H151.904V14.168H145.296V36.792C145.296 37.912 145.483 38.7147 145.856 39.2C146.267 39.648 146.902 39.872 147.76 39.872C149.366 39.872 150.635 38.752 151.568 36.512L152.52 37.016C151.102 40.8613 148.544 42.784 144.848 42.784C142.384 42.784 140.518 42.1493 139.248 40.88C138.464 40.096 137.923 39.1253 137.624 37.968C137.363 36.7733 137.232 35.1493 137.232 33.096V14.168H132.528V13.048H137.232V5.656C140.331 5.656 143.019 5.05866 145.296 3.864V13.048ZM161.008 42.392C158.619 42.392 156.827 41.776 155.632 40.544C154.475 39.312 153.896 37.688 153.896 35.672C153.896 33.992 154.325 32.6107 155.184 31.528C156.08 30.408 157.144 29.5493 158.376 28.952C159.645 28.3547 161.251 27.72 163.192 27.048C165.245 26.3387 166.739 25.704 167.672 25.144C168.643 24.5467 169.128 23.744 169.128 22.736V18.368C169.128 16.8 168.755 15.5867 168.008 14.728C167.299 13.832 166.179 13.384 164.648 13.384C162.856 13.384 161.493 13.832 160.56 14.728C161.605 15.1013 162.408 15.6613 162.968 16.408C163.565 17.1547 163.864 18.032 163.864 19.04C163.864 20.3093 163.435 21.3173 162.576 22.064C161.717 22.8107 160.672 23.184 159.44 23.184C158.133 23.184 157.125 22.7733 156.416 21.952C155.707 21.1307 155.352 20.104 155.352 18.872C155.352 17.8267 155.595 16.9493 156.08 16.24C156.603 15.4933 157.387 14.8027 158.432 14.168C159.44 13.5707 160.672 13.104 162.128 12.768C163.621 12.432 165.245 12.264 167 12.264C168.829 12.264 170.416 12.4507 171.76 12.824C173.104 13.1973 174.224 13.832 175.12 14.728C175.941 15.5493 176.483 16.5573 176.744 17.752C177.043 18.9467 177.192 20.5707 177.192 22.624V37.856C177.192 38.752 177.267 39.3867 177.416 39.76C177.603 40.1333 177.939 40.32 178.424 40.32C178.984 40.32 179.656 40.0027 180.44 39.368L181 40.32C179.32 41.7013 177.267 42.392 174.84 42.392C172.787 42.392 171.349 41.9813 170.528 41.16C169.707 40.3387 169.277 39.2373 169.24 37.856C167.373 40.88 164.629 42.392 161.008 42.392ZM165.32 38.808C166.776 38.808 168.045 38.0427 169.128 36.512V25.032C168.68 25.7787 167.728 26.6 166.272 27.496C164.816 28.4293 163.715 29.3627 162.968 30.296C162.221 31.2293 161.848 32.5733 161.848 34.328C161.848 35.8587 162.165 36.9973 162.8 37.744C163.435 38.4533 164.275 38.808 165.32 38.808ZM201.808 12.264C204.832 12.264 207.278 13.5147 209.144 16.016C211.011 18.48 211.944 22.064 211.944 26.768C211.944 32.256 210.75 36.3067 208.36 38.92C205.971 41.496 202.891 42.784 199.12 42.784C196.544 42.784 194.454 42.1307 192.848 40.824C191.504 40.712 190.16 40.8613 188.816 41.272C187.472 41.6827 186.408 42.224 185.624 42.896L184.784 42.392C185.046 41.4587 185.176 40.4133 185.176 39.256V4.928C185.176 3.21067 184.896 1.96 184.336 1.176C183.814 0.391997 182.899 -3.33786e-06 181.592 -3.33786e-06V-1.176C182.75 -1.064 183.907 -1.008 185.064 -1.008C188.312 -1.008 191.038 -1.26933 193.24 -1.792V17.584C194.024 15.8667 195.163 14.56 196.656 13.664C198.15 12.7307 199.867 12.264 201.808 12.264ZM197.384 41.608C199.438 41.608 200.968 40.4507 201.976 38.136C202.984 35.8213 203.488 32.2933 203.488 27.552C203.488 22.96 203.059 19.6747 202.2 17.696C201.342 15.68 200.11 14.672 198.504 14.672C197.31 14.672 196.208 15.12 195.2 16.016C194.23 16.8747 193.576 18.0507 193.24 19.544V40.096C194.472 41.104 195.854 41.608 197.384 41.608ZM226.29 36.792C226.29 38.3227 226.551 39.3867 227.074 39.984C227.597 40.544 228.53 40.824 229.874 40.824V42C225.991 41.8507 223.49 41.776 222.37 41.776C221.101 41.776 218.525 41.8507 214.642 42V40.824C215.949 40.824 216.863 40.544 217.386 39.984C217.946 39.3867 218.226 38.3227 218.226 36.792V4.872C218.226 3.15466 217.946 1.904 217.386 1.12C216.863 0.335998 215.949 -0.0560026 214.642 -0.0560026V-1.232C215.837 -1.12 216.994 -1.064 218.114 -1.064C221.362 -1.064 224.087 -1.32534 226.29 -1.848V36.792ZM248.174 38.192C251.235 38.192 253.699 36.6987 255.566 33.712L256.574 34.048C255.827 36.4747 254.483 38.5467 252.542 40.264C250.638 41.944 248.248 42.784 245.374 42.784C241.416 42.784 238.262 41.5333 235.91 39.032C233.595 36.4933 232.438 32.76 232.438 27.832C232.438 22.792 233.688 18.9467 236.19 16.296C238.691 13.608 242.014 12.264 246.158 12.264C253.176 12.264 256.686 16.408 256.686 24.696H240.95C240.912 25.256 240.894 26.1333 240.894 27.328C240.894 29.792 241.23 31.8453 241.902 33.488C242.611 35.1307 243.507 36.3253 244.59 37.072C245.71 37.8187 246.904 38.192 248.174 38.192ZM245.822 13.44C244.478 13.44 243.358 14.28 242.462 15.96C241.603 17.6027 241.062 20.16 240.838 23.632H249.63C249.704 20.6827 249.406 18.256 248.734 16.352C248.099 14.4107 247.128 13.44 245.822 13.44Z" fill="#FEC46E"/>
</svg>
