<svg width="249" height="41" viewBox="0 0 249 41" fill="none" xmlns="http://www.w3.org/2000/svg">
<path d="M12.0399 40.8241C10.8826 40.8241 9.85595 40.5254 8.95995 39.9281C8.10128 39.3308 7.69062 38.4348 7.72795 37.2401C7.80262 35.1494 7.95195 32.8348 8.17595 30.2961C8.43728 27.7574 8.73595 25.1814 9.07195 22.5681C9.40795 19.9174 9.74395 17.3788 10.0799 14.9521C10.4533 12.5254 10.7893 10.3601 11.0879 8.4561C10.4159 8.38143 9.76262 8.32543 9.12795 8.2881C8.49328 8.25076 7.91462 8.2321 7.39195 8.2321C5.82395 8.2321 4.40528 8.38143 3.13595 8.68009C1.90395 8.97876 0.858615 9.50143 -5.16176e-05 10.2481C-5.16176e-05 7.8961 0.186615 5.9921 0.559948 4.53609C0.970615 3.04276 1.69862 1.9601 2.74395 1.2881C3.82662 0.616096 5.39462 0.280096 7.44795 0.280096C8.94128 0.280096 10.6026 0.410762 12.4319 0.672094C14.2986 0.896096 16.1839 1.13876 18.0879 1.40009C19.9919 1.66143 21.7653 1.7921 23.4079 1.7921C24.7519 1.7921 25.9466 1.66143 26.992 1.40009C28.0746 1.13876 28.8959 0.672097 29.4559 9.63211e-05C30.2773 0.261429 30.912 0.840096 31.36 1.7361C31.8079 2.59476 32.0319 3.54676 32.0319 4.5921C32.0319 5.52543 31.8266 6.4401 31.416 7.3361C31.0053 8.19476 30.3519 8.92276 29.4559 9.5201C28.5599 10.0801 27.3466 10.3601 25.8159 10.3601C25.1066 10.3601 24.2293 10.3041 23.1839 10.1921C22.1759 10.0428 21.0933 9.89343 19.9359 9.7441C19.5253 11.9841 19.0959 14.6721 18.6479 17.8081C18.2373 20.9068 17.8826 24.2481 17.5839 27.8321C17.3226 31.4161 17.1546 35.0561 17.0799 38.7521C16.4079 39.4614 15.6053 39.9841 14.6719 40.3201C13.7759 40.6561 12.8986 40.8241 12.0399 40.8241ZM40.7596 10.6401C39.2663 10.6401 38.0343 10.1921 37.0636 9.2961C36.1303 8.36276 35.6636 7.20543 35.6636 5.82409C35.6636 4.33076 36.2236 3.04276 37.3436 1.96009C38.4636 0.877428 39.8263 0.336095 41.4316 0.336095C42.925 0.336095 44.1383 0.802763 45.0716 1.7361C46.0423 2.66943 46.5276 3.82676 46.5276 5.2081C46.5276 6.70143 45.9676 7.98943 44.8476 9.0721C43.7276 10.1174 42.365 10.6401 40.7596 10.6401ZM36.8396 40.8241C35.3836 40.8241 34.077 40.3201 32.9196 39.3121C31.7623 38.2668 31.1836 36.6054 31.1836 34.3281C31.1836 33.0214 31.3516 31.8081 31.6876 30.6881C32.061 29.5308 32.4716 28.4108 32.9196 27.3281C33.405 26.2454 33.8156 25.2001 34.1516 24.1921C34.525 23.1468 34.7116 22.1201 34.7116 21.1121C34.7116 20.2161 34.5623 19.5814 34.2636 19.2081C33.965 18.7974 33.6103 18.5921 33.1996 18.5921C32.565 18.5921 31.949 19.0028 31.3516 19.8241L30.9596 19.6001C31.109 18.1068 31.5756 16.8374 32.3596 15.7921C33.181 14.7094 34.1703 13.8694 35.3276 13.2721C36.5223 12.6748 37.6983 12.3761 38.8556 12.3761C40.2743 12.3761 41.5063 12.8428 42.5516 13.7761C43.597 14.6721 44.1196 16.1468 44.1196 18.2001C44.1196 19.4321 43.933 20.7388 43.5596 22.1201C43.2236 23.4641 42.813 24.8081 42.3276 26.1521C41.8796 27.4961 41.469 28.7468 41.0956 29.9041C40.7596 31.0614 40.5916 32.0508 40.5916 32.8721C40.5916 33.5814 40.7223 34.0854 40.9836 34.3841C41.2823 34.6828 41.5996 34.8321 41.9356 34.8321C42.2716 34.8321 42.589 34.7388 42.8876 34.5521C43.2236 34.3281 43.4663 34.0854 43.6156 33.8241L44.0076 33.9361C44.0076 35.3174 43.6343 36.5308 42.8876 37.5761C42.1783 38.5841 41.2823 39.3868 40.1996 39.9841C39.117 40.5441 37.997 40.8241 36.8396 40.8241ZM54.4906 40.8241C53.1466 40.8241 51.9332 40.2828 50.8506 39.2001C49.8052 38.0801 49.2826 36.5494 49.2826 34.6081C49.2826 33.6374 49.4132 32.5361 49.6746 31.3041C49.9359 30.0348 50.2159 28.7468 50.5146 27.4401C50.8506 26.1334 51.1492 24.9014 51.4106 23.7441C51.6719 22.5868 51.8026 21.6161 51.8026 20.8321C51.8026 20.1974 51.6532 19.6934 51.3546 19.3201C51.0559 18.9094 50.6639 18.7041 50.1786 18.7041C49.5439 18.7041 48.8532 19.0774 48.1066 19.8241L47.7706 19.6001C47.7332 19.0028 47.8639 18.2934 48.1626 17.4721C48.4612 16.6508 48.9466 15.8668 49.6186 15.1201C50.2906 14.3361 51.1679 13.6828 52.2506 13.1601C53.3332 12.6374 54.6212 12.3761 56.1146 12.3761C57.7946 12.3761 59.0452 12.9734 59.8666 14.1681C60.7252 15.3254 61.1546 16.7254 61.1546 18.3681C61.1546 18.5548 61.1546 18.7601 61.1546 18.9841C61.1546 19.1708 61.1359 19.3574 61.0986 19.5441C61.8079 18.3868 62.6292 17.2668 63.5626 16.1841C64.5332 15.1014 65.6159 14.2054 66.8106 13.4961C68.0426 12.7494 69.3679 12.3761 70.7866 12.3761C72.6159 12.3761 73.8852 12.9734 74.5946 14.1681C75.3039 15.3254 75.6586 16.6508 75.6586 18.1441C75.6586 18.4428 75.6399 18.7414 75.6026 19.0401C75.6026 19.3014 75.5839 19.5628 75.5466 19.8241C76.3306 18.6668 77.1892 17.5281 78.1226 16.4081C79.0932 15.2508 80.1946 14.2988 81.4266 13.5521C82.6586 12.7681 84.0772 12.3761 85.6826 12.3761C87.6612 12.3761 89.0052 12.9548 89.7146 14.1121C90.4612 15.2694 90.8346 16.6321 90.8346 18.2001C90.8346 19.5814 90.6666 21.1681 90.3306 22.9601C89.9946 24.7148 89.6586 26.4508 89.3226 28.1681C88.9866 29.8854 88.8186 31.3414 88.8186 32.5361C88.8186 33.2454 88.9119 33.8241 89.0986 34.2721C89.3226 34.7201 89.6772 34.9441 90.1626 34.9441C90.5732 34.9441 90.9466 34.8321 91.2826 34.6081C91.6559 34.3468 91.9172 34.0481 92.0666 33.7121L92.5146 33.8801C92.5146 35.2614 92.1226 36.4748 91.3386 37.5201C90.5546 38.5654 89.5652 39.3868 88.3706 39.9841C87.1759 40.5441 85.9812 40.8241 84.7866 40.8241C83.3306 40.8241 82.0426 40.3388 80.9226 39.3681C79.8399 38.3974 79.2986 36.7921 79.2986 34.5521C79.2986 33.1708 79.4666 31.6774 79.8026 30.0721C80.1759 28.4668 80.5306 26.9174 80.8666 25.4241C81.2399 23.8934 81.4266 22.6428 81.4266 21.6721C81.4266 20.2908 80.9412 19.6001 79.9706 19.6001C79.2612 19.6001 78.5519 19.8988 77.8426 20.4961C77.1706 21.0561 76.5546 21.8214 75.9946 22.7921C75.4719 23.7254 75.0426 24.7148 74.7066 25.7601C74.3706 26.8054 74.2026 27.8134 74.2026 28.7841C74.2026 29.6801 74.2959 30.6694 74.4826 31.7521C74.7066 32.7974 74.8186 33.8054 74.8186 34.7761C74.8186 36.7174 74.2772 38.2108 73.1946 39.2561C72.1119 40.3014 70.8426 40.8241 69.3866 40.8241C68.0426 40.8241 66.8292 40.3761 65.7466 39.4801C64.7012 38.5841 64.1786 37.2401 64.1786 35.4481C64.1786 34.6268 64.2906 33.6374 64.5146 32.4801C64.7386 31.2854 64.9812 30.0534 65.2426 28.7841C65.5412 27.4774 65.8026 26.2268 66.0266 25.0321C66.2506 23.8374 66.3626 22.7921 66.3626 21.8961C66.3626 21.1868 66.2506 20.6268 66.0266 20.2161C65.8399 19.8054 65.4479 19.6001 64.8506 19.6001C63.9919 19.6001 63.1706 20.0294 62.3866 20.8881C61.6026 21.7468 60.9306 22.7921 60.3706 24.0241C59.8106 25.2188 59.4372 26.3761 59.2506 27.4961C59.2132 27.7574 59.1759 27.9628 59.1386 28.1121C59.1386 28.2614 59.1386 28.3361 59.1386 28.3361C59.1386 29.4934 59.2692 30.5574 59.5306 31.5281C59.7919 32.4614 59.9226 33.4321 59.9226 34.4401C59.9226 36.2694 59.3626 37.8001 58.2426 39.0321C57.1599 40.2268 55.9092 40.8241 54.4906 40.8241ZM107.131 40.9921C104.406 40.9921 102.147 40.4508 100.355 39.3681C98.563 38.2481 97.219 36.7921 96.323 35.0001C95.427 33.1708 94.979 31.2108 94.979 29.1201C94.979 27.1414 95.3523 25.1628 96.099 23.1841C96.883 21.1681 98.003 19.3388 99.459 17.6961C100.952 16.0534 102.744 14.7281 104.835 13.7201C106.963 12.7121 109.352 12.2081 112.003 12.2081C115.288 12.2081 117.678 12.9548 119.171 14.4481C120.702 15.9041 121.467 17.6774 121.467 19.7681C121.467 21.5601 120.982 23.2214 120.011 24.7521C119.078 26.2454 117.827 27.4588 116.259 28.3921C114.691 29.2881 112.974 29.7361 111.107 29.7361C110.136 29.7361 109.147 29.5868 108.139 29.2881C107.131 28.9894 106.142 28.5228 105.171 27.8881C105.358 30.2028 106.03 31.8828 107.187 32.9281C108.344 33.9734 109.726 34.4961 111.331 34.4961C112.451 34.4961 113.571 34.2908 114.691 33.8801C115.811 33.4321 116.838 32.8721 117.771 32.2001C118.742 31.4908 119.488 30.7441 120.011 29.9601L120.403 30.2401C120.403 32.1814 119.992 33.8428 119.171 35.2241C118.387 36.5681 117.342 37.6694 116.035 38.5281C114.728 39.3868 113.291 40.0214 111.723 40.4321C110.192 40.8054 108.662 40.9921 107.131 40.9921ZM108.419 25.8721C109.614 25.8721 110.584 25.5361 111.331 24.8641C112.078 24.1548 112.638 23.3334 113.011 22.4001C113.384 21.4668 113.571 20.6454 113.571 19.9361C113.571 19.0774 113.328 18.3681 112.843 17.8081C112.358 17.2108 111.686 16.9121 110.827 16.9121C110.155 16.9121 109.408 17.1548 108.587 17.6401C107.803 18.1254 107.094 18.9654 106.459 20.1601C105.824 21.3174 105.414 22.9414 105.227 25.0321C106.422 25.5921 107.486 25.8721 108.419 25.8721ZM132.52 40.8241C131.325 40.8241 130.186 40.5628 129.104 40.0401C128.058 39.4801 127.2 38.6214 126.528 37.4641C125.893 36.3068 125.576 34.8321 125.576 33.0401C125.576 32.0694 125.669 30.8001 125.856 29.2321C126.042 27.6641 126.285 25.9468 126.584 24.0801C126.92 22.2134 127.256 20.3468 127.592 18.4801C126.845 18.5174 126.117 18.5921 125.408 18.7041C124.736 18.8161 124.064 18.9468 123.392 19.0961L123.28 18.7041C124.026 17.8081 124.81 17.0428 125.632 16.4081C126.453 15.7734 127.312 15.2508 128.208 14.8401C128.693 12.3761 129.104 10.2481 129.44 8.4561C129.776 6.62676 129.944 5.5441 129.944 5.2081C129.944 4.57343 130.429 4.05076 131.4 3.6401C132.408 3.22943 133.528 3.0241 134.76 3.0241C135.842 3.0241 136.85 3.22943 137.784 3.6401C138.754 4.05076 139.408 4.74143 139.744 5.7121C139.52 5.9361 139.202 6.7761 138.792 8.2321C138.381 9.65076 137.952 11.3868 137.504 13.4401C138.213 13.4774 138.941 13.5148 139.688 13.5521C140.434 13.5894 141.2 13.6454 141.984 13.7201C142.058 13.9441 142.114 14.1868 142.152 14.4481C142.189 14.7094 142.208 14.9894 142.208 15.2881C142.208 15.8481 142.114 16.4641 141.928 17.1361C141.778 17.7708 141.592 18.3494 141.368 18.8721C140.472 18.7974 139.632 18.7228 138.848 18.6481C138.064 18.5361 137.298 18.4614 136.552 18.4241C136.253 20.0294 135.973 21.6348 135.712 23.2401C135.488 24.8454 135.301 26.3014 135.152 27.6081C135.04 28.9148 134.984 29.9414 134.984 30.6881C134.984 32.2561 135.264 33.3014 135.824 33.8241C136.421 34.3468 137.13 34.6081 137.952 34.6081C138.698 34.6081 139.37 34.4588 139.968 34.1601C140.565 33.8614 140.994 33.5068 141.256 33.0961L141.816 33.2641C141.592 34.7948 140.994 36.1388 140.024 37.2961C139.053 38.4161 137.896 39.2934 136.552 39.9281C135.208 40.5254 133.864 40.8241 132.52 40.8241ZM164.42 40.8801C163.114 40.8801 161.975 40.4508 161.004 39.5921C160.034 38.7334 159.548 37.3334 159.548 35.3921C159.548 35.2054 159.548 35.0188 159.548 34.8321C159.548 34.6454 159.567 34.4588 159.604 34.2721C158.484 36.5121 157.215 38.1734 155.796 39.2561C154.415 40.3014 153.015 40.8241 151.596 40.8241C150.29 40.8241 149.058 40.3761 147.9 39.4801C146.743 38.5468 145.81 37.1841 145.1 35.3921C144.391 33.6001 144.036 31.4348 144.036 28.8961C144.036 26.2828 144.391 23.9494 145.1 21.8961C145.847 19.8428 146.818 18.1068 148.012 16.6881C149.207 15.2694 150.514 14.2054 151.932 13.4961C153.351 12.7494 154.732 12.3761 156.076 12.3761C157.57 12.3761 158.914 12.8428 160.108 13.7761C161.303 14.6721 162.124 16.1094 162.572 18.0881C162.684 17.4534 162.759 16.8748 162.796 16.3521C162.871 15.8294 162.908 15.4748 162.908 15.2881C162.946 14.2801 163.45 13.5334 164.42 13.0481C165.428 12.5628 166.53 12.3201 167.724 12.3201C168.77 12.3201 169.759 12.5254 170.692 12.9361C171.626 13.3468 172.26 14.0374 172.596 15.0081L172.708 15.3441C172.26 16.3521 171.812 17.5654 171.364 18.9841C170.916 20.4028 170.506 21.8961 170.132 23.4641C169.759 24.9948 169.46 26.5068 169.236 28.0001C169.012 29.4561 168.9 30.7441 168.9 31.8641C168.9 33.0961 169.031 33.9548 169.292 34.4401C169.554 34.8881 169.871 35.1121 170.244 35.1121C170.879 35.1121 171.458 34.6641 171.98 33.7681L172.428 33.9921C172.428 35.2614 172.018 36.4188 171.196 37.4641C170.375 38.5094 169.348 39.3494 168.116 39.9841C166.884 40.5814 165.652 40.8801 164.42 40.8801ZM155.292 33.7681C156.263 33.7681 157.327 32.9094 158.484 31.1921C159.679 29.4374 160.706 26.9361 161.564 23.6881C161.639 23.3521 161.714 23.0348 161.788 22.7361C161.863 22.4001 161.919 22.0828 161.956 21.7841C161.359 20.4028 160.724 19.4321 160.052 18.8721C159.418 18.2748 158.783 17.9761 158.148 17.9761C157.215 17.9761 156.338 18.4801 155.516 19.4881C154.732 20.4588 154.079 21.6908 153.556 23.1841C153.071 24.6774 152.828 26.1708 152.828 27.6641C152.828 29.7174 153.052 31.2481 153.5 32.2561C153.986 33.2641 154.583 33.7681 155.292 33.7681ZM190.483 40.8241C188.99 40.8241 187.627 40.5068 186.395 39.8721C185.163 39.2001 184.155 38.2294 183.371 36.9601C183.334 37.6694 183.072 38.3228 182.587 38.9201C182.102 39.5174 181.187 39.8161 179.843 39.8161C178.35 39.8161 177.248 39.4054 176.539 38.5841C175.83 37.7628 175.475 36.6801 175.475 35.3361C175.475 34.5148 175.587 33.3388 175.811 31.8081C176.035 30.2401 176.296 28.4854 176.595 26.5441C176.931 24.6028 177.248 22.5868 177.547 20.4961C177.883 18.4054 178.163 16.3708 178.387 14.3921C178.611 12.4134 178.723 10.6401 178.723 9.0721C178.723 8.02676 178.667 7.1121 178.555 6.32809C178.443 5.5441 178.238 4.9281 177.939 4.4801V4.1441C178.798 3.21076 179.694 2.5201 180.627 2.0721C181.56 1.58676 182.456 1.3441 183.315 1.3441C184.584 1.3441 185.667 1.8481 186.563 2.8561C187.459 3.8641 187.907 5.46943 187.907 7.6721C187.907 8.75476 187.795 10.2854 187.571 12.2641C187.347 14.2054 187.067 16.1468 186.731 18.0881C188.075 16.1841 189.494 14.7281 190.987 13.7201C192.518 12.7121 193.992 12.2081 195.411 12.2081C197.315 12.2081 198.939 13.1228 200.283 14.9521C201.627 16.7441 202.299 19.4694 202.299 23.1281C202.299 25.2934 202.038 27.4401 201.515 29.5681C201.03 31.6588 200.283 33.5628 199.275 35.2801C198.267 36.9601 197.016 38.3041 195.523 39.3121C194.067 40.3201 192.387 40.8241 190.483 40.8241ZM187.683 35.1681C188.878 35.1681 189.886 34.6454 190.707 33.6001C191.566 32.5548 192.2 31.2294 192.611 29.6241C193.059 27.9814 193.283 26.3014 193.283 24.5841C193.283 23.4641 193.19 22.4001 193.003 21.3921C192.816 20.3468 192.536 19.5068 192.163 18.8721C191.79 18.2001 191.304 17.8641 190.707 17.8641C189.662 17.8641 188.467 19.0961 187.123 21.5601C185.816 23.9868 184.79 27.4401 184.043 31.9201C184.715 34.0854 185.928 35.1681 187.683 35.1681ZM211.67 40.8241C210.662 40.8241 209.673 40.5814 208.702 40.0961C207.769 39.5734 207.004 38.7521 206.406 37.6321C205.809 36.5121 205.51 35.0748 205.51 33.3201C205.51 31.7521 205.716 29.9228 206.126 27.8321C206.574 25.7041 207.06 23.5014 207.582 21.2241C208.142 18.9468 208.628 16.7254 209.038 14.5601C209.449 12.3948 209.636 10.4721 209.598 8.7921C209.598 7.18676 209.412 6.0481 209.038 5.3761L208.982 5.2081C209.393 4.01343 210.121 3.0801 211.166 2.4081C212.212 1.7361 213.313 1.40009 214.47 1.40009C215.777 1.40009 216.934 1.9041 217.942 2.9121C218.988 3.88276 219.51 5.52543 219.51 7.8401C219.51 9.0721 219.361 10.5468 219.062 12.2641C218.764 13.9441 218.409 15.7548 217.998 17.6961C217.588 19.6001 217.158 21.4854 216.71 23.3521C216.3 25.2188 215.945 26.9361 215.646 28.5041C215.348 30.0721 215.198 31.3601 215.198 32.3681C215.198 33.4134 215.348 34.1414 215.646 34.5521C215.945 34.9254 216.281 35.1121 216.654 35.1121C217.065 35.1121 217.457 34.9628 217.83 34.6641C218.204 34.3281 218.446 34.0294 218.558 33.7681L219.006 33.8801C218.969 35.2241 218.577 36.4188 217.83 37.4641C217.121 38.5094 216.206 39.3308 215.086 39.9281C214.004 40.5254 212.865 40.8241 211.67 40.8241ZM233.951 40.9921C231.226 40.9921 228.967 40.4508 227.175 39.3681C225.383 38.2481 224.039 36.7921 223.143 35.0001C222.247 33.1708 221.799 31.2108 221.799 29.1201C221.799 27.1414 222.173 25.1628 222.919 23.1841C223.703 21.1681 224.823 19.3388 226.279 17.6961C227.773 16.0534 229.565 14.7281 231.655 13.7201C233.783 12.7121 236.173 12.2081 238.823 12.2081C242.109 12.2081 244.498 12.9548 245.991 14.4481C247.522 15.9041 248.287 17.6774 248.287 19.7681C248.287 21.5601 247.802 23.2214 246.831 24.7521C245.898 26.2454 244.647 27.4588 243.079 28.3921C241.511 29.2881 239.794 29.7361 237.927 29.7361C236.957 29.7361 235.967 29.5868 234.959 29.2881C233.951 28.9894 232.962 28.5228 231.991 27.8881C232.178 30.2028 232.85 31.8828 234.007 32.9281C235.165 33.9734 236.546 34.4961 238.151 34.4961C239.271 34.4961 240.391 34.2908 241.511 33.8801C242.631 33.4321 243.658 32.8721 244.591 32.2001C245.562 31.4908 246.309 30.7441 246.831 29.9601L247.223 30.2401C247.223 32.1814 246.813 33.8428 245.991 35.2241C245.207 36.5681 244.162 37.6694 242.855 38.5281C241.549 39.3868 240.111 40.0214 238.543 40.4321C237.013 40.8054 235.482 40.9921 233.951 40.9921ZM235.239 25.8721C236.434 25.8721 237.405 25.5361 238.151 24.8641C238.898 24.1548 239.458 23.3334 239.831 22.4001C240.205 21.4668 240.391 20.6454 240.391 19.9361C240.391 19.0774 240.149 18.3681 239.663 17.8081C239.178 17.2108 238.506 16.9121 237.647 16.9121C236.975 16.9121 236.229 17.1548 235.407 17.6401C234.623 18.1254 233.914 18.9654 233.279 20.1601C232.645 21.3174 232.234 22.9414 232.047 25.0321C233.242 25.5921 234.306 25.8721 235.239 25.8721Z" fill="#FEC46E"/>
</svg>
