<svg width="321" height="144" viewBox="0 0 321 144" fill="none" xmlns="http://www.w3.org/2000/svg">
<g filter="url(#filter0_d_2003_72)">
<path d="M78.0301 6.45999C80.2234 6.45999 82.0201 6.39 83.4201 6.25V7.65C82.2534 8.11666 81.1101 9.02666 79.9901 10.38C78.9168 11.6867 78.0068 13.5533 77.2601 15.98L64.9401 55.95C64.4268 55.9033 63.6101 55.88 62.4901 55.88C61.3701 55.88 60.5534 55.9033 60.0401 55.95L49.7501 24.73L39.3901 55.95C38.8768 55.9033 38.0601 55.88 36.9401 55.88C35.8201 55.88 35.0034 55.9033 34.4901 55.95L18.8101 12.13C18.2501 10.59 17.5734 9.47 16.7801 8.76999C15.9868 8.06999 15.1934 7.69666 14.4001 7.65V6.25C17.2001 6.39 20.6768 6.45999 24.8301 6.45999C28.7501 6.45999 31.6201 6.39 33.4401 6.25V7.65C31.8068 7.88333 30.9901 8.79333 30.9901 10.38C30.9901 11.1267 31.2001 12.1767 31.6201 13.53L41.8401 43.14L48.9101 22.28L45.3401 11.43C44.8734 10.0767 44.3134 9.14333 43.6601 8.63C43.0534 8.06999 42.3301 7.74333 41.4901 7.65V6.25C44.1034 6.39 47.4401 6.45999 51.5001 6.45999C56.0734 6.45999 59.4334 6.39 61.5801 6.25V7.65C59.9001 7.69666 58.6868 7.90666 57.9401 8.28C57.1934 8.60666 56.8201 9.25999 56.8201 10.24C56.8201 11.08 57.0534 12.1767 57.5201 13.53L67.1101 42.79L73.7601 21.65C74.8334 18.15 75.3701 15.4433 75.3701 13.53C75.3701 11.5233 74.8568 10.0767 73.8301 9.19C72.8501 8.25666 71.3568 7.74333 69.3501 7.65V6.25C72.5234 6.39 75.4168 6.45999 78.0301 6.45999ZM100.322 51.05C104.149 51.05 107.229 49.1833 109.562 45.45L110.822 45.87C109.889 48.9033 108.209 51.4933 105.782 53.64C103.402 55.74 100.416 56.79 96.8224 56.79C91.8757 56.79 87.9324 55.2267 84.9924 52.1C82.099 48.9267 80.6524 44.26 80.6524 38.1C80.6524 31.8 82.2157 26.9933 85.3424 23.68C88.469 20.32 92.6224 18.64 97.8024 18.64C106.576 18.64 110.962 23.82 110.962 34.18H91.2924C91.2457 34.88 91.2224 35.9767 91.2224 37.47C91.2224 40.55 91.6424 43.1167 92.4824 45.17C93.369 47.2233 94.489 48.7167 95.8424 49.65C97.2424 50.5833 98.7357 51.05 100.322 51.05ZM97.3824 20.11C95.7024 20.11 94.3024 21.16 93.1824 23.26C92.109 25.3133 91.4324 28.51 91.1524 32.85H102.142C102.236 29.1633 101.862 26.13 101.022 23.75C100.229 21.3233 99.0157 20.11 97.3824 20.11ZM149.456 48.11C149.456 50.2567 149.782 51.82 150.436 52.8C151.089 53.78 152.256 54.27 153.936 54.27V55.74C152.489 55.6 151.042 55.53 149.596 55.53C145.442 55.53 142.036 55.8567 139.376 56.51V50.49C137.789 54.69 134.756 56.79 130.276 56.79C125.889 56.79 122.389 55.2033 119.776 52.03C117.209 48.81 115.949 43.98 115.996 37.54C115.996 33.4333 116.649 29.98 117.956 27.18C119.309 24.3333 121.152 22.21 123.486 20.81C125.866 19.3633 128.572 18.64 131.606 18.64C135.012 18.64 137.602 19.5267 139.376 21.3V9.39999C139.376 7.25333 139.026 5.68999 138.326 4.71C137.672 3.72999 136.529 3.23999 134.896 3.23999V1.77C136.389 1.90999 137.836 1.97999 139.236 1.97999C143.296 1.97999 146.702 1.65333 149.456 0.999994V48.11ZM133.146 53.78C134.686 53.78 136.039 53.22 137.206 52.1C138.419 50.98 139.142 49.4633 139.376 47.55V23.05C138.209 21.4633 136.506 20.67 134.266 20.67C131.792 20.67 129.879 22.0933 128.526 24.94C127.172 27.7867 126.519 32.0333 126.566 37.68C126.519 43.3733 127.056 47.48 128.176 50C129.342 52.52 130.999 53.78 133.146 53.78ZM191.292 48.11C191.292 50.2567 191.618 51.82 192.272 52.8C192.925 53.78 194.092 54.27 195.772 54.27V55.74C194.325 55.6 192.878 55.53 191.432 55.53C187.278 55.53 183.872 55.8567 181.212 56.51V50.49C179.625 54.69 176.592 56.79 172.112 56.79C167.725 56.79 164.225 55.2033 161.612 52.03C159.045 48.81 157.785 43.98 157.832 37.54C157.832 33.4333 158.485 29.98 159.792 27.18C161.145 24.3333 162.988 22.21 165.322 20.81C167.702 19.3633 170.408 18.64 173.442 18.64C176.848 18.64 179.438 19.5267 181.212 21.3V9.39999C181.212 7.25333 180.862 5.68999 180.162 4.71C179.508 3.72999 178.365 3.23999 176.732 3.23999V1.77C178.225 1.90999 179.672 1.97999 181.072 1.97999C185.132 1.97999 188.538 1.65333 191.292 0.999994V48.11ZM174.982 53.78C176.522 53.78 177.875 53.22 179.042 52.1C180.255 50.98 180.978 49.4633 181.212 47.55V23.05C180.045 21.4633 178.342 20.67 176.102 20.67C173.628 20.67 171.715 22.0933 170.362 24.94C169.008 27.7867 168.355 32.0333 168.402 37.68C168.355 43.3733 168.892 47.48 170.012 50C171.178 52.52 172.835 53.78 174.982 53.78ZM207.788 1.56C209.748 1.56 211.288 2.05 212.408 3.03C213.574 3.96333 214.158 5.27 214.158 6.95C214.158 8.62999 213.574 9.95999 212.408 10.94C211.288 11.8733 209.748 12.34 207.788 12.34C205.828 12.34 204.264 11.8733 203.098 10.94C201.978 9.95999 201.418 8.62999 201.418 6.95C201.418 5.27 201.978 3.96333 203.098 3.03C204.264 2.05 205.828 1.56 207.788 1.56ZM213.248 49.3C213.248 51.2133 213.574 52.5433 214.228 53.29C214.928 53.99 216.094 54.34 217.728 54.34V55.81C213.061 55.6233 209.958 55.53 208.418 55.53C206.971 55.53 203.728 55.6233 198.688 55.81V54.34C200.368 54.34 201.534 53.99 202.188 53.29C202.841 52.5433 203.168 51.2133 203.168 49.3V27.25C203.168 25.1033 202.841 23.54 202.188 22.56C201.534 21.58 200.368 21.09 198.688 21.09V19.62C200.181 19.76 201.628 19.83 203.028 19.83C207.181 19.83 210.588 19.5033 213.248 18.85V49.3ZM246.808 18.64C250.354 18.64 252.921 19.55 254.508 21.37C255.301 22.2567 255.861 23.4 256.188 24.8C256.514 26.2 256.678 28.09 256.678 30.47V49.3C256.678 51.2133 257.004 52.5433 257.658 53.29C258.358 53.99 259.524 54.34 261.158 54.34V55.81C256.491 55.6233 253.411 55.53 251.918 55.53C250.518 55.53 247.484 55.6233 242.818 55.81V54.34C244.218 54.34 245.198 53.99 245.758 53.29C246.318 52.5433 246.598 51.2133 246.598 49.3V27.53C246.598 25.6167 246.271 24.17 245.618 23.19C245.011 22.21 243.891 21.72 242.258 21.72C240.344 21.72 238.711 22.5133 237.358 24.1C236.004 25.64 235.328 27.5533 235.328 29.84V49.3C235.328 51.2133 235.608 52.5433 236.168 53.29C236.728 53.99 237.708 54.34 239.108 54.34V55.81C234.814 55.6233 231.921 55.53 230.428 55.53C229.028 55.53 225.808 55.6233 220.768 55.81V54.34C222.448 54.34 223.614 53.99 224.268 53.29C224.921 52.5433 225.248 51.2133 225.248 49.3V27.25C225.248 25.1033 224.921 23.54 224.268 22.56C223.614 21.58 222.448 21.09 220.768 21.09V19.62C222.261 19.76 223.708 19.83 225.108 19.83C229.261 19.83 232.668 19.5033 235.328 18.85V25.15C237.428 20.81 241.254 18.64 246.808 18.64ZM296.467 26.34C295.534 26.34 294.741 26.0367 294.087 25.43C293.434 24.7767 293.107 23.8667 293.107 22.7C293.107 21.58 293.387 20.4367 293.947 19.27C292.827 19.7367 291.894 20.2733 291.147 20.88C290.447 21.44 289.841 22.1633 289.327 23.05C290.774 24.7767 291.497 27.0167 291.497 29.77C291.497 33.4567 290.214 36.2333 287.647 38.1C285.127 39.9667 281.767 40.9 277.567 40.9H276.307C274.394 42.02 273.437 43.2567 273.437 44.61C273.437 46.1033 274.371 46.85 276.237 46.85H283.867C287.974 46.85 291.241 47.62 293.667 49.16C296.141 50.6533 297.377 52.9633 297.377 56.09C297.377 58.47 296.607 60.6167 295.067 62.53C293.574 64.49 291.287 66.0533 288.207 67.22C285.127 68.3867 281.347 68.97 276.867 68.97C272.341 68.97 268.701 68.3867 265.947 67.22C263.241 66.1 261.887 64.4667 261.887 62.32C261.887 60.8733 262.541 59.5667 263.847 58.4C265.154 57.28 267.091 56.3933 269.657 55.74L270.287 56.86C268.607 58.26 267.767 59.87 267.767 61.69C267.767 63.65 268.654 65.1433 270.427 66.17C272.201 67.2433 274.651 67.78 277.777 67.78C281.044 67.78 283.681 67.1267 285.687 65.82C287.741 64.5133 288.767 62.67 288.767 60.29C288.767 58.75 288.184 57.5367 287.017 56.65C285.897 55.7633 283.914 55.32 281.067 55.32H276.727C273.741 55.32 271.407 54.83 269.727 53.85C268.047 52.8233 267.207 51.2833 267.207 49.23C267.207 47.5033 267.814 45.9633 269.027 44.61C270.241 43.2567 272.084 41.95 274.557 40.69C271.197 40.27 268.537 39.15 266.577 37.33C264.617 35.51 263.637 32.99 263.637 29.77C263.637 26.0833 264.897 23.3067 267.417 21.44C269.984 19.5733 273.367 18.64 277.567 18.64C282.234 18.64 285.804 19.7367 288.277 21.93C289.164 20.67 290.261 19.6667 291.567 18.92C292.874 18.1733 294.204 17.8 295.557 17.8C296.957 17.8 298.054 18.22 298.847 19.06C299.687 19.8533 300.107 20.9033 300.107 22.21C300.107 23.5167 299.734 24.5433 298.987 25.29C298.287 25.99 297.447 26.34 296.467 26.34ZM277.567 39.64C278.874 39.64 279.854 38.8933 280.507 37.4C281.207 35.9067 281.557 33.3633 281.557 29.77C281.557 26.1767 281.207 23.6333 280.507 22.14C279.854 20.6467 278.874 19.9 277.567 19.9C276.261 19.9 275.257 20.6467 274.557 22.14C273.904 23.6333 273.577 26.1767 273.577 29.77C273.577 33.3633 273.904 35.9067 274.557 37.4C275.257 38.8933 276.261 39.64 277.567 39.64ZM23.63 87.65C22.0433 87.7433 20.9 87.93 20.2 88.21C19.5 88.49 19.01 89.0267 18.73 89.82C18.4967 90.6133 18.38 91.8967 18.38 93.67V128.39C18.38 130.163 18.4967 131.447 18.73 132.24C19.01 133.033 19.5 133.57 20.2 133.85C20.9 134.13 22.0433 134.317 23.63 134.41V135.81C21.11 135.67 17.5867 135.6 13.06 135.6C8.06666 135.6 4.38 135.67 2 135.81V134.41C3.54 134.317 4.66 134.13 5.36 133.85C6.10666 133.57 6.59666 133.033 6.83 132.24C7.11 131.447 7.25 130.163 7.25 128.39V93.67C7.25 91.8967 7.11 90.6133 6.83 89.82C6.59666 89.0267 6.10666 88.49 5.36 88.21C4.66 87.93 3.54 87.7433 2 87.65V86.25C4.38 86.39 8.06666 86.46 13.06 86.46C17.5867 86.46 21.11 86.39 23.63 86.25V87.65ZM53.6584 98.64C57.205 98.64 59.7717 99.55 61.3584 101.37C62.1517 102.257 62.7117 103.4 63.0384 104.8C63.365 106.2 63.5284 108.09 63.5284 110.47V129.3C63.5284 131.213 63.855 132.543 64.5084 133.29C65.2084 133.99 66.375 134.34 68.0084 134.34V135.81C63.3417 135.623 60.2617 135.53 58.7684 135.53C57.3684 135.53 54.335 135.623 49.6684 135.81V134.34C51.0684 134.34 52.0484 133.99 52.6084 133.29C53.1684 132.543 53.4484 131.213 53.4484 129.3V107.53C53.4484 105.617 53.1217 104.17 52.4684 103.19C51.8617 102.21 50.7417 101.72 49.1084 101.72C47.195 101.72 45.5617 102.513 44.2084 104.1C42.855 105.64 42.1784 107.553 42.1784 109.84V129.3C42.1784 131.213 42.4584 132.543 43.0184 133.29C43.5784 133.99 44.5584 134.34 45.9584 134.34V135.81C41.665 135.623 38.7717 135.53 37.2784 135.53C35.8784 135.53 32.6584 135.623 27.6184 135.81V134.34C29.2984 134.34 30.465 133.99 31.1184 133.29C31.7717 132.543 32.0984 131.213 32.0984 129.3V107.25C32.0984 105.103 31.7717 103.54 31.1184 102.56C30.465 101.58 29.2984 101.09 27.6184 101.09V99.62C29.1117 99.76 30.5584 99.83 31.9584 99.83C36.1117 99.83 39.5184 99.5033 42.1784 98.85V105.15C44.2784 100.81 48.105 98.64 53.6584 98.64ZM98.2844 99.83C100.664 99.83 102.461 99.76 103.674 99.62V101.02C102.694 101.3 101.808 101.907 101.014 102.84C100.268 103.727 99.5444 105.127 98.8444 107.04L88.6245 135.95C88.1111 135.903 87.3411 135.88 86.3144 135.88C85.3344 135.88 84.5878 135.903 84.0744 135.95L71.6144 105.01C70.9611 103.423 70.2844 102.373 69.5844 101.86C68.9311 101.347 68.2544 101.09 67.5544 101.09V99.62C70.8211 99.8533 74.1344 99.97 77.4944 99.97C80.4344 99.97 83.4678 99.8533 86.5944 99.62V101.09C85.0078 101.09 83.8644 101.207 83.1644 101.44C82.5111 101.627 82.1844 102.187 82.1844 103.12C82.1844 103.493 82.3011 104.077 82.5344 104.87L90.5144 126.08L95.5545 112.22C96.3011 110.027 96.6744 108.137 96.6744 106.55C96.6744 103.143 94.9711 101.3 91.5644 101.02V99.62C93.7111 99.76 95.9511 99.83 98.2844 99.83ZM114.511 81.56C116.471 81.56 118.011 82.05 119.131 83.03C120.298 83.9633 120.881 85.27 120.881 86.95C120.881 88.63 120.298 89.96 119.131 90.94C118.011 91.8733 116.471 92.34 114.511 92.34C112.551 92.34 110.988 91.8733 109.821 90.94C108.701 89.96 108.141 88.63 108.141 86.95C108.141 85.27 108.701 83.9633 109.821 83.03C110.988 82.05 112.551 81.56 114.511 81.56ZM119.971 129.3C119.971 131.213 120.298 132.543 120.951 133.29C121.651 133.99 122.818 134.34 124.451 134.34V135.81C119.785 135.623 116.681 135.53 115.141 135.53C113.695 135.53 110.451 135.623 105.411 135.81V134.34C107.091 134.34 108.258 133.99 108.911 133.29C109.565 132.543 109.891 131.213 109.891 129.3V107.25C109.891 105.103 109.565 103.54 108.911 102.56C108.258 101.58 107.091 101.09 105.411 101.09V99.62C106.905 99.76 108.351 99.83 109.751 99.83C113.905 99.83 117.311 99.5033 119.971 98.85V129.3ZM141.701 99.62H149.961V101.02H141.701V129.3C141.701 130.7 141.935 131.703 142.401 132.31C142.915 132.87 143.708 133.15 144.781 133.15C146.788 133.15 148.375 131.75 149.541 128.95L150.731 129.58C148.958 134.387 145.761 136.79 141.141 136.79C138.061 136.79 135.728 135.997 134.141 134.41C133.161 133.43 132.485 132.217 132.111 130.77C131.785 129.277 131.621 127.247 131.621 124.68V101.02H125.741V99.62H131.621V90.38C135.495 90.38 138.855 89.6333 141.701 88.14V99.62ZM161.341 136.3C158.354 136.3 156.114 135.53 154.621 133.99C153.174 132.45 152.451 130.42 152.451 127.9C152.451 125.8 152.987 124.073 154.061 122.72C155.181 121.32 156.511 120.247 158.051 119.5C159.637 118.753 161.644 117.96 164.071 117.12C166.637 116.233 168.504 115.44 169.671 114.74C170.884 113.993 171.491 112.99 171.491 111.73V106.27C171.491 104.31 171.024 102.793 170.091 101.72C169.204 100.6 167.804 100.04 165.891 100.04C163.651 100.04 161.947 100.6 160.781 101.72C162.087 102.187 163.091 102.887 163.791 103.82C164.537 104.753 164.911 105.85 164.911 107.11C164.911 108.697 164.374 109.957 163.301 110.89C162.227 111.823 160.921 112.29 159.381 112.29C157.747 112.29 156.487 111.777 155.601 110.75C154.714 109.723 154.271 108.44 154.271 106.9C154.271 105.593 154.574 104.497 155.181 103.61C155.834 102.677 156.814 101.813 158.121 101.02C159.381 100.273 160.921 99.69 162.741 99.27C164.607 98.85 166.637 98.64 168.831 98.64C171.117 98.64 173.101 98.8733 174.781 99.34C176.461 99.8067 177.861 100.6 178.981 101.72C180.007 102.747 180.684 104.007 181.011 105.5C181.384 106.993 181.571 109.023 181.571 111.59V130.63C181.571 131.75 181.664 132.543 181.851 133.01C182.084 133.477 182.504 133.71 183.111 133.71C183.811 133.71 184.651 133.313 185.631 132.52L186.331 133.71C184.231 135.437 181.664 136.3 178.631 136.3C176.064 136.3 174.267 135.787 173.241 134.76C172.214 133.733 171.677 132.357 171.631 130.63C169.297 134.41 165.867 136.3 161.341 136.3ZM166.731 131.82C168.551 131.82 170.137 130.863 171.491 128.95V114.6C170.931 115.533 169.741 116.56 167.921 117.68C166.101 118.847 164.724 120.013 163.791 121.18C162.857 122.347 162.391 124.027 162.391 126.22C162.391 128.133 162.787 129.557 163.581 130.49C164.374 131.377 165.424 131.82 166.731 131.82ZM202.541 99.62H210.801V101.02H202.541V129.3C202.541 130.7 202.775 131.703 203.241 132.31C203.755 132.87 204.548 133.15 205.621 133.15C207.628 133.15 209.215 131.75 210.381 128.95L211.571 129.58C209.798 134.387 206.601 136.79 201.981 136.79C198.901 136.79 196.568 135.997 194.981 134.41C194.001 133.43 193.325 132.217 192.951 130.77C192.625 129.277 192.461 127.247 192.461 124.68V101.02H186.581V99.62H192.461V90.38C196.335 90.38 199.695 89.6333 202.541 88.14V99.62ZM222.041 81.56C224.001 81.56 225.541 82.05 226.661 83.03C227.827 83.9633 228.411 85.27 228.411 86.95C228.411 88.63 227.827 89.96 226.661 90.94C225.541 91.8733 224.001 92.34 222.041 92.34C220.081 92.34 218.517 91.8733 217.351 90.94C216.231 89.96 215.671 88.63 215.671 86.95C215.671 85.27 216.231 83.9633 217.351 83.03C218.517 82.05 220.081 81.56 222.041 81.56ZM227.501 129.3C227.501 131.213 227.827 132.543 228.481 133.29C229.181 133.99 230.347 134.34 231.981 134.34V135.81C227.314 135.623 224.211 135.53 222.671 135.53C221.224 135.53 217.981 135.623 212.941 135.81V134.34C214.621 134.34 215.787 133.99 216.441 133.29C217.094 132.543 217.421 131.213 217.421 129.3V107.25C217.421 105.103 217.094 103.54 216.441 102.56C215.787 101.58 214.621 101.09 212.941 101.09V99.62C214.434 99.76 215.881 99.83 217.281 99.83C221.434 99.83 224.841 99.5033 227.501 98.85V129.3ZM253.081 98.64C258.447 98.64 262.647 100.18 265.681 103.26C268.714 106.293 270.231 111.123 270.231 117.75C270.231 124.377 268.714 129.207 265.681 132.24C262.647 135.273 258.447 136.79 253.081 136.79C247.761 136.79 243.561 135.273 240.481 132.24C237.447 129.207 235.931 124.377 235.931 117.75C235.931 111.123 237.447 106.293 240.481 103.26C243.561 100.18 247.761 98.64 253.081 98.64ZM253.081 100.04C251.074 100.04 249.464 101.51 248.251 104.45C247.084 107.343 246.501 111.777 246.501 117.75C246.501 123.723 247.084 128.157 248.251 131.05C249.464 133.943 251.074 135.39 253.081 135.39C255.134 135.39 256.744 133.967 257.911 131.12C259.077 128.227 259.661 123.77 259.661 117.75C259.661 111.73 259.054 107.273 257.841 104.38C256.674 101.487 255.087 100.04 253.081 100.04ZM300.641 98.64C304.187 98.64 306.754 99.55 308.341 101.37C309.134 102.257 309.694 103.4 310.021 104.8C310.347 106.2 310.511 108.09 310.511 110.47V129.3C310.511 131.213 310.837 132.543 311.491 133.29C312.191 133.99 313.357 134.34 314.991 134.34V135.81C310.324 135.623 307.244 135.53 305.751 135.53C304.351 135.53 301.317 135.623 296.651 135.81V134.34C298.051 134.34 299.031 133.99 299.591 133.29C300.151 132.543 300.431 131.213 300.431 129.3V107.53C300.431 105.617 300.104 104.17 299.451 103.19C298.844 102.21 297.724 101.72 296.091 101.72C294.177 101.72 292.544 102.513 291.191 104.1C289.837 105.64 289.161 107.553 289.161 109.84V129.3C289.161 131.213 289.441 132.543 290.001 133.29C290.561 133.99 291.541 134.34 292.941 134.34V135.81C288.647 135.623 285.754 135.53 284.261 135.53C282.861 135.53 279.641 135.623 274.601 135.81V134.34C276.281 134.34 277.447 133.99 278.101 133.29C278.754 132.543 279.081 131.213 279.081 129.3V107.25C279.081 105.103 278.754 103.54 278.101 102.56C277.447 101.58 276.281 101.09 274.601 101.09V99.62C276.094 99.76 277.541 99.83 278.941 99.83C283.094 99.83 286.501 99.5033 289.161 98.85V105.15C291.261 100.81 295.087 98.64 300.641 98.64Z" fill="white"/>
</g>
<defs>
<filter id="filter0_d_2003_72" x="0" y="0" width="320.991" height="143.79" filterUnits="userSpaceOnUse" color-interpolation-filters="sRGB">
<feFlood flood-opacity="0" result="BackgroundImageFix"/>
<feColorMatrix in="SourceAlpha" type="matrix" values="0 0 0 0 0 0 0 0 0 0 0 0 0 0 0 0 0 0 127 0" result="hardAlpha"/>
<feOffset dx="2" dy="3"/>
<feGaussianBlur stdDeviation="2"/>
<feComposite in2="hardAlpha" operator="out"/>
<feColorMatrix type="matrix" values="0 0 0 0 0 0 0 0 0 0.0985577 0 0 0 0 0.0180689 0 0 0 0.2 0"/>
<feBlend mode="normal" in2="BackgroundImageFix" result="effect1_dropShadow_2003_72"/>
<feBlend mode="normal" in="SourceGraphic" in2="effect1_dropShadow_2003_72" result="shape"/>
</filter>
</defs>
</svg>
