<svg width="314" height="132" viewBox="0 0 314 132" fill="none" xmlns="http://www.w3.org/2000/svg">
<path d="M27.7594 51.03C25.1927 51.03 23.0461 49.9567 21.3194 47.81C19.5927 45.6633 18.7294 42.7233 18.7294 38.99C18.7294 37.0767 18.9394 34.93 19.3594 32.55C19.7794 30.1233 20.2694 27.6733 20.8294 25.2C21.3894 22.7267 21.8794 20.4167 22.2994 18.27C22.7194 16.0767 22.9294 14.2567 22.9294 12.81C22.9294 11.7833 22.7894 10.99 22.5094 10.43C22.2294 9.82332 21.7161 9.51999 20.9694 9.51999C20.4094 9.51999 19.7561 9.77666 19.0094 10.29C18.2627 10.8033 17.7027 11.8067 17.3294 13.3L16.6294 13.02C16.6294 9.00666 17.5394 5.83332 19.3594 3.49999C21.2261 1.16666 23.7227 -9.89437e-06 26.8494 -9.89437e-06C29.7894 -9.89437e-06 31.8194 0.956657 32.9394 2.86999C34.1061 4.78332 34.6894 7.18666 34.6894 10.08C34.6894 12.2267 34.4561 14.5133 33.9894 16.94C33.5694 19.3667 33.0794 21.7933 32.5194 24.22C31.9594 26.6 31.4461 28.8167 30.9794 30.87C30.5594 32.9233 30.3494 34.6267 30.3494 35.98C30.3494 37.9867 30.8627 38.99 31.8894 38.99C32.4961 38.99 33.3127 38.57 34.3394 37.73C35.3661 36.8433 36.4394 35.6533 37.5594 34.16C38.7261 32.62 39.8461 30.8933 40.9194 28.98C41.9927 27.02 42.9027 24.9667 43.6494 22.82C43.5561 21.7933 43.4861 20.8133 43.4394 19.88C43.3927 18.9 43.3694 18.0367 43.3694 17.29C43.3694 13.5567 43.7194 10.5467 44.4194 8.25999C45.1661 5.97332 46.0994 4.29332 47.2194 3.21999C48.3394 2.14666 49.4827 1.60999 50.6494 1.60999C52.2827 1.60999 53.7527 2.51999 55.0594 4.33999C56.3661 6.11332 57.0194 8.53999 57.0194 11.62C57.0194 13.5333 56.6694 15.68 55.9694 18.06C55.2694 20.3933 54.1027 22.89 52.4694 25.55C52.3294 29.5633 52.7727 32.8067 53.7994 35.28C54.8261 37.7533 56.1094 38.99 57.6494 38.99C58.6294 38.99 59.6794 38.5 60.7994 37.52C61.9661 36.4933 63.0394 35.0933 64.0194 33.32C64.9994 31.5 65.7927 29.4 66.3994 27.02C67.0527 24.64 67.3794 22.0967 67.3794 19.39C67.3794 17.8033 67.2627 16.1467 67.0294 14.42C66.8427 12.6933 66.5861 11.0367 66.2594 9.44999C65.9794 7.86332 65.6761 6.55666 65.3494 5.52999C65.3494 4.73666 65.6761 3.94332 66.3294 3.14999C67.0294 2.30999 67.9161 1.60999 68.9894 1.04999C70.0627 0.443322 71.1594 0.139988 72.2794 0.139988C73.3994 0.139988 74.4727 0.536655 75.4994 1.32999C76.5261 2.12332 77.3661 3.52332 78.0194 5.52999C78.6727 7.48999 78.9994 10.29 78.9994 13.93C78.9994 19.0167 78.3461 23.8 77.0394 28.28C75.7327 32.7133 73.9594 36.6333 71.7194 40.04C69.5261 43.4467 67.0994 46.13 64.4394 48.09C61.7794 50.0033 59.0727 50.96 56.3194 50.96C53.8927 50.96 51.8861 50.2133 50.2994 48.72C48.7127 47.2267 47.4761 45.22 46.5894 42.7C45.7027 40.18 45.0727 37.38 44.6994 34.3C43.0194 38.3133 41.1994 41.5567 39.2394 44.03C37.2794 46.4567 35.3194 48.23 33.3594 49.35C31.3994 50.47 29.5327 51.03 27.7594 51.03ZM95.7141 51.17C92.3074 51.17 89.4841 50.4933 87.2441 49.14C85.0041 47.74 83.3241 45.92 82.2041 43.68C81.0841 41.3933 80.5241 38.9433 80.5241 36.33C80.5241 33.8567 80.9908 31.3833 81.9241 28.91C82.9041 26.39 84.3041 24.1033 86.1241 22.05C87.9908 19.9967 90.2308 18.34 92.8441 17.08C95.5041 15.82 98.4908 15.19 101.804 15.19C105.911 15.19 108.897 16.1233 110.764 17.99C112.677 19.81 113.634 22.0267 113.634 24.64C113.634 26.88 113.027 28.9567 111.814 30.87C110.647 32.7367 109.084 34.2533 107.124 35.42C105.164 36.54 103.017 37.1 100.684 37.1C99.4708 37.1 98.2341 36.9133 96.9741 36.54C95.7141 36.1667 94.4774 35.5833 93.2641 34.79C93.4974 37.6833 94.3374 39.7833 95.7841 41.09C97.2308 42.3967 98.9574 43.05 100.964 43.05C102.364 43.05 103.764 42.7933 105.164 42.28C106.564 41.72 107.847 41.02 109.014 40.18C110.227 39.2933 111.161 38.36 111.814 37.38L112.304 37.73C112.304 40.1567 111.791 42.2333 110.764 43.96C109.784 45.64 108.477 47.0167 106.844 48.09C105.211 49.1633 103.414 49.9567 101.454 50.47C99.5408 50.9367 97.6274 51.17 95.7141 51.17ZM97.3241 32.27C98.8174 32.27 100.031 31.85 100.964 31.01C101.897 30.1233 102.597 29.0967 103.064 27.93C103.531 26.7633 103.764 25.7367 103.764 24.85C103.764 23.7767 103.461 22.89 102.854 22.19C102.247 21.4433 101.407 21.07 100.334 21.07C99.4941 21.07 98.5608 21.3733 97.5341 21.98C96.5541 22.5867 95.6674 23.6367 94.8741 25.13C94.0808 26.5767 93.5674 28.6067 93.3341 31.22C94.8274 31.92 96.1574 32.27 97.3241 32.27ZM127.178 50.96C125.498 50.96 123.911 50.3767 122.418 49.21C120.971 48.0433 119.781 46.34 118.848 44.1C117.961 41.86 117.518 39.1533 117.518 35.98C117.518 32.7133 117.985 29.7967 118.918 27.23C119.851 24.6633 121.065 22.4933 122.558 20.72C124.098 18.9 125.755 17.5233 127.528 16.59C129.348 15.6567 131.121 15.19 132.848 15.19C134.761 15.19 136.465 15.7967 137.958 17.01C139.451 18.1767 140.478 20.02 141.038 22.54C141.458 20.2067 141.808 17.99 142.088 15.89C142.415 13.7433 142.578 11.8533 142.578 10.22C142.578 8.07333 142.298 6.50999 141.738 5.52999V5.10999C142.811 3.89666 143.978 3.00999 145.238 2.44999C146.545 1.84332 147.781 1.53999 148.948 1.53999C150.488 1.53999 151.795 2.02999 152.868 3.00999C153.941 3.94332 154.478 5.29666 154.478 7.06999C154.478 8.04999 154.315 9.49666 153.988 11.41C153.661 13.3233 153.265 15.5167 152.798 17.99C152.331 20.4167 151.841 22.9367 151.328 25.55C150.861 28.1167 150.465 30.59 150.138 32.97C149.811 35.3033 149.648 37.3333 149.648 39.06C149.648 40.5067 149.788 41.6733 150.068 42.56C150.395 43.4 150.908 43.82 151.608 43.82C152.121 43.82 152.635 43.6567 153.148 43.33C153.708 42.9567 154.081 42.5367 154.268 42.07L154.758 42.42C154.758 43.96 154.268 45.3833 153.288 46.69C152.308 47.95 151.071 48.9767 149.578 49.77C148.085 50.5633 146.545 50.96 144.958 50.96C143.231 50.96 141.855 50.4933 140.828 49.56C139.848 48.58 139.148 47.3433 138.728 45.85C138.308 44.3567 138.075 42.8167 138.028 41.23C136.581 44.59 134.878 47.0633 132.918 48.65C131.005 50.19 129.091 50.96 127.178 50.96ZM131.868 42.07C133.081 42.07 134.435 40.9733 135.928 38.78C137.421 36.5867 138.728 33.39 139.848 29.19L140.268 27.02C139.521 25.2933 138.705 24.08 137.818 23.38C136.978 22.6333 136.161 22.26 135.368 22.26C134.201 22.26 133.105 22.9133 132.078 24.22C131.051 25.48 130.211 27.1133 129.558 29.12C128.951 31.08 128.648 33.1567 128.648 35.35C128.648 37.45 128.951 39.1067 129.558 40.32C130.165 41.4867 130.935 42.07 131.868 42.07ZM167.578 50.96C165.898 50.96 164.312 50.3767 162.818 49.21C161.372 48.0433 160.182 46.34 159.248 44.1C158.362 41.86 157.918 39.1533 157.918 35.98C157.918 32.7133 158.385 29.7967 159.318 27.23C160.252 24.6633 161.465 22.4933 162.958 20.72C164.498 18.9 166.155 17.5233 167.928 16.59C169.748 15.6567 171.522 15.19 173.248 15.19C175.162 15.19 176.865 15.7967 178.358 17.01C179.852 18.1767 180.878 20.02 181.438 22.54C181.858 20.2067 182.208 17.99 182.488 15.89C182.815 13.7433 182.978 11.8533 182.978 10.22C182.978 8.07333 182.698 6.50999 182.138 5.52999V5.10999C183.212 3.89666 184.378 3.00999 185.638 2.44999C186.945 1.84332 188.182 1.53999 189.348 1.53999C190.888 1.53999 192.195 2.02999 193.268 3.00999C194.342 3.94332 194.878 5.29666 194.878 7.06999C194.878 8.04999 194.715 9.49666 194.388 11.41C194.062 13.3233 193.665 15.5167 193.198 17.99C192.732 20.4167 192.242 22.9367 191.728 25.55C191.262 28.1167 190.865 30.59 190.538 32.97C190.212 35.3033 190.048 37.3333 190.048 39.06C190.048 40.5067 190.188 41.6733 190.468 42.56C190.795 43.4 191.308 43.82 192.008 43.82C192.522 43.82 193.035 43.6567 193.548 43.33C194.108 42.9567 194.482 42.5367 194.668 42.07L195.158 42.42C195.158 43.96 194.668 45.3833 193.688 46.69C192.708 47.95 191.472 48.9767 189.978 49.77C188.485 50.5633 186.945 50.96 185.358 50.96C183.632 50.96 182.255 50.4933 181.228 49.56C180.248 48.58 179.548 47.3433 179.128 45.85C178.708 44.3567 178.475 42.8167 178.428 41.23C176.982 44.59 175.278 47.0633 173.318 48.65C171.405 50.19 169.492 50.96 167.578 50.96ZM172.268 42.07C173.482 42.07 174.835 40.9733 176.328 38.78C177.822 36.5867 179.128 33.39 180.248 29.19L180.668 27.02C179.922 25.2933 179.105 24.08 178.218 23.38C177.378 22.6333 176.562 22.26 175.768 22.26C174.602 22.26 173.505 22.9133 172.478 24.22C171.452 25.48 170.612 27.1133 169.958 29.12C169.352 31.08 169.048 33.1567 169.048 35.35C169.048 37.45 169.352 39.1067 169.958 40.32C170.565 41.4867 171.335 42.07 172.268 42.07ZM211.471 13.23C209.604 13.23 208.064 12.67 206.851 11.55C205.684 10.3833 205.101 8.93666 205.101 7.20999C205.101 5.34332 205.801 3.73332 207.201 2.37999C208.601 1.02666 210.304 0.34999 212.311 0.34999C214.177 0.34999 215.694 0.933324 216.861 2.09999C218.074 3.26666 218.681 4.71332 218.681 6.43999C218.681 8.30666 217.981 9.91666 216.581 11.27C215.181 12.5767 213.477 13.23 211.471 13.23ZM206.571 50.96C204.751 50.96 203.117 50.33 201.671 49.07C200.224 47.7633 199.501 45.6867 199.501 42.84C199.501 41.2067 199.711 39.69 200.131 38.29C200.597 36.8433 201.111 35.4433 201.671 34.09C202.277 32.7367 202.791 31.43 203.211 30.17C203.677 28.8633 203.911 27.58 203.911 26.32C203.911 25.2 203.724 24.4067 203.351 23.94C202.977 23.4267 202.534 23.17 202.021 23.17C201.227 23.17 200.457 23.6833 199.711 24.71L199.221 24.43C199.407 22.5633 199.991 20.9767 200.971 19.67C201.997 18.3167 203.234 17.2667 204.681 16.52C206.174 15.7733 207.644 15.4 209.091 15.4C210.864 15.4 212.404 15.9833 213.711 17.15C215.017 18.27 215.671 20.1133 215.671 22.68C215.671 24.22 215.437 25.8533 214.971 27.58C214.551 29.26 214.037 30.94 213.431 32.62C212.871 34.3 212.357 35.8633 211.891 37.31C211.471 38.7567 211.261 39.9933 211.261 41.02C211.261 41.9067 211.424 42.5367 211.751 42.91C212.124 43.2833 212.521 43.47 212.941 43.47C213.361 43.47 213.757 43.3533 214.131 43.12C214.551 42.84 214.854 42.5367 215.041 42.21L215.531 42.35C215.531 44.0767 215.064 45.5933 214.131 46.9C213.244 48.16 212.124 49.1633 210.771 49.91C209.417 50.61 208.017 50.96 206.571 50.96ZM229.059 50.89C227.332 50.89 225.769 50.2133 224.369 48.86C222.969 47.46 222.269 45.5233 222.269 43.05C222.269 41.8367 222.432 40.46 222.759 38.92C223.086 37.38 223.436 35.8167 223.809 34.23C224.229 32.6433 224.602 31.15 224.929 29.75C225.256 28.35 225.419 27.2067 225.419 26.32C225.419 25.3867 225.232 24.6633 224.859 24.15C224.486 23.59 223.996 23.31 223.389 23.31C222.596 23.31 221.732 23.7767 220.799 24.71L220.379 24.43C220.332 23.6833 220.496 22.7967 220.869 21.77C221.242 20.7433 221.802 19.7633 222.549 18.83C223.342 17.85 224.346 17.0333 225.559 16.38C226.772 15.7267 228.219 15.4 229.899 15.4C232.372 15.4 234.192 16.1233 235.359 17.57C236.572 18.97 237.179 20.6967 237.179 22.75C237.179 23.4967 237.109 24.22 236.969 24.92C237.949 23.4733 239.162 22.0267 240.609 20.58C242.056 19.0867 243.643 17.85 245.369 16.87C247.142 15.89 248.962 15.4 250.829 15.4C253.022 15.4 254.516 16.1 255.309 17.5C256.103 18.9 256.499 20.65 256.499 22.75C256.499 24.71 256.289 26.81 255.869 29.05C255.449 31.29 255.029 33.46 254.609 35.56C254.189 37.6133 253.979 39.34 253.979 40.74C253.979 42.6067 254.516 43.54 255.589 43.54C256.149 43.54 256.639 43.3767 257.059 43.05C257.479 42.6767 257.759 42.3267 257.899 42L258.389 42.21C258.389 43.9367 257.899 45.4533 256.919 46.76C255.986 48.0667 254.796 49.0933 253.349 49.84C251.903 50.54 250.433 50.89 248.939 50.89C247.119 50.89 245.509 50.26 244.109 49C242.709 47.74 242.009 45.6867 242.009 42.84C242.009 41.16 242.219 39.34 242.639 37.38C243.106 35.42 243.549 33.53 243.969 31.71C244.389 29.89 244.599 28.3967 244.599 27.23C244.599 26.53 244.459 25.9933 244.179 25.62C243.946 25.2 243.502 24.99 242.849 24.99C241.776 24.99 240.586 25.48 239.279 26.46C238.019 27.44 236.922 28.7467 235.989 30.38C235.102 32.0133 234.659 33.81 234.659 35.77C234.659 37.03 234.799 38.2433 235.079 39.41C235.406 40.5767 235.569 41.8367 235.569 43.19C235.569 45.71 234.916 47.6233 233.609 48.93C232.302 50.2367 230.786 50.89 229.059 50.89ZM278.963 64.68C276.676 64.68 274.786 64.0033 273.293 62.65C271.8 61.2967 271.053 59.3833 271.053 56.91C271.053 54.25 271.986 51.1233 273.853 47.53C273.526 47.6233 273.2 47.6933 272.873 47.74C272.546 47.7867 272.22 47.81 271.893 47.81C269.186 47.81 266.9 46.6433 265.033 44.31C263.213 41.93 262.303 38.64 262.303 34.44C262.303 30.66 263.026 27.3233 264.473 24.43C265.966 21.5367 267.856 19.2733 270.143 17.64C272.43 16.0067 274.81 15.19 277.283 15.19C279.01 15.19 280.573 15.6333 281.973 16.52C283.373 17.36 284.516 18.7367 285.403 20.65C285.45 20.1833 285.473 19.7633 285.473 19.39C285.473 19.0167 285.473 18.6667 285.473 18.34C285.473 17.5467 286.08 16.8933 287.293 16.38C288.506 15.8667 289.86 15.61 291.353 15.61C292.706 15.61 293.966 15.8667 295.133 16.38C296.3 16.8933 297.07 17.7567 297.443 18.97L297.583 19.39C297.163 19.7633 296.79 20.9767 296.463 23.03C296.183 25.0833 295.833 27.93 295.413 31.57C295.133 33.8567 294.783 36.47 294.363 39.41C293.943 42.3033 293.36 45.2433 292.613 48.23C291.913 51.17 290.98 53.8767 289.813 56.35C288.646 58.87 287.176 60.8767 285.403 62.37C283.63 63.91 281.483 64.68 278.963 64.68ZM276.653 39.76C278.006 39.76 279.5 38.6633 281.133 36.47C282.813 34.23 284.143 31.0333 285.123 26.88C284.283 25.06 283.42 23.7767 282.533 23.03C281.693 22.2367 280.83 21.84 279.943 21.84C278.776 21.84 277.68 22.4233 276.653 23.59C275.626 24.7567 274.786 26.25 274.133 28.07C273.526 29.8433 273.223 31.6867 273.223 33.6C273.223 35.56 273.55 37.0767 274.203 38.15C274.856 39.2233 275.673 39.76 276.653 39.76ZM275.813 56.63C277.4 56.63 279.01 55.0667 280.643 51.94C282.323 48.86 283.49 44.4967 284.143 38.85C280.596 43.6567 278.123 47.3667 276.723 49.98C275.37 52.5467 274.693 54.3667 274.693 55.44C274.693 56.2333 275.066 56.63 275.813 56.63ZM4.97002 131.03C3.66336 131.03 2.49669 130.493 1.47002 129.42C0.490025 128.3 2.44975e-05 126.247 2.44975e-05 123.26C2.44975e-05 122.747 2.44975e-05 122.303 2.44975e-05 121.93C0.0466912 121.51 0.0700245 121.207 0.0700245 121.02C0.256691 119.153 0.513358 116.843 0.840025 114.09C1.21336 111.29 1.63336 108.373 2.10002 105.34C2.56669 102.26 3.03336 99.2967 3.50002 96.45C4.01336 93.6033 4.48002 91.13 4.90002 89.03C5.32002 86.8833 5.67002 85.4133 5.95002 84.62C6.46336 83.22 7.37336 82.1233 8.68003 81.33C10.0334 80.49 11.41 80.07 12.81 80.07C14.0234 80.07 15.12 80.42 16.1 81.12C17.1267 81.82 17.8267 83.01 18.2 84.69C17.92 85.6233 17.4767 87.28 16.87 89.66C16.2634 91.9933 15.61 94.8633 14.91 98.27C14.21 101.677 13.5334 105.433 12.88 109.54C12.2734 113.647 11.7834 117.94 11.41 122.42C11.3634 123.213 11.2934 124.147 11.2 125.22C11.1067 126.247 11.0367 127.297 10.99 128.37C10.43 128.977 9.59003 129.583 8.47002 130.19C7.35002 130.75 6.18336 131.03 4.97002 131.03ZM30.1334 130.89C28.4067 130.89 26.8434 130.213 25.4434 128.86C24.0434 127.46 23.3434 125.523 23.3434 123.05C23.3434 121.837 23.5067 120.46 23.8334 118.92C24.1601 117.38 24.5101 115.817 24.8834 114.23C25.3034 112.643 25.6767 111.15 26.0034 109.75C26.3301 108.35 26.4934 107.207 26.4934 106.32C26.4934 105.387 26.3067 104.663 25.9334 104.15C25.5601 103.59 25.0701 103.31 24.4634 103.31C23.6701 103.31 22.8067 103.777 21.8734 104.71L21.4534 104.43C21.4067 103.683 21.5701 102.797 21.9434 101.77C22.3167 100.743 22.8767 99.7633 23.6234 98.83C24.4167 97.85 25.4201 97.0333 26.6334 96.38C27.8467 95.7267 29.2934 95.4 30.9734 95.4C33.4467 95.4 35.2667 96.1233 36.4334 97.57C37.6467 98.97 38.2534 100.697 38.2534 102.75C38.2534 103.497 38.1834 104.22 38.0434 104.92C39.0234 103.473 40.2367 102.027 41.6834 100.58C43.1301 99.0867 44.7167 97.85 46.4434 96.87C48.2167 95.89 50.0367 95.4 51.9034 95.4C54.0967 95.4 55.5901 96.1 56.3834 97.5C57.1767 98.9 57.5734 100.65 57.5734 102.75C57.5734 104.71 57.3634 106.81 56.9434 109.05C56.5234 111.29 56.1034 113.46 55.6834 115.56C55.2634 117.613 55.0534 119.34 55.0534 120.74C55.0534 122.607 55.5901 123.54 56.6634 123.54C57.2234 123.54 57.7134 123.377 58.1334 123.05C58.5534 122.677 58.8334 122.327 58.9734 122L59.4634 122.21C59.4634 123.937 58.9734 125.453 57.9934 126.76C57.0601 128.067 55.8701 129.093 54.4234 129.84C52.9767 130.54 51.5067 130.89 50.0134 130.89C48.1934 130.89 46.5834 130.26 45.1834 129C43.7834 127.74 43.0834 125.687 43.0834 122.84C43.0834 121.16 43.2934 119.34 43.7134 117.38C44.1801 115.42 44.6234 113.53 45.0434 111.71C45.4634 109.89 45.6734 108.397 45.6734 107.23C45.6734 106.53 45.5334 105.993 45.2534 105.62C45.0201 105.2 44.5767 104.99 43.9234 104.99C42.8501 104.99 41.6601 105.48 40.3534 106.46C39.0934 107.44 37.9967 108.747 37.0634 110.38C36.1767 112.013 35.7334 113.81 35.7334 115.77C35.7334 117.03 35.8734 118.243 36.1534 119.41C36.4801 120.577 36.6434 121.837 36.6434 123.19C36.6434 125.71 35.9901 127.623 34.6834 128.93C33.3767 130.237 31.8601 130.89 30.1334 130.89ZM73.3206 130.96C70.614 130.96 68.4673 130.26 66.8806 128.86C65.294 127.413 64.5006 125.197 64.5006 122.21C64.5006 120.483 64.7106 118.64 65.1306 116.68C65.5973 114.72 66.0406 112.97 66.4606 111.43C66.8806 109.937 67.2073 108.63 67.4406 107.51C67.7206 106.39 67.8606 105.527 67.8606 104.92C67.8606 104.173 67.6973 103.637 67.3706 103.31C67.044 102.983 66.6473 102.82 66.1806 102.82C65.0606 102.82 64.1273 103.357 63.3806 104.43L63.1006 104.15C63.1473 102.563 63.6606 101.117 64.6406 99.81C65.6206 98.4567 66.8806 97.3833 68.4206 96.59C69.9606 95.7967 71.524 95.4 73.1107 95.4C74.884 95.4 76.4007 95.9367 77.6607 97.01C78.9206 98.0367 79.504 99.67 79.4106 101.91C79.364 102.89 79.1773 104.127 78.8507 105.62C78.5706 107.113 78.174 108.887 77.6607 110.94C77.334 112.247 76.984 113.74 76.6107 115.42C76.284 117.053 76.1207 118.547 76.1207 119.9C76.1207 120.927 76.284 121.743 76.6107 122.35C76.9373 122.957 77.474 123.26 78.2207 123.26C79.2007 123.26 80.274 122.723 81.4407 121.65C82.654 120.53 83.704 118.733 84.5906 116.26C85.4773 113.74 85.9907 110.403 86.1307 106.25C86.2707 103.077 86.0607 100.767 85.5007 99.32V98.97C85.9207 98.3167 86.5507 97.6867 87.3907 97.08C88.2773 96.4733 89.2573 95.9833 90.3307 95.61C91.404 95.19 92.4073 94.98 93.3407 94.98C94.834 94.98 96.094 95.7033 97.1207 97.15C98.194 98.5967 98.6607 101.117 98.5207 104.71C98.4273 108.163 97.7973 111.29 96.6307 114.09C95.5107 116.89 94.0407 119.34 92.2207 121.44C90.4007 123.54 88.394 125.29 86.2006 126.69C84.054 128.09 81.8607 129.163 79.6207 129.91C77.3807 130.61 75.2807 130.96 73.3206 130.96ZM114.879 93.23C113.012 93.23 111.472 92.67 110.259 91.55C109.092 90.3833 108.509 88.9367 108.509 87.21C108.509 85.3433 109.209 83.7333 110.609 82.38C112.009 81.0267 113.712 80.35 115.719 80.35C117.585 80.35 119.102 80.9333 120.269 82.1C121.482 83.2667 122.089 84.7133 122.089 86.44C122.089 88.3067 121.389 89.9167 119.989 91.27C118.589 92.5767 116.885 93.23 114.879 93.23ZM109.979 130.96C108.159 130.96 106.525 130.33 105.079 129.07C103.632 127.763 102.909 125.687 102.909 122.84C102.909 121.207 103.119 119.69 103.539 118.29C104.005 116.843 104.519 115.443 105.079 114.09C105.685 112.737 106.199 111.43 106.619 110.17C107.085 108.863 107.319 107.58 107.319 106.32C107.319 105.2 107.132 104.407 106.759 103.94C106.385 103.427 105.942 103.17 105.429 103.17C104.635 103.17 103.865 103.683 103.119 104.71L102.629 104.43C102.815 102.563 103.399 100.977 104.379 99.67C105.405 98.3167 106.642 97.2667 108.089 96.52C109.582 95.7733 111.052 95.4 112.499 95.4C114.272 95.4 115.812 95.9833 117.119 97.15C118.425 98.27 119.079 100.113 119.079 102.68C119.079 104.22 118.845 105.853 118.379 107.58C117.959 109.26 117.445 110.94 116.839 112.62C116.279 114.3 115.765 115.863 115.299 117.31C114.879 118.757 114.669 119.993 114.669 121.02C114.669 121.907 114.832 122.537 115.159 122.91C115.532 123.283 115.929 123.47 116.349 123.47C116.769 123.47 117.165 123.353 117.539 123.12C117.959 122.84 118.262 122.537 118.449 122.21L118.939 122.35C118.939 124.077 118.472 125.593 117.539 126.9C116.652 128.16 115.532 129.163 114.179 129.91C112.825 130.61 111.425 130.96 109.979 130.96ZM134.422 130.96C132.929 130.96 131.506 130.633 130.152 129.98C128.846 129.28 127.772 128.207 126.932 126.76C126.139 125.313 125.742 123.47 125.742 121.23C125.742 120.017 125.859 118.43 126.092 116.47C126.326 114.51 126.629 112.363 127.002 110.03C127.422 107.697 127.842 105.363 128.262 103.03C127.329 103.077 126.419 103.17 125.532 103.31C124.692 103.45 123.852 103.613 123.012 103.8L122.872 103.31C123.806 102.19 124.786 101.233 125.812 100.44C126.839 99.6467 127.912 98.9933 129.032 98.48C129.639 95.4 130.152 92.74 130.572 90.5C130.992 88.2133 131.202 86.86 131.202 86.44C131.202 85.6467 131.809 84.9933 133.022 84.48C134.282 83.9667 135.682 83.71 137.222 83.71C138.576 83.71 139.836 83.9667 141.002 84.48C142.216 84.9933 143.032 85.8567 143.452 87.07C143.172 87.35 142.776 88.4 142.262 90.22C141.749 91.9933 141.212 94.1633 140.652 96.73C141.539 96.7767 142.449 96.8233 143.382 96.87C144.316 96.9167 145.272 96.9867 146.252 97.08C146.346 97.36 146.416 97.6633 146.462 97.99C146.509 98.3167 146.532 98.6667 146.532 99.04C146.532 99.74 146.416 100.51 146.182 101.35C145.996 102.143 145.762 102.867 145.482 103.52C144.362 103.427 143.312 103.333 142.332 103.24C141.352 103.1 140.396 103.007 139.462 102.96C139.089 104.967 138.739 106.973 138.412 108.98C138.132 110.987 137.899 112.807 137.712 114.44C137.572 116.073 137.502 117.357 137.502 118.29C137.502 120.25 137.852 121.557 138.552 122.21C139.299 122.863 140.186 123.19 141.212 123.19C142.146 123.19 142.986 123.003 143.732 122.63C144.479 122.257 145.016 121.813 145.342 121.3L146.042 121.51C145.762 123.423 145.016 125.103 143.802 126.55C142.589 127.95 141.142 129.047 139.462 129.84C137.782 130.587 136.102 130.96 134.422 130.96ZM174.298 131.03C172.665 131.03 171.242 130.493 170.028 129.42C168.815 128.347 168.208 126.597 168.208 124.17C168.208 123.937 168.208 123.703 168.208 123.47C168.208 123.237 168.232 123.003 168.278 122.77C166.878 125.57 165.292 127.647 163.518 129C161.792 130.307 160.042 130.96 158.268 130.96C156.635 130.96 155.095 130.4 153.648 129.28C152.202 128.113 151.035 126.41 150.148 124.17C149.262 121.93 148.818 119.223 148.818 116.05C148.818 112.783 149.262 109.867 150.148 107.3C151.082 104.733 152.295 102.563 153.788 100.79C155.282 99.0167 156.915 97.6867 158.688 96.8C160.462 95.8667 162.188 95.4 163.868 95.4C165.735 95.4 167.415 95.9833 168.908 97.15C170.402 98.27 171.428 100.067 171.988 102.54C172.128 101.747 172.222 101.023 172.268 100.37C172.362 99.7167 172.408 99.2733 172.408 99.04C172.455 97.78 173.085 96.8467 174.298 96.24C175.558 95.6333 176.935 95.33 178.428 95.33C179.735 95.33 180.972 95.5867 182.138 96.1C183.305 96.6133 184.098 97.4767 184.518 98.69L184.658 99.11C184.098 100.37 183.538 101.887 182.978 103.66C182.418 105.433 181.905 107.3 181.438 109.26C180.972 111.173 180.598 113.063 180.318 114.93C180.038 116.75 179.898 118.36 179.898 119.76C179.898 121.3 180.062 122.373 180.388 122.98C180.715 123.54 181.112 123.82 181.578 123.82C182.372 123.82 183.095 123.26 183.748 122.14L184.308 122.42C184.308 124.007 183.795 125.453 182.768 126.76C181.742 128.067 180.458 129.117 178.918 129.91C177.378 130.657 175.838 131.03 174.298 131.03ZM162.888 122.14C164.102 122.14 165.432 121.067 166.878 118.92C168.372 116.727 169.655 113.6 170.728 109.54C170.822 109.12 170.915 108.723 171.008 108.35C171.102 107.93 171.172 107.533 171.218 107.16C170.472 105.433 169.678 104.22 168.838 103.52C168.045 102.773 167.252 102.4 166.458 102.4C165.292 102.4 164.195 103.03 163.168 104.29C162.188 105.503 161.372 107.043 160.718 108.91C160.112 110.777 159.808 112.643 159.808 114.51C159.808 117.077 160.088 118.99 160.648 120.25C161.255 121.51 162.002 122.14 162.888 122.14ZM198.68 130.96C197.187 130.96 195.764 130.633 194.41 129.98C193.104 129.28 192.03 128.207 191.19 126.76C190.397 125.313 190 123.47 190 121.23C190 120.017 190.117 118.43 190.35 116.47C190.584 114.51 190.887 112.363 191.26 110.03C191.68 107.697 192.1 105.363 192.52 103.03C191.587 103.077 190.677 103.17 189.79 103.31C188.95 103.45 188.11 103.613 187.27 103.8L187.13 103.31C188.064 102.19 189.044 101.233 190.07 100.44C191.097 99.6467 192.17 98.9933 193.29 98.48C193.897 95.4 194.41 92.74 194.83 90.5C195.25 88.2133 195.46 86.86 195.46 86.44C195.46 85.6467 196.067 84.9933 197.28 84.48C198.54 83.9667 199.94 83.71 201.48 83.71C202.834 83.71 204.094 83.9667 205.26 84.48C206.474 84.9933 207.29 85.8567 207.71 87.07C207.43 87.35 207.034 88.4 206.52 90.22C206.007 91.9933 205.47 94.1633 204.91 96.73C205.797 96.7767 206.707 96.8233 207.64 96.87C208.574 96.9167 209.53 96.9867 210.51 97.08C210.604 97.36 210.674 97.6633 210.72 97.99C210.767 98.3167 210.79 98.6667 210.79 99.04C210.79 99.74 210.674 100.51 210.44 101.35C210.254 102.143 210.02 102.867 209.74 103.52C208.62 103.427 207.57 103.333 206.59 103.24C205.61 103.1 204.654 103.007 203.72 102.96C203.347 104.967 202.997 106.973 202.67 108.98C202.39 110.987 202.157 112.807 201.97 114.44C201.83 116.073 201.76 117.357 201.76 118.29C201.76 120.25 202.11 121.557 202.81 122.21C203.557 122.863 204.444 123.19 205.47 123.19C206.404 123.19 207.244 123.003 207.99 122.63C208.737 122.257 209.274 121.813 209.6 121.3L210.3 121.51C210.02 123.423 209.274 125.103 208.06 126.55C206.847 127.95 205.4 129.047 203.72 129.84C202.04 130.587 200.36 130.96 198.68 130.96ZM226.578 93.23C224.711 93.23 223.171 92.67 221.958 91.55C220.791 90.3833 220.208 88.9367 220.208 87.21C220.208 85.3433 220.908 83.7333 222.308 82.38C223.708 81.0267 225.411 80.35 227.418 80.35C229.285 80.35 230.801 80.9333 231.968 82.1C233.181 83.2667 233.788 84.7133 233.788 86.44C233.788 88.3067 233.088 89.9167 231.688 91.27C230.288 92.5767 228.585 93.23 226.578 93.23ZM221.678 130.96C219.858 130.96 218.225 130.33 216.778 129.07C215.331 127.763 214.608 125.687 214.608 122.84C214.608 121.207 214.818 119.69 215.238 118.29C215.705 116.843 216.218 115.443 216.778 114.09C217.385 112.737 217.898 111.43 218.318 110.17C218.785 108.863 219.018 107.58 219.018 106.32C219.018 105.2 218.831 104.407 218.458 103.94C218.085 103.427 217.641 103.17 217.128 103.17C216.335 103.17 215.565 103.683 214.818 104.71L214.328 104.43C214.515 102.563 215.098 100.977 216.078 99.67C217.105 98.3167 218.341 97.2667 219.788 96.52C221.281 95.7733 222.751 95.4 224.198 95.4C225.971 95.4 227.511 95.9833 228.818 97.15C230.125 98.27 230.778 100.113 230.778 102.68C230.778 104.22 230.545 105.853 230.078 107.58C229.658 109.26 229.145 110.94 228.538 112.62C227.978 114.3 227.465 115.863 226.998 117.31C226.578 118.757 226.368 119.993 226.368 121.02C226.368 121.907 226.531 122.537 226.858 122.91C227.231 123.283 227.628 123.47 228.048 123.47C228.468 123.47 228.865 123.353 229.238 123.12C229.658 122.84 229.961 122.537 230.148 122.21L230.638 122.35C230.638 124.077 230.171 125.593 229.238 126.9C228.351 128.16 227.231 129.163 225.878 129.91C224.525 130.61 223.125 130.96 221.678 130.96ZM251.1 131.17C247.6 131.17 244.707 130.47 242.42 129.07C240.133 127.67 238.43 125.827 237.31 123.54C236.237 121.207 235.7 118.733 235.7 116.12C235.7 113.647 236.143 111.173 237.03 108.7C237.963 106.227 239.293 103.987 241.02 101.98C242.793 99.9267 244.94 98.2933 247.46 97.08C249.98 95.82 252.873 95.19 256.14 95.19C259.64 95.19 262.51 95.9133 264.75 97.36C267.037 98.76 268.717 100.627 269.79 102.96C270.91 105.293 271.47 107.79 271.47 110.45C271.47 112.877 271.027 115.327 270.14 117.8C269.253 120.227 267.923 122.467 266.15 124.52C264.423 126.527 262.3 128.137 259.78 129.35C257.26 130.563 254.367 131.17 251.1 131.17ZM252.99 125.22C254.25 125.22 255.3 124.567 256.14 123.26C256.98 121.953 257.61 120.297 258.03 118.29C258.45 116.237 258.66 114.16 258.66 112.06C258.66 110.193 258.473 108.443 258.1 106.81C257.773 105.13 257.26 103.777 256.56 102.75C255.86 101.677 254.95 101.14 253.83 101.14C252.617 101.14 251.567 101.793 250.68 103.1C249.84 104.407 249.21 106.063 248.79 108.07C248.37 110.077 248.16 112.153 248.16 114.3C248.16 116.167 248.323 117.94 248.65 119.62C249.023 121.253 249.56 122.607 250.26 123.68C250.96 124.707 251.87 125.22 252.99 125.22ZM283.747 130.89C282.02 130.89 280.457 130.213 279.057 128.86C277.657 127.46 276.957 125.523 276.957 123.05C276.957 121.837 277.12 120.46 277.447 118.92C277.773 117.38 278.123 115.817 278.497 114.23C278.917 112.643 279.29 111.15 279.617 109.75C279.943 108.35 280.107 107.207 280.107 106.32C280.107 105.387 279.92 104.663 279.547 104.15C279.173 103.59 278.683 103.31 278.077 103.31C277.283 103.31 276.42 103.777 275.487 104.71L275.067 104.43C275.02 103.683 275.183 102.797 275.557 101.77C275.93 100.743 276.49 99.7633 277.237 98.83C278.03 97.85 279.033 97.0333 280.247 96.38C281.46 95.7267 282.907 95.4 284.587 95.4C287.06 95.4 288.88 96.1233 290.047 97.57C291.26 98.97 291.867 100.697 291.867 102.75C291.867 103.497 291.797 104.22 291.657 104.92C292.637 103.473 293.85 102.027 295.297 100.58C296.743 99.0867 298.33 97.85 300.057 96.87C301.83 95.89 303.65 95.4 305.517 95.4C307.71 95.4 309.203 96.1 309.997 97.5C310.79 98.9 311.187 100.65 311.187 102.75C311.187 104.71 310.977 106.81 310.557 109.05C310.137 111.29 309.717 113.46 309.297 115.56C308.877 117.613 308.667 119.34 308.667 120.74C308.667 122.607 309.203 123.54 310.277 123.54C310.837 123.54 311.327 123.377 311.747 123.05C312.167 122.677 312.447 122.327 312.587 122L313.077 122.21C313.077 123.937 312.587 125.453 311.607 126.76C310.673 128.067 309.483 129.093 308.037 129.84C306.59 130.54 305.12 130.89 303.627 130.89C301.807 130.89 300.197 130.26 298.797 129C297.397 127.74 296.697 125.687 296.697 122.84C296.697 121.16 296.907 119.34 297.327 117.38C297.793 115.42 298.237 113.53 298.657 111.71C299.077 109.89 299.287 108.397 299.287 107.23C299.287 106.53 299.147 105.993 298.867 105.62C298.633 105.2 298.19 104.99 297.537 104.99C296.463 104.99 295.273 105.48 293.967 106.46C292.707 107.44 291.61 108.747 290.677 110.38C289.79 112.013 289.347 113.81 289.347 115.77C289.347 117.03 289.487 118.243 289.767 119.41C290.093 120.577 290.257 121.837 290.257 123.19C290.257 125.71 289.603 127.623 288.297 128.93C286.99 130.237 285.473 130.89 283.747 130.89Z" fill="white"/>
</svg>
