<svg width="270" height="30" viewBox="0 0 270 30" fill="none" xmlns="http://www.w3.org/2000/svg">
<path d="M14.6 28.96C13.72 28.96 12.8933 28.76 12.12 28.36C11.3466 27.9333 10.72 27.32 10.24 26.52C9.75998 25.72 9.51998 24.76 9.51998 23.64C9.51998 22.4933 9.79998 21.2 10.36 19.76C10.7866 19.5467 11.2933 19.2133 11.88 18.76C12.4666 18.3067 12.9866 17.8 13.44 17.24C13.8933 16.6533 14.12 16.08 14.12 15.52C14.12 15.0133 13.92 14.6133 13.52 14.32C13.1466 14.0267 12.68 13.88 12.12 13.88C11.4266 13.88 10.7733 14.0933 10.16 14.52C9.54664 14.9467 8.99998 15.5067 8.51998 16.2C8.06664 16.8667 7.70664 17.6 7.43998 18.4C7.19998 19.1733 7.07998 19.92 7.07998 20.64C7.07998 21.3333 7.15998 21.9867 7.31998 22.6C7.50664 23.1867 7.59998 23.8667 7.59998 24.64C7.59998 25.84 7.27998 26.8533 6.63998 27.68C5.99998 28.5067 5.05331 28.92 3.79998 28.92C2.65331 28.92 1.73331 28.5333 1.03998 27.76C0.346642 26.9867 -2.44081e-05 25.9333 -2.44081e-05 24.6C-2.44081e-05 23.9067 0.0799756 22.9867 0.239976 21.84C0.426642 20.6933 0.653309 19.4267 0.919976 18.04C1.18664 16.6533 1.43998 15.2267 1.67998 13.76C1.94664 12.2667 2.15998 10.84 2.31998 9.48001C2.50664 8.09334 2.59998 6.85334 2.59998 5.76001C2.59998 5.17334 2.55998 4.64001 2.47998 4.16001C2.42664 3.65334 2.29331 3.25334 2.07998 2.96001V2.72001C2.66664 2.05334 3.30664 1.56001 3.99998 1.24001C4.69331 0.920008 5.37331 0.760008 6.03998 0.760008C7.05331 0.760008 7.91998 1.12001 8.63998 1.84001C9.35998 2.56001 9.71998 3.62667 9.71998 5.04001C9.71998 5.78668 9.61331 6.69334 9.39998 7.76001C9.21331 8.82668 8.97331 9.94668 8.67998 11.12C8.41331 12.2933 8.13331 13.4133 7.83998 14.48C8.42664 13.6267 9.09331 12.7467 9.83998 11.84C10.5866 10.9333 11.4266 10.1733 12.36 9.56001C13.2933 8.92001 14.3466 8.60001 15.52 8.60001C16.88 8.60001 17.9466 9.04001 18.72 9.92001C19.4933 10.7733 19.88 11.8 19.88 13C19.88 14.2 19.44 15.48 18.56 16.84C17.7066 18.2 16.2666 19.3467 14.24 20.28C14.5866 21.0533 15.0666 21.7467 15.68 22.36C16.2933 22.9733 16.96 23.4533 17.68 23.8C18.4266 24.12 19.12 24.28 19.76 24.28C20.08 24.28 20.36 24.2267 20.6 24.12L20.84 24.36C20.1733 25.9067 19.2533 27.0667 18.08 27.84C16.9333 28.5867 15.7733 28.96 14.6 28.96ZM30.7465 29.04C28.7465 29.04 27.0932 28.64 25.7865 27.84C24.4799 27.04 23.5065 25.9867 22.8665 24.68C22.2532 23.3467 21.9465 21.9333 21.9465 20.44C21.9465 19.0267 22.1999 17.6133 22.7065 16.2C23.2399 14.7867 23.9999 13.5067 24.9865 12.36C25.9999 11.1867 27.2265 10.2533 28.6665 9.56001C30.1065 8.84001 31.7599 8.48001 33.6265 8.48001C35.6265 8.48001 37.2665 8.89334 38.5465 9.72001C39.8532 10.52 40.8132 11.5867 41.4265 12.92C42.0665 14.2533 42.3865 15.68 42.3865 17.2C42.3865 18.5867 42.1332 19.9867 41.6265 21.4C41.1199 22.7867 40.3599 24.0667 39.3465 25.24C38.3599 26.3867 37.1465 27.3067 35.7065 28C34.2665 28.6933 32.6132 29.04 30.7465 29.04ZM31.8265 25.64C32.5465 25.64 33.1465 25.2667 33.6265 24.52C34.1065 23.7733 34.4665 22.8267 34.7065 21.68C34.9465 20.5067 35.0665 19.32 35.0665 18.12C35.0665 17.0533 34.9599 16.0533 34.7465 15.12C34.5599 14.16 34.2665 13.3867 33.8665 12.8C33.4665 12.1867 32.9465 11.88 32.3065 11.88C31.6132 11.88 31.0132 12.2533 30.5065 13C30.0265 13.7467 29.6665 14.6933 29.4265 15.84C29.1865 16.9867 29.0665 18.1733 29.0665 19.4C29.0665 20.4667 29.1599 21.48 29.3465 22.44C29.5599 23.3733 29.8665 24.1467 30.2665 24.76C30.6665 25.3467 31.1865 25.64 31.8265 25.64ZM50.0419 28.92C48.8419 28.92 47.8285 28.4267 47.0019 27.44C46.2019 26.4533 45.8019 25.1333 45.8019 23.48C45.8019 22.5733 45.9085 21.6 46.1219 20.56C46.3352 19.52 46.5485 18.5333 46.7619 17.6C46.9485 16.9067 47.0952 16.2667 47.2019 15.68C47.3352 15.0667 47.4019 14.5733 47.4019 14.2C47.4019 13.72 47.2952 13.3733 47.0819 13.16C46.8952 12.9467 46.6685 12.84 46.4019 12.84C46.1352 12.84 45.8685 12.9333 45.6019 13.12C45.3352 13.28 45.1219 13.5333 44.9619 13.88L44.6419 13.76C44.6419 12.6667 44.9085 11.7333 45.4419 10.96C45.9752 10.1867 46.6552 9.60001 47.4819 9.20001C48.3085 8.80001 49.1485 8.60001 50.0019 8.60001C50.6952 8.60001 51.3619 8.74668 52.0019 9.04001C52.6419 9.30668 53.1619 9.73334 53.5619 10.32C53.9885 10.9067 54.2019 11.64 54.2019 12.52C54.2019 13.0533 54.1219 13.6933 53.9619 14.44C53.8285 15.1867 53.6685 15.96 53.4819 16.76C53.2952 17.5867 53.1085 18.4267 52.9219 19.28C52.7619 20.1067 52.6819 20.84 52.6819 21.48C52.6819 22.0667 52.7752 22.5467 52.9619 22.92C53.1485 23.2933 53.4285 23.48 53.8019 23.48C54.4952 23.48 55.2685 22.84 56.1219 21.56C57.0019 20.28 57.7085 18.56 58.2419 16.4C58.3485 15.9733 58.4419 15.52 58.5219 15.04C58.6019 14.56 58.6419 14.0667 58.6419 13.56C58.6419 13.16 58.6152 12.76 58.5619 12.36C58.5085 11.9333 58.4285 11.5067 58.3219 11.08V10.8C58.7485 10.08 59.2952 9.53334 59.9619 9.16001C60.6552 8.78668 61.3485 8.60001 62.0419 8.60001C62.9752 8.60001 63.8152 8.92001 64.5619 9.56001C65.3085 10.2 65.6819 11.1333 65.6819 12.36C65.6819 13.08 65.5485 13.92 65.2819 14.88C65.0152 15.8133 64.7219 16.7867 64.4019 17.8C64.0819 18.7867 63.7885 19.76 63.5219 20.72C63.2552 21.68 63.1219 22.5333 63.1219 23.28C63.1219 24.3733 63.5085 24.92 64.2819 24.92C64.4952 24.92 64.7485 24.8667 65.0419 24.76C65.3619 24.6267 65.6552 24.3733 65.9219 24L66.2019 24.08C66.2019 25.04 65.9352 25.8933 65.4019 26.64C64.8952 27.36 64.2419 27.92 63.4419 28.32C62.6419 28.72 61.8152 28.92 60.9619 28.92C59.8685 28.92 58.8819 28.52 58.0019 27.72C57.1485 26.92 56.7219 25.6133 56.7219 23.8V23.72C55.6285 25.5867 54.4952 26.92 53.3219 27.72C52.1485 28.52 51.0552 28.92 50.0419 28.92ZM83.0765 28.96C82.1965 28.96 81.3699 28.76 80.5965 28.36C79.8232 27.9333 79.1965 27.32 78.7165 26.52C78.2365 25.72 77.9965 24.76 77.9965 23.64C77.9965 22.4933 78.2765 21.2 78.8365 19.76C79.2632 19.5467 79.7699 19.2133 80.3565 18.76C80.9432 18.3067 81.4632 17.8 81.9165 17.24C82.3699 16.6533 82.5965 16.08 82.5965 15.52C82.5965 15.0133 82.3965 14.6133 81.9965 14.32C81.6232 14.0267 81.1565 13.88 80.5965 13.88C79.9032 13.88 79.2499 14.0933 78.6365 14.52C78.0232 14.9467 77.4765 15.5067 76.9965 16.2C76.5432 16.8667 76.1832 17.6 75.9165 18.4C75.6765 19.1733 75.5565 19.92 75.5565 20.64C75.5565 21.3333 75.6365 21.9867 75.7965 22.6C75.9832 23.1867 76.0765 23.8667 76.0765 24.64C76.0765 25.84 75.7565 26.8533 75.1165 27.68C74.4765 28.5067 73.5299 28.92 72.2765 28.92C71.1299 28.92 70.2099 28.5333 69.5165 27.76C68.8232 26.9867 68.4765 25.9333 68.4765 24.6C68.4765 23.9067 68.5565 22.9867 68.7165 21.84C68.9032 20.6933 69.1299 19.4267 69.3965 18.04C69.6632 16.6533 69.9165 15.2267 70.1565 13.76C70.4232 12.2667 70.6365 10.84 70.7965 9.48001C70.9832 8.09334 71.0765 6.85334 71.0765 5.76001C71.0765 5.17334 71.0365 4.64001 70.9565 4.16001C70.9032 3.65334 70.7699 3.25334 70.5565 2.96001V2.72001C71.1432 2.05334 71.7832 1.56001 72.4765 1.24001C73.1699 0.920008 73.8499 0.760008 74.5165 0.760008C75.5299 0.760008 76.3965 1.12001 77.1165 1.84001C77.8365 2.56001 78.1965 3.62667 78.1965 5.04001C78.1965 5.78668 78.0899 6.69334 77.8765 7.76001C77.6899 8.82668 77.4499 9.94668 77.1565 11.12C76.8899 12.2933 76.6099 13.4133 76.3165 14.48C76.9032 13.6267 77.5699 12.7467 78.3165 11.84C79.0632 10.9333 79.9032 10.1733 80.8365 9.56001C81.7699 8.92001 82.8232 8.60001 83.9965 8.60001C85.3565 8.60001 86.4232 9.04001 87.1965 9.92001C87.9699 10.7733 88.3565 11.8 88.3565 13C88.3565 14.2 87.9165 15.48 87.0365 16.84C86.1832 18.2 84.7432 19.3467 82.7165 20.28C83.0632 21.0533 83.5432 21.7467 84.1565 22.36C84.7699 22.9733 85.4365 23.4533 86.1565 23.8C86.9032 24.12 87.5965 24.28 88.2365 24.28C88.5565 24.28 88.8365 24.2267 89.0765 24.12L89.3165 24.36C88.6499 25.9067 87.7299 27.0667 86.5565 27.84C85.4099 28.5867 84.2499 28.96 83.0765 28.96ZM98.0231 7.36001C96.9564 7.36001 96.0764 7.04001 95.3831 6.40001C94.7164 5.73334 94.3831 4.90667 94.3831 3.92001C94.3831 2.85334 94.7831 1.93334 95.5831 1.16001C96.3831 0.386675 97.3564 8.10623e-06 98.5031 8.10623e-06C99.5698 8.10623e-06 100.436 0.333342 101.103 1.00001C101.796 1.66668 102.143 2.49334 102.143 3.48001C102.143 4.54668 101.743 5.46668 100.943 6.24001C100.143 6.98668 99.1698 7.36001 98.0231 7.36001ZM95.2231 28.92C94.1831 28.92 93.2498 28.56 92.4231 27.84C91.5964 27.0933 91.1831 25.9067 91.1831 24.28C91.1831 23.3467 91.3031 22.48 91.5431 21.68C91.8098 20.8533 92.1031 20.0533 92.4231 19.28C92.7698 18.5067 93.0631 17.76 93.3031 17.04C93.5698 16.2933 93.7031 15.56 93.7031 14.84C93.7031 14.2 93.5964 13.7467 93.3831 13.48C93.1698 13.1867 92.9164 13.04 92.6231 13.04C92.1698 13.04 91.7298 13.3333 91.3031 13.92L91.0231 13.76C91.1298 12.6933 91.4631 11.7867 92.0231 11.04C92.6098 10.2667 93.3164 9.66668 94.1431 9.24001C94.9964 8.81334 95.8364 8.60001 96.6631 8.60001C97.6764 8.60001 98.5564 8.93334 99.3031 9.60001C100.05 10.24 100.423 11.2933 100.423 12.76C100.423 13.64 100.29 14.5733 100.023 15.56C99.7831 16.52 99.4898 17.48 99.1431 18.44C98.8231 19.4 98.5298 20.2933 98.2631 21.12C98.0231 21.9467 97.9031 22.6533 97.9031 23.24C97.9031 23.7467 97.9964 24.1067 98.1831 24.32C98.3964 24.5333 98.6231 24.64 98.8631 24.64C99.1031 24.64 99.3298 24.5733 99.5431 24.44C99.7831 24.28 99.9564 24.1067 100.063 23.92L100.343 24C100.343 24.9867 100.076 25.8533 99.5431 26.6C99.0364 27.32 98.3964 27.8933 97.6231 28.32C96.8498 28.72 96.0498 28.92 95.2231 28.92ZM118.526 28.928C117.294 28.928 116.254 28.696 115.406 28.232C114.574 27.768 113.942 27.176 113.51 26.456C113.094 25.72 112.886 24.96 112.886 24.176C112.886 23.296 113.142 22.456 113.654 21.656C114.182 20.84 114.934 20.224 115.91 19.808C115.334 19.424 114.902 18.976 114.614 18.464C114.342 17.936 114.206 17.384 114.206 16.808C114.206 16.152 114.374 15.504 114.71 14.864C115.046 14.224 115.534 13.64 116.174 13.112C116.814 12.568 117.59 12.136 118.502 11.816C119.414 11.496 120.446 11.336 121.598 11.336C123.038 11.336 124.046 11.576 124.622 12.056C125.214 12.536 125.51 13.096 125.51 13.736C125.51 14.264 125.334 14.792 124.982 15.32C124.63 15.848 124.126 16.288 123.47 16.64C122.83 16.992 122.062 17.168 121.166 17.168C121.374 16.72 121.518 16.328 121.598 15.992C121.678 15.64 121.718 15.336 121.718 15.08C121.718 14.664 121.622 14.36 121.43 14.168C121.254 13.976 121.03 13.88 120.758 13.88C120.406 13.88 120.03 14.016 119.63 14.288C119.23 14.56 118.886 14.936 118.598 15.416C118.326 15.88 118.19 16.432 118.19 17.072C118.19 17.328 118.222 17.608 118.286 17.912C118.35 18.2 118.454 18.504 118.598 18.824C118.998 18.584 119.35 18.416 119.654 18.32C119.974 18.208 120.254 18.152 120.494 18.152C120.958 18.152 121.294 18.296 121.502 18.584C121.71 18.872 121.814 19.208 121.814 19.592C121.814 19.944 121.734 20.296 121.574 20.648C121.414 21 121.182 21.296 120.878 21.536C120.574 21.76 120.206 21.872 119.774 21.872C119.518 21.872 119.246 21.824 118.958 21.728C118.67 21.616 118.366 21.448 118.046 21.224C117.79 21.704 117.606 22.152 117.494 22.568C117.382 22.968 117.326 23.328 117.326 23.648C117.326 24.416 117.574 24.984 118.07 25.352C118.582 25.72 119.19 25.904 119.894 25.904C120.454 25.904 121.03 25.792 121.622 25.568C122.23 25.344 122.79 25.024 123.302 24.608C123.814 24.176 124.23 23.648 124.55 23.024C124.87 22.4 125.03 21.68 125.03 20.864C124.39 20.72 123.934 20.496 123.662 20.192C123.39 19.888 123.254 19.56 123.254 19.208C123.254 18.728 123.438 18.288 123.806 17.888C124.19 17.488 124.606 17.288 125.054 17.288C125.326 17.288 125.59 17.392 125.846 17.6C126.118 17.792 126.35 18.12 126.542 18.584C127.15 18.056 127.622 17.44 127.958 16.736C128.31 16.016 128.486 15.296 128.486 14.576C128.486 14.208 128.43 13.84 128.318 13.472C128.222 13.104 128.062 12.76 127.838 12.44L128.006 12.272C129.446 12.272 130.526 12.52 131.246 13.016C131.966 13.512 132.326 14.136 132.326 14.888C132.326 15.72 131.886 16.624 131.006 17.6C130.142 18.56 128.83 19.432 127.07 20.216C127.102 20.424 127.126 20.624 127.142 20.816C127.158 21.008 127.166 21.192 127.166 21.368C127.166 22.504 126.918 23.536 126.422 24.464C125.926 25.392 125.262 26.192 124.43 26.864C123.598 27.52 122.67 28.032 121.646 28.4C120.622 28.752 119.582 28.928 118.526 28.928ZM145.7 28.92C144.74 28.92 143.874 28.5333 143.1 27.76C142.354 26.96 141.98 25.8667 141.98 24.48C141.98 23.7867 142.074 23 142.26 22.12C142.447 21.2133 142.647 20.2933 142.86 19.36C143.1 18.4267 143.314 17.5467 143.5 16.72C143.687 15.8933 143.78 15.2 143.78 14.64C143.78 14.1867 143.674 13.8267 143.46 13.56C143.247 13.2667 142.967 13.12 142.62 13.12C142.167 13.12 141.674 13.3867 141.14 13.92L140.9 13.76C140.874 13.3333 140.967 12.8267 141.18 12.24C141.394 11.6533 141.74 11.0933 142.22 10.56C142.7 10 143.327 9.53334 144.1 9.16001C144.874 8.78668 145.794 8.60001 146.86 8.60001C148.06 8.60001 148.954 9.02668 149.54 9.88001C150.154 10.7067 150.46 11.7067 150.46 12.88C150.46 13.0133 150.46 13.16 150.46 13.32C150.46 13.4533 150.447 13.5867 150.42 13.72C150.927 12.8933 151.514 12.0933 152.18 11.32C152.874 10.5467 153.647 9.90668 154.5 9.40001C155.38 8.86668 156.327 8.60001 157.34 8.60001C158.647 8.60001 159.554 9.02668 160.06 9.88001C160.567 10.7067 160.82 11.6533 160.82 12.72C160.82 12.9333 160.807 13.1467 160.78 13.36C160.78 13.5467 160.767 13.7333 160.74 13.92C161.3 13.0933 161.914 12.28 162.58 11.48C163.274 10.6533 164.06 9.97334 164.94 9.44001C165.82 8.88001 166.834 8.60001 167.98 8.60001C169.394 8.60001 170.354 9.01334 170.86 9.84001C171.394 10.6667 171.66 11.64 171.66 12.76C171.66 13.7467 171.54 14.88 171.3 16.16C171.06 17.4133 170.82 18.6533 170.58 19.88C170.34 21.1067 170.22 22.1467 170.22 23C170.22 23.5067 170.287 23.92 170.42 24.24C170.58 24.56 170.834 24.72 171.18 24.72C171.474 24.72 171.74 24.64 171.98 24.48C172.247 24.2933 172.434 24.08 172.54 23.84L172.86 23.96C172.86 24.9467 172.58 25.8133 172.02 26.56C171.46 27.3067 170.754 27.8933 169.9 28.32C169.047 28.72 168.194 28.92 167.34 28.92C166.3 28.92 165.38 28.5733 164.58 27.88C163.807 27.1867 163.42 26.04 163.42 24.44C163.42 23.4533 163.54 22.3867 163.78 21.24C164.047 20.0933 164.3 18.9867 164.54 17.92C164.807 16.8267 164.94 15.9333 164.94 15.24C164.94 14.2533 164.594 13.76 163.9 13.76C163.394 13.76 162.887 13.9733 162.38 14.4C161.9 14.8 161.46 15.3467 161.06 16.04C160.687 16.7067 160.38 17.4133 160.14 18.16C159.9 18.9067 159.78 19.6267 159.78 20.32C159.78 20.96 159.847 21.6667 159.98 22.44C160.14 23.1867 160.22 23.9067 160.22 24.6C160.22 25.9867 159.834 27.0533 159.06 27.8C158.287 28.5467 157.38 28.92 156.34 28.92C155.38 28.92 154.514 28.6 153.74 27.96C152.994 27.32 152.62 26.36 152.62 25.08C152.62 24.4933 152.7 23.7867 152.86 22.96C153.02 22.1067 153.194 21.2267 153.38 20.32C153.594 19.3867 153.78 18.4933 153.94 17.64C154.1 16.7867 154.18 16.04 154.18 15.4C154.18 14.8933 154.1 14.4933 153.94 14.2C153.807 13.9067 153.527 13.76 153.1 13.76C152.487 13.76 151.9 14.0667 151.34 14.68C150.78 15.2933 150.3 16.04 149.9 16.92C149.5 17.7733 149.234 18.6 149.1 19.4C149.074 19.5867 149.047 19.7333 149.02 19.84C149.02 19.9467 149.02 20 149.02 20C149.02 20.8267 149.114 21.5867 149.3 22.28C149.487 22.9467 149.58 23.64 149.58 24.36C149.58 25.6667 149.18 26.76 148.38 27.64C147.607 28.4933 146.714 28.92 145.7 28.92ZM182.377 7.36001C181.31 7.36001 180.43 7.04001 179.737 6.40001C179.07 5.73334 178.737 4.90667 178.737 3.92001C178.737 2.85334 179.137 1.93334 179.937 1.16001C180.737 0.386675 181.71 8.10623e-06 182.857 8.10623e-06C183.924 8.10623e-06 184.79 0.333342 185.457 1.00001C186.15 1.66668 186.497 2.49334 186.497 3.48001C186.497 4.54668 186.097 5.46668 185.297 6.24001C184.497 6.98668 183.524 7.36001 182.377 7.36001ZM179.577 28.92C178.537 28.92 177.604 28.56 176.777 27.84C175.95 27.0933 175.537 25.9067 175.537 24.28C175.537 23.3467 175.657 22.48 175.897 21.68C176.164 20.8533 176.457 20.0533 176.777 19.28C177.124 18.5067 177.417 17.76 177.657 17.04C177.924 16.2933 178.057 15.56 178.057 14.84C178.057 14.2 177.95 13.7467 177.737 13.48C177.524 13.1867 177.27 13.04 176.977 13.04C176.524 13.04 176.084 13.3333 175.657 13.92L175.377 13.76C175.484 12.6933 175.817 11.7867 176.377 11.04C176.964 10.2667 177.67 9.66668 178.497 9.24001C179.35 8.81334 180.19 8.60001 181.017 8.60001C182.03 8.60001 182.91 8.93334 183.657 9.60001C184.404 10.24 184.777 11.2933 184.777 12.76C184.777 13.64 184.644 14.5733 184.377 15.56C184.137 16.52 183.844 17.48 183.497 18.44C183.177 19.4 182.884 20.2933 182.617 21.12C182.377 21.9467 182.257 22.6533 182.257 23.24C182.257 23.7467 182.35 24.1067 182.537 24.32C182.75 24.5333 182.977 24.64 183.217 24.64C183.457 24.64 183.684 24.5733 183.897 24.44C184.137 24.28 184.31 24.1067 184.417 23.92L184.697 24C184.697 24.9867 184.43 25.8533 183.897 26.6C183.39 27.32 182.75 27.8933 181.977 28.32C181.204 28.72 180.404 28.92 179.577 28.92ZM191.754 29.04C190.714 28.9867 189.807 28.6267 189.034 27.96C188.287 27.2667 187.767 26.0667 187.474 24.36C188.754 23.96 190.021 23.2133 191.274 22.12C192.554 21 193.807 19.72 195.034 18.28C196.287 16.8133 197.514 15.3867 198.714 14C198.287 13.7333 197.874 13.5467 197.474 13.44C197.074 13.3333 196.701 13.28 196.354 13.28C195.634 13.28 195.047 13.48 194.594 13.88C194.167 14.2533 193.954 14.76 193.954 15.4C193.954 15.9867 194.167 16.6533 194.594 17.4C194.274 17.4533 193.967 17.4933 193.674 17.52C193.381 17.5467 193.114 17.56 192.874 17.56C191.194 17.56 189.954 17.12 189.154 16.24C188.354 15.36 187.954 14.3867 187.954 13.32C187.954 12.5467 188.141 11.8 188.514 11.08C188.914 10.3333 189.501 9.73334 190.274 9.28001C191.047 8.80001 191.981 8.56001 193.074 8.56001C194.087 8.56001 195.221 8.81334 196.474 9.32001C197.754 9.80001 199.154 10.6267 200.674 11.8C201.447 10.9733 202.194 10.24 202.914 9.60001C203.661 8.96001 204.407 8.46668 205.154 8.12001C206.621 8.36001 207.661 8.88001 208.274 9.68001C208.914 10.4533 209.234 11.28 209.234 12.16C209.234 12.32 209.221 12.4667 209.194 12.6C209.194 12.7333 209.181 12.8667 209.154 13C207.527 13.6667 206.127 14.56 204.954 15.68C203.807 16.7733 202.741 17.9867 201.754 19.32C200.767 20.6267 199.687 21.96 198.514 23.32C198.994 23.72 199.461 24.0133 199.914 24.2C200.367 24.36 200.781 24.44 201.154 24.44C201.874 24.44 202.461 24.2 202.914 23.72C203.367 23.2133 203.594 22.6267 203.594 21.96C203.594 21.7467 203.567 21.5333 203.514 21.32C203.487 21.1067 203.407 20.8933 203.274 20.68C203.594 20.6267 203.901 20.5867 204.194 20.56C204.514 20.5067 204.821 20.48 205.114 20.48C206.607 20.48 207.701 20.8667 208.394 21.64C209.087 22.3867 209.434 23.2533 209.434 24.24C209.434 24.9867 209.234 25.7333 208.834 26.48C208.434 27.2267 207.847 27.84 207.074 28.32C206.301 28.8 205.367 29.04 204.274 29.04C203.261 29.04 202.101 28.76 200.794 28.2C199.514 27.64 198.114 26.7067 196.594 25.4C195.927 26.0667 195.194 26.7067 194.394 27.32C193.594 27.9333 192.714 28.5067 191.754 29.04ZM217.091 28.92C215.891 28.92 214.878 28.4267 214.051 27.44C213.251 26.4533 212.851 25.1333 212.851 23.48C212.851 22.5733 212.958 21.6 213.171 20.56C213.384 19.52 213.598 18.5333 213.811 17.6C213.998 16.9067 214.144 16.2667 214.251 15.68C214.384 15.0667 214.451 14.5733 214.451 14.2C214.451 13.72 214.344 13.3733 214.131 13.16C213.944 12.9467 213.718 12.84 213.451 12.84C213.184 12.84 212.918 12.9333 212.651 13.12C212.384 13.28 212.171 13.5333 212.011 13.88L211.691 13.76C211.691 12.6667 211.958 11.7333 212.491 10.96C213.024 10.1867 213.704 9.60001 214.531 9.20001C215.358 8.80001 216.198 8.60001 217.051 8.60001C217.744 8.60001 218.411 8.74668 219.051 9.04001C219.691 9.30668 220.211 9.73334 220.611 10.32C221.038 10.9067 221.251 11.64 221.251 12.52C221.251 13.0533 221.171 13.6933 221.011 14.44C220.878 15.1867 220.718 15.96 220.531 16.76C220.344 17.5867 220.158 18.4267 219.971 19.28C219.811 20.1067 219.731 20.84 219.731 21.48C219.731 22.0667 219.824 22.5467 220.011 22.92C220.198 23.2933 220.478 23.48 220.851 23.48C221.544 23.48 222.318 22.84 223.171 21.56C224.051 20.28 224.758 18.56 225.291 16.4C225.398 15.9733 225.491 15.52 225.571 15.04C225.651 14.56 225.691 14.0667 225.691 13.56C225.691 13.16 225.664 12.76 225.611 12.36C225.558 11.9333 225.478 11.5067 225.371 11.08V10.8C225.798 10.08 226.344 9.53334 227.011 9.16001C227.704 8.78668 228.398 8.60001 229.091 8.60001C230.024 8.60001 230.864 8.92001 231.611 9.56001C232.358 10.2 232.731 11.1333 232.731 12.36C232.731 13.08 232.598 13.92 232.331 14.88C232.064 15.8133 231.771 16.7867 231.451 17.8C231.131 18.7867 230.838 19.76 230.571 20.72C230.304 21.68 230.171 22.5333 230.171 23.28C230.171 24.3733 230.558 24.92 231.331 24.92C231.544 24.92 231.798 24.8667 232.091 24.76C232.411 24.6267 232.704 24.3733 232.971 24L233.251 24.08C233.251 25.04 232.984 25.8933 232.451 26.64C231.944 27.36 231.291 27.92 230.491 28.32C229.691 28.72 228.864 28.92 228.011 28.92C226.918 28.92 225.931 28.52 225.051 27.72C224.198 26.92 223.771 25.6133 223.771 23.8V23.72C222.678 25.5867 221.544 26.92 220.371 27.72C219.198 28.52 218.104 28.92 217.091 28.92ZM250.126 28.96C249.246 28.96 248.419 28.76 247.646 28.36C246.872 27.9333 246.246 27.32 245.766 26.52C245.286 25.72 245.046 24.76 245.046 23.64C245.046 22.4933 245.326 21.2 245.886 19.76C246.312 19.5467 246.819 19.2133 247.406 18.76C247.992 18.3067 248.512 17.8 248.966 17.24C249.419 16.6533 249.646 16.08 249.646 15.52C249.646 15.0133 249.446 14.6133 249.046 14.32C248.672 14.0267 248.206 13.88 247.646 13.88C246.952 13.88 246.299 14.0933 245.686 14.52C245.072 14.9467 244.526 15.5067 244.046 16.2C243.592 16.8667 243.232 17.6 242.966 18.4C242.726 19.1733 242.606 19.92 242.606 20.64C242.606 21.3333 242.686 21.9867 242.846 22.6C243.032 23.1867 243.126 23.8667 243.126 24.64C243.126 25.84 242.806 26.8533 242.166 27.68C241.526 28.5067 240.579 28.92 239.326 28.92C238.179 28.92 237.259 28.5333 236.566 27.76C235.872 26.9867 235.526 25.9333 235.526 24.6C235.526 23.9067 235.606 22.9867 235.766 21.84C235.952 20.6933 236.179 19.4267 236.446 18.04C236.712 16.6533 236.966 15.2267 237.206 13.76C237.472 12.2667 237.686 10.84 237.846 9.48001C238.032 8.09334 238.126 6.85334 238.126 5.76001C238.126 5.17334 238.086 4.64001 238.006 4.16001C237.952 3.65334 237.819 3.25334 237.606 2.96001V2.72001C238.192 2.05334 238.832 1.56001 239.526 1.24001C240.219 0.920008 240.899 0.760008 241.566 0.760008C242.579 0.760008 243.446 1.12001 244.166 1.84001C244.886 2.56001 245.246 3.62667 245.246 5.04001C245.246 5.78668 245.139 6.69334 244.926 7.76001C244.739 8.82668 244.499 9.94668 244.206 11.12C243.939 12.2933 243.659 13.4133 243.366 14.48C243.952 13.6267 244.619 12.7467 245.366 11.84C246.112 10.9333 246.952 10.1733 247.886 9.56001C248.819 8.92001 249.872 8.60001 251.046 8.60001C252.406 8.60001 253.472 9.04001 254.246 9.92001C255.019 10.7733 255.406 11.8 255.406 13C255.406 14.2 254.966 15.48 254.086 16.84C253.232 18.2 251.792 19.3467 249.766 20.28C250.112 21.0533 250.592 21.7467 251.206 22.36C251.819 22.9733 252.486 23.4533 253.206 23.8C253.952 24.12 254.646 24.28 255.286 24.28C255.606 24.28 255.886 24.2267 256.126 24.12L256.366 24.36C255.699 25.9067 254.779 27.0667 253.606 27.84C252.459 28.5867 251.299 28.96 250.126 28.96ZM265.072 7.36001C264.006 7.36001 263.126 7.04001 262.432 6.40001C261.766 5.73334 261.432 4.90667 261.432 3.92001C261.432 2.85334 261.832 1.93334 262.632 1.16001C263.432 0.386675 264.406 8.10623e-06 265.552 8.10623e-06C266.619 8.10623e-06 267.486 0.333342 268.152 1.00001C268.846 1.66668 269.192 2.49334 269.192 3.48001C269.192 4.54668 268.792 5.46668 267.992 6.24001C267.192 6.98668 266.219 7.36001 265.072 7.36001ZM262.272 28.92C261.232 28.92 260.299 28.56 259.472 27.84C258.646 27.0933 258.232 25.9067 258.232 24.28C258.232 23.3467 258.352 22.48 258.592 21.68C258.859 20.8533 259.152 20.0533 259.472 19.28C259.819 18.5067 260.112 17.76 260.352 17.04C260.619 16.2933 260.752 15.56 260.752 14.84C260.752 14.2 260.646 13.7467 260.432 13.48C260.219 13.1867 259.966 13.04 259.672 13.04C259.219 13.04 258.779 13.3333 258.352 13.92L258.072 13.76C258.179 12.6933 258.512 11.7867 259.072 11.04C259.659 10.2667 260.366 9.66668 261.192 9.24001C262.046 8.81334 262.886 8.60001 263.712 8.60001C264.726 8.60001 265.606 8.93334 266.352 9.60001C267.099 10.24 267.472 11.2933 267.472 12.76C267.472 13.64 267.339 14.5733 267.072 15.56C266.832 16.52 266.539 17.48 266.192 18.44C265.872 19.4 265.579 20.2933 265.312 21.12C265.072 21.9467 264.952 22.6533 264.952 23.24C264.952 23.7467 265.046 24.1067 265.232 24.32C265.446 24.5333 265.672 24.64 265.912 24.64C266.152 24.64 266.379 24.5733 266.592 24.44C266.832 24.28 267.006 24.1067 267.112 23.92L267.392 24C267.392 24.9867 267.126 25.8533 266.592 26.6C266.086 27.32 265.446 27.8933 264.672 28.32C263.899 28.72 263.099 28.92 262.272 28.92Z" fill="white"/>
</svg>
