<svg width="208" height="28" viewBox="0 0 208 28" fill="none" xmlns="http://www.w3.org/2000/svg">
<path d="M7.48803 6.14399C9.1307 6.14399 10.432 6.49599 11.392 7.19999C12.352 7.90399 12.832 8.90665 12.832 10.208C12.832 11.04 12.6187 11.7973 12.192 12.48C11.7867 13.1627 11.2427 13.8133 10.56 14.432C9.87737 15.0293 9.14137 15.5947 8.35203 16.128C7.58403 16.6613 6.83737 17.1947 6.11203 17.728C5.3867 18.24 4.76803 18.7733 4.25603 19.328H11.168C12.0427 19.328 12.5974 19.2213 12.832 19.008C13.0667 18.7947 13.2267 18.4213 13.312 17.888H13.984C13.984 19.3173 13.9947 20.4267 14.016 21.216C14.0374 22.0053 14.0694 22.6987 14.112 23.296C13.92 23.2533 13.568 23.2213 13.056 23.2C12.544 23.1787 11.9574 23.1573 11.296 23.136C10.6347 23.136 9.98403 23.136 9.34403 23.136H0.0320342V22.528C0.629367 21.888 1.36537 21.184 2.24003 20.416C3.1147 19.648 3.96803 18.7947 4.80003 17.856C5.65337 16.9173 6.36803 15.904 6.94403 14.816C7.52003 13.7067 7.80803 12.5227 7.80803 11.264C7.80803 10.112 7.55203 9.27999 7.04003 8.76799C6.52803 8.25599 5.79203 7.99999 4.83203 7.99999C3.9147 7.99999 3.10403 8.21332 2.40003 8.63999C1.71737 9.04532 1.0987 9.65332 0.544034 10.464L3.40939e-05 10.144C0.426701 9.41865 0.960034 8.75732 1.60003 8.15999C2.26137 7.54132 3.07203 7.05065 4.03203 6.68799C4.99203 6.32532 6.14403 6.14399 7.48803 6.14399ZM25.934 6.14399C27.6407 6.14399 29.1447 6.49599 30.446 7.19999C31.7474 7.88265 32.7714 8.86399 33.518 10.144C34.2647 11.4027 34.638 12.8853 34.638 14.592C34.638 16.2987 34.254 17.8347 33.486 19.2C32.7394 20.544 31.6834 21.6107 30.318 22.4C28.974 23.1893 27.3954 23.584 25.582 23.584C23.918 23.584 22.4247 23.232 21.102 22.528C19.8007 21.824 18.766 20.8427 17.998 19.584C17.2514 18.304 16.878 16.8107 16.878 15.104C16.878 13.4187 17.2514 11.904 17.998 10.56C18.7447 9.19465 19.8007 8.11732 21.166 7.32799C22.5314 6.53865 24.1207 6.14399 25.934 6.14399ZM25.646 6.71999C24.494 6.71999 23.5447 7.45599 22.798 8.92799C22.0727 10.3787 21.71 12.4053 21.71 15.008C21.71 16.928 21.902 18.4747 22.286 19.648C22.67 20.8213 23.1714 21.6747 23.79 22.208C24.43 22.7413 25.1234 23.008 25.87 23.008C27.022 23.008 27.9607 22.272 28.686 20.8C29.4327 19.328 29.806 17.2907 29.806 14.688C29.806 12.768 29.614 11.2213 29.23 10.048C28.846 8.87465 28.334 8.03199 27.694 7.51999C27.0754 6.98665 26.3927 6.71999 25.646 6.71999ZM44.863 6.14399C46.5057 6.14399 47.807 6.49599 48.767 7.19999C49.727 7.90399 50.207 8.90665 50.207 10.208C50.207 11.04 49.9937 11.7973 49.567 12.48C49.1617 13.1627 48.6177 13.8133 47.935 14.432C47.2524 15.0293 46.5164 15.5947 45.727 16.128C44.959 16.6613 44.2124 17.1947 43.487 17.728C42.7617 18.24 42.143 18.7733 41.631 19.328H48.543C49.4177 19.328 49.9724 19.2213 50.207 19.008C50.4417 18.7947 50.6017 18.4213 50.687 17.888H51.359C51.359 19.3173 51.3697 20.4267 51.391 21.216C51.4124 22.0053 51.4444 22.6987 51.487 23.296C51.295 23.2533 50.943 23.2213 50.431 23.2C49.919 23.1787 49.3324 23.1573 48.671 23.136C48.0097 23.136 47.359 23.136 46.719 23.136H37.407V22.528C38.0044 21.888 38.7404 21.184 39.615 20.416C40.4897 19.648 41.343 18.7947 42.175 17.856C43.0284 16.9173 43.743 15.904 44.319 14.816C44.895 13.7067 45.183 12.5227 45.183 11.264C45.183 10.112 44.927 9.27999 44.415 8.76799C43.903 8.25599 43.167 7.99999 42.207 7.99999C41.2897 7.99999 40.479 8.21332 39.775 8.63999C39.0924 9.04532 38.4737 9.65332 37.919 10.464L37.375 10.144C37.8017 9.41865 38.335 8.75732 38.975 8.15999C39.6364 7.54132 40.447 7.05065 41.407 6.68799C42.367 6.32532 43.519 6.14399 44.863 6.14399ZM67.085 -1.52588e-05L67.213 0.639986C66.445 0.895985 65.677 1.20532 64.909 1.56799C64.141 1.93065 63.405 2.43199 62.701 3.07199C62.0184 3.71199 61.4104 4.53332 60.877 5.53599C60.3437 6.51732 59.917 7.75465 59.597 9.24799C59.2984 10.7413 59.149 12.544 59.149 14.656C59.149 16.768 59.2984 18.432 59.597 19.648C59.917 20.8427 60.3117 21.696 60.781 22.208C61.2504 22.6987 61.709 22.944 62.157 22.944C62.6477 22.944 63.1064 22.72 63.533 22.272C63.9597 21.824 64.301 21.1093 64.557 20.128C64.8344 19.1467 64.973 17.856 64.973 16.256C64.973 14.72 64.845 13.4933 64.589 12.576C64.3544 11.6587 64.0344 10.9973 63.629 10.592C63.2237 10.1867 62.765 9.98399 62.253 9.98399C61.8904 9.98399 61.485 10.0907 61.037 10.304C60.589 10.5173 60.173 10.8587 59.789 11.328C59.405 11.7973 59.1277 12.4587 58.957 13.312L58.669 13.184C58.797 12.16 59.1064 11.3493 59.597 10.752C60.109 10.1333 60.717 9.69599 61.421 9.43999C62.125 9.18399 62.829 9.05599 63.533 9.05599C64.685 9.05599 65.7304 9.33332 66.669 9.88799C67.6077 10.4427 68.365 11.232 68.941 12.256C69.517 13.28 69.805 14.5173 69.805 15.968C69.805 17.6107 69.4424 18.9973 68.717 20.128C67.9917 21.2587 67.021 22.1227 65.805 22.72C64.589 23.296 63.2664 23.584 61.837 23.584C59.4904 23.584 57.645 22.7947 56.301 21.216C54.9784 19.616 54.317 17.3653 54.317 14.464C54.317 12.544 54.5944 10.8373 55.149 9.34399C55.7037 7.85065 56.4397 6.55998 57.357 5.47198C58.2744 4.36265 59.2877 3.43465 60.397 2.68798C61.5277 1.94132 62.669 1.35465 63.821 0.927986C64.9944 0.479986 66.0824 0.170652 67.085 -1.52588e-05ZM81.5345 0.0319843L72.8305 23.584H71.7745L80.4785 0.0319843H81.5345ZM97.7788 -1.52588e-05L97.9068 0.639986C97.1388 0.895985 96.3708 1.20532 95.6028 1.56799C94.8348 1.93065 94.0988 2.43199 93.3948 3.07199C92.7121 3.71199 92.1041 4.53332 91.5708 5.53599C91.0374 6.51732 90.6108 7.75465 90.2908 9.24799C89.9921 10.7413 89.8428 12.544 89.8428 14.656C89.8428 16.768 89.9921 18.432 90.2908 19.648C90.6108 20.8427 91.0054 21.696 91.4748 22.208C91.9441 22.6987 92.4028 22.944 92.8508 22.944C93.3415 22.944 93.8001 22.72 94.2268 22.272C94.6534 21.824 94.9948 21.1093 95.2508 20.128C95.5281 19.1467 95.6668 17.856 95.6668 16.256C95.6668 14.72 95.5388 13.4933 95.2828 12.576C95.0481 11.6587 94.7281 10.9973 94.3228 10.592C93.9174 10.1867 93.4588 9.98399 92.9468 9.98399C92.5841 9.98399 92.1788 10.0907 91.7308 10.304C91.2828 10.5173 90.8668 10.8587 90.4828 11.328C90.0988 11.7973 89.8214 12.4587 89.6508 13.312L89.3628 13.184C89.4908 12.16 89.8001 11.3493 90.2908 10.752C90.8028 10.1333 91.4108 9.69599 92.1148 9.43999C92.8188 9.18399 93.5228 9.05599 94.2268 9.05599C95.3788 9.05599 96.4241 9.33332 97.3628 9.88799C98.3015 10.4427 99.0588 11.232 99.6348 12.256C100.211 13.28 100.499 14.5173 100.499 15.968C100.499 17.6107 100.136 18.9973 99.4108 20.128C98.6854 21.2587 97.7148 22.1227 96.4988 22.72C95.2828 23.296 93.9601 23.584 92.5308 23.584C90.1841 23.584 88.3388 22.7947 86.9948 21.216C85.6721 19.616 85.0108 17.3653 85.0108 14.464C85.0108 12.544 85.2881 10.8373 85.8428 9.34399C86.3974 7.85065 87.1334 6.55998 88.0508 5.47198C88.9681 4.36265 89.9814 3.43465 91.0908 2.68798C92.2214 1.94132 93.3628 1.35465 94.5148 0.927986C95.6881 0.479986 96.7761 0.170652 97.7788 -1.52588e-05ZM113.828 0.0319843L105.124 23.584H104.068L112.772 0.0319843H113.828ZM125.262 6.23999V20.032C125.262 20.9707 125.433 21.6107 125.774 21.952C126.137 22.2933 126.734 22.464 127.566 22.464V23.136C127.139 23.1147 126.51 23.0933 125.678 23.072C124.867 23.0293 124.025 23.008 123.15 23.008C122.062 23.008 121.006 23.0293 119.982 23.072C118.979 23.0933 118.201 23.1147 117.646 23.136V22.464C118.606 22.464 119.342 22.2933 119.854 21.952C120.387 21.5893 120.654 20.8853 120.654 19.84V12.032C120.654 11.008 120.569 10.2507 120.398 9.75999C120.227 9.26932 119.907 8.94932 119.438 8.79999C118.969 8.65065 118.329 8.57599 117.518 8.57599V7.87199C119.353 7.82932 120.867 7.69065 122.062 7.45599C123.278 7.22132 124.345 6.81599 125.262 6.23999ZM137.741 6.14399C138.787 6.14399 139.725 6.29332 140.557 6.59199C141.389 6.86932 142.04 7.28532 142.509 7.83999C142.979 8.37332 143.213 9.03465 143.213 9.82399C143.213 10.6347 142.947 11.392 142.413 12.096C141.901 12.8 141.155 13.4187 140.173 13.952C139.213 14.464 138.061 14.848 136.717 15.104C138.168 15.04 139.469 15.1893 140.621 15.552C141.773 15.9147 142.68 16.4693 143.341 17.216C144.024 17.9413 144.365 18.8587 144.365 19.968C144.365 20.9493 144.099 21.856 143.565 22.688C143.053 23.52 142.339 24.256 141.421 24.896C140.504 25.5573 139.459 26.112 138.285 26.56C137.133 27.0293 135.917 27.3813 134.637 27.616C133.357 27.8507 132.077 27.968 130.797 27.968V27.328C131.8 27.3067 132.813 27.1253 133.837 26.784C134.883 26.464 135.832 25.9947 136.685 25.376C137.56 24.7787 138.264 24.032 138.797 23.136C139.331 22.2187 139.597 21.1733 139.597 20C139.597 18.7413 139.299 17.7067 138.701 16.896C138.104 16.0853 137.283 15.6373 136.237 15.552C135.917 15.7013 135.629 15.8293 135.373 15.936C135.117 16.0213 134.861 16.064 134.605 16.064C134.413 16.064 134.264 16.032 134.157 15.968C134.051 15.904 133.997 15.7867 133.997 15.616C133.997 15.36 134.104 15.1787 134.317 15.072C134.531 14.9653 134.765 14.912 135.021 14.912C135.192 14.912 135.363 14.9333 135.533 14.976C135.725 14.9973 135.928 15.0187 136.141 15.04C137.059 14.4 137.699 13.7173 138.061 12.992C138.424 12.2453 138.605 11.4987 138.605 10.752C138.605 9.79199 138.349 9.08799 137.837 8.63999C137.347 8.17065 136.653 7.93599 135.757 7.93599C134.925 7.93599 134.147 8.14932 133.421 8.57599C132.696 8.98132 132.088 9.59999 131.597 10.432L131.021 10.144C131.405 9.43999 131.885 8.78932 132.461 8.19199C133.037 7.57332 133.752 7.08265 134.605 6.71999C135.459 6.33599 136.504 6.14399 137.741 6.14399ZM157.878 0.0319843L149.174 23.584H148.118L156.822 0.0319843H157.878ZM169.564 0.0639858C170.822 0.0639858 171.793 0.202653 172.476 0.479986C173.158 0.735985 173.745 1.01332 174.236 1.31199C174.492 1.46132 174.694 1.57865 174.844 1.66399C175.014 1.72799 175.174 1.75998 175.324 1.75998C175.537 1.75998 175.686 1.64265 175.772 1.40799C175.878 1.17332 175.964 0.821318 176.028 0.351986H176.764C176.742 0.757319 176.71 1.24799 176.668 1.82399C176.646 2.37865 176.625 3.11465 176.604 4.03199C176.604 4.94932 176.604 6.15465 176.604 7.64799H175.868C175.782 6.53865 175.526 5.46132 175.1 4.41599C174.673 3.37065 174.065 2.51732 173.276 1.85599C172.508 1.17332 171.558 0.831985 170.428 0.831985C169.404 0.831985 168.561 1.11999 167.9 1.69599C167.238 2.27199 166.908 3.07199 166.908 4.09599C166.908 4.94932 167.121 5.68532 167.548 6.30399C167.974 6.90132 168.593 7.48799 169.404 8.06399C170.236 8.63999 171.238 9.33332 172.412 10.144C173.436 10.8053 174.353 11.4667 175.164 12.128C175.974 12.7893 176.625 13.536 177.116 14.368C177.606 15.2 177.852 16.192 177.852 17.344C177.852 18.752 177.478 19.9147 176.732 20.832C176.006 21.7493 175.046 22.4427 173.852 22.912C172.657 23.36 171.345 23.584 169.916 23.584C168.593 23.584 167.537 23.456 166.748 23.2C165.958 22.944 165.297 22.6773 164.764 22.4C164.294 22.1013 163.932 21.952 163.676 21.952C163.462 21.952 163.302 22.0693 163.196 22.304C163.11 22.5387 163.036 22.8907 162.972 23.36H162.236C162.278 22.848 162.3 22.2507 162.3 21.568C162.321 20.8853 162.332 20 162.332 18.912C162.353 17.8027 162.364 16.4053 162.364 14.72H163.1C163.185 16.128 163.42 17.4507 163.804 18.688C164.209 19.904 164.817 20.8853 165.628 21.632C166.46 22.3787 167.558 22.752 168.924 22.752C169.67 22.752 170.332 22.624 170.908 22.368C171.505 22.0907 171.985 21.6853 172.348 21.152C172.71 20.6187 172.892 19.9573 172.892 19.168C172.892 18.272 172.678 17.4933 172.252 16.832C171.846 16.1707 171.281 15.552 170.556 14.976C169.852 14.4 169.03 13.8133 168.092 13.216C167.089 12.5547 166.15 11.8933 165.276 11.232C164.401 10.5707 163.697 9.81332 163.164 8.95999C162.652 8.10665 162.396 7.09332 162.396 5.91998C162.396 4.57599 162.726 3.47732 163.388 2.62399C164.07 1.74932 164.956 1.10932 166.044 0.703985C167.153 0.277319 168.326 0.0639858 169.564 0.0639858ZM184.347 23.36C183.387 23.36 182.587 23.1787 181.947 22.816C181.307 22.4533 180.838 21.9733 180.539 21.376C180.24 20.7573 180.091 20.0853 180.091 19.36C180.091 18.4427 180.294 17.696 180.699 17.12C181.126 16.544 181.67 16.0747 182.331 15.712C182.992 15.3493 183.686 15.0507 184.411 14.816C185.158 14.5813 185.862 14.3573 186.523 14.144C187.206 13.9093 187.75 13.6427 188.155 13.344C188.582 13.024 188.795 12.6187 188.795 12.128V9.63199C188.795 9.07732 188.699 8.58665 188.507 8.15999C188.336 7.71199 188.059 7.37065 187.675 7.13599C187.312 6.90132 186.832 6.78399 186.235 6.78399C185.808 6.78399 185.382 6.84799 184.955 6.97599C184.528 7.08265 184.176 7.27465 183.899 7.55199C184.496 7.76532 184.955 8.09599 185.275 8.54399C185.616 8.97065 185.787 9.46132 185.787 10.016C185.787 10.7413 185.531 11.3173 185.019 11.744C184.528 12.1707 183.942 12.384 183.259 12.384C182.491 12.384 181.904 12.1493 181.499 11.68C181.115 11.1893 180.923 10.6027 180.923 9.91999C180.923 9.30132 181.072 8.78932 181.371 8.38399C181.691 7.97865 182.128 7.59465 182.683 7.23199C183.28 6.89065 183.995 6.62399 184.827 6.43199C185.68 6.23999 186.598 6.14399 187.579 6.14399C188.56 6.14399 189.446 6.25065 190.235 6.46399C191.024 6.65599 191.686 7.01865 192.219 7.55199C192.71 8.04265 193.03 8.65065 193.179 9.37599C193.328 10.08 193.403 10.976 193.403 12.064V20.768C193.403 21.3013 193.456 21.6747 193.563 21.888C193.67 22.08 193.851 22.176 194.107 22.176C194.299 22.176 194.48 22.1227 194.651 22.016C194.843 21.9093 195.046 21.7813 195.259 21.632L195.579 22.176C195.131 22.56 194.608 22.8587 194.011 23.072C193.435 23.264 192.784 23.36 192.059 23.36C191.27 23.36 190.64 23.2533 190.171 23.04C189.702 22.8053 189.36 22.496 189.147 22.112C188.955 21.728 188.859 21.28 188.859 20.768C188.347 21.5787 187.728 22.2187 187.003 22.688C186.278 23.136 185.392 23.36 184.347 23.36ZM186.619 21.312C187.046 21.312 187.43 21.216 187.771 21.024C188.134 20.8107 188.475 20.4693 188.795 20V13.44C188.603 13.76 188.336 14.048 187.995 14.304C187.654 14.56 187.291 14.8267 186.907 15.104C186.523 15.36 186.15 15.648 185.787 15.968C185.446 16.288 185.168 16.6827 184.955 17.152C184.742 17.6213 184.635 18.1867 184.635 18.848C184.635 19.68 184.816 20.2987 185.179 20.704C185.542 21.1093 186.022 21.312 186.619 21.312ZM202.99 1.34398V6.59199H206.766V7.23199H202.99V20.16C202.99 20.8 203.107 21.2587 203.342 21.536C203.576 21.792 203.928 21.92 204.398 21.92C204.782 21.92 205.166 21.7813 205.55 21.504C205.934 21.2053 206.275 20.704 206.574 20L207.118 20.288C206.776 21.248 206.254 22.0373 205.55 22.656C204.867 23.2747 203.928 23.584 202.734 23.584C202.03 23.584 201.411 23.488 200.878 23.296C200.344 23.1253 199.896 22.8587 199.534 22.496C199.064 22.0267 198.755 21.4507 198.606 20.768C198.456 20.064 198.382 19.1573 198.382 18.048V7.23199H195.694V6.59199H198.382V2.36798C199.278 2.36798 200.099 2.29332 200.846 2.14399C201.614 1.97332 202.328 1.70665 202.99 1.34398Z" fill="white"/>
</svg>
