<svg width="195" height="28" viewBox="0 0 195 28" fill="none" xmlns="http://www.w3.org/2000/svg">
<path d="M13.2799 23.4561C12.6613 23.4561 11.9466 23.3494 11.1359 23.1361C10.3253 22.9227 9.47194 22.6774 8.57594 22.4001C7.70128 22.1227 6.81594 21.8987 5.91994 21.7281C5.21594 22.3254 4.56528 22.7627 3.96794 23.0401C3.39194 23.2961 2.86928 23.4241 2.39994 23.4241C1.61061 23.4241 1.01328 23.1254 0.607943 22.5281C0.20261 21.9094 -5.67436e-05 21.2267 -5.67436e-05 20.4801C-5.67436e-05 19.9467 0.10661 19.4347 0.319943 18.9441C0.533277 18.4321 0.84261 18.0161 1.24794 17.6961C1.67461 17.3761 2.20794 17.2161 2.84794 17.2161C3.21061 17.2161 3.61594 17.2907 4.06394 17.4401C4.53328 17.5681 5.03461 17.7814 5.56794 18.0801C6.48528 17.3974 7.27461 16.6081 7.93594 15.7121C8.59728 14.8161 9.09861 13.9201 9.43994 13.0241C9.80261 12.1067 9.98394 11.2854 9.98394 10.5601C9.98394 9.89872 9.83461 9.36539 9.53594 8.96006C9.25861 8.53339 8.84261 8.32006 8.28794 8.32006C7.62661 8.32006 7.11461 8.61872 6.75194 9.21605C6.41061 9.79206 6.23994 10.4961 6.23994 11.3281C6.23994 11.7547 6.28261 12.2027 6.36794 12.6721C6.47461 13.1201 6.63461 13.5681 6.84794 14.0161C5.71728 14.0161 4.75728 13.8241 3.96794 13.4401C3.19994 13.0347 2.61328 12.5227 2.20794 11.9041C1.80261 11.2641 1.59994 10.5921 1.59994 9.88805C1.59994 9.12006 1.84528 8.37339 2.33594 7.64806C2.84794 6.92272 3.61594 6.33605 4.63994 5.88805C5.68528 5.41872 6.99728 5.18406 8.57594 5.18406C10.1119 5.18406 11.3599 5.41872 12.3199 5.88805C13.3013 6.33605 14.0159 6.94405 14.4639 7.71206C14.9333 8.48005 15.1679 9.33339 15.1679 10.2721C15.1679 11.2534 14.9333 12.2774 14.4639 13.3441C13.9946 14.3894 13.3226 15.4027 12.4479 16.3841C11.5946 17.3441 10.5599 18.1974 9.34394 18.9441C9.64261 18.9867 9.95194 19.0294 10.2719 19.0721C10.5919 19.1147 10.9119 19.1361 11.2319 19.1361C12.0213 19.1361 12.7893 18.9867 13.5359 18.6881C14.2826 18.3681 14.9973 17.7814 15.6799 16.9281C16.0639 17.1627 16.3626 17.5254 16.5759 18.0161C16.7893 18.5067 16.8959 19.0401 16.8959 19.6161C16.8959 20.2134 16.7679 20.8107 16.5119 21.4081C16.2559 22.0054 15.8613 22.4961 15.3279 22.8801C14.7946 23.2641 14.1119 23.4561 13.2799 23.4561ZM26.7657 23.4561C25.0164 23.4561 23.555 23.1254 22.3817 22.4641C21.2297 21.8027 20.323 20.9281 19.6617 19.8401C19.0217 18.7307 18.627 17.5254 18.4777 16.2241C18.3284 14.9227 18.403 13.6214 18.7017 12.3201C19.0004 11.0187 19.5124 9.82406 20.2377 8.73606C20.963 7.62672 21.8697 6.74139 22.9577 6.08006C24.067 5.41872 25.3364 5.08805 26.7657 5.08805C28.4937 5.08805 29.9444 5.41872 31.1177 6.08006C32.291 6.74139 33.1977 7.62672 33.8377 8.73606C34.4777 9.82406 34.8724 11.0187 35.0217 12.3201C35.171 13.6214 35.0964 14.9227 34.7977 16.2241C34.499 17.5254 33.987 18.7307 33.2617 19.8401C32.5577 20.9281 31.651 21.8027 30.5417 22.4641C29.4537 23.1254 28.195 23.4561 26.7657 23.4561ZM26.7337 20.2561C28.547 20.2561 29.4537 18.1974 29.4537 14.0801C29.4537 10.1974 28.547 8.26672 26.7337 8.28806C24.9204 8.26672 24.0137 10.3254 24.0137 14.4641C24.0137 18.3254 24.9204 20.2561 26.7337 20.2561ZM49.3737 23.4561C48.755 23.4561 48.0404 23.3494 47.2297 23.1361C46.419 22.9227 45.5657 22.6774 44.6697 22.4001C43.795 22.1227 42.9097 21.8987 42.0137 21.7281C41.3097 22.3254 40.659 22.7627 40.0617 23.0401C39.4857 23.2961 38.963 23.4241 38.4937 23.4241C37.7044 23.4241 37.107 23.1254 36.7017 22.5281C36.2964 21.9094 36.0937 21.2267 36.0937 20.4801C36.0937 19.9467 36.2004 19.4347 36.4137 18.9441C36.627 18.4321 36.9364 18.0161 37.3417 17.6961C37.7684 17.3761 38.3017 17.2161 38.9417 17.2161C39.3044 17.2161 39.7097 17.2907 40.1577 17.4401C40.627 17.5681 41.1284 17.7814 41.6617 18.0801C42.579 17.3974 43.3684 16.6081 44.0297 15.7121C44.691 14.8161 45.1924 13.9201 45.5337 13.0241C45.8964 12.1067 46.0777 11.2854 46.0777 10.5601C46.0777 9.89872 45.9284 9.36539 45.6297 8.96006C45.3524 8.53339 44.9364 8.32006 44.3817 8.32006C43.7204 8.32006 43.2084 8.61872 42.8457 9.21605C42.5044 9.79206 42.3337 10.4961 42.3337 11.3281C42.3337 11.7547 42.3764 12.2027 42.4617 12.6721C42.5684 13.1201 42.7284 13.5681 42.9417 14.0161C41.811 14.0161 40.851 13.8241 40.0617 13.4401C39.2937 13.0347 38.707 12.5227 38.3017 11.9041C37.8964 11.2641 37.6937 10.5921 37.6937 9.88805C37.6937 9.12006 37.939 8.37339 38.4297 7.64806C38.9417 6.92272 39.7097 6.33605 40.7337 5.88805C41.779 5.41872 43.091 5.18406 44.6697 5.18406C46.2057 5.18406 47.4537 5.41872 48.4137 5.88805C49.395 6.33605 50.1097 6.94405 50.5577 7.71206C51.027 8.48005 51.2617 9.33339 51.2617 10.2721C51.2617 11.2534 51.027 12.2774 50.5577 13.3441C50.0884 14.3894 49.4164 15.4027 48.5417 16.3841C47.6884 17.3441 46.6537 18.1974 45.4377 18.9441C45.7364 18.9867 46.0457 19.0294 46.3657 19.0721C46.6857 19.1147 47.0057 19.1361 47.3257 19.1361C48.115 19.1361 48.883 18.9867 49.6297 18.6881C50.3764 18.3681 51.091 17.7814 51.7737 16.9281C52.1577 17.1627 52.4564 17.5254 52.6697 18.0161C52.883 18.5067 52.9897 19.0401 52.9897 19.6161C52.9897 20.2134 52.8617 20.8107 52.6057 21.4081C52.3497 22.0054 51.955 22.4961 51.4217 22.8801C50.8884 23.2641 50.2057 23.4561 49.3737 23.4561ZM61.0369 27.6161C59.8636 27.6161 58.7436 27.3707 57.6769 26.8801C56.6316 26.3894 55.7783 25.6214 55.1169 24.5761C54.4556 23.5521 54.1249 22.2187 54.1249 20.5761L54.6689 20.3521C55.5649 21.6321 56.4823 22.5387 57.4209 23.0721C58.3596 23.5841 59.2343 23.8401 60.0449 23.8401C60.7489 23.8401 61.3783 23.6801 61.9329 23.3601C62.4876 23.0614 62.9249 22.6667 63.2449 22.1761C63.5863 21.6854 63.7569 21.1627 63.7569 20.6081C63.7569 20.0534 63.6396 19.5307 63.4049 19.0401C63.1916 18.5281 62.8716 18.1547 62.4449 17.9201C61.9756 18.2614 61.5489 18.5174 61.1649 18.6881C60.7809 18.8374 60.4183 18.9121 60.0769 18.9121C59.3943 18.9121 58.8609 18.6561 58.4769 18.1441C58.1143 17.6321 57.9329 17.0881 57.9329 16.5121C57.9329 15.9574 58.0929 15.4667 58.4129 15.0401C58.7543 14.6134 59.2663 14.4001 59.9489 14.4001C60.4823 14.4001 61.0689 14.5387 61.7089 14.8161C62.3916 13.9841 62.8716 13.2161 63.1489 12.5121C63.4476 11.8081 63.5969 11.1787 63.5969 10.6241C63.5969 9.87739 63.3836 9.29072 62.9569 8.86405C62.5516 8.43739 62.1036 8.22406 61.6129 8.22406C61.1223 8.22406 60.6636 8.45872 60.2369 8.92805C59.8316 9.37605 59.6289 10.1014 59.6289 11.1041C59.6289 11.3814 59.6503 11.6801 59.6929 12.0001C59.7356 12.3201 59.7996 12.6614 59.8849 13.0241C58.3916 13.0241 57.2609 12.6721 56.4929 11.9681C55.7463 11.2641 55.3729 10.4641 55.3729 9.56806C55.3729 8.86406 55.6076 8.18139 56.0769 7.52005C56.5676 6.83739 57.2929 6.28272 58.2529 5.85605C59.2343 5.40805 60.4716 5.18406 61.9649 5.18406C63.4369 5.18406 64.6636 5.40805 65.6449 5.85605C66.6476 6.28272 67.3943 6.85872 67.8849 7.58405C68.3969 8.30939 68.6529 9.10939 68.6529 9.98405C68.6529 11.0294 68.2796 12.0961 67.5329 13.1841C66.7863 14.2507 65.6449 15.1894 64.1089 16.0001C65.2823 16.1067 66.2316 16.4054 66.9569 16.8961C67.7036 17.3867 68.2476 17.9841 68.5889 18.6881C68.9303 19.3707 69.1009 20.1067 69.1009 20.8961C69.1009 21.9414 68.8663 22.8694 68.3969 23.6801C67.9489 24.5121 67.3303 25.2161 66.5409 25.7921C65.7729 26.3894 64.9089 26.8374 63.9489 27.1361C62.9889 27.4561 62.0183 27.6161 61.0369 27.6161ZM73.6269 23.4241C72.7523 23.4241 72.0269 23.1467 71.4509 22.5921C70.8749 22.0374 70.5869 21.3547 70.5869 20.5441C70.5869 19.6267 70.9176 18.8481 71.5789 18.2081C72.2616 17.5467 73.0936 17.2161 74.0749 17.2161C74.9496 17.2161 75.6749 17.4934 76.2509 18.0481C76.8483 18.6027 77.1469 19.2854 77.1469 20.0961C77.1469 21.0134 76.8056 21.8027 76.1229 22.4641C75.4403 23.1041 74.6083 23.4241 73.6269 23.4241ZM87.9729 23.4561C86.2236 23.4561 84.7516 23.0294 83.5569 22.1761C82.3836 21.3014 81.4983 20.1494 80.9009 18.7201C80.3036 17.2694 80.0049 15.7014 80.0049 14.0161C80.0049 12.5654 80.2289 11.1147 80.6769 9.66405C81.1249 8.19205 81.8183 6.85872 82.7569 5.66405C83.6956 4.44806 84.8903 3.47739 86.3409 2.75205C87.8129 2.00539 89.5623 1.63206 91.5889 1.63206C92.1436 1.63206 92.6129 1.65339 92.9969 1.69605C93.3809 1.73872 93.6796 1.79206 93.8929 1.85605L93.9569 2.59205C93.5729 2.67739 93.0929 2.84805 92.5169 3.10406C91.9623 3.33872 91.3756 3.63739 90.7569 4.00006C90.1596 4.34139 89.6049 4.72539 89.0929 5.15206C88.1756 5.92005 87.4396 6.80539 86.8849 7.80805C86.3303 8.81072 85.9249 9.90939 85.6689 11.1041C86.1596 10.3361 86.7783 9.77072 87.5249 9.40806C88.2716 9.04539 89.0396 8.86405 89.8289 8.86405C90.8103 8.86405 91.7489 9.12005 92.6449 9.63206C93.5623 10.1227 94.3196 10.8587 94.9169 11.8401C95.5143 12.8214 95.8129 14.0374 95.8129 15.4881C95.8129 16.8747 95.5036 18.1761 94.8849 19.3921C94.2663 20.6081 93.3703 21.5894 92.1969 22.3361C91.0236 23.0827 89.6156 23.4561 87.9729 23.4561ZM87.8129 20.4161C88.6876 20.4161 89.3383 19.9894 89.7649 19.1361C90.1916 18.2614 90.4049 17.2374 90.4049 16.0641C90.4049 14.7201 90.1596 13.6961 89.6689 12.9921C89.1783 12.2667 88.6129 11.9041 87.9729 11.9041C87.5036 11.9041 87.0236 12.1174 86.5329 12.5441C86.0423 12.9707 85.6263 13.6321 85.2849 14.5281V14.8801C85.2849 18.5707 86.1276 20.4161 87.8129 20.4161ZM101.608 23.4241C100.734 23.4241 100.008 23.1467 99.4322 22.5921C98.8562 22.0374 98.5682 21.3547 98.5682 20.5441C98.5682 19.6267 98.8989 18.8481 99.5602 18.2081C100.243 17.5467 101.075 17.2161 102.056 17.2161C102.931 17.2161 103.656 17.4934 104.232 18.0481C104.83 18.6027 105.128 19.2854 105.128 20.0961C105.128 21.0134 104.787 21.8027 104.104 22.4641C103.422 23.1041 102.59 23.4241 101.608 23.4241ZM113.997 23.3281C113.272 23.3281 112.611 23.2214 112.013 23.0081C111.416 22.7734 111.128 22.4534 111.149 22.0481C111.256 20.2987 111.459 18.5067 111.757 16.6721C112.056 14.8374 112.323 13.0987 112.557 11.4561C111.896 12.4161 111.16 13.1734 110.349 13.7281C109.56 14.2827 108.792 14.5601 108.045 14.5601C107.192 14.5601 106.424 14.1547 105.741 13.3441C105.08 12.5121 104.632 11.1787 104.397 9.34406C104.696 9.36539 104.995 9.39739 105.293 9.44005C105.592 9.46139 105.88 9.47206 106.157 9.47206C107.352 9.47206 108.536 9.33339 109.709 9.05606C110.904 8.75739 111.928 8.37339 112.781 7.90405C112.696 6.73072 112.877 5.90939 113.325 5.44005C113.795 4.94939 114.339 4.70405 114.957 4.70405C115.619 4.70405 116.184 4.89605 116.653 5.28005C117.123 5.66405 117.357 6.15472 117.357 6.75205C117.357 7.02939 117.283 7.32805 117.133 7.64806C117.005 7.94672 116.792 8.25605 116.493 8.57605C116.557 10.3894 116.589 12.4587 116.589 14.7841C116.589 17.1094 116.728 19.5414 117.005 22.0801C116.877 22.4854 116.515 22.7947 115.917 23.0081C115.32 23.2214 114.68 23.3281 113.997 23.3281ZM127.656 27.6161C126.482 27.6161 125.362 27.3707 124.296 26.8801C123.25 26.3894 122.397 25.6214 121.736 24.5761C121.074 23.5521 120.744 22.2187 120.744 20.5761L121.288 20.3521C122.184 21.6321 123.101 22.5387 124.04 23.0721C124.978 23.5841 125.853 23.8401 126.664 23.8401C127.368 23.8401 127.997 23.6801 128.552 23.3601C129.106 23.0614 129.544 22.6667 129.864 22.1761C130.205 21.6854 130.376 21.1627 130.376 20.6081C130.376 20.0534 130.258 19.5307 130.024 19.0401C129.81 18.5281 129.49 18.1547 129.064 17.9201C128.594 18.2614 128.168 18.5174 127.784 18.6881C127.4 18.8374 127.037 18.9121 126.696 18.9121C126.013 18.9121 125.48 18.6561 125.096 18.1441C124.733 17.6321 124.552 17.0881 124.552 16.5121C124.552 15.9574 124.712 15.4667 125.032 15.0401C125.373 14.6134 125.885 14.4001 126.568 14.4001C127.101 14.4001 127.688 14.5387 128.328 14.8161C129.01 13.9841 129.49 13.2161 129.768 12.5121C130.066 11.8081 130.216 11.1787 130.216 10.6241C130.216 9.87739 130.002 9.29072 129.576 8.86405C129.17 8.43739 128.722 8.22406 128.232 8.22406C127.741 8.22406 127.282 8.45872 126.856 8.92805C126.45 9.37605 126.248 10.1014 126.248 11.1041C126.248 11.3814 126.269 11.6801 126.312 12.0001C126.354 12.3201 126.418 12.6614 126.504 13.0241C125.01 13.0241 123.88 12.6721 123.112 11.9681C122.365 11.2641 121.992 10.4641 121.992 9.56806C121.992 8.86406 122.226 8.18139 122.696 7.52005C123.186 6.83739 123.912 6.28272 124.872 5.85605C125.853 5.40805 127.09 5.18406 128.584 5.18406C130.056 5.18406 131.282 5.40805 132.264 5.85605C133.266 6.28272 134.013 6.85872 134.504 7.58405C135.016 8.30939 135.272 9.10939 135.272 9.98405C135.272 11.0294 134.898 12.0961 134.152 13.1841C133.405 14.2507 132.264 15.1894 130.728 16.0001C131.901 16.1067 132.85 16.4054 133.576 16.8961C134.322 17.3867 134.866 17.9841 135.208 18.6881C135.549 19.3707 135.72 20.1067 135.72 20.8961C135.72 21.9414 135.485 22.8694 135.016 23.6801C134.568 24.5121 133.949 25.2161 133.16 25.7921C132.392 26.3894 131.528 26.8374 130.568 27.1361C129.608 27.4561 128.637 27.6161 127.656 27.6161ZM141.846 23.4241C140.971 23.4241 140.246 23.1467 139.67 22.5921C139.094 22.0374 138.806 21.3547 138.806 20.5441C138.806 19.6267 139.136 18.8481 139.798 18.2081C140.48 17.5467 141.312 17.2161 142.294 17.2161C143.168 17.2161 143.894 17.4934 144.47 18.0481C145.067 18.6027 145.366 19.2854 145.366 20.0961C145.366 21.0134 145.024 21.8027 144.342 22.4641C143.659 23.1041 142.827 23.4241 141.846 23.4241ZM154.616 23.4241C153.187 23.4241 152.003 23.1787 151.064 22.6881C150.147 22.1974 149.464 21.5681 149.016 20.8001C148.568 20.0321 148.344 19.2427 148.344 18.4321C148.344 17.6427 148.536 16.8961 148.92 16.1921C149.304 15.4667 149.848 14.8694 150.552 14.4001C151.277 13.9307 152.131 13.6961 153.112 13.6961C153.091 13.8881 153.08 14.0694 153.08 14.2401C153.08 14.3894 153.08 14.4641 153.08 14.4641C153.08 15.8934 153.219 17.0241 153.496 17.8561C153.773 18.6667 154.125 19.2534 154.552 19.6161C154.979 19.9574 155.416 20.1281 155.864 20.1281C156.547 20.1281 157.155 19.8614 157.688 19.3281C158.221 18.7734 158.488 18.1334 158.488 17.4081C158.488 16.5974 158.136 15.8827 157.432 15.2641C156.749 14.6454 155.875 13.9627 154.808 13.2161C154.211 12.7681 153.571 12.2667 152.888 11.7121C152.227 11.1361 151.661 10.4641 151.192 9.69606C150.723 8.90672 150.488 7.97872 150.488 6.91205C150.488 5.80272 150.744 4.82139 151.256 3.96805C151.789 3.11472 152.483 2.40005 153.336 1.82405C154.211 1.22672 155.16 0.778721 156.184 0.480055C157.229 0.160055 158.264 5.53131e-05 159.288 5.53131e-05C160.547 5.53131e-05 161.581 0.202722 162.392 0.608055C163.203 1.01339 163.811 1.53605 164.216 2.17605C164.621 2.81605 164.824 3.47739 164.824 4.16006C164.824 4.80005 164.643 5.41872 164.28 6.01605C163.939 6.59205 163.427 7.06139 162.744 7.42406C162.061 7.78672 161.219 7.96805 160.216 7.96805C160.28 7.66939 160.323 7.40272 160.344 7.16805C160.365 6.91206 160.376 6.68806 160.376 6.49606C160.376 5.42939 160.141 4.67205 159.672 4.22405C159.224 3.75472 158.723 3.52005 158.168 3.52005C157.635 3.52005 157.123 3.72272 156.632 4.12806C156.141 4.51205 155.896 5.14139 155.896 6.01605C155.896 6.76272 156.088 7.40272 156.472 7.93606C156.877 8.46939 157.389 8.93872 158.008 9.34406C158.648 9.74939 159.32 10.1441 160.024 10.5281C160.749 10.9121 161.443 11.3387 162.104 11.8081C162.787 12.2561 163.352 12.7894 163.8 13.4081C164.248 14.0267 164.472 14.8054 164.472 15.7441C164.472 16.7254 164.205 17.6854 163.672 18.6241C163.139 19.5414 162.413 20.3627 161.496 21.0881C160.579 21.7921 159.523 22.3574 158.328 22.7841C157.155 23.2107 155.917 23.4241 154.616 23.4241ZM178.009 23.3921C177.263 23.3921 176.612 23.1467 176.057 22.6561C175.503 22.1654 175.225 21.3654 175.225 20.2561C175.225 20.1494 175.225 20.0427 175.225 19.9361C175.225 19.8294 175.236 19.7227 175.257 19.6161C174.617 20.8961 173.892 21.8454 173.081 22.4641C172.292 23.0614 171.492 23.3601 170.681 23.3601C169.935 23.3601 169.231 23.1041 168.569 22.5921C167.908 22.0587 167.375 21.2801 166.969 20.2561C166.564 19.2321 166.361 17.9947 166.361 16.5441C166.361 15.0507 166.564 13.7174 166.969 12.5441C167.396 11.3707 167.951 10.3787 168.633 9.56806C169.316 8.75739 170.063 8.14939 170.873 7.74405C171.684 7.31739 172.473 7.10406 173.241 7.10406C174.095 7.10406 174.863 7.37072 175.545 7.90405C176.228 8.41606 176.697 9.23739 176.953 10.3681C177.017 10.0054 177.06 9.67472 177.081 9.37605C177.124 9.07739 177.145 8.87472 177.145 8.76805C177.167 8.19205 177.455 7.76539 178.009 7.48806C178.585 7.21072 179.215 7.07206 179.897 7.07206C180.495 7.07206 181.06 7.18939 181.593 7.42406C182.127 7.65872 182.489 8.05339 182.681 8.60806L182.745 8.80005C182.489 9.37605 182.233 10.0694 181.977 10.8801C181.721 11.6907 181.487 12.5441 181.273 13.4401C181.06 14.3147 180.889 15.1787 180.761 16.0321C180.633 16.8641 180.569 17.6001 180.569 18.2401C180.569 18.9441 180.644 19.4347 180.793 19.7121C180.943 19.9681 181.124 20.0961 181.337 20.0961C181.7 20.0961 182.031 19.8401 182.329 19.3281L182.585 19.4561C182.585 20.1814 182.351 20.8427 181.881 21.4401C181.412 22.0374 180.825 22.5174 180.121 22.8801C179.417 23.2214 178.713 23.3921 178.009 23.3921ZM172.793 19.3281C173.348 19.3281 173.956 18.8374 174.617 17.8561C175.3 16.8534 175.887 15.4241 176.377 13.5681C176.42 13.3761 176.463 13.1947 176.505 13.0241C176.548 12.8321 176.58 12.6507 176.601 12.4801C176.26 11.6907 175.897 11.1361 175.513 10.8161C175.151 10.4747 174.788 10.3041 174.425 10.3041C173.892 10.3041 173.391 10.5921 172.921 11.1681C172.473 11.7227 172.1 12.4267 171.801 13.2801C171.524 14.1334 171.385 14.9867 171.385 15.8401C171.385 17.0134 171.513 17.8881 171.769 18.4641C172.047 19.0401 172.388 19.3281 172.793 19.3281ZM189.155 23.3601C188.473 23.3601 187.822 23.2107 187.203 22.9121C186.606 22.5921 186.115 22.1014 185.731 21.4401C185.369 20.7787 185.187 19.9361 185.187 18.9121C185.187 18.3574 185.241 17.6321 185.347 16.7361C185.454 15.8401 185.593 14.8587 185.763 13.7921C185.955 12.7254 186.147 11.6587 186.339 10.5921C185.913 10.6134 185.497 10.6561 185.091 10.7201C184.707 10.7841 184.323 10.8587 183.939 10.9441L183.875 10.7201C184.302 10.2081 184.75 9.77072 185.219 9.40806C185.689 9.04539 186.179 8.74672 186.691 8.51206C186.969 7.10406 187.203 5.88806 187.395 4.86406C187.587 3.81872 187.683 3.20005 187.683 3.00805C187.683 2.64539 187.961 2.34672 188.515 2.11205C189.091 1.87739 189.731 1.76006 190.435 1.76006C191.054 1.76006 191.63 1.87739 192.163 2.11205C192.718 2.34672 193.091 2.74139 193.283 3.29605C193.155 3.42405 192.974 3.90405 192.739 4.73606C192.505 5.54672 192.259 6.53872 192.003 7.71206C192.409 7.73339 192.825 7.75472 193.251 7.77606C193.678 7.79739 194.115 7.82939 194.563 7.87206C194.606 8.00005 194.638 8.13872 194.659 8.28806C194.681 8.43739 194.691 8.59739 194.691 8.76805C194.691 9.08806 194.638 9.44006 194.531 9.82405C194.446 10.1867 194.339 10.5174 194.211 10.8161C193.699 10.7734 193.219 10.7307 192.771 10.6881C192.323 10.6241 191.886 10.5814 191.459 10.5601C191.289 11.4774 191.129 12.3947 190.979 13.3121C190.851 14.2294 190.745 15.0614 190.659 15.8081C190.595 16.5547 190.563 17.1414 190.563 17.5681C190.563 18.4641 190.723 19.0614 191.043 19.3601C191.385 19.6587 191.79 19.8081 192.259 19.8081C192.686 19.8081 193.07 19.7227 193.411 19.5521C193.753 19.3814 193.998 19.1787 194.147 18.9441L194.467 19.0401C194.339 19.9147 193.998 20.6827 193.443 21.3441C192.889 21.9841 192.227 22.4854 191.459 22.8481C190.691 23.1894 189.923 23.3601 189.155 23.3601Z" fill="white"/>
</svg>
