<svg width="272" height="32" viewBox="0 0 272 32" fill="none" xmlns="http://www.w3.org/2000/svg">
<path d="M20.52 28.3999C20.9467 29.0399 21.2933 29.5199 21.56 29.8399C21.8267 30.1333 22.1733 30.3466 22.6 30.4799V31.3199C20.4667 31.2133 19.0667 31.1599 18.4 31.1599C17.52 31.1599 15.8 31.2133 13.24 31.3199V30.4799C13.6133 30.4799 13.9067 30.4133 14.12 30.2799C14.3333 30.1466 14.44 29.9599 14.44 29.7199C14.44 29.5866 14.3733 29.3866 14.24 29.1199L10.28 21.9599C10.0133 21.5066 9.73332 21.1999 9.43999 21.0399C9.14666 20.8799 8.77332 20.7733 8.31999 20.7199V27.5999C8.31999 28.6933 8.49332 29.4533 8.83999 29.8799C9.18666 30.2799 9.81332 30.4799 10.72 30.4799V31.3199C8.05332 31.2133 6.31999 31.1599 5.51999 31.1599C4.61332 31.1599 2.77332 31.2133 -9.71556e-06 31.3199V30.4799C0.933324 30.4799 1.58666 30.2799 1.95999 29.8799C2.35999 29.4533 2.55999 28.6933 2.55999 27.5999V4.79994C2.55999 3.57328 2.35999 2.67994 1.95999 2.11995C1.58666 1.55994 0.933324 1.27994 -9.71556e-06 1.27994V0.439946C0.853324 0.519945 1.67999 0.559944 2.47999 0.559944C4.79999 0.559944 6.74666 0.373278 8.31999 -5.57899e-05V19.9599C8.85332 19.9066 9.30666 19.7999 9.67999 19.6399C10.08 19.4799 10.4267 19.2399 10.72 18.9199L13.76 15.9599C14.64 15.0799 15.08 14.2666 15.08 13.5199C15.08 12.9066 14.8 12.4266 14.24 12.0799C13.68 11.7066 12.9333 11.4933 12 11.4399V10.6399C13.4667 10.7199 15.0267 10.7599 16.68 10.7599C18.8933 10.7599 20.4533 10.7199 21.36 10.6399V11.4399C19.7867 11.7866 18.12 12.8133 16.36 14.5199L13.8 17.1599L20.52 28.3999ZM32.9809 10.0799C36.0476 10.0799 38.4476 10.9599 40.1809 12.7199C41.9143 14.4533 42.7809 17.2133 42.7809 20.9999C42.7809 24.7866 41.9143 27.5466 40.1809 29.2799C38.4476 31.0133 36.0476 31.8799 32.9809 31.8799C29.9409 31.8799 27.5409 31.0133 25.7809 29.2799C24.0476 27.5466 23.1809 24.7866 23.1809 20.9999C23.1809 17.2133 24.0476 14.4533 25.7809 12.7199C27.5409 10.9599 29.9409 10.0799 32.9809 10.0799ZM32.9809 10.8799C31.8343 10.8799 30.9143 11.7199 30.2209 13.3999C29.5543 15.0533 29.2209 17.5866 29.2209 20.9999C29.2209 24.4133 29.5543 26.9466 30.2209 28.5999C30.9143 30.2533 31.8343 31.0799 32.9809 31.0799C34.1543 31.0799 35.0743 30.2666 35.7409 28.6399C36.4076 26.9866 36.7409 24.4399 36.7409 20.9999C36.7409 17.5599 36.3943 15.0133 35.7009 13.3599C35.0343 11.7066 34.1276 10.8799 32.9809 10.8799ZM65.1981 26.9599C65.1981 28.1866 65.3848 29.0799 65.7581 29.6399C66.1581 30.1999 66.8248 30.4799 67.7581 30.4799V31.3199C66.9314 31.2399 66.1048 31.1999 65.2781 31.1999C62.9581 31.1999 61.0114 31.3866 59.4381 31.7599V28.1599C58.2114 30.6399 56.0648 31.8799 52.9981 31.8799C50.9981 31.8799 49.5448 31.3599 48.6381 30.3199C48.2114 29.8133 47.8914 29.1599 47.6781 28.3599C47.4914 27.5333 47.3981 26.4533 47.3981 25.1199V14.9999C47.3981 13.7733 47.1981 12.8799 46.7981 12.3199C46.4248 11.7599 45.7714 11.4799 44.8381 11.4799V10.6399C45.6648 10.7199 46.4914 10.7599 47.3181 10.7599C49.6381 10.7599 51.5848 10.5733 53.1581 10.1999V26.7599C53.1581 27.8799 53.3181 28.7199 53.6381 29.2799C53.9848 29.8399 54.6248 30.1199 55.5581 30.1199C56.6248 30.1199 57.5314 29.6799 58.2781 28.7999C59.0514 27.8933 59.4381 26.7866 59.4381 25.4799V14.9999C59.4381 13.7733 59.2381 12.8799 58.8381 12.3199C58.4648 11.7599 57.8114 11.4799 56.8781 11.4799V10.6399C57.7314 10.7199 58.5581 10.7599 59.3581 10.7599C61.6781 10.7599 63.6248 10.5733 65.1981 10.1999V26.9599ZM89.8559 28.3999C90.2826 29.0399 90.6293 29.5199 90.8959 29.8399C91.1626 30.1333 91.5093 30.3466 91.9359 30.4799V31.3199C89.8026 31.2133 88.4026 31.1599 87.7359 31.1599C86.8559 31.1599 85.1359 31.2133 82.5759 31.3199V30.4799C82.9493 30.4799 83.2426 30.4133 83.4559 30.2799C83.6693 30.1466 83.7759 29.9599 83.7759 29.7199C83.7759 29.5866 83.7093 29.3866 83.5759 29.1199L79.6159 21.9599C79.3493 21.5066 79.0693 21.1999 78.7759 21.0399C78.4826 20.8799 78.1093 20.7733 77.6559 20.7199V27.5999C77.6559 28.6933 77.8293 29.4533 78.1759 29.8799C78.5226 30.2799 79.1493 30.4799 80.0559 30.4799V31.3199C77.3893 31.2133 75.6559 31.1599 74.8559 31.1599C73.9493 31.1599 72.1093 31.2133 69.3359 31.3199V30.4799C70.2693 30.4799 70.9226 30.2799 71.2959 29.8799C71.6959 29.4533 71.8959 28.6933 71.8959 27.5999V4.79994C71.8959 3.57328 71.6959 2.67994 71.2959 2.11995C70.9226 1.55994 70.2693 1.27994 69.3359 1.27994V0.439946C70.1893 0.519945 71.0159 0.559944 71.8159 0.559944C74.1359 0.559944 76.0826 0.373278 77.6559 -5.57899e-05V19.9599C78.1893 19.9066 78.6426 19.7999 79.0159 19.6399C79.4159 19.4799 79.7626 19.2399 80.0559 18.9199L83.0959 15.9599C83.9759 15.0799 84.4159 14.2666 84.4159 13.5199C84.4159 12.9066 84.1359 12.4266 83.5759 12.0799C83.0159 11.7066 82.2693 11.4933 81.3359 11.4399V10.6399C82.8026 10.7199 84.3626 10.7599 86.0159 10.7599C88.2293 10.7599 89.7893 10.7199 90.6959 10.6399V11.4399C89.1226 11.7866 87.4559 12.8133 85.6959 14.5199L83.1359 17.1599L89.8559 28.3999ZM98.1344 0.319945C99.2544 0.319945 100.134 0.599945 100.774 1.15995C101.441 1.69328 101.774 2.43995 101.774 3.39995C101.774 4.35994 101.441 5.11994 100.774 5.67994C100.134 6.21328 99.2544 6.47994 98.1344 6.47994C97.0144 6.47994 96.121 6.21328 95.4544 5.67994C94.8144 5.11994 94.4944 4.35994 94.4944 3.39995C94.4944 2.43995 94.8144 1.69328 95.4544 1.15995C96.121 0.599945 97.0144 0.319945 98.1344 0.319945ZM101.254 27.5999C101.254 28.6933 101.441 29.4533 101.814 29.8799C102.214 30.2799 102.881 30.4799 103.814 30.4799V31.3199C101.148 31.2133 99.3744 31.1599 98.4944 31.1599C97.6677 31.1599 95.8144 31.2133 92.9344 31.3199V30.4799C93.8944 30.4799 94.561 30.2799 94.9344 29.8799C95.3077 29.4533 95.4944 28.6933 95.4944 27.5999V14.9999C95.4944 13.7733 95.3077 12.8799 94.9344 12.3199C94.561 11.7599 93.8944 11.4799 92.9344 11.4799V10.6399C93.7877 10.7199 94.6144 10.7599 95.4144 10.7599C97.7877 10.7599 99.7344 10.5733 101.254 10.1999V27.5999ZM135.735 17.3759C135.735 18.5599 135.319 19.4879 134.487 20.1599C133.671 20.8159 132.463 21.3119 130.863 21.6479L130.431 21.7919C131.151 22.1119 131.703 22.6239 132.087 23.3279C132.471 24.0319 132.663 24.8479 132.663 25.7759C132.663 26.8959 132.319 27.9039 131.631 28.7999C130.943 29.6799 129.967 30.3759 128.703 30.8879C127.455 31.3999 126.015 31.6559 124.383 31.6559C122.623 31.6559 121.071 31.4159 119.727 30.9359C118.399 30.4559 117.367 29.7679 116.631 28.8719C115.911 27.9599 115.551 26.8959 115.551 25.6799C115.551 24.5919 115.839 23.6799 116.415 22.9439C116.991 22.1919 117.639 21.6239 118.359 21.2399C119.095 20.8559 119.783 20.5839 120.423 20.4239C118.615 19.7039 117.711 18.6959 117.711 17.3999C117.711 16.4239 118.183 15.6639 119.127 15.1199C120.071 14.5599 121.191 14.2799 122.487 14.2799C123.079 14.2799 123.567 14.3199 123.951 14.3999C124.335 14.4799 124.679 14.6079 124.983 14.7839C125.415 14.9919 125.767 15.2559 126.039 15.5759C126.311 15.8959 126.447 16.2799 126.447 16.7279C126.447 17.1919 126.263 17.5759 125.895 17.8799C125.543 18.1679 125.111 18.3119 124.599 18.3119C124.087 18.3119 123.663 18.1839 123.327 17.9279C123.007 17.6719 122.847 17.3039 122.847 16.8239C122.847 16.4239 122.991 16.0639 123.279 15.7439C123.567 15.4079 123.935 15.1999 124.383 15.1199C124.239 14.9919 124.023 14.8879 123.735 14.8079C123.447 14.7279 123.135 14.6879 122.799 14.6879C121.919 14.6879 121.199 14.9599 120.639 15.5039C120.079 16.0479 119.799 16.8239 119.799 17.8319C119.799 18.7599 120.111 19.5759 120.735 20.2799C121.327 20.1519 121.775 20.0879 122.079 20.0879C122.367 20.0879 122.583 20.1519 122.727 20.2799C122.887 20.3919 122.967 20.5439 122.967 20.7359C122.967 20.8959 122.903 21.0239 122.775 21.1199C122.647 21.1999 122.487 21.2399 122.295 21.2399C122.055 21.2399 121.823 21.1839 121.599 21.0719C121.375 20.9599 121.095 20.8079 120.759 20.6159C119.943 21.0319 119.311 21.5519 118.863 22.1759C118.431 22.7839 118.215 23.5599 118.215 24.5039C118.215 26.0559 118.831 27.2239 120.063 28.0079C121.311 28.7759 123.031 29.1599 125.223 29.1599C126.327 29.1599 127.383 28.9999 128.391 28.6799C129.415 28.3439 130.239 27.8639 130.863 27.2399C131.503 26.5999 131.823 25.8479 131.823 24.9839C131.823 23.5119 131.215 22.4959 129.999 21.9359L128.463 22.3679C127.567 22.6239 127.119 22.7519 127.119 22.7519C125.775 23.0559 124.791 23.3759 124.167 23.7119C123.543 24.0479 123.231 24.5039 123.231 25.0799C123.231 25.6559 123.495 26.1279 124.023 26.4959C124.567 26.8479 125.167 27.0239 125.823 27.0239C125.999 27.0239 126.183 26.9999 126.375 26.9519C126.583 26.9039 126.719 26.8479 126.783 26.7839C126.399 26.6559 126.103 26.4559 125.895 26.1839C125.687 25.9119 125.583 25.5839 125.583 25.1999C125.583 24.7039 125.759 24.3199 126.111 24.0479C126.479 23.7599 126.943 23.6159 127.503 23.6159C128.079 23.6159 128.527 23.7679 128.847 24.0719C129.183 24.3599 129.351 24.7519 129.351 25.2479C129.351 25.9679 129.031 26.5119 128.391 26.8799C127.751 27.2479 126.935 27.4319 125.943 27.4319C124.919 27.4319 124.063 27.1679 123.375 26.6399C122.703 26.1119 122.367 25.3519 122.367 24.3599C122.367 23.1599 122.823 22.2079 123.735 21.5039C124.647 20.7999 125.983 20.2799 127.743 19.9439L128.775 19.6799C129.815 19.4399 130.663 19.2079 131.319 18.9839C132.551 18.6799 133.463 18.3519 134.055 17.9999C134.647 17.6319 134.943 17.1679 134.943 16.6079C134.943 15.9839 134.663 15.4639 134.103 15.0479C133.559 14.6319 132.935 14.4239 132.231 14.4239C131.927 14.4239 131.695 14.4639 131.535 14.5439C131.903 14.6879 132.191 14.9039 132.399 15.1919C132.607 15.4639 132.711 15.7519 132.711 16.0559C132.711 16.5359 132.527 16.9119 132.159 17.1839C131.807 17.4559 131.351 17.5919 130.791 17.5919C130.231 17.5919 129.775 17.4559 129.423 17.1839C129.087 16.8959 128.919 16.5039 128.919 16.0079C128.919 15.3839 129.191 14.8959 129.735 14.5439C130.279 14.1759 131.007 13.9919 131.919 13.9919C133.071 13.9919 133.991 14.2959 134.679 14.9039C135.383 15.4959 135.735 16.3199 135.735 17.3759ZM177.409 27.5999C177.409 28.6933 177.596 29.4533 177.969 29.8799C178.369 30.2799 179.036 30.4799 179.969 30.4799V31.3199C177.302 31.2133 175.542 31.1599 174.689 31.1599C173.942 31.1599 172.289 31.2133 169.729 31.3199V30.4799C170.449 30.4799 170.942 30.2799 171.209 29.8799C171.502 29.4799 171.649 28.7199 171.649 27.5999V15.1599C171.649 14.0399 171.476 13.2133 171.129 12.6799C170.809 12.1199 170.182 11.8399 169.249 11.8399C168.262 11.8399 167.396 12.2533 166.649 13.0799C165.929 13.9066 165.502 14.9199 165.369 16.1199V16.8399V27.5999C165.369 28.6933 165.529 29.4533 165.849 29.8799C166.196 30.2799 166.809 30.4799 167.689 30.4799V31.3199C165.129 31.2133 163.449 31.1599 162.649 31.1599C161.902 31.1599 160.249 31.2133 157.689 31.3199V30.4799C158.409 30.4799 158.902 30.2799 159.169 29.8799C159.462 29.4533 159.609 28.6933 159.609 27.5999V15.1599C159.609 14.0399 159.462 13.2133 159.169 12.6799C158.876 12.1199 158.302 11.8399 157.449 11.8399C156.382 11.8399 155.462 12.2933 154.689 13.1999C153.942 14.0799 153.569 15.1733 153.569 16.4799V27.5999C153.569 28.6933 153.702 29.4533 153.969 29.8799C154.262 30.2799 154.769 30.4799 155.489 30.4799V31.3199C153.142 31.2133 151.569 31.1599 150.769 31.1599C149.969 31.1599 148.129 31.2133 145.249 31.3199V30.4799C146.209 30.4799 146.876 30.2799 147.249 29.8799C147.622 29.4533 147.809 28.6933 147.809 27.5999V14.9999C147.809 13.7733 147.622 12.8799 147.249 12.3199C146.876 11.7599 146.209 11.4799 145.249 11.4799V10.6399C146.102 10.7199 146.929 10.7599 147.729 10.7599C150.102 10.7599 152.049 10.5733 153.569 10.1999V13.7999C154.742 11.3199 156.809 10.0799 159.769 10.0799C161.796 10.0799 163.262 10.5999 164.169 11.6399C164.676 12.1733 165.009 12.9733 165.169 14.0399C165.862 12.5999 166.769 11.5866 167.889 10.9999C169.009 10.3866 170.316 10.0799 171.809 10.0799C173.836 10.0799 175.302 10.5999 176.209 11.6399C176.636 12.1199 176.942 12.7733 177.129 13.5999C177.316 14.4266 177.409 15.5066 177.409 16.8399V27.5999ZM186.66 0.319945C187.78 0.319945 188.66 0.599945 189.3 1.15995C189.967 1.69328 190.3 2.43995 190.3 3.39995C190.3 4.35994 189.967 5.11994 189.3 5.67994C188.66 6.21328 187.78 6.47994 186.66 6.47994C185.54 6.47994 184.647 6.21328 183.98 5.67994C183.34 5.11994 183.02 4.35994 183.02 3.39995C183.02 2.43995 183.34 1.69328 183.98 1.15995C184.647 0.599945 185.54 0.319945 186.66 0.319945ZM189.78 27.5999C189.78 28.6933 189.967 29.4533 190.34 29.8799C190.74 30.2799 191.407 30.4799 192.34 30.4799V31.3199C189.673 31.2133 187.9 31.1599 187.02 31.1599C186.193 31.1599 184.34 31.2133 181.46 31.3199V30.4799C182.42 30.4799 183.087 30.2799 183.46 29.8799C183.833 29.4533 184.02 28.6933 184.02 27.5999V14.9999C184.02 13.7733 183.833 12.8799 183.46 12.3199C183.087 11.7599 182.42 11.4799 181.46 11.4799V10.6399C182.313 10.7199 183.14 10.7599 183.94 10.7599C186.313 10.7599 188.26 10.5733 189.78 10.1999V27.5999ZM200.877 30.7199H202.957C204.664 30.7199 206.104 30.1599 207.277 29.0399C208.451 27.8933 209.144 26.0666 209.357 23.5599H210.197C210.197 27.3466 210.251 29.9866 210.357 31.4799C208.197 31.3733 205.637 31.3199 202.677 31.3199C200.064 31.3199 197.291 31.3866 194.357 31.5199L204.357 11.2399H202.117C198.304 11.2399 196.224 13.6266 195.877 18.3999H195.037C195.037 14.6133 194.984 11.9733 194.877 10.4799C197.037 10.5866 199.597 10.6399 202.557 10.6399C205.171 10.6399 207.944 10.5733 210.877 10.4399L200.877 30.7199ZM232.942 26.9599C232.942 28.1866 233.129 29.0799 233.502 29.6399C233.902 30.1999 234.569 30.4799 235.502 30.4799V31.3199C234.676 31.2399 233.849 31.1999 233.022 31.1999C230.702 31.1999 228.756 31.3866 227.182 31.7599V28.1599C225.956 30.6399 223.809 31.8799 220.742 31.8799C218.742 31.8799 217.289 31.3599 216.382 30.3199C215.956 29.8133 215.636 29.1599 215.422 28.3599C215.236 27.5333 215.142 26.4533 215.142 25.1199V14.9999C215.142 13.7733 214.942 12.8799 214.542 12.3199C214.169 11.7599 213.516 11.4799 212.582 11.4799V10.6399C213.409 10.7199 214.236 10.7599 215.062 10.7599C217.382 10.7599 219.329 10.5733 220.902 10.1999V26.7599C220.902 27.8799 221.062 28.7199 221.382 29.2799C221.729 29.8399 222.369 30.1199 223.302 30.1199C224.369 30.1199 225.276 29.6799 226.022 28.7999C226.796 27.8933 227.182 26.7866 227.182 25.4799V14.9999C227.182 13.7733 226.982 12.8799 226.582 12.3199C226.209 11.7599 225.556 11.4799 224.622 11.4799V10.6399C225.476 10.7199 226.302 10.7599 227.102 10.7599C229.422 10.7599 231.369 10.5733 232.942 10.1999V26.9599ZM257.6 28.3999C258.027 29.0399 258.374 29.5199 258.64 29.8399C258.907 30.1333 259.254 30.3466 259.68 30.4799V31.3199C257.547 31.2133 256.147 31.1599 255.48 31.1599C254.6 31.1599 252.88 31.2133 250.32 31.3199V30.4799C250.694 30.4799 250.987 30.4133 251.2 30.2799C251.414 30.1466 251.52 29.9599 251.52 29.7199C251.52 29.5866 251.454 29.3866 251.32 29.1199L247.36 21.9599C247.094 21.5066 246.814 21.1999 246.52 21.0399C246.227 20.8799 245.854 20.7733 245.4 20.7199V27.5999C245.4 28.6933 245.574 29.4533 245.92 29.8799C246.267 30.2799 246.894 30.4799 247.8 30.4799V31.3199C245.134 31.2133 243.4 31.1599 242.6 31.1599C241.694 31.1599 239.854 31.2133 237.08 31.3199V30.4799C238.014 30.4799 238.667 30.2799 239.04 29.8799C239.44 29.4533 239.64 28.6933 239.64 27.5999V4.79994C239.64 3.57328 239.44 2.67994 239.04 2.11995C238.667 1.55994 238.014 1.27994 237.08 1.27994V0.439946C237.934 0.519945 238.76 0.559944 239.56 0.559944C241.88 0.559944 243.827 0.373278 245.4 -5.57899e-05V19.9599C245.934 19.9066 246.387 19.7999 246.76 19.6399C247.16 19.4799 247.507 19.2399 247.8 18.9199L250.84 15.9599C251.72 15.0799 252.16 14.2666 252.16 13.5199C252.16 12.9066 251.88 12.4266 251.32 12.0799C250.76 11.7066 250.014 11.4933 249.08 11.4399V10.6399C250.547 10.7199 252.107 10.7599 253.76 10.7599C255.974 10.7599 257.534 10.7199 258.44 10.6399V11.4399C256.867 11.7866 255.2 12.8133 253.44 14.5199L250.88 17.1599L257.6 28.3999ZM265.879 0.319945C266.999 0.319945 267.879 0.599945 268.519 1.15995C269.185 1.69328 269.519 2.43995 269.519 3.39995C269.519 4.35994 269.185 5.11994 268.519 5.67994C267.879 6.21328 266.999 6.47994 265.879 6.47994C264.759 6.47994 263.865 6.21328 263.199 5.67994C262.559 5.11994 262.239 4.35994 262.239 3.39995C262.239 2.43995 262.559 1.69328 263.199 1.15995C263.865 0.599945 264.759 0.319945 265.879 0.319945ZM268.999 27.5999C268.999 28.6933 269.185 29.4533 269.559 29.8799C269.959 30.2799 270.625 30.4799 271.559 30.4799V31.3199C268.892 31.2133 267.119 31.1599 266.239 31.1599C265.412 31.1599 263.559 31.2133 260.679 31.3199V30.4799C261.639 30.4799 262.305 30.2799 262.679 29.8799C263.052 29.4533 263.239 28.6933 263.239 27.5999V14.9999C263.239 13.7733 263.052 12.8799 262.679 12.3199C262.305 11.7599 261.639 11.4799 260.679 11.4799V10.6399C261.532 10.7199 262.359 10.7599 263.159 10.7599C265.532 10.7599 267.479 10.5733 268.999 10.1999V27.5999Z" fill="white"/>
</svg>
