<svg width="199" height="28" viewBox="0 0 199 28" fill="none" xmlns="http://www.w3.org/2000/svg">
<path d="M7.48803 6.14399C9.1307 6.14399 10.432 6.50665 11.392 7.23199C12.352 7.93599 12.832 8.92799 12.832 10.208C12.832 11.0827 12.576 11.8933 12.064 12.64C11.5734 13.3867 10.9867 14.048 10.304 14.624C9.62137 15.2 8.6827 15.9147 7.48803 16.768C5.95203 17.8347 4.8747 18.688 4.25603 19.328H11.168C11.744 19.328 12.1707 19.2853 12.448 19.2C12.7467 19.1147 12.9494 18.976 13.056 18.784C13.1627 18.592 13.248 18.2933 13.312 17.888H13.984C13.984 20.4053 14.0267 22.208 14.112 23.296C13.6427 23.1893 12.0534 23.136 9.34403 23.136H0.0320342V22.528C0.309367 22.2293 0.853367 21.7173 1.66403 20.992C2.90137 19.8613 3.92537 18.8587 4.73603 17.984C5.56803 17.088 6.2827 16.064 6.88003 14.912C7.4987 13.7387 7.80803 12.5227 7.80803 11.264C7.80803 10.1333 7.55203 9.31199 7.04003 8.79999C6.54937 8.26665 5.81337 7.99999 4.83203 7.99999C3.93603 7.99999 3.13603 8.21332 2.43203 8.63999C1.74937 9.04532 1.12003 9.65332 0.544034 10.464L3.40939e-05 10.144C1.5787 7.47732 4.0747 6.14399 7.48803 6.14399ZM25.934 6.14399C27.6194 6.14399 29.1234 6.49599 30.446 7.19999C31.7687 7.90399 32.7927 8.89599 33.518 10.176C34.2647 11.456 34.638 12.928 34.638 14.592C34.638 16.2987 34.254 17.8347 33.486 19.2C32.7394 20.5653 31.6727 21.6427 30.286 22.432C28.9207 23.2 27.3527 23.584 25.582 23.584C23.918 23.584 22.4247 23.232 21.102 22.528C19.7794 21.824 18.7447 20.832 17.998 19.552C17.2514 18.272 16.878 16.7893 16.878 15.104C16.878 13.4187 17.2514 11.8933 17.998 10.528C18.766 9.16265 19.8327 8.09599 21.198 7.32799C22.5634 6.53865 24.142 6.14399 25.934 6.14399ZM25.646 6.71999C24.878 6.71999 24.1954 7.05065 23.598 7.71199C23.0007 8.37332 22.5314 9.33332 22.19 10.592C21.87 11.8293 21.71 13.3013 21.71 15.008C21.71 17.7173 22.094 19.7333 22.862 21.056C23.6514 22.3573 24.654 23.008 25.87 23.008C26.638 23.008 27.31 22.6773 27.886 22.016C28.4834 21.3333 28.9527 20.3733 29.294 19.136C29.6354 17.8773 29.806 16.3947 29.806 14.688C29.806 11.9787 29.4114 9.97332 28.622 8.67199C27.854 7.37065 26.862 6.71999 25.646 6.71999ZM44.863 6.14399C46.5057 6.14399 47.807 6.50665 48.767 7.23199C49.727 7.93599 50.207 8.92799 50.207 10.208C50.207 11.0827 49.951 11.8933 49.439 12.64C48.9484 13.3867 48.3617 14.048 47.679 14.624C46.9964 15.2 46.0577 15.9147 44.863 16.768C43.327 17.8347 42.2497 18.688 41.631 19.328H48.543C49.119 19.328 49.5457 19.2853 49.823 19.2C50.1217 19.1147 50.3244 18.976 50.431 18.784C50.5377 18.592 50.623 18.2933 50.687 17.888H51.359C51.359 20.4053 51.4017 22.208 51.487 23.296C51.0177 23.1893 49.4284 23.136 46.719 23.136H37.407V22.528C37.6844 22.2293 38.2284 21.7173 39.039 20.992C40.2764 19.8613 41.3004 18.8587 42.111 17.984C42.943 17.088 43.6577 16.064 44.255 14.912C44.8737 13.7387 45.183 12.5227 45.183 11.264C45.183 10.1333 44.927 9.31199 44.415 8.79999C43.9244 8.26665 43.1884 7.99999 42.207 7.99999C41.311 7.99999 40.511 8.21332 39.807 8.63999C39.1244 9.04532 38.495 9.65332 37.919 10.464L37.375 10.144C38.9537 7.47732 41.4497 6.14399 44.863 6.14399ZM63.533 9.05599C64.685 9.05599 65.7304 9.33332 66.669 9.88799C67.629 10.4427 68.3864 11.2533 68.941 12.32C69.517 13.3653 69.805 14.5813 69.805 15.968C69.805 17.5467 69.4424 18.912 68.717 20.064C68.013 21.216 67.053 22.0907 65.837 22.688C64.621 23.2853 63.2877 23.584 61.837 23.584C59.4904 23.584 57.645 22.784 56.301 21.184C54.9784 19.584 54.317 17.344 54.317 14.464C54.317 11.4987 54.9784 8.98132 56.301 6.91199C57.645 4.84265 59.2877 3.25332 61.229 2.14399C63.1917 1.03465 65.1437 0.319986 67.085 -1.52588e-05L67.213 0.639986C65.8477 1.06665 64.6424 1.62132 63.597 2.30399C62.573 2.98665 61.6664 4.04265 60.877 5.47198C60.109 6.90132 59.597 8.79999 59.341 11.168C59.789 10.4427 60.3757 9.90932 61.101 9.56799C61.8477 9.22665 62.6584 9.05599 63.533 9.05599ZM62.157 22.944C62.9677 22.944 63.6397 22.4 64.173 21.312C64.7064 20.2027 64.973 18.5173 64.973 16.256C64.973 14.08 64.717 12.4907 64.205 11.488C63.7144 10.4853 63.0637 9.98399 62.253 9.98399C61.6984 9.98399 61.133 10.1867 60.557 10.592C59.981 10.9973 59.533 11.6053 59.213 12.416C59.1704 13.3547 59.149 14.1013 59.149 14.656C59.149 17.5787 59.437 19.6907 60.013 20.992C60.6104 22.2933 61.325 22.944 62.157 22.944ZM75.0705 18.656C75.9025 18.656 76.5639 18.88 77.0545 19.328C77.5452 19.7547 77.7905 20.352 77.7905 21.12C77.7905 21.888 77.5452 22.496 77.0545 22.944C76.5639 23.3707 75.9025 23.584 75.0705 23.584C74.2385 23.584 73.5772 23.3707 73.0865 22.944C72.5959 22.496 72.3505 21.888 72.3505 21.12C72.3505 20.352 72.5959 19.7547 73.0865 19.328C73.5772 18.88 74.2385 18.656 75.0705 18.656ZM91.6955 9.05599C92.8475 9.05599 93.8929 9.33332 94.8315 9.88799C95.7915 10.4427 96.5489 11.2533 97.1035 12.32C97.6795 13.3653 97.9675 14.5813 97.9675 15.968C97.9675 17.5467 97.6049 18.912 96.8795 20.064C96.1755 21.216 95.2155 22.0907 93.9995 22.688C92.7835 23.2853 91.4502 23.584 89.9995 23.584C87.6529 23.584 85.8075 22.784 84.4635 21.184C83.1409 19.584 82.4795 17.344 82.4795 14.464C82.4795 11.4987 83.1409 8.98132 84.4635 6.91199C85.8075 4.84265 87.4502 3.25332 89.3915 2.14399C91.3542 1.03465 93.3062 0.319986 95.2475 -1.52588e-05L95.3755 0.639986C94.0102 1.06665 92.8049 1.62132 91.7595 2.30399C90.7355 2.98665 89.8289 4.04265 89.0395 5.47198C88.2715 6.90132 87.7595 8.79999 87.5035 11.168C87.9515 10.4427 88.5382 9.90932 89.2635 9.56799C90.0102 9.22665 90.8209 9.05599 91.6955 9.05599ZM90.3195 22.944C91.1302 22.944 91.8022 22.4 92.3355 21.312C92.8689 20.2027 93.1355 18.5173 93.1355 16.256C93.1355 14.08 92.8795 12.4907 92.3675 11.488C91.8769 10.4853 91.2262 9.98399 90.4155 9.98399C89.8609 9.98399 89.2955 10.1867 88.7195 10.592C88.1435 10.9973 87.6955 11.6053 87.3755 12.416C87.3329 13.3547 87.3115 14.1013 87.3115 14.656C87.3115 17.5787 87.5995 19.6907 88.1755 20.992C88.7729 22.2933 89.4875 22.944 90.3195 22.944ZM104.833 18.656C105.665 18.656 106.326 18.88 106.817 19.328C107.308 19.7547 107.553 20.352 107.553 21.12C107.553 21.888 107.308 22.496 106.817 22.944C106.326 23.3707 105.665 23.584 104.833 23.584C104.001 23.584 103.34 23.3707 102.849 22.944C102.358 22.496 102.113 21.888 102.113 21.12C102.113 20.352 102.358 19.7547 102.849 19.328C103.34 18.88 104.001 18.656 104.833 18.656ZM119.762 20.032C119.762 20.9493 119.933 21.5893 120.274 21.952C120.615 22.2933 121.213 22.464 122.066 22.464V23.136C119.762 23.0507 118.29 23.008 117.65 23.008C116.946 23.008 115.41 23.04 113.042 23.104L112.146 23.136V22.464C113.149 22.464 113.895 22.272 114.386 21.888C114.898 21.504 115.154 20.8213 115.154 19.84V12.032C115.154 11.008 115.058 10.2613 114.866 9.79199C114.695 9.30132 114.397 8.98132 113.97 8.83199C113.543 8.66132 112.893 8.57599 112.018 8.57599V7.87199C113.874 7.82932 115.399 7.69065 116.594 7.45599C117.789 7.19999 118.845 6.79465 119.762 6.23999V20.032ZM132.241 6.14399C133.841 6.14399 135.153 6.47465 136.177 7.13599C137.201 7.79732 137.713 8.69332 137.713 9.82399C137.713 11.04 137.127 12.128 135.953 13.088C134.78 14.048 133.201 14.72 131.217 15.104C133.457 15.0187 135.292 15.4133 136.721 16.288C138.151 17.1413 138.865 18.368 138.865 19.968C138.865 21.5253 138.193 22.912 136.849 24.128C135.505 25.3653 133.777 26.3147 131.665 26.976C129.575 27.6373 127.452 27.968 125.297 27.968V27.328C126.705 27.2853 128.081 26.9653 129.425 26.368C130.791 25.792 131.911 24.96 132.785 23.872C133.66 22.784 134.097 21.4933 134.097 20C134.097 18.7413 133.788 17.7067 133.169 16.896C132.572 16.0853 131.761 15.6373 130.737 15.552C130.439 15.7013 130.14 15.8293 129.841 15.936C129.564 16.0213 129.319 16.064 129.105 16.064C128.7 16.064 128.497 15.9147 128.497 15.616C128.497 15.3813 128.593 15.2107 128.785 15.104C128.977 14.976 129.223 14.912 129.521 14.912C129.649 14.912 129.82 14.9333 130.033 14.976C130.268 14.9973 130.471 15.0187 130.641 15.04C132.284 13.888 133.105 12.4587 133.105 10.752C133.105 9.79199 132.86 9.08799 132.369 8.63999C131.879 8.17065 131.175 7.93599 130.257 7.93599C129.404 7.93599 128.615 8.14932 127.889 8.57599C127.185 9.00265 126.588 9.62132 126.097 10.432L125.521 10.144C126.183 8.92799 127.036 7.95732 128.081 7.23199C129.148 6.50665 130.535 6.14399 132.241 6.14399ZM145.914 18.656C146.746 18.656 147.408 18.88 147.898 19.328C148.389 19.7547 148.634 20.352 148.634 21.12C148.634 21.888 148.389 22.496 147.898 22.944C147.408 23.3707 146.746 23.584 145.914 23.584C145.082 23.584 144.421 23.3707 143.93 22.944C143.44 22.496 143.194 21.888 143.194 21.12C143.194 20.352 143.44 19.7547 143.93 19.328C144.421 18.88 145.082 18.656 145.914 18.656ZM160.907 0.0639858C162.017 0.0639858 162.902 0.170652 163.563 0.383986C164.225 0.597319 164.897 0.906652 165.579 1.31199C165.814 1.43998 166.017 1.54665 166.187 1.63198C166.379 1.71732 166.539 1.75998 166.667 1.75998C166.859 1.75998 167.009 1.65332 167.115 1.43999C167.222 1.20532 167.307 0.842653 167.371 0.351986H168.107C168.001 1.78132 167.947 4.21332 167.947 7.64799H167.211C167.126 6.49599 166.859 5.39732 166.411 4.35199C165.985 3.30665 165.366 2.46399 164.555 1.82399C163.766 1.16265 162.838 0.831985 161.771 0.831985C160.726 0.831985 159.873 1.13065 159.211 1.72799C158.571 2.30399 158.251 3.09332 158.251 4.09599C158.251 4.84265 158.411 5.49332 158.731 6.04799C159.051 6.60265 159.499 7.11465 160.075 7.58399C160.651 8.03199 161.537 8.65065 162.731 9.43999L163.755 10.144C165.014 10.976 166.006 11.7013 166.731 12.32C167.457 12.9387 168.043 13.664 168.491 14.496C168.961 15.3067 169.195 16.256 169.195 17.344C169.195 18.7093 168.843 19.8613 168.139 20.8C167.435 21.7173 166.475 22.4107 165.259 22.88C164.065 23.3493 162.731 23.584 161.259 23.584C160.065 23.584 159.073 23.4773 158.283 23.264C157.494 23.0507 156.769 22.7627 156.107 22.4C155.638 22.1013 155.275 21.952 155.019 21.952C154.827 21.952 154.678 22.0693 154.571 22.304C154.465 22.5173 154.379 22.8693 154.315 23.36H153.579C153.665 22.016 153.707 19.136 153.707 14.72H154.443C154.593 17.1093 155.126 19.0507 156.043 20.544C156.961 22.016 158.369 22.752 160.267 22.752C161.419 22.752 162.369 22.4427 163.115 21.824C163.862 21.2053 164.235 20.32 164.235 19.168C164.235 17.9733 163.851 16.9493 163.083 16.096C162.315 15.2427 161.099 14.2827 159.435 13.216C158.155 12.384 157.131 11.6587 156.363 11.04C155.595 10.4213 154.966 9.69599 154.475 8.86399C153.985 8.01065 153.739 7.02932 153.739 5.91998C153.739 4.63998 154.059 3.56265 154.699 2.68798C155.361 1.79198 156.235 1.13065 157.323 0.703985C158.411 0.277319 159.606 0.0639858 160.907 0.0639858ZM175.499 23.36C174.133 23.36 173.109 23.008 172.427 22.304C171.765 21.6 171.435 20.672 171.435 19.52C171.435 18.56 171.68 17.7707 172.171 17.152C172.683 16.512 173.291 16.0213 173.995 15.68C174.72 15.3387 175.637 14.976 176.747 14.592C177.92 14.1867 178.773 13.824 179.307 13.504C179.861 13.1627 180.139 12.704 180.139 12.128V9.63199C180.139 8.73599 179.925 8.04265 179.499 7.55199C179.093 7.03999 178.453 6.78399 177.579 6.78399C176.555 6.78399 175.776 7.03999 175.243 7.55199C175.84 7.76532 176.299 8.08532 176.619 8.51199C176.96 8.93865 177.131 9.43999 177.131 10.016C177.131 10.7413 176.885 11.3173 176.395 11.744C175.904 12.1707 175.307 12.384 174.603 12.384C173.856 12.384 173.28 12.1493 172.875 11.68C172.469 11.2107 172.267 10.624 172.267 9.91999C172.267 9.32265 172.405 8.82132 172.683 8.41599C172.981 7.98932 173.429 7.59465 174.027 7.23199C174.603 6.89065 175.307 6.62399 176.139 6.43199C176.992 6.23999 177.92 6.14399 178.923 6.14399C179.968 6.14399 180.875 6.25065 181.643 6.46399C182.411 6.67732 183.051 7.03999 183.563 7.55199C184.032 8.02132 184.341 8.59732 184.491 9.27999C184.661 9.96265 184.747 10.8907 184.747 12.064V20.768C184.747 21.28 184.789 21.6427 184.875 21.856C184.981 22.0693 185.173 22.176 185.451 22.176C185.771 22.176 186.155 21.9947 186.603 21.632L186.923 22.176C185.963 22.9653 184.789 23.36 183.403 23.36C182.229 23.36 181.408 23.1253 180.939 22.656C180.469 22.1867 180.224 21.5573 180.203 20.768C179.136 22.496 177.568 23.36 175.499 23.36ZM177.963 21.312C178.795 21.312 179.52 20.8747 180.139 20V13.44C179.883 13.8667 179.339 14.336 178.507 14.848C177.675 15.3813 177.045 15.9147 176.619 16.448C176.192 16.9813 175.979 17.7493 175.979 18.752C175.979 19.6267 176.16 20.2773 176.523 20.704C176.885 21.1093 177.365 21.312 177.963 21.312ZM194.333 6.59199H198.109V7.23199H194.333V20.16C194.333 20.8 194.44 21.2587 194.653 21.536C194.888 21.792 195.251 21.92 195.741 21.92C196.659 21.92 197.384 21.28 197.917 20L198.461 20.288C197.651 22.4853 196.189 23.584 194.077 23.584C192.669 23.584 191.603 23.2213 190.877 22.496C190.429 22.048 190.12 21.4933 189.949 20.832C189.8 20.1493 189.725 19.2213 189.725 18.048V7.23199H187.037V6.59199H189.725V2.36798C191.496 2.36798 193.032 2.02665 194.333 1.34398V6.59199Z" fill="white"/>
</svg>
