<svg width="202" height="29" viewBox="0 0 202 29" fill="none" xmlns="http://www.w3.org/2000/svg">
<path d="M6.84004 22.1701L3.00004 11.5201C2.68004 10.7801 2.37004 10.2601 2.07004 9.96012C1.77004 9.64012 1.32004 9.44012 0.720039 9.36012C0.460039 9.32012 0.280039 9.28012 0.180039 9.24012C0.100039 9.20012 0.0500391 9.05012 0.0300391 8.79012C0.0100391 8.45012 0.100039 8.27012 0.300039 8.25012C0.520039 8.21012 0.780039 8.18012 1.08004 8.16012C2.32004 8.10012 3.29004 8.28012 3.99004 8.70012C4.69004 9.12012 5.26004 9.83012 5.70004 10.8301L8.46004 18.6001H8.55004C8.75004 17.9601 8.99004 17.1601 9.27004 16.2001C9.55004 15.2201 9.83004 14.2101 10.11 13.1701C10.41 12.1301 10.68 11.1701 10.92 10.2901C11.16 9.39012 11.34 8.72012 11.46 8.28012H12.9L17.01 18.6001H17.1C17.38 17.7601 17.65 16.8401 17.91 15.8401C18.17 14.8201 18.41 13.8501 18.63 12.9301C18.85 11.9901 19.04 11.2201 19.2 10.6201C19.32 10.0801 19.3 9.73012 19.14 9.57012C18.98 9.41012 18.62 9.33012 18.06 9.33012C17.88 9.33012 17.73 9.32012 17.61 9.30012C17.49 9.26012 17.42 9.09012 17.4 8.79012C17.4 8.67012 17.43 8.54012 17.49 8.40012C17.57 8.26012 17.68 8.19012 17.82 8.19012C18.4 8.21012 18.9 8.23012 19.32 8.25012C19.76 8.27012 20.24 8.28012 20.76 8.28012C21.28 8.28012 21.68 8.27012 21.96 8.25012C22.26 8.23012 22.7 8.21012 23.28 8.19012C23.44 8.19012 23.55 8.26012 23.61 8.40012C23.69 8.54012 23.73 8.67012 23.73 8.79012C23.71 9.09012 23.63 9.26012 23.49 9.30012C23.37 9.32012 23.23 9.33012 23.07 9.33012C22.35 9.33012 21.78 9.45012 21.36 9.69012C20.96 9.93012 20.67 10.4001 20.49 11.1001L17.16 22.1701H15.39L11.58 12.3601L8.61004 22.1701H6.84004ZM31.0674 22.2301C29.5274 22.2301 28.2274 21.9001 27.1674 21.2401C26.1274 20.5801 25.3474 19.7001 24.8274 18.6001C24.3074 17.5001 24.0474 16.3001 24.0474 15.0001C24.0474 14.1201 24.1974 13.2701 24.4974 12.4501C24.8174 11.6101 25.2674 10.8501 25.8474 10.1701C26.4274 9.47012 27.1274 8.92012 27.9474 8.52012C28.7674 8.12012 29.6974 7.92012 30.7374 7.92012C32.5774 7.92012 33.9574 8.40012 34.8774 9.36012C35.8174 10.3001 36.3574 11.5001 36.4974 12.9601C36.4974 13.6601 36.2974 14.1201 35.8974 14.3401C35.5174 14.5601 35.0174 14.6701 34.3974 14.6701H27.1074C27.1074 15.8301 27.2674 16.8701 27.5874 17.7901C27.9074 18.6901 28.4074 19.4101 29.0874 19.9501C29.7874 20.4701 30.7074 20.7301 31.8474 20.7301C32.6874 20.7301 33.4074 20.5501 34.0074 20.1901C34.6074 19.8301 35.1874 19.2001 35.7474 18.3001C35.9074 18.1001 36.1274 18.0901 36.4074 18.2701C36.5674 18.3501 36.6674 18.4801 36.7074 18.6601C36.7474 18.8201 36.7274 18.9601 36.6474 19.0801C36.0274 20.0601 35.2474 20.8301 34.3074 21.3901C33.3674 21.9501 32.2874 22.2301 31.0674 22.2301ZM27.1074 13.5301H31.9974C32.4774 13.5301 32.8574 13.4401 33.1374 13.2601C33.4374 13.0601 33.5974 12.7301 33.6174 12.2701C33.6174 11.4101 33.3774 10.6501 32.8974 9.99012C32.4374 9.31012 31.7174 8.97012 30.7374 8.97012C29.7374 8.97012 28.8974 9.37012 28.2174 10.1701C27.5574 10.9701 27.1874 12.0901 27.1074 13.5301ZM45.406 22.2301C44.286 22.2301 43.246 21.9301 42.286 21.3301C41.326 20.7301 40.556 19.8901 39.976 18.8101C39.396 17.7301 39.106 16.4801 39.106 15.0601C39.106 13.8201 39.396 12.6601 39.976 11.5801C40.576 10.4801 41.396 9.60012 42.436 8.94012C43.496 8.26012 44.696 7.92012 46.036 7.92012C46.676 7.92012 47.306 8.00012 47.926 8.16012C48.546 8.30012 49.076 8.50012 49.516 8.76012H49.606V4.17012C49.606 3.81012 49.586 3.48012 49.546 3.18012C49.526 2.86012 49.416 2.61012 49.216 2.43012C49.016 2.23012 48.636 2.13012 48.076 2.13012C47.896 2.13012 47.726 2.11012 47.566 2.07012C47.426 2.01012 47.356 1.83012 47.356 1.53012C47.356 1.23012 47.516 1.05012 47.836 0.990116C48.756 0.850117 49.456 0.710117 49.936 0.570116C50.436 0.430117 50.816 0.310116 51.076 0.210115C51.336 0.110115 51.566 0.0501156 51.766 0.0301158C51.926 0.0101161 52.056 0.0401163 52.156 0.120116C52.276 0.200117 52.336 0.360116 52.336 0.600116V19.1101C52.336 20.2901 53.116 20.8801 54.676 20.8801C54.896 20.8801 55.036 20.9401 55.096 21.0601C55.156 21.1601 55.186 21.2601 55.186 21.3601C55.186 21.6401 55.016 21.8101 54.676 21.8701L49.906 22.2001C49.766 22.2001 49.686 22.1401 49.666 22.0201C49.646 21.9001 49.636 21.7601 49.636 21.6001V20.4001H49.546C49.046 20.9201 48.416 21.3601 47.656 21.7201C46.916 22.0601 46.166 22.2301 45.406 22.2301ZM46.426 20.7301C47.186 20.7301 47.816 20.5801 48.316 20.2801C48.816 19.9601 49.246 19.6101 49.606 19.2301V11.3101C49.506 10.9701 49.316 10.6301 49.036 10.2901C48.776 9.93012 48.416 9.63012 47.956 9.39012C47.516 9.13012 46.976 9.00012 46.336 9.00012C45.176 9.00012 44.196 9.55012 43.396 10.6501C42.596 11.7301 42.196 13.2501 42.196 15.2101C42.196 16.1501 42.346 17.0501 42.646 17.9101C42.966 18.7501 43.436 19.4301 44.056 19.9501C44.676 20.4701 45.466 20.7301 46.426 20.7301ZM62.8083 22.2301C61.6883 22.2301 60.6483 21.9301 59.6883 21.3301C58.7283 20.7301 57.9583 19.8901 57.3783 18.8101C56.7983 17.7301 56.5083 16.4801 56.5083 15.0601C56.5083 13.8201 56.7983 12.6601 57.3783 11.5801C57.9783 10.4801 58.7983 9.60012 59.8383 8.94012C60.8983 8.26012 62.0983 7.92012 63.4383 7.92012C64.0783 7.92012 64.7083 8.00012 65.3283 8.16012C65.9483 8.30012 66.4783 8.50012 66.9183 8.76012H67.0083V4.17012C67.0083 3.81012 66.9883 3.48012 66.9483 3.18012C66.9283 2.86012 66.8183 2.61012 66.6183 2.43012C66.4183 2.23012 66.0383 2.13012 65.4783 2.13012C65.2983 2.13012 65.1283 2.11012 64.9683 2.07012C64.8283 2.01012 64.7583 1.83012 64.7583 1.53012C64.7583 1.23012 64.9183 1.05012 65.2383 0.990116C66.1583 0.850117 66.8583 0.710117 67.3383 0.570116C67.8383 0.430117 68.2183 0.310116 68.4783 0.210115C68.7383 0.110115 68.9683 0.0501156 69.1683 0.0301158C69.3283 0.0101161 69.4583 0.0401163 69.5583 0.120116C69.6783 0.200117 69.7383 0.360116 69.7383 0.600116V19.1101C69.7383 20.2901 70.5183 20.8801 72.0783 20.8801C72.2983 20.8801 72.4383 20.9401 72.4983 21.0601C72.5583 21.1601 72.5883 21.2601 72.5883 21.3601C72.5883 21.6401 72.4183 21.8101 72.0783 21.8701L67.3083 22.2001C67.1683 22.2001 67.0883 22.1401 67.0683 22.0201C67.0483 21.9001 67.0383 21.7601 67.0383 21.6001V20.4001H66.9483C66.4483 20.9201 65.8183 21.3601 65.0583 21.7201C64.3183 22.0601 63.5683 22.2301 62.8083 22.2301ZM63.8283 20.7301C64.5883 20.7301 65.2183 20.5801 65.7183 20.2801C66.2183 19.9601 66.6483 19.6101 67.0083 19.2301V11.3101C66.9083 10.9701 66.7183 10.6301 66.4383 10.2901C66.1783 9.93012 65.8183 9.63012 65.3583 9.39012C64.9183 9.13012 64.3783 9.00012 63.7383 9.00012C62.5783 9.00012 61.5983 9.55012 60.7983 10.6501C59.9983 11.7301 59.5983 13.2501 59.5983 15.2101C59.5983 16.1501 59.7483 17.0501 60.0483 17.9101C60.3683 18.7501 60.8383 19.4301 61.4583 19.9501C62.0783 20.4701 62.8683 20.7301 63.8283 20.7301ZM74.1507 21.9601C74.0107 21.9601 73.8907 21.9001 73.7907 21.7801C73.7107 21.6401 73.6707 21.5001 73.6707 21.3601C73.7107 21.0601 73.7907 20.9001 73.9107 20.8801C74.0307 20.8401 74.1907 20.8201 74.3907 20.8201C74.9507 20.8201 75.3307 20.7301 75.5307 20.5501C75.7307 20.3501 75.8407 20.0901 75.8607 19.7701C75.9007 19.4501 75.9207 19.1201 75.9207 18.7801V11.9101C75.9207 11.5501 75.9007 11.2201 75.8607 10.9201C75.8407 10.6001 75.7307 10.3501 75.5307 10.1701C75.3307 9.97012 74.9507 9.87012 74.3907 9.87012C74.2107 9.87012 74.0407 9.85012 73.8807 9.81012C73.7407 9.75012 73.6707 9.57012 73.6707 9.27012C73.6707 8.97012 73.8307 8.79012 74.1507 8.73012C75.0707 8.59012 75.7707 8.45012 76.2507 8.31012C76.7507 8.17012 77.1307 8.05012 77.3907 7.95012C77.6507 7.85012 77.8807 7.79012 78.0807 7.77012C78.2407 7.75012 78.3707 7.78012 78.4707 7.86012C78.5907 7.94012 78.6507 8.10012 78.6507 8.34012V18.7801C78.6507 19.1201 78.6607 19.4501 78.6807 19.7701C78.7207 20.0901 78.8407 20.3501 79.0407 20.5501C79.2607 20.7301 79.6507 20.8201 80.2107 20.8201C80.3907 20.8201 80.5407 20.8401 80.6607 20.8801C80.8007 20.9001 80.8807 21.0601 80.9007 21.3601C80.9007 21.5001 80.8607 21.6401 80.7807 21.7801C80.7007 21.9001 80.5807 21.9601 80.4207 21.9601C79.8407 21.9201 79.3007 21.8901 78.8007 21.8701C78.3207 21.8701 77.8107 21.8701 77.2707 21.8701C76.7307 21.8701 76.2207 21.8701 75.7407 21.8701C75.2607 21.8901 74.7307 21.9201 74.1507 21.9601ZM77.1207 4.44012C76.5607 4.44012 76.0907 4.27012 75.7107 3.93012C75.3307 3.57012 75.1407 3.13012 75.1407 2.61012C75.1407 2.15012 75.3707 1.74012 75.8307 1.38012C76.2907 1.02012 76.8107 0.840116 77.3907 0.840116C77.8907 0.840116 78.3007 1.02012 78.6207 1.38012C78.9407 1.72012 79.1007 2.16012 79.1007 2.70012C79.1007 3.18012 78.9107 3.59012 78.5307 3.93012C78.1507 4.27012 77.6807 4.44012 77.1207 4.44012ZM82.8811 21.9601C82.7411 21.9601 82.6211 21.9001 82.5211 21.7801C82.4411 21.6401 82.4011 21.5001 82.4011 21.3601C82.4411 21.0601 82.5211 20.9001 82.6411 20.8801C82.7611 20.8401 82.9211 20.8201 83.1211 20.8201C83.6811 20.8201 84.0611 20.7301 84.2611 20.5501C84.4611 20.3501 84.5711 20.0901 84.5911 19.7701C84.6311 19.4501 84.6511 19.1201 84.6511 18.7801V11.9101C84.6511 11.5501 84.6311 11.2201 84.5911 10.9201C84.5711 10.6001 84.4611 10.3501 84.2611 10.1701C84.0611 9.97012 83.6811 9.87012 83.1211 9.87012C82.9411 9.87012 82.7711 9.85012 82.6111 9.81012C82.4711 9.75012 82.4011 9.57012 82.4011 9.27012C82.4011 8.97012 82.5611 8.79012 82.8811 8.73012C83.8011 8.59012 84.5011 8.45012 84.9811 8.31012C85.4811 8.17012 85.8511 8.05012 86.0911 7.95012C86.3511 7.85012 86.5811 7.79012 86.7811 7.77012C86.9411 7.75012 87.0711 7.78012 87.1711 7.86012C87.2911 7.94012 87.3511 8.10012 87.3511 8.34012V10.2301H87.4411C87.8411 9.85012 88.2511 9.49012 88.6711 9.15012C89.0911 8.79012 89.5811 8.50012 90.1411 8.28012C90.7211 8.04012 91.4311 7.92012 92.2711 7.92012C93.6311 7.92012 94.7111 8.33012 95.5111 9.15012C96.3111 9.97012 96.7111 11.0501 96.7111 12.3901V18.7801C96.7111 19.1201 96.7211 19.4501 96.7411 19.7701C96.7811 20.0901 96.9011 20.3501 97.1011 20.5501C97.3211 20.7301 97.7111 20.8201 98.2711 20.8201C98.4511 20.8201 98.6011 20.8401 98.7211 20.8801C98.8611 20.9001 98.9411 21.0601 98.9611 21.3601C98.9611 21.5001 98.9211 21.6401 98.8411 21.7801C98.7611 21.9001 98.6411 21.9601 98.4811 21.9601C97.9011 21.9201 97.3611 21.8901 96.8611 21.8701C96.3811 21.8701 95.8711 21.8701 95.3311 21.8701C94.7911 21.8701 94.2811 21.8701 93.8011 21.8701C93.3211 21.8901 92.7911 21.9201 92.2111 21.9601C92.0711 21.9601 91.9511 21.9001 91.8511 21.7801C91.7711 21.6401 91.7311 21.5001 91.7311 21.3601C91.7511 21.0601 91.8211 20.9001 91.9411 20.8801C92.0811 20.8401 92.2411 20.8201 92.4211 20.8201C92.9811 20.8201 93.3611 20.7301 93.5611 20.5501C93.7811 20.3501 93.9011 20.0901 93.9211 19.7701C93.9611 19.4501 93.9811 19.1201 93.9811 18.7801V12.4201C93.9811 11.7601 93.8311 11.2201 93.5311 10.8001C93.2511 10.3801 92.8911 10.0701 92.4511 9.87012C92.0111 9.67012 91.5611 9.57012 91.1011 9.57012C90.4211 9.57012 89.8211 9.70012 89.3011 9.96012C88.7811 10.2001 88.3611 10.4801 88.0411 10.8001C87.7211 11.1201 87.5011 11.4001 87.3811 11.6401V18.7801C87.3811 19.1201 87.3911 19.4501 87.4111 19.7701C87.4511 20.0901 87.5711 20.3501 87.7711 20.5501C87.9911 20.7301 88.3811 20.8201 88.9411 20.8201C89.1211 20.8201 89.2711 20.8401 89.3911 20.8801C89.5311 20.9001 89.6111 21.0601 89.6311 21.3601C89.6311 21.5001 89.5911 21.6401 89.5111 21.7801C89.4311 21.9001 89.3111 21.9601 89.1511 21.9601C88.5711 21.9201 88.0311 21.8901 87.5311 21.8701C87.0511 21.8701 86.5411 21.8701 86.0011 21.8701C85.4611 21.8701 84.9511 21.8701 84.4711 21.8701C83.9911 21.8901 83.4611 21.9201 82.8811 21.9601ZM106.51 28.4101C102.29 28.4101 100.18 27.2101 100.18 24.8101C100.18 24.1501 100.39 23.5601 100.81 23.0401C101.23 22.5401 101.79 22.2901 102.49 22.2901C102.95 22.2901 103.33 22.4101 103.63 22.6501C103.93 22.9101 104.08 23.0901 104.08 23.1901C104.08 23.2301 104 23.3201 103.84 23.4601C103.7 23.6001 103.55 23.7901 103.39 24.0301C103.25 24.2701 103.18 24.5901 103.18 24.9901C103.18 26.5301 104.5 27.3001 107.14 27.3001C108.64 27.3001 109.8 27.0401 110.62 26.5201C111.46 26.0001 111.88 25.2101 111.88 24.1501C111.88 23.5701 111.69 23.1301 111.31 22.8301C110.95 22.5301 110.46 22.3201 109.84 22.2001C109.24 22.0801 108.57 22.0001 107.83 21.9601C107.09 21.9401 106.34 21.9201 105.58 21.9001C104.84 21.8801 104.15 21.8201 103.51 21.7201C102.81 21.6001 102.22 21.3701 101.74 21.0301C101.28 20.6701 101.05 20.0901 101.05 19.2901C101.05 18.5501 101.31 17.9101 101.83 17.3701C102.37 16.8101 103.17 16.5301 104.23 16.5301C102.95 16.0301 102.09 15.4201 101.65 14.7001C101.23 13.9801 101.02 13.2401 101.02 12.4801C101.02 11.6201 101.26 10.8501 101.74 10.1701C102.24 9.47012 102.92 8.92012 103.78 8.52012C104.66 8.10012 105.67 7.89012 106.81 7.89012C107.37 7.89012 107.95 7.94012 108.55 8.04012C109.17 8.12012 109.7 8.27012 110.14 8.49012L114.25 7.71012C114.47 7.69012 114.62 7.76012 114.7 7.92012C114.78 8.08012 114.82 8.25012 114.82 8.43012C114.82 8.69012 114.78 8.95012 114.7 9.21012C114.62 9.45012 114.51 9.57012 114.37 9.57012L111.4 9.45012V9.51012C111.74 9.85012 112.03 10.3001 112.27 10.8601C112.51 11.4201 112.63 11.9501 112.63 12.4501C112.63 13.4101 112.35 14.2401 111.79 14.9401C111.25 15.6401 110.55 16.1801 109.69 16.5601C108.85 16.9201 107.97 17.1001 107.05 17.1001H105.73C104.69 17.1001 103.93 17.2001 103.45 17.4001C102.99 17.6001 102.76 17.9301 102.76 18.3901C102.76 18.7501 102.88 19.0301 103.12 19.2301C103.38 19.4101 103.84 19.5201 104.5 19.5601L108.61 19.7101C110.75 19.7901 112.27 20.1301 113.17 20.7301C114.09 21.3301 114.55 22.2201 114.55 23.4001C114.55 24.4601 114.21 25.3601 113.53 26.1001C112.87 26.8601 111.93 27.4301 110.71 27.8101C109.51 28.2101 108.11 28.4101 106.51 28.4101ZM106.81 16.2301C107.73 16.2301 108.48 15.9101 109.06 15.2701C109.64 14.6101 109.93 13.6701 109.93 12.4501C109.93 11.3301 109.63 10.4501 109.03 9.81012C108.45 9.15012 107.7 8.82012 106.78 8.82012C105.9 8.82012 105.16 9.14012 104.56 9.78012C103.98 10.4001 103.69 11.2701 103.69 12.3901C103.69 13.6101 103.98 14.5601 104.56 15.2401C105.16 15.9001 105.91 16.2301 106.81 16.2301ZM129.283 22.1701C128.783 21.0701 128.283 19.8701 127.783 18.5701C127.283 17.2701 126.793 16.0001 126.313 14.7601C125.833 13.5201 125.373 12.4401 124.933 11.5201C124.613 10.7801 124.303 10.2601 124.003 9.96012C123.703 9.64012 123.253 9.44012 122.653 9.36012C122.393 9.32012 122.213 9.28012 122.113 9.24012C122.033 9.20012 121.983 9.05012 121.963 8.79012C121.943 8.45012 122.033 8.27012 122.233 8.25012C122.453 8.21012 122.713 8.18012 123.013 8.16012C124.253 8.10012 125.223 8.28012 125.923 8.70012C126.623 9.12012 127.193 9.83012 127.633 10.8301C127.913 11.4501 128.223 12.2201 128.563 13.1401C128.923 14.0601 129.293 14.9901 129.673 15.9301C130.053 16.8701 130.423 17.7201 130.783 18.4801H130.873L133.843 10.6201C134.043 10.0401 134.053 9.68012 133.873 9.54012C133.693 9.40012 133.303 9.33012 132.703 9.33012C132.523 9.33012 132.373 9.32012 132.253 9.30012C132.133 9.26012 132.063 9.09012 132.043 8.79012C132.043 8.67012 132.073 8.54012 132.133 8.40012C132.213 8.26012 132.323 8.19012 132.463 8.19012C133.043 8.21012 133.543 8.23012 133.963 8.25012C134.383 8.27012 134.853 8.28012 135.373 8.28012C135.733 8.28012 136.023 8.28012 136.243 8.28012C136.463 8.26012 136.693 8.25012 136.933 8.25012C137.173 8.23012 137.483 8.21012 137.863 8.19012C138.023 8.19012 138.133 8.26012 138.193 8.40012C138.273 8.54012 138.313 8.67012 138.313 8.79012C138.293 9.09012 138.213 9.26012 138.073 9.30012C137.953 9.32012 137.813 9.33012 137.653 9.33012C136.993 9.33012 136.463 9.45012 136.063 9.69012C135.683 9.93012 135.353 10.4001 135.073 11.1001C135.073 11.1001 134.963 11.3701 134.743 11.9101C134.543 12.4301 134.273 13.1101 133.933 13.9501C133.593 14.7901 133.233 15.6801 132.853 16.6201C132.473 17.5601 132.103 18.4501 131.743 19.2901C131.403 20.1301 131.123 20.8201 130.903 21.3601C130.683 21.9001 130.563 22.1701 130.543 22.1701H129.283ZM145.618 22.2301C144.078 22.2301 142.778 21.9001 141.718 21.2401C140.678 20.5801 139.898 19.7001 139.378 18.6001C138.858 17.5001 138.598 16.3001 138.598 15.0001C138.598 14.1201 138.748 13.2701 139.048 12.4501C139.368 11.6101 139.818 10.8501 140.398 10.1701C140.978 9.47012 141.678 8.92012 142.498 8.52012C143.318 8.12012 144.248 7.92012 145.288 7.92012C147.128 7.92012 148.508 8.40012 149.428 9.36012C150.368 10.3001 150.908 11.5001 151.048 12.9601C151.048 13.6601 150.848 14.1201 150.448 14.3401C150.068 14.5601 149.568 14.6701 148.948 14.6701H141.658C141.658 15.8301 141.818 16.8701 142.138 17.7901C142.458 18.6901 142.958 19.4101 143.638 19.9501C144.338 20.4701 145.258 20.7301 146.398 20.7301C147.238 20.7301 147.958 20.5501 148.558 20.1901C149.158 19.8301 149.738 19.2001 150.298 18.3001C150.458 18.1001 150.678 18.0901 150.958 18.2701C151.118 18.3501 151.218 18.4801 151.258 18.6601C151.298 18.8201 151.278 18.9601 151.198 19.0801C150.578 20.0601 149.798 20.8301 148.858 21.3901C147.918 21.9501 146.838 22.2301 145.618 22.2301ZM141.658 13.5301H146.548C147.028 13.5301 147.408 13.4401 147.688 13.2601C147.988 13.0601 148.148 12.7301 148.168 12.2701C148.168 11.4101 147.928 10.6501 147.448 9.99012C146.988 9.31012 146.268 8.97012 145.288 8.97012C144.288 8.97012 143.448 9.37012 142.768 10.1701C142.108 10.9701 141.738 12.0901 141.658 13.5301ZM153.897 21.9601C153.757 21.9601 153.637 21.9001 153.537 21.7801C153.457 21.6401 153.417 21.5001 153.417 21.3601C153.457 21.0601 153.537 20.9001 153.657 20.8801C153.777 20.8401 153.937 20.8201 154.137 20.8201C154.697 20.8201 155.077 20.7301 155.277 20.5501C155.477 20.3501 155.587 20.0901 155.607 19.7701C155.647 19.4501 155.667 19.1201 155.667 18.7801V11.9101C155.667 11.5501 155.647 11.2201 155.607 10.9201C155.587 10.6001 155.477 10.3501 155.277 10.1701C155.077 9.97012 154.697 9.87012 154.137 9.87012C153.957 9.87012 153.787 9.85012 153.627 9.81012C153.487 9.75012 153.417 9.57012 153.417 9.27012C153.417 8.97012 153.577 8.79012 153.897 8.73012C154.817 8.59012 155.517 8.45012 155.997 8.31012C156.497 8.17012 156.867 8.05012 157.107 7.95012C157.367 7.85012 157.597 7.79012 157.797 7.77012C157.957 7.75012 158.087 7.78012 158.187 7.86012C158.307 7.94012 158.367 8.10012 158.367 8.34012V10.2301H158.457C158.857 9.85012 159.267 9.49012 159.687 9.15012C160.107 8.79012 160.597 8.50012 161.157 8.28012C161.737 8.04012 162.447 7.92012 163.287 7.92012C164.647 7.92012 165.727 8.33012 166.527 9.15012C167.327 9.97012 167.727 11.0501 167.727 12.3901V18.7801C167.727 19.1201 167.737 19.4501 167.757 19.7701C167.797 20.0901 167.917 20.3501 168.117 20.5501C168.337 20.7301 168.727 20.8201 169.287 20.8201C169.467 20.8201 169.617 20.8401 169.737 20.8801C169.877 20.9001 169.957 21.0601 169.977 21.3601C169.977 21.5001 169.937 21.6401 169.857 21.7801C169.777 21.9001 169.657 21.9601 169.497 21.9601C168.917 21.9201 168.377 21.8901 167.877 21.8701C167.397 21.8701 166.887 21.8701 166.347 21.8701C165.807 21.8701 165.297 21.8701 164.817 21.8701C164.337 21.8901 163.807 21.9201 163.227 21.9601C163.087 21.9601 162.967 21.9001 162.867 21.7801C162.787 21.6401 162.747 21.5001 162.747 21.3601C162.767 21.0601 162.837 20.9001 162.957 20.8801C163.097 20.8401 163.257 20.8201 163.437 20.8201C163.997 20.8201 164.377 20.7301 164.577 20.5501C164.797 20.3501 164.917 20.0901 164.937 19.7701C164.977 19.4501 164.997 19.1201 164.997 18.7801V12.4201C164.997 11.7601 164.847 11.2201 164.547 10.8001C164.267 10.3801 163.907 10.0701 163.467 9.87012C163.027 9.67012 162.577 9.57012 162.117 9.57012C161.437 9.57012 160.837 9.70012 160.317 9.96012C159.797 10.2001 159.377 10.4801 159.057 10.8001C158.737 11.1201 158.517 11.4001 158.397 11.6401V18.7801C158.397 19.1201 158.407 19.4501 158.427 19.7701C158.467 20.0901 158.587 20.3501 158.787 20.5501C159.007 20.7301 159.397 20.8201 159.957 20.8201C160.137 20.8201 160.287 20.8401 160.407 20.8801C160.547 20.9001 160.627 21.0601 160.647 21.3601C160.647 21.5001 160.607 21.6401 160.527 21.7801C160.447 21.9001 160.327 21.9601 160.167 21.9601C159.587 21.9201 159.047 21.8901 158.547 21.8701C158.067 21.8701 157.557 21.8701 157.017 21.8701C156.477 21.8701 155.967 21.8701 155.487 21.8701C155.007 21.8901 154.477 21.9201 153.897 21.9601ZM177.41 22.2301C176.05 22.2301 174.97 21.8201 174.17 21.0001C173.37 20.1801 172.97 19.1001 172.97 17.7601V12.2101C172.97 11.8501 172.95 11.5201 172.91 11.2201C172.89 10.9001 172.78 10.6501 172.58 10.4701C172.38 10.2701 172 10.1701 171.44 10.1701C171.26 10.1701 171.09 10.1501 170.93 10.1101C170.79 10.0501 170.72 9.87012 170.72 9.57012C170.72 9.27012 170.88 9.09012 171.2 9.03012C172.12 8.89012 172.82 8.75012 173.3 8.61012C173.8 8.47012 174.18 8.35012 174.44 8.25012C174.7 8.15012 174.93 8.09012 175.13 8.07012C175.29 8.05012 175.42 8.08012 175.52 8.16012C175.64 8.24012 175.7 8.40012 175.7 8.64012V17.7301C175.7 18.3901 175.84 18.9301 176.12 19.3501C176.42 19.7701 176.79 20.0801 177.23 20.2801C177.67 20.4801 178.12 20.5801 178.58 20.5801C179.28 20.5801 179.89 20.4601 180.41 20.2201C180.93 19.9601 181.35 19.6701 181.67 19.3501C181.99 19.0101 182.2 18.7301 182.3 18.5101V12.2101C182.3 11.8501 182.28 11.5201 182.24 11.2201C182.22 10.9001 182.11 10.6501 181.91 10.4701C181.71 10.2701 181.33 10.1701 180.77 10.1701C180.59 10.1701 180.42 10.1501 180.26 10.1101C180.12 10.0501 180.05 9.87012 180.05 9.57012C180.05 9.27012 180.21 9.09012 180.53 9.03012C181.45 8.89012 182.15 8.75012 182.63 8.61012C183.13 8.47012 183.51 8.35012 183.77 8.25012C184.03 8.15012 184.26 8.09012 184.46 8.07012C184.62 8.05012 184.75 8.08012 184.85 8.16012C184.97 8.24012 185.03 8.40012 185.03 8.64012V19.0201C185.03 20.2001 185.82 20.7901 187.4 20.7901C187.62 20.7901 187.76 20.8501 187.82 20.9701C187.88 21.0901 187.91 21.2201 187.91 21.3601C187.91 21.6401 187.74 21.8101 187.4 21.8701L182.57 22.2001C182.43 22.2001 182.35 22.1401 182.33 22.0201C182.31 21.9001 182.3 21.7601 182.3 21.6001V19.9201H182.24C181.86 20.2801 181.45 20.6401 181.01 21.0001C180.59 21.3601 180.09 21.6501 179.51 21.8701C178.95 22.1101 178.25 22.2301 177.41 22.2301ZM196.185 22.2301C194.645 22.2301 193.345 21.9001 192.285 21.2401C191.245 20.5801 190.465 19.7001 189.945 18.6001C189.425 17.5001 189.165 16.3001 189.165 15.0001C189.165 14.1201 189.315 13.2701 189.615 12.4501C189.935 11.6101 190.385 10.8501 190.965 10.1701C191.545 9.47012 192.245 8.92012 193.065 8.52012C193.885 8.12012 194.815 7.92012 195.855 7.92012C197.695 7.92012 199.075 8.40012 199.995 9.36012C200.935 10.3001 201.475 11.5001 201.615 12.9601C201.615 13.6601 201.415 14.1201 201.015 14.3401C200.635 14.5601 200.135 14.6701 199.515 14.6701H192.225C192.225 15.8301 192.385 16.8701 192.705 17.7901C193.025 18.6901 193.525 19.4101 194.205 19.9501C194.905 20.4701 195.825 20.7301 196.965 20.7301C197.805 20.7301 198.525 20.5501 199.125 20.1901C199.725 19.8301 200.305 19.2001 200.865 18.3001C201.025 18.1001 201.245 18.0901 201.525 18.2701C201.685 18.3501 201.785 18.4801 201.825 18.6601C201.865 18.8201 201.845 18.9601 201.765 19.0801C201.145 20.0601 200.365 20.8301 199.425 21.3901C198.485 21.9501 197.405 22.2301 196.185 22.2301ZM192.225 13.5301H197.115C197.595 13.5301 197.975 13.4401 198.255 13.2601C198.555 13.0601 198.715 12.7301 198.735 12.2701C198.735 11.4101 198.495 10.6501 198.015 9.99012C197.555 9.31012 196.835 8.97012 195.855 8.97012C194.855 8.97012 194.015 9.37012 193.335 10.1701C192.675 10.9701 192.305 12.0901 192.225 13.5301Z" fill="#4C4C4C"/>
</svg>
